G75*
%MOIN*%
%OFA0B0*%
%FSLAX25Y25*%
%IPPOS*%
%LPD*%
%AMOC8*
5,1,8,0,0,1.08239X$1,22.5*
%
%ADD10C,0.00700*%
%ADD11C,0.00600*%
%ADD12C,0.00500*%
%ADD13C,0.01000*%
%ADD14R,0.03000X0.15000*%
%ADD15C,0.02000*%
%ADD16R,0.01500X0.02000*%
%ADD17R,0.02000X0.01500*%
%ADD18C,0.00800*%
D10*
X0109402Y0049010D02*
X0113605Y0049010D01*
X0115847Y0049010D02*
X0117949Y0050061D01*
X0119000Y0050061D01*
X0120051Y0049010D01*
X0120051Y0046908D01*
X0119000Y0045857D01*
X0116898Y0045857D01*
X0115847Y0046908D01*
X0115847Y0049010D02*
X0115847Y0052162D01*
X0120051Y0052162D01*
X0122293Y0052162D02*
X0122293Y0047959D01*
X0124395Y0045857D01*
X0126496Y0047959D01*
X0126496Y0052162D01*
X0111504Y0051112D02*
X0111504Y0046908D01*
X0227512Y0049010D02*
X0231716Y0049010D01*
X0233958Y0049010D02*
X0233958Y0052162D01*
X0238161Y0052162D01*
X0240403Y0052162D02*
X0240403Y0047959D01*
X0242505Y0045857D01*
X0244607Y0047959D01*
X0244607Y0052162D01*
X0238161Y0049010D02*
X0238161Y0046908D01*
X0237110Y0045857D01*
X0235008Y0045857D01*
X0233958Y0046908D01*
X0233958Y0049010D02*
X0236059Y0050061D01*
X0237110Y0050061D01*
X0238161Y0049010D01*
X0229614Y0051112D02*
X0229614Y0046908D01*
D11*
X0245194Y0043759D02*
X0245194Y0038259D01*
X0245194Y0021259D01*
X0205194Y0021259D01*
X0205194Y0038259D01*
X0205194Y0043759D01*
X0245194Y0043759D01*
X0245194Y0038259D02*
X0205194Y0038259D01*
X0205194Y0021259D02*
X0205194Y0014259D01*
X0245194Y0014259D01*
X0245194Y0017759D01*
X0245194Y0021259D01*
X0247194Y0021759D01*
X0247194Y0017259D01*
X0245194Y0017759D01*
X0233094Y0017759D02*
X0233096Y0017848D01*
X0233102Y0017937D01*
X0233112Y0018026D01*
X0233126Y0018114D01*
X0233143Y0018201D01*
X0233165Y0018287D01*
X0233191Y0018373D01*
X0233220Y0018457D01*
X0233253Y0018540D01*
X0233289Y0018621D01*
X0233330Y0018701D01*
X0233373Y0018778D01*
X0233420Y0018854D01*
X0233471Y0018927D01*
X0233524Y0018998D01*
X0233581Y0019067D01*
X0233641Y0019133D01*
X0233704Y0019197D01*
X0233769Y0019257D01*
X0233837Y0019315D01*
X0233908Y0019369D01*
X0233981Y0019420D01*
X0234056Y0019468D01*
X0234133Y0019513D01*
X0234212Y0019554D01*
X0234293Y0019591D01*
X0234375Y0019625D01*
X0234459Y0019656D01*
X0234544Y0019682D01*
X0234630Y0019705D01*
X0234717Y0019723D01*
X0234805Y0019738D01*
X0234894Y0019749D01*
X0234983Y0019756D01*
X0235072Y0019759D01*
X0235161Y0019758D01*
X0235250Y0019753D01*
X0235338Y0019744D01*
X0235427Y0019731D01*
X0235514Y0019714D01*
X0235601Y0019694D01*
X0235687Y0019669D01*
X0235771Y0019641D01*
X0235854Y0019609D01*
X0235936Y0019573D01*
X0236016Y0019534D01*
X0236094Y0019491D01*
X0236170Y0019445D01*
X0236244Y0019395D01*
X0236316Y0019342D01*
X0236385Y0019286D01*
X0236452Y0019227D01*
X0236516Y0019165D01*
X0236577Y0019101D01*
X0236636Y0019033D01*
X0236691Y0018963D01*
X0236743Y0018891D01*
X0236792Y0018816D01*
X0236837Y0018740D01*
X0236879Y0018661D01*
X0236917Y0018581D01*
X0236952Y0018499D01*
X0236983Y0018415D01*
X0237011Y0018330D01*
X0237034Y0018244D01*
X0237054Y0018157D01*
X0237070Y0018070D01*
X0237082Y0017981D01*
X0237090Y0017893D01*
X0237094Y0017804D01*
X0237094Y0017714D01*
X0237090Y0017625D01*
X0237082Y0017537D01*
X0237070Y0017448D01*
X0237054Y0017361D01*
X0237034Y0017274D01*
X0237011Y0017188D01*
X0236983Y0017103D01*
X0236952Y0017019D01*
X0236917Y0016937D01*
X0236879Y0016857D01*
X0236837Y0016778D01*
X0236792Y0016702D01*
X0236743Y0016627D01*
X0236691Y0016555D01*
X0236636Y0016485D01*
X0236577Y0016417D01*
X0236516Y0016353D01*
X0236452Y0016291D01*
X0236385Y0016232D01*
X0236316Y0016176D01*
X0236244Y0016123D01*
X0236170Y0016073D01*
X0236094Y0016027D01*
X0236016Y0015984D01*
X0235936Y0015945D01*
X0235854Y0015909D01*
X0235771Y0015877D01*
X0235687Y0015849D01*
X0235601Y0015824D01*
X0235514Y0015804D01*
X0235427Y0015787D01*
X0235338Y0015774D01*
X0235250Y0015765D01*
X0235161Y0015760D01*
X0235072Y0015759D01*
X0234983Y0015762D01*
X0234894Y0015769D01*
X0234805Y0015780D01*
X0234717Y0015795D01*
X0234630Y0015813D01*
X0234544Y0015836D01*
X0234459Y0015862D01*
X0234375Y0015893D01*
X0234293Y0015927D01*
X0234212Y0015964D01*
X0234133Y0016005D01*
X0234056Y0016050D01*
X0233981Y0016098D01*
X0233908Y0016149D01*
X0233837Y0016203D01*
X0233769Y0016261D01*
X0233704Y0016321D01*
X0233641Y0016385D01*
X0233581Y0016451D01*
X0233524Y0016520D01*
X0233471Y0016591D01*
X0233420Y0016664D01*
X0233373Y0016740D01*
X0233330Y0016817D01*
X0233289Y0016897D01*
X0233253Y0016978D01*
X0233220Y0017061D01*
X0233191Y0017145D01*
X0233165Y0017231D01*
X0233143Y0017317D01*
X0233126Y0017404D01*
X0233112Y0017492D01*
X0233102Y0017581D01*
X0233096Y0017670D01*
X0233094Y0017759D01*
X0213294Y0017759D02*
X0213296Y0017848D01*
X0213302Y0017937D01*
X0213312Y0018026D01*
X0213326Y0018114D01*
X0213343Y0018201D01*
X0213365Y0018287D01*
X0213391Y0018373D01*
X0213420Y0018457D01*
X0213453Y0018540D01*
X0213489Y0018621D01*
X0213530Y0018701D01*
X0213573Y0018778D01*
X0213620Y0018854D01*
X0213671Y0018927D01*
X0213724Y0018998D01*
X0213781Y0019067D01*
X0213841Y0019133D01*
X0213904Y0019197D01*
X0213969Y0019257D01*
X0214037Y0019315D01*
X0214108Y0019369D01*
X0214181Y0019420D01*
X0214256Y0019468D01*
X0214333Y0019513D01*
X0214412Y0019554D01*
X0214493Y0019591D01*
X0214575Y0019625D01*
X0214659Y0019656D01*
X0214744Y0019682D01*
X0214830Y0019705D01*
X0214917Y0019723D01*
X0215005Y0019738D01*
X0215094Y0019749D01*
X0215183Y0019756D01*
X0215272Y0019759D01*
X0215361Y0019758D01*
X0215450Y0019753D01*
X0215538Y0019744D01*
X0215627Y0019731D01*
X0215714Y0019714D01*
X0215801Y0019694D01*
X0215887Y0019669D01*
X0215971Y0019641D01*
X0216054Y0019609D01*
X0216136Y0019573D01*
X0216216Y0019534D01*
X0216294Y0019491D01*
X0216370Y0019445D01*
X0216444Y0019395D01*
X0216516Y0019342D01*
X0216585Y0019286D01*
X0216652Y0019227D01*
X0216716Y0019165D01*
X0216777Y0019101D01*
X0216836Y0019033D01*
X0216891Y0018963D01*
X0216943Y0018891D01*
X0216992Y0018816D01*
X0217037Y0018740D01*
X0217079Y0018661D01*
X0217117Y0018581D01*
X0217152Y0018499D01*
X0217183Y0018415D01*
X0217211Y0018330D01*
X0217234Y0018244D01*
X0217254Y0018157D01*
X0217270Y0018070D01*
X0217282Y0017981D01*
X0217290Y0017893D01*
X0217294Y0017804D01*
X0217294Y0017714D01*
X0217290Y0017625D01*
X0217282Y0017537D01*
X0217270Y0017448D01*
X0217254Y0017361D01*
X0217234Y0017274D01*
X0217211Y0017188D01*
X0217183Y0017103D01*
X0217152Y0017019D01*
X0217117Y0016937D01*
X0217079Y0016857D01*
X0217037Y0016778D01*
X0216992Y0016702D01*
X0216943Y0016627D01*
X0216891Y0016555D01*
X0216836Y0016485D01*
X0216777Y0016417D01*
X0216716Y0016353D01*
X0216652Y0016291D01*
X0216585Y0016232D01*
X0216516Y0016176D01*
X0216444Y0016123D01*
X0216370Y0016073D01*
X0216294Y0016027D01*
X0216216Y0015984D01*
X0216136Y0015945D01*
X0216054Y0015909D01*
X0215971Y0015877D01*
X0215887Y0015849D01*
X0215801Y0015824D01*
X0215714Y0015804D01*
X0215627Y0015787D01*
X0215538Y0015774D01*
X0215450Y0015765D01*
X0215361Y0015760D01*
X0215272Y0015759D01*
X0215183Y0015762D01*
X0215094Y0015769D01*
X0215005Y0015780D01*
X0214917Y0015795D01*
X0214830Y0015813D01*
X0214744Y0015836D01*
X0214659Y0015862D01*
X0214575Y0015893D01*
X0214493Y0015927D01*
X0214412Y0015964D01*
X0214333Y0016005D01*
X0214256Y0016050D01*
X0214181Y0016098D01*
X0214108Y0016149D01*
X0214037Y0016203D01*
X0213969Y0016261D01*
X0213904Y0016321D01*
X0213841Y0016385D01*
X0213781Y0016451D01*
X0213724Y0016520D01*
X0213671Y0016591D01*
X0213620Y0016664D01*
X0213573Y0016740D01*
X0213530Y0016817D01*
X0213489Y0016897D01*
X0213453Y0016978D01*
X0213420Y0017061D01*
X0213391Y0017145D01*
X0213365Y0017231D01*
X0213343Y0017317D01*
X0213326Y0017404D01*
X0213312Y0017492D01*
X0213302Y0017581D01*
X0213296Y0017670D01*
X0213294Y0017759D01*
X0266375Y0058255D02*
X0266375Y0064255D01*
X0266377Y0064315D01*
X0266382Y0064376D01*
X0266391Y0064435D01*
X0266404Y0064494D01*
X0266420Y0064553D01*
X0266440Y0064610D01*
X0266463Y0064665D01*
X0266490Y0064720D01*
X0266519Y0064772D01*
X0266552Y0064823D01*
X0266588Y0064872D01*
X0266626Y0064918D01*
X0266668Y0064962D01*
X0266712Y0065004D01*
X0266758Y0065042D01*
X0266807Y0065078D01*
X0266858Y0065111D01*
X0266910Y0065140D01*
X0266965Y0065167D01*
X0267020Y0065190D01*
X0267077Y0065210D01*
X0267136Y0065226D01*
X0267195Y0065239D01*
X0267254Y0065248D01*
X0267315Y0065253D01*
X0267375Y0065255D01*
X0268875Y0065255D01*
X0269375Y0064755D01*
X0283375Y0064755D01*
X0283875Y0065255D01*
X0285375Y0065255D01*
X0285435Y0065253D01*
X0285496Y0065248D01*
X0285555Y0065239D01*
X0285614Y0065226D01*
X0285673Y0065210D01*
X0285730Y0065190D01*
X0285785Y0065167D01*
X0285840Y0065140D01*
X0285892Y0065111D01*
X0285943Y0065078D01*
X0285992Y0065042D01*
X0286038Y0065004D01*
X0286082Y0064962D01*
X0286124Y0064918D01*
X0286162Y0064872D01*
X0286198Y0064823D01*
X0286231Y0064772D01*
X0286260Y0064720D01*
X0286287Y0064665D01*
X0286310Y0064610D01*
X0286330Y0064553D01*
X0286346Y0064494D01*
X0286359Y0064435D01*
X0286368Y0064376D01*
X0286373Y0064315D01*
X0286375Y0064255D01*
X0286375Y0058255D01*
X0286373Y0058195D01*
X0286368Y0058134D01*
X0286359Y0058075D01*
X0286346Y0058016D01*
X0286330Y0057957D01*
X0286310Y0057900D01*
X0286287Y0057845D01*
X0286260Y0057790D01*
X0286231Y0057738D01*
X0286198Y0057687D01*
X0286162Y0057638D01*
X0286124Y0057592D01*
X0286082Y0057548D01*
X0286038Y0057506D01*
X0285992Y0057468D01*
X0285943Y0057432D01*
X0285892Y0057399D01*
X0285840Y0057370D01*
X0285785Y0057343D01*
X0285730Y0057320D01*
X0285673Y0057300D01*
X0285614Y0057284D01*
X0285555Y0057271D01*
X0285496Y0057262D01*
X0285435Y0057257D01*
X0285375Y0057255D01*
X0283875Y0057255D01*
X0283375Y0057755D01*
X0269375Y0057755D01*
X0268875Y0057255D01*
X0267375Y0057255D01*
X0267315Y0057257D01*
X0267254Y0057262D01*
X0267195Y0057271D01*
X0267136Y0057284D01*
X0267077Y0057300D01*
X0267020Y0057320D01*
X0266965Y0057343D01*
X0266910Y0057370D01*
X0266858Y0057399D01*
X0266807Y0057432D01*
X0266758Y0057468D01*
X0266712Y0057506D01*
X0266668Y0057548D01*
X0266626Y0057592D01*
X0266588Y0057638D01*
X0266552Y0057687D01*
X0266519Y0057738D01*
X0266490Y0057790D01*
X0266463Y0057845D01*
X0266440Y0057900D01*
X0266420Y0057957D01*
X0266404Y0058016D01*
X0266391Y0058075D01*
X0266382Y0058134D01*
X0266377Y0058195D01*
X0266375Y0058255D01*
X0267375Y0076940D02*
X0268875Y0076940D01*
X0269375Y0077440D01*
X0283375Y0077440D01*
X0283875Y0076940D01*
X0285375Y0076940D01*
X0285435Y0076942D01*
X0285496Y0076947D01*
X0285555Y0076956D01*
X0285614Y0076969D01*
X0285673Y0076985D01*
X0285730Y0077005D01*
X0285785Y0077028D01*
X0285840Y0077055D01*
X0285892Y0077084D01*
X0285943Y0077117D01*
X0285992Y0077153D01*
X0286038Y0077191D01*
X0286082Y0077233D01*
X0286124Y0077277D01*
X0286162Y0077323D01*
X0286198Y0077372D01*
X0286231Y0077423D01*
X0286260Y0077475D01*
X0286287Y0077530D01*
X0286310Y0077585D01*
X0286330Y0077642D01*
X0286346Y0077701D01*
X0286359Y0077760D01*
X0286368Y0077819D01*
X0286373Y0077880D01*
X0286375Y0077940D01*
X0286375Y0083940D01*
X0286373Y0084000D01*
X0286368Y0084061D01*
X0286359Y0084120D01*
X0286346Y0084179D01*
X0286330Y0084238D01*
X0286310Y0084295D01*
X0286287Y0084350D01*
X0286260Y0084405D01*
X0286231Y0084457D01*
X0286198Y0084508D01*
X0286162Y0084557D01*
X0286124Y0084603D01*
X0286082Y0084647D01*
X0286038Y0084689D01*
X0285992Y0084727D01*
X0285943Y0084763D01*
X0285892Y0084796D01*
X0285840Y0084825D01*
X0285785Y0084852D01*
X0285730Y0084875D01*
X0285673Y0084895D01*
X0285614Y0084911D01*
X0285555Y0084924D01*
X0285496Y0084933D01*
X0285435Y0084938D01*
X0285375Y0084940D01*
X0283875Y0084940D01*
X0283375Y0084440D01*
X0269375Y0084440D01*
X0268875Y0084940D01*
X0267375Y0084940D01*
X0267315Y0084938D01*
X0267254Y0084933D01*
X0267195Y0084924D01*
X0267136Y0084911D01*
X0267077Y0084895D01*
X0267020Y0084875D01*
X0266965Y0084852D01*
X0266910Y0084825D01*
X0266858Y0084796D01*
X0266807Y0084763D01*
X0266758Y0084727D01*
X0266712Y0084689D01*
X0266668Y0084647D01*
X0266626Y0084603D01*
X0266588Y0084557D01*
X0266552Y0084508D01*
X0266519Y0084457D01*
X0266490Y0084405D01*
X0266463Y0084350D01*
X0266440Y0084295D01*
X0266420Y0084238D01*
X0266404Y0084179D01*
X0266391Y0084120D01*
X0266382Y0084061D01*
X0266377Y0084000D01*
X0266375Y0083940D01*
X0266375Y0077940D01*
X0266377Y0077880D01*
X0266382Y0077819D01*
X0266391Y0077760D01*
X0266404Y0077701D01*
X0266420Y0077642D01*
X0266440Y0077585D01*
X0266463Y0077530D01*
X0266490Y0077475D01*
X0266519Y0077423D01*
X0266552Y0077372D01*
X0266588Y0077323D01*
X0266626Y0077277D01*
X0266668Y0077233D01*
X0266712Y0077191D01*
X0266758Y0077153D01*
X0266807Y0077117D01*
X0266858Y0077084D01*
X0266910Y0077055D01*
X0266965Y0077028D01*
X0267020Y0077005D01*
X0267077Y0076985D01*
X0267136Y0076969D01*
X0267195Y0076956D01*
X0267254Y0076947D01*
X0267315Y0076942D01*
X0267375Y0076940D01*
X0267375Y0092688D02*
X0268875Y0092688D01*
X0269375Y0093188D01*
X0283375Y0093188D01*
X0283875Y0092688D01*
X0285375Y0092688D01*
X0285435Y0092690D01*
X0285496Y0092695D01*
X0285555Y0092704D01*
X0285614Y0092717D01*
X0285673Y0092733D01*
X0285730Y0092753D01*
X0285785Y0092776D01*
X0285840Y0092803D01*
X0285892Y0092832D01*
X0285943Y0092865D01*
X0285992Y0092901D01*
X0286038Y0092939D01*
X0286082Y0092981D01*
X0286124Y0093025D01*
X0286162Y0093071D01*
X0286198Y0093120D01*
X0286231Y0093171D01*
X0286260Y0093223D01*
X0286287Y0093278D01*
X0286310Y0093333D01*
X0286330Y0093390D01*
X0286346Y0093449D01*
X0286359Y0093508D01*
X0286368Y0093567D01*
X0286373Y0093628D01*
X0286375Y0093688D01*
X0286375Y0099688D01*
X0286373Y0099748D01*
X0286368Y0099809D01*
X0286359Y0099868D01*
X0286346Y0099927D01*
X0286330Y0099986D01*
X0286310Y0100043D01*
X0286287Y0100098D01*
X0286260Y0100153D01*
X0286231Y0100205D01*
X0286198Y0100256D01*
X0286162Y0100305D01*
X0286124Y0100351D01*
X0286082Y0100395D01*
X0286038Y0100437D01*
X0285992Y0100475D01*
X0285943Y0100511D01*
X0285892Y0100544D01*
X0285840Y0100573D01*
X0285785Y0100600D01*
X0285730Y0100623D01*
X0285673Y0100643D01*
X0285614Y0100659D01*
X0285555Y0100672D01*
X0285496Y0100681D01*
X0285435Y0100686D01*
X0285375Y0100688D01*
X0283875Y0100688D01*
X0283375Y0100188D01*
X0269375Y0100188D01*
X0268875Y0100688D01*
X0267375Y0100688D01*
X0267315Y0100686D01*
X0267254Y0100681D01*
X0267195Y0100672D01*
X0267136Y0100659D01*
X0267077Y0100643D01*
X0267020Y0100623D01*
X0266965Y0100600D01*
X0266910Y0100573D01*
X0266858Y0100544D01*
X0266807Y0100511D01*
X0266758Y0100475D01*
X0266712Y0100437D01*
X0266668Y0100395D01*
X0266626Y0100351D01*
X0266588Y0100305D01*
X0266552Y0100256D01*
X0266519Y0100205D01*
X0266490Y0100153D01*
X0266463Y0100098D01*
X0266440Y0100043D01*
X0266420Y0099986D01*
X0266404Y0099927D01*
X0266391Y0099868D01*
X0266382Y0099809D01*
X0266377Y0099748D01*
X0266375Y0099688D01*
X0266375Y0093688D01*
X0266377Y0093628D01*
X0266382Y0093567D01*
X0266391Y0093508D01*
X0266404Y0093449D01*
X0266420Y0093390D01*
X0266440Y0093333D01*
X0266463Y0093278D01*
X0266490Y0093223D01*
X0266519Y0093171D01*
X0266552Y0093120D01*
X0266588Y0093071D01*
X0266626Y0093025D01*
X0266668Y0092981D01*
X0266712Y0092939D01*
X0266758Y0092901D01*
X0266807Y0092865D01*
X0266858Y0092832D01*
X0266910Y0092803D01*
X0266965Y0092776D01*
X0267020Y0092753D01*
X0267077Y0092733D01*
X0267136Y0092717D01*
X0267195Y0092704D01*
X0267254Y0092695D01*
X0267315Y0092690D01*
X0267375Y0092688D01*
X0267375Y0112373D02*
X0268875Y0112373D01*
X0269375Y0112873D01*
X0283375Y0112873D01*
X0283875Y0112373D01*
X0285375Y0112373D01*
X0285435Y0112375D01*
X0285496Y0112380D01*
X0285555Y0112389D01*
X0285614Y0112402D01*
X0285673Y0112418D01*
X0285730Y0112438D01*
X0285785Y0112461D01*
X0285840Y0112488D01*
X0285892Y0112517D01*
X0285943Y0112550D01*
X0285992Y0112586D01*
X0286038Y0112624D01*
X0286082Y0112666D01*
X0286124Y0112710D01*
X0286162Y0112756D01*
X0286198Y0112805D01*
X0286231Y0112856D01*
X0286260Y0112908D01*
X0286287Y0112963D01*
X0286310Y0113018D01*
X0286330Y0113075D01*
X0286346Y0113134D01*
X0286359Y0113193D01*
X0286368Y0113252D01*
X0286373Y0113313D01*
X0286375Y0113373D01*
X0286375Y0119373D01*
X0286373Y0119433D01*
X0286368Y0119494D01*
X0286359Y0119553D01*
X0286346Y0119612D01*
X0286330Y0119671D01*
X0286310Y0119728D01*
X0286287Y0119783D01*
X0286260Y0119838D01*
X0286231Y0119890D01*
X0286198Y0119941D01*
X0286162Y0119990D01*
X0286124Y0120036D01*
X0286082Y0120080D01*
X0286038Y0120122D01*
X0285992Y0120160D01*
X0285943Y0120196D01*
X0285892Y0120229D01*
X0285840Y0120258D01*
X0285785Y0120285D01*
X0285730Y0120308D01*
X0285673Y0120328D01*
X0285614Y0120344D01*
X0285555Y0120357D01*
X0285496Y0120366D01*
X0285435Y0120371D01*
X0285375Y0120373D01*
X0283875Y0120373D01*
X0283375Y0119873D01*
X0269375Y0119873D01*
X0268875Y0120373D01*
X0267375Y0120373D01*
X0267315Y0120371D01*
X0267254Y0120366D01*
X0267195Y0120357D01*
X0267136Y0120344D01*
X0267077Y0120328D01*
X0267020Y0120308D01*
X0266965Y0120285D01*
X0266910Y0120258D01*
X0266858Y0120229D01*
X0266807Y0120196D01*
X0266758Y0120160D01*
X0266712Y0120122D01*
X0266668Y0120080D01*
X0266626Y0120036D01*
X0266588Y0119990D01*
X0266552Y0119941D01*
X0266519Y0119890D01*
X0266490Y0119838D01*
X0266463Y0119783D01*
X0266440Y0119728D01*
X0266420Y0119671D01*
X0266404Y0119612D01*
X0266391Y0119553D01*
X0266382Y0119494D01*
X0266377Y0119433D01*
X0266375Y0119373D01*
X0266375Y0113373D01*
X0266377Y0113313D01*
X0266382Y0113252D01*
X0266391Y0113193D01*
X0266404Y0113134D01*
X0266420Y0113075D01*
X0266440Y0113018D01*
X0266463Y0112963D01*
X0266490Y0112908D01*
X0266519Y0112856D01*
X0266552Y0112805D01*
X0266588Y0112756D01*
X0266626Y0112710D01*
X0266668Y0112666D01*
X0266712Y0112624D01*
X0266758Y0112586D01*
X0266807Y0112550D01*
X0266858Y0112517D01*
X0266910Y0112488D01*
X0266965Y0112461D01*
X0267020Y0112438D01*
X0267077Y0112418D01*
X0267136Y0112402D01*
X0267195Y0112389D01*
X0267254Y0112380D01*
X0267315Y0112375D01*
X0267375Y0112373D01*
X0264875Y0139680D02*
X0272375Y0139680D01*
X0272377Y0139806D01*
X0272383Y0139931D01*
X0272393Y0140056D01*
X0272407Y0140181D01*
X0272424Y0140306D01*
X0272446Y0140430D01*
X0272471Y0140553D01*
X0272501Y0140675D01*
X0272534Y0140796D01*
X0272571Y0140916D01*
X0272611Y0141035D01*
X0272656Y0141152D01*
X0272704Y0141269D01*
X0272756Y0141383D01*
X0272811Y0141496D01*
X0272870Y0141607D01*
X0272932Y0141716D01*
X0272998Y0141823D01*
X0273067Y0141928D01*
X0273139Y0142031D01*
X0273214Y0142132D01*
X0273293Y0142230D01*
X0273375Y0142325D01*
X0273459Y0142418D01*
X0273547Y0142508D01*
X0273637Y0142596D01*
X0273730Y0142680D01*
X0273825Y0142762D01*
X0273923Y0142841D01*
X0274024Y0142916D01*
X0274127Y0142988D01*
X0274232Y0143057D01*
X0274339Y0143123D01*
X0274448Y0143185D01*
X0274559Y0143244D01*
X0274672Y0143299D01*
X0274786Y0143351D01*
X0274903Y0143399D01*
X0275020Y0143444D01*
X0275139Y0143484D01*
X0275259Y0143521D01*
X0275380Y0143554D01*
X0275502Y0143584D01*
X0275625Y0143609D01*
X0275749Y0143631D01*
X0275874Y0143648D01*
X0275999Y0143662D01*
X0276124Y0143672D01*
X0276249Y0143678D01*
X0276375Y0143680D01*
X0276501Y0143678D01*
X0276626Y0143672D01*
X0276751Y0143662D01*
X0276876Y0143648D01*
X0277001Y0143631D01*
X0277125Y0143609D01*
X0277248Y0143584D01*
X0277370Y0143554D01*
X0277491Y0143521D01*
X0277611Y0143484D01*
X0277730Y0143444D01*
X0277847Y0143399D01*
X0277964Y0143351D01*
X0278078Y0143299D01*
X0278191Y0143244D01*
X0278302Y0143185D01*
X0278411Y0143123D01*
X0278518Y0143057D01*
X0278623Y0142988D01*
X0278726Y0142916D01*
X0278827Y0142841D01*
X0278925Y0142762D01*
X0279020Y0142680D01*
X0279113Y0142596D01*
X0279203Y0142508D01*
X0279291Y0142418D01*
X0279375Y0142325D01*
X0279457Y0142230D01*
X0279536Y0142132D01*
X0279611Y0142031D01*
X0279683Y0141928D01*
X0279752Y0141823D01*
X0279818Y0141716D01*
X0279880Y0141607D01*
X0279939Y0141496D01*
X0279994Y0141383D01*
X0280046Y0141269D01*
X0280094Y0141152D01*
X0280139Y0141035D01*
X0280179Y0140916D01*
X0280216Y0140796D01*
X0280249Y0140675D01*
X0280279Y0140553D01*
X0280304Y0140430D01*
X0280326Y0140306D01*
X0280343Y0140181D01*
X0280357Y0140056D01*
X0280367Y0139931D01*
X0280373Y0139806D01*
X0280375Y0139680D01*
X0287875Y0139680D01*
X0287875Y0179680D01*
X0264875Y0179680D01*
X0264875Y0139680D01*
X0246753Y0154617D02*
X0246753Y0156117D01*
X0246253Y0156617D01*
X0246253Y0170617D01*
X0246753Y0171117D01*
X0246753Y0172617D01*
X0246751Y0172677D01*
X0246746Y0172738D01*
X0246737Y0172797D01*
X0246724Y0172856D01*
X0246708Y0172915D01*
X0246688Y0172972D01*
X0246665Y0173027D01*
X0246638Y0173082D01*
X0246609Y0173134D01*
X0246576Y0173185D01*
X0246540Y0173234D01*
X0246502Y0173280D01*
X0246460Y0173324D01*
X0246416Y0173366D01*
X0246370Y0173404D01*
X0246321Y0173440D01*
X0246270Y0173473D01*
X0246218Y0173502D01*
X0246163Y0173529D01*
X0246108Y0173552D01*
X0246051Y0173572D01*
X0245992Y0173588D01*
X0245933Y0173601D01*
X0245874Y0173610D01*
X0245813Y0173615D01*
X0245753Y0173617D01*
X0239753Y0173617D01*
X0239693Y0173615D01*
X0239632Y0173610D01*
X0239573Y0173601D01*
X0239514Y0173588D01*
X0239455Y0173572D01*
X0239398Y0173552D01*
X0239343Y0173529D01*
X0239288Y0173502D01*
X0239236Y0173473D01*
X0239185Y0173440D01*
X0239136Y0173404D01*
X0239090Y0173366D01*
X0239046Y0173324D01*
X0239004Y0173280D01*
X0238966Y0173234D01*
X0238930Y0173185D01*
X0238897Y0173134D01*
X0238868Y0173082D01*
X0238841Y0173027D01*
X0238818Y0172972D01*
X0238798Y0172915D01*
X0238782Y0172856D01*
X0238769Y0172797D01*
X0238760Y0172738D01*
X0238755Y0172677D01*
X0238753Y0172617D01*
X0238753Y0171117D01*
X0239253Y0170617D01*
X0239253Y0156617D01*
X0238753Y0156117D01*
X0238753Y0154617D01*
X0238755Y0154557D01*
X0238760Y0154496D01*
X0238769Y0154437D01*
X0238782Y0154378D01*
X0238798Y0154319D01*
X0238818Y0154262D01*
X0238841Y0154207D01*
X0238868Y0154152D01*
X0238897Y0154100D01*
X0238930Y0154049D01*
X0238966Y0154000D01*
X0239004Y0153954D01*
X0239046Y0153910D01*
X0239090Y0153868D01*
X0239136Y0153830D01*
X0239185Y0153794D01*
X0239236Y0153761D01*
X0239288Y0153732D01*
X0239343Y0153705D01*
X0239398Y0153682D01*
X0239455Y0153662D01*
X0239514Y0153646D01*
X0239573Y0153633D01*
X0239632Y0153624D01*
X0239693Y0153619D01*
X0239753Y0153617D01*
X0245753Y0153617D01*
X0245813Y0153619D01*
X0245874Y0153624D01*
X0245933Y0153633D01*
X0245992Y0153646D01*
X0246051Y0153662D01*
X0246108Y0153682D01*
X0246163Y0153705D01*
X0246218Y0153732D01*
X0246270Y0153761D01*
X0246321Y0153794D01*
X0246370Y0153830D01*
X0246416Y0153868D01*
X0246460Y0153910D01*
X0246502Y0153954D01*
X0246540Y0154000D01*
X0246576Y0154049D01*
X0246609Y0154100D01*
X0246638Y0154152D01*
X0246665Y0154207D01*
X0246688Y0154262D01*
X0246708Y0154319D01*
X0246724Y0154378D01*
X0246737Y0154437D01*
X0246746Y0154496D01*
X0246751Y0154557D01*
X0246753Y0154617D01*
X0229642Y0152117D02*
X0229642Y0159617D01*
X0229516Y0159619D01*
X0229391Y0159625D01*
X0229266Y0159635D01*
X0229141Y0159649D01*
X0229016Y0159666D01*
X0228892Y0159688D01*
X0228769Y0159713D01*
X0228647Y0159743D01*
X0228526Y0159776D01*
X0228406Y0159813D01*
X0228287Y0159853D01*
X0228170Y0159898D01*
X0228053Y0159946D01*
X0227939Y0159998D01*
X0227826Y0160053D01*
X0227715Y0160112D01*
X0227606Y0160174D01*
X0227499Y0160240D01*
X0227394Y0160309D01*
X0227291Y0160381D01*
X0227190Y0160456D01*
X0227092Y0160535D01*
X0226997Y0160617D01*
X0226904Y0160701D01*
X0226814Y0160789D01*
X0226726Y0160879D01*
X0226642Y0160972D01*
X0226560Y0161067D01*
X0226481Y0161165D01*
X0226406Y0161266D01*
X0226334Y0161369D01*
X0226265Y0161474D01*
X0226199Y0161581D01*
X0226137Y0161690D01*
X0226078Y0161801D01*
X0226023Y0161914D01*
X0225971Y0162028D01*
X0225923Y0162145D01*
X0225878Y0162262D01*
X0225838Y0162381D01*
X0225801Y0162501D01*
X0225768Y0162622D01*
X0225738Y0162744D01*
X0225713Y0162867D01*
X0225691Y0162991D01*
X0225674Y0163116D01*
X0225660Y0163241D01*
X0225650Y0163366D01*
X0225644Y0163491D01*
X0225642Y0163617D01*
X0225644Y0163743D01*
X0225650Y0163868D01*
X0225660Y0163993D01*
X0225674Y0164118D01*
X0225691Y0164243D01*
X0225713Y0164367D01*
X0225738Y0164490D01*
X0225768Y0164612D01*
X0225801Y0164733D01*
X0225838Y0164853D01*
X0225878Y0164972D01*
X0225923Y0165089D01*
X0225971Y0165206D01*
X0226023Y0165320D01*
X0226078Y0165433D01*
X0226137Y0165544D01*
X0226199Y0165653D01*
X0226265Y0165760D01*
X0226334Y0165865D01*
X0226406Y0165968D01*
X0226481Y0166069D01*
X0226560Y0166167D01*
X0226642Y0166262D01*
X0226726Y0166355D01*
X0226814Y0166445D01*
X0226904Y0166533D01*
X0226997Y0166617D01*
X0227092Y0166699D01*
X0227190Y0166778D01*
X0227291Y0166853D01*
X0227394Y0166925D01*
X0227499Y0166994D01*
X0227606Y0167060D01*
X0227715Y0167122D01*
X0227826Y0167181D01*
X0227939Y0167236D01*
X0228053Y0167288D01*
X0228170Y0167336D01*
X0228287Y0167381D01*
X0228406Y0167421D01*
X0228526Y0167458D01*
X0228647Y0167491D01*
X0228769Y0167521D01*
X0228892Y0167546D01*
X0229016Y0167568D01*
X0229141Y0167585D01*
X0229266Y0167599D01*
X0229391Y0167609D01*
X0229516Y0167615D01*
X0229642Y0167617D01*
X0229642Y0175117D01*
X0189642Y0175117D01*
X0189642Y0152117D01*
X0229642Y0152117D01*
X0179981Y0154617D02*
X0179981Y0156117D01*
X0179481Y0156617D01*
X0179481Y0170617D01*
X0179981Y0171117D01*
X0179981Y0172617D01*
X0179979Y0172677D01*
X0179974Y0172738D01*
X0179965Y0172797D01*
X0179952Y0172856D01*
X0179936Y0172915D01*
X0179916Y0172972D01*
X0179893Y0173027D01*
X0179866Y0173082D01*
X0179837Y0173134D01*
X0179804Y0173185D01*
X0179768Y0173234D01*
X0179730Y0173280D01*
X0179688Y0173324D01*
X0179644Y0173366D01*
X0179598Y0173404D01*
X0179549Y0173440D01*
X0179498Y0173473D01*
X0179446Y0173502D01*
X0179391Y0173529D01*
X0179336Y0173552D01*
X0179279Y0173572D01*
X0179220Y0173588D01*
X0179161Y0173601D01*
X0179102Y0173610D01*
X0179041Y0173615D01*
X0178981Y0173617D01*
X0172981Y0173617D01*
X0172921Y0173615D01*
X0172860Y0173610D01*
X0172801Y0173601D01*
X0172742Y0173588D01*
X0172683Y0173572D01*
X0172626Y0173552D01*
X0172571Y0173529D01*
X0172516Y0173502D01*
X0172464Y0173473D01*
X0172413Y0173440D01*
X0172364Y0173404D01*
X0172318Y0173366D01*
X0172274Y0173324D01*
X0172232Y0173280D01*
X0172194Y0173234D01*
X0172158Y0173185D01*
X0172125Y0173134D01*
X0172096Y0173082D01*
X0172069Y0173027D01*
X0172046Y0172972D01*
X0172026Y0172915D01*
X0172010Y0172856D01*
X0171997Y0172797D01*
X0171988Y0172738D01*
X0171983Y0172677D01*
X0171981Y0172617D01*
X0171981Y0171117D01*
X0172481Y0170617D01*
X0172481Y0156617D01*
X0171981Y0156117D01*
X0171981Y0154617D01*
X0171983Y0154557D01*
X0171988Y0154496D01*
X0171997Y0154437D01*
X0172010Y0154378D01*
X0172026Y0154319D01*
X0172046Y0154262D01*
X0172069Y0154207D01*
X0172096Y0154152D01*
X0172125Y0154100D01*
X0172158Y0154049D01*
X0172194Y0154000D01*
X0172232Y0153954D01*
X0172274Y0153910D01*
X0172318Y0153868D01*
X0172364Y0153830D01*
X0172413Y0153794D01*
X0172464Y0153761D01*
X0172516Y0153732D01*
X0172571Y0153705D01*
X0172626Y0153682D01*
X0172683Y0153662D01*
X0172742Y0153646D01*
X0172801Y0153633D01*
X0172860Y0153624D01*
X0172921Y0153619D01*
X0172981Y0153617D01*
X0178981Y0153617D01*
X0179041Y0153619D01*
X0179102Y0153624D01*
X0179161Y0153633D01*
X0179220Y0153646D01*
X0179279Y0153662D01*
X0179336Y0153682D01*
X0179391Y0153705D01*
X0179446Y0153732D01*
X0179498Y0153761D01*
X0179549Y0153794D01*
X0179598Y0153830D01*
X0179644Y0153868D01*
X0179688Y0153910D01*
X0179730Y0153954D01*
X0179768Y0154000D01*
X0179804Y0154049D01*
X0179837Y0154100D01*
X0179866Y0154152D01*
X0179893Y0154207D01*
X0179916Y0154262D01*
X0179936Y0154319D01*
X0179952Y0154378D01*
X0179965Y0154437D01*
X0179974Y0154496D01*
X0179979Y0154557D01*
X0179981Y0154617D01*
X0160296Y0154617D02*
X0160296Y0156117D01*
X0159796Y0156617D01*
X0159796Y0170617D01*
X0160296Y0171117D01*
X0160296Y0172617D01*
X0160294Y0172677D01*
X0160289Y0172738D01*
X0160280Y0172797D01*
X0160267Y0172856D01*
X0160251Y0172915D01*
X0160231Y0172972D01*
X0160208Y0173027D01*
X0160181Y0173082D01*
X0160152Y0173134D01*
X0160119Y0173185D01*
X0160083Y0173234D01*
X0160045Y0173280D01*
X0160003Y0173324D01*
X0159959Y0173366D01*
X0159913Y0173404D01*
X0159864Y0173440D01*
X0159813Y0173473D01*
X0159761Y0173502D01*
X0159706Y0173529D01*
X0159651Y0173552D01*
X0159594Y0173572D01*
X0159535Y0173588D01*
X0159476Y0173601D01*
X0159417Y0173610D01*
X0159356Y0173615D01*
X0159296Y0173617D01*
X0153296Y0173617D01*
X0153236Y0173615D01*
X0153175Y0173610D01*
X0153116Y0173601D01*
X0153057Y0173588D01*
X0152998Y0173572D01*
X0152941Y0173552D01*
X0152886Y0173529D01*
X0152831Y0173502D01*
X0152779Y0173473D01*
X0152728Y0173440D01*
X0152679Y0173404D01*
X0152633Y0173366D01*
X0152589Y0173324D01*
X0152547Y0173280D01*
X0152509Y0173234D01*
X0152473Y0173185D01*
X0152440Y0173134D01*
X0152411Y0173082D01*
X0152384Y0173027D01*
X0152361Y0172972D01*
X0152341Y0172915D01*
X0152325Y0172856D01*
X0152312Y0172797D01*
X0152303Y0172738D01*
X0152298Y0172677D01*
X0152296Y0172617D01*
X0152296Y0171117D01*
X0152796Y0170617D01*
X0152796Y0156617D01*
X0152296Y0156117D01*
X0152296Y0154617D01*
X0152298Y0154557D01*
X0152303Y0154496D01*
X0152312Y0154437D01*
X0152325Y0154378D01*
X0152341Y0154319D01*
X0152361Y0154262D01*
X0152384Y0154207D01*
X0152411Y0154152D01*
X0152440Y0154100D01*
X0152473Y0154049D01*
X0152509Y0154000D01*
X0152547Y0153954D01*
X0152589Y0153910D01*
X0152633Y0153868D01*
X0152679Y0153830D01*
X0152728Y0153794D01*
X0152779Y0153761D01*
X0152831Y0153732D01*
X0152886Y0153705D01*
X0152941Y0153682D01*
X0152998Y0153662D01*
X0153057Y0153646D01*
X0153116Y0153633D01*
X0153175Y0153624D01*
X0153236Y0153619D01*
X0153296Y0153617D01*
X0159296Y0153617D01*
X0159356Y0153619D01*
X0159417Y0153624D01*
X0159476Y0153633D01*
X0159535Y0153646D01*
X0159594Y0153662D01*
X0159651Y0153682D01*
X0159706Y0153705D01*
X0159761Y0153732D01*
X0159813Y0153761D01*
X0159864Y0153794D01*
X0159913Y0153830D01*
X0159959Y0153868D01*
X0160003Y0153910D01*
X0160045Y0153954D01*
X0160083Y0154000D01*
X0160119Y0154049D01*
X0160152Y0154100D01*
X0160181Y0154152D01*
X0160208Y0154207D01*
X0160231Y0154262D01*
X0160251Y0154319D01*
X0160267Y0154378D01*
X0160280Y0154437D01*
X0160289Y0154496D01*
X0160294Y0154557D01*
X0160296Y0154617D01*
X0142831Y0152117D02*
X0142831Y0159617D01*
X0142705Y0159619D01*
X0142580Y0159625D01*
X0142455Y0159635D01*
X0142330Y0159649D01*
X0142205Y0159666D01*
X0142081Y0159688D01*
X0141958Y0159713D01*
X0141836Y0159743D01*
X0141715Y0159776D01*
X0141595Y0159813D01*
X0141476Y0159853D01*
X0141359Y0159898D01*
X0141242Y0159946D01*
X0141128Y0159998D01*
X0141015Y0160053D01*
X0140904Y0160112D01*
X0140795Y0160174D01*
X0140688Y0160240D01*
X0140583Y0160309D01*
X0140480Y0160381D01*
X0140379Y0160456D01*
X0140281Y0160535D01*
X0140186Y0160617D01*
X0140093Y0160701D01*
X0140003Y0160789D01*
X0139915Y0160879D01*
X0139831Y0160972D01*
X0139749Y0161067D01*
X0139670Y0161165D01*
X0139595Y0161266D01*
X0139523Y0161369D01*
X0139454Y0161474D01*
X0139388Y0161581D01*
X0139326Y0161690D01*
X0139267Y0161801D01*
X0139212Y0161914D01*
X0139160Y0162028D01*
X0139112Y0162145D01*
X0139067Y0162262D01*
X0139027Y0162381D01*
X0138990Y0162501D01*
X0138957Y0162622D01*
X0138927Y0162744D01*
X0138902Y0162867D01*
X0138880Y0162991D01*
X0138863Y0163116D01*
X0138849Y0163241D01*
X0138839Y0163366D01*
X0138833Y0163491D01*
X0138831Y0163617D01*
X0138833Y0163743D01*
X0138839Y0163868D01*
X0138849Y0163993D01*
X0138863Y0164118D01*
X0138880Y0164243D01*
X0138902Y0164367D01*
X0138927Y0164490D01*
X0138957Y0164612D01*
X0138990Y0164733D01*
X0139027Y0164853D01*
X0139067Y0164972D01*
X0139112Y0165089D01*
X0139160Y0165206D01*
X0139212Y0165320D01*
X0139267Y0165433D01*
X0139326Y0165544D01*
X0139388Y0165653D01*
X0139454Y0165760D01*
X0139523Y0165865D01*
X0139595Y0165968D01*
X0139670Y0166069D01*
X0139749Y0166167D01*
X0139831Y0166262D01*
X0139915Y0166355D01*
X0140003Y0166445D01*
X0140093Y0166533D01*
X0140186Y0166617D01*
X0140281Y0166699D01*
X0140379Y0166778D01*
X0140480Y0166853D01*
X0140583Y0166925D01*
X0140688Y0166994D01*
X0140795Y0167060D01*
X0140904Y0167122D01*
X0141015Y0167181D01*
X0141128Y0167236D01*
X0141242Y0167288D01*
X0141359Y0167336D01*
X0141476Y0167381D01*
X0141595Y0167421D01*
X0141715Y0167458D01*
X0141836Y0167491D01*
X0141958Y0167521D01*
X0142081Y0167546D01*
X0142205Y0167568D01*
X0142330Y0167585D01*
X0142455Y0167599D01*
X0142580Y0167609D01*
X0142705Y0167615D01*
X0142831Y0167617D01*
X0142831Y0175117D01*
X0102831Y0175117D01*
X0102831Y0152117D01*
X0142831Y0152117D01*
X0143516Y0130763D02*
X0143516Y0129184D01*
X0149016Y0128558D02*
X0149016Y0112062D01*
X0143516Y0111436D02*
X0143516Y0109857D01*
X0143516Y0103204D02*
X0143516Y0101625D01*
X0149016Y0100999D02*
X0149016Y0084503D01*
X0143516Y0083877D02*
X0143516Y0082298D01*
X0143516Y0075645D02*
X0143516Y0074066D01*
X0149016Y0073440D02*
X0149016Y0056944D01*
X0143516Y0056318D02*
X0143516Y0054739D01*
X0143516Y0064066D02*
X0143516Y0066318D01*
X0149016Y0073440D02*
X0148814Y0073595D01*
X0148609Y0073745D01*
X0148400Y0073891D01*
X0148187Y0074031D01*
X0147971Y0074165D01*
X0147752Y0074295D01*
X0147530Y0074419D01*
X0147305Y0074538D01*
X0147077Y0074651D01*
X0146847Y0074759D01*
X0146614Y0074861D01*
X0146378Y0074958D01*
X0146140Y0075049D01*
X0145901Y0075134D01*
X0145659Y0075213D01*
X0145415Y0075286D01*
X0145170Y0075353D01*
X0144923Y0075414D01*
X0144674Y0075470D01*
X0144424Y0075519D01*
X0144174Y0075562D01*
X0143922Y0075599D01*
X0143669Y0075630D01*
X0143416Y0075655D01*
X0143162Y0075674D01*
X0142908Y0075687D01*
X0142654Y0075693D01*
X0142399Y0075693D01*
X0142145Y0075687D01*
X0141890Y0075675D01*
X0141637Y0075657D01*
X0141383Y0075633D01*
X0141131Y0075602D01*
X0140879Y0075566D01*
X0140628Y0075523D01*
X0140378Y0075474D01*
X0140130Y0075419D01*
X0139883Y0075358D01*
X0139637Y0075292D01*
X0139393Y0075219D01*
X0139151Y0075140D01*
X0138911Y0075056D01*
X0138673Y0074965D01*
X0138437Y0074869D01*
X0138204Y0074768D01*
X0137973Y0074660D01*
X0137745Y0074548D01*
X0137520Y0074429D01*
X0137298Y0074305D01*
X0137078Y0074176D01*
X0136862Y0074042D01*
X0136649Y0073902D01*
X0136440Y0073757D01*
X0136234Y0073608D01*
X0136032Y0073453D01*
X0135834Y0073293D01*
X0135640Y0073129D01*
X0135449Y0072960D01*
X0135263Y0072787D01*
X0135081Y0072609D01*
X0134904Y0072426D01*
X0134731Y0072240D01*
X0134562Y0072049D01*
X0134398Y0071854D01*
X0134239Y0071655D01*
X0134085Y0071453D01*
X0133936Y0071247D01*
X0133792Y0071037D01*
X0133653Y0070824D01*
X0133519Y0070607D01*
X0133390Y0070388D01*
X0133267Y0070165D01*
X0133150Y0069939D01*
X0133037Y0069711D01*
X0132931Y0069480D01*
X0132829Y0069246D01*
X0132734Y0069010D01*
X0132645Y0068772D01*
X0132561Y0068532D01*
X0132483Y0068290D01*
X0132483Y0062096D02*
X0132561Y0061854D01*
X0132644Y0061614D01*
X0132734Y0061376D01*
X0132829Y0061140D01*
X0132931Y0060906D01*
X0133037Y0060675D01*
X0133149Y0060447D01*
X0133267Y0060221D01*
X0133390Y0059998D01*
X0133519Y0059779D01*
X0133653Y0059562D01*
X0133792Y0059349D01*
X0133936Y0059139D01*
X0134085Y0058933D01*
X0134239Y0058731D01*
X0134398Y0058532D01*
X0134562Y0058337D01*
X0134731Y0058147D01*
X0134904Y0057960D01*
X0135081Y0057778D01*
X0135263Y0057600D01*
X0135449Y0057426D01*
X0135640Y0057257D01*
X0135834Y0057093D01*
X0136032Y0056933D01*
X0136234Y0056778D01*
X0136440Y0056629D01*
X0136649Y0056484D01*
X0136862Y0056344D01*
X0137078Y0056210D01*
X0137297Y0056081D01*
X0137520Y0055957D01*
X0137745Y0055839D01*
X0137973Y0055726D01*
X0138204Y0055618D01*
X0138437Y0055517D01*
X0138673Y0055421D01*
X0138911Y0055330D01*
X0139151Y0055246D01*
X0139393Y0055167D01*
X0139637Y0055094D01*
X0139882Y0055028D01*
X0140129Y0054967D01*
X0140378Y0054912D01*
X0140628Y0054863D01*
X0140879Y0054820D01*
X0141130Y0054784D01*
X0141383Y0054753D01*
X0141636Y0054729D01*
X0141890Y0054711D01*
X0142144Y0054699D01*
X0142399Y0054693D01*
X0142653Y0054693D01*
X0142908Y0054699D01*
X0143162Y0054712D01*
X0143416Y0054731D01*
X0143669Y0054756D01*
X0143922Y0054787D01*
X0144173Y0054824D01*
X0144424Y0054867D01*
X0144674Y0054916D01*
X0144922Y0054971D01*
X0145169Y0055033D01*
X0145415Y0055100D01*
X0145658Y0055173D01*
X0145900Y0055252D01*
X0146140Y0055337D01*
X0146378Y0055428D01*
X0146614Y0055525D01*
X0146847Y0055627D01*
X0147077Y0055734D01*
X0147305Y0055848D01*
X0147530Y0055967D01*
X0147752Y0056091D01*
X0147971Y0056220D01*
X0148187Y0056355D01*
X0148400Y0056495D01*
X0148609Y0056640D01*
X0148814Y0056791D01*
X0149016Y0056946D01*
X0127083Y0043759D02*
X0127083Y0038259D01*
X0127083Y0021259D01*
X0087083Y0021259D01*
X0087083Y0038259D01*
X0087083Y0043759D01*
X0127083Y0043759D01*
X0127083Y0038259D02*
X0087083Y0038259D01*
X0087083Y0021259D02*
X0087083Y0014259D01*
X0127083Y0014259D01*
X0127083Y0017759D01*
X0127083Y0021259D01*
X0129083Y0021759D01*
X0129083Y0017259D01*
X0127083Y0017759D01*
X0114983Y0017759D02*
X0114985Y0017848D01*
X0114991Y0017937D01*
X0115001Y0018026D01*
X0115015Y0018114D01*
X0115032Y0018201D01*
X0115054Y0018287D01*
X0115080Y0018373D01*
X0115109Y0018457D01*
X0115142Y0018540D01*
X0115178Y0018621D01*
X0115219Y0018701D01*
X0115262Y0018778D01*
X0115309Y0018854D01*
X0115360Y0018927D01*
X0115413Y0018998D01*
X0115470Y0019067D01*
X0115530Y0019133D01*
X0115593Y0019197D01*
X0115658Y0019257D01*
X0115726Y0019315D01*
X0115797Y0019369D01*
X0115870Y0019420D01*
X0115945Y0019468D01*
X0116022Y0019513D01*
X0116101Y0019554D01*
X0116182Y0019591D01*
X0116264Y0019625D01*
X0116348Y0019656D01*
X0116433Y0019682D01*
X0116519Y0019705D01*
X0116606Y0019723D01*
X0116694Y0019738D01*
X0116783Y0019749D01*
X0116872Y0019756D01*
X0116961Y0019759D01*
X0117050Y0019758D01*
X0117139Y0019753D01*
X0117227Y0019744D01*
X0117316Y0019731D01*
X0117403Y0019714D01*
X0117490Y0019694D01*
X0117576Y0019669D01*
X0117660Y0019641D01*
X0117743Y0019609D01*
X0117825Y0019573D01*
X0117905Y0019534D01*
X0117983Y0019491D01*
X0118059Y0019445D01*
X0118133Y0019395D01*
X0118205Y0019342D01*
X0118274Y0019286D01*
X0118341Y0019227D01*
X0118405Y0019165D01*
X0118466Y0019101D01*
X0118525Y0019033D01*
X0118580Y0018963D01*
X0118632Y0018891D01*
X0118681Y0018816D01*
X0118726Y0018740D01*
X0118768Y0018661D01*
X0118806Y0018581D01*
X0118841Y0018499D01*
X0118872Y0018415D01*
X0118900Y0018330D01*
X0118923Y0018244D01*
X0118943Y0018157D01*
X0118959Y0018070D01*
X0118971Y0017981D01*
X0118979Y0017893D01*
X0118983Y0017804D01*
X0118983Y0017714D01*
X0118979Y0017625D01*
X0118971Y0017537D01*
X0118959Y0017448D01*
X0118943Y0017361D01*
X0118923Y0017274D01*
X0118900Y0017188D01*
X0118872Y0017103D01*
X0118841Y0017019D01*
X0118806Y0016937D01*
X0118768Y0016857D01*
X0118726Y0016778D01*
X0118681Y0016702D01*
X0118632Y0016627D01*
X0118580Y0016555D01*
X0118525Y0016485D01*
X0118466Y0016417D01*
X0118405Y0016353D01*
X0118341Y0016291D01*
X0118274Y0016232D01*
X0118205Y0016176D01*
X0118133Y0016123D01*
X0118059Y0016073D01*
X0117983Y0016027D01*
X0117905Y0015984D01*
X0117825Y0015945D01*
X0117743Y0015909D01*
X0117660Y0015877D01*
X0117576Y0015849D01*
X0117490Y0015824D01*
X0117403Y0015804D01*
X0117316Y0015787D01*
X0117227Y0015774D01*
X0117139Y0015765D01*
X0117050Y0015760D01*
X0116961Y0015759D01*
X0116872Y0015762D01*
X0116783Y0015769D01*
X0116694Y0015780D01*
X0116606Y0015795D01*
X0116519Y0015813D01*
X0116433Y0015836D01*
X0116348Y0015862D01*
X0116264Y0015893D01*
X0116182Y0015927D01*
X0116101Y0015964D01*
X0116022Y0016005D01*
X0115945Y0016050D01*
X0115870Y0016098D01*
X0115797Y0016149D01*
X0115726Y0016203D01*
X0115658Y0016261D01*
X0115593Y0016321D01*
X0115530Y0016385D01*
X0115470Y0016451D01*
X0115413Y0016520D01*
X0115360Y0016591D01*
X0115309Y0016664D01*
X0115262Y0016740D01*
X0115219Y0016817D01*
X0115178Y0016897D01*
X0115142Y0016978D01*
X0115109Y0017061D01*
X0115080Y0017145D01*
X0115054Y0017231D01*
X0115032Y0017317D01*
X0115015Y0017404D01*
X0115001Y0017492D01*
X0114991Y0017581D01*
X0114985Y0017670D01*
X0114983Y0017759D01*
X0095183Y0017759D02*
X0095185Y0017848D01*
X0095191Y0017937D01*
X0095201Y0018026D01*
X0095215Y0018114D01*
X0095232Y0018201D01*
X0095254Y0018287D01*
X0095280Y0018373D01*
X0095309Y0018457D01*
X0095342Y0018540D01*
X0095378Y0018621D01*
X0095419Y0018701D01*
X0095462Y0018778D01*
X0095509Y0018854D01*
X0095560Y0018927D01*
X0095613Y0018998D01*
X0095670Y0019067D01*
X0095730Y0019133D01*
X0095793Y0019197D01*
X0095858Y0019257D01*
X0095926Y0019315D01*
X0095997Y0019369D01*
X0096070Y0019420D01*
X0096145Y0019468D01*
X0096222Y0019513D01*
X0096301Y0019554D01*
X0096382Y0019591D01*
X0096464Y0019625D01*
X0096548Y0019656D01*
X0096633Y0019682D01*
X0096719Y0019705D01*
X0096806Y0019723D01*
X0096894Y0019738D01*
X0096983Y0019749D01*
X0097072Y0019756D01*
X0097161Y0019759D01*
X0097250Y0019758D01*
X0097339Y0019753D01*
X0097427Y0019744D01*
X0097516Y0019731D01*
X0097603Y0019714D01*
X0097690Y0019694D01*
X0097776Y0019669D01*
X0097860Y0019641D01*
X0097943Y0019609D01*
X0098025Y0019573D01*
X0098105Y0019534D01*
X0098183Y0019491D01*
X0098259Y0019445D01*
X0098333Y0019395D01*
X0098405Y0019342D01*
X0098474Y0019286D01*
X0098541Y0019227D01*
X0098605Y0019165D01*
X0098666Y0019101D01*
X0098725Y0019033D01*
X0098780Y0018963D01*
X0098832Y0018891D01*
X0098881Y0018816D01*
X0098926Y0018740D01*
X0098968Y0018661D01*
X0099006Y0018581D01*
X0099041Y0018499D01*
X0099072Y0018415D01*
X0099100Y0018330D01*
X0099123Y0018244D01*
X0099143Y0018157D01*
X0099159Y0018070D01*
X0099171Y0017981D01*
X0099179Y0017893D01*
X0099183Y0017804D01*
X0099183Y0017714D01*
X0099179Y0017625D01*
X0099171Y0017537D01*
X0099159Y0017448D01*
X0099143Y0017361D01*
X0099123Y0017274D01*
X0099100Y0017188D01*
X0099072Y0017103D01*
X0099041Y0017019D01*
X0099006Y0016937D01*
X0098968Y0016857D01*
X0098926Y0016778D01*
X0098881Y0016702D01*
X0098832Y0016627D01*
X0098780Y0016555D01*
X0098725Y0016485D01*
X0098666Y0016417D01*
X0098605Y0016353D01*
X0098541Y0016291D01*
X0098474Y0016232D01*
X0098405Y0016176D01*
X0098333Y0016123D01*
X0098259Y0016073D01*
X0098183Y0016027D01*
X0098105Y0015984D01*
X0098025Y0015945D01*
X0097943Y0015909D01*
X0097860Y0015877D01*
X0097776Y0015849D01*
X0097690Y0015824D01*
X0097603Y0015804D01*
X0097516Y0015787D01*
X0097427Y0015774D01*
X0097339Y0015765D01*
X0097250Y0015760D01*
X0097161Y0015759D01*
X0097072Y0015762D01*
X0096983Y0015769D01*
X0096894Y0015780D01*
X0096806Y0015795D01*
X0096719Y0015813D01*
X0096633Y0015836D01*
X0096548Y0015862D01*
X0096464Y0015893D01*
X0096382Y0015927D01*
X0096301Y0015964D01*
X0096222Y0016005D01*
X0096145Y0016050D01*
X0096070Y0016098D01*
X0095997Y0016149D01*
X0095926Y0016203D01*
X0095858Y0016261D01*
X0095793Y0016321D01*
X0095730Y0016385D01*
X0095670Y0016451D01*
X0095613Y0016520D01*
X0095560Y0016591D01*
X0095509Y0016664D01*
X0095462Y0016740D01*
X0095419Y0016817D01*
X0095378Y0016897D01*
X0095342Y0016978D01*
X0095309Y0017061D01*
X0095280Y0017145D01*
X0095254Y0017231D01*
X0095232Y0017317D01*
X0095215Y0017404D01*
X0095201Y0017492D01*
X0095191Y0017581D01*
X0095185Y0017670D01*
X0095183Y0017759D01*
X0098083Y0053318D02*
X0099583Y0053318D01*
X0100083Y0053818D01*
X0114083Y0053818D01*
X0114583Y0053318D01*
X0116083Y0053318D01*
X0116143Y0053320D01*
X0116204Y0053325D01*
X0116263Y0053334D01*
X0116322Y0053347D01*
X0116381Y0053363D01*
X0116438Y0053383D01*
X0116493Y0053406D01*
X0116548Y0053433D01*
X0116600Y0053462D01*
X0116651Y0053495D01*
X0116700Y0053531D01*
X0116746Y0053569D01*
X0116790Y0053611D01*
X0116832Y0053655D01*
X0116870Y0053701D01*
X0116906Y0053750D01*
X0116939Y0053801D01*
X0116968Y0053853D01*
X0116995Y0053908D01*
X0117018Y0053963D01*
X0117038Y0054020D01*
X0117054Y0054079D01*
X0117067Y0054138D01*
X0117076Y0054197D01*
X0117081Y0054258D01*
X0117083Y0054318D01*
X0117083Y0060318D01*
X0117081Y0060378D01*
X0117076Y0060439D01*
X0117067Y0060498D01*
X0117054Y0060557D01*
X0117038Y0060616D01*
X0117018Y0060673D01*
X0116995Y0060728D01*
X0116968Y0060783D01*
X0116939Y0060835D01*
X0116906Y0060886D01*
X0116870Y0060935D01*
X0116832Y0060981D01*
X0116790Y0061025D01*
X0116746Y0061067D01*
X0116700Y0061105D01*
X0116651Y0061141D01*
X0116600Y0061174D01*
X0116548Y0061203D01*
X0116493Y0061230D01*
X0116438Y0061253D01*
X0116381Y0061273D01*
X0116322Y0061289D01*
X0116263Y0061302D01*
X0116204Y0061311D01*
X0116143Y0061316D01*
X0116083Y0061318D01*
X0114583Y0061318D01*
X0114083Y0060818D01*
X0100083Y0060818D01*
X0099583Y0061318D01*
X0098083Y0061318D01*
X0098023Y0061316D01*
X0097962Y0061311D01*
X0097903Y0061302D01*
X0097844Y0061289D01*
X0097785Y0061273D01*
X0097728Y0061253D01*
X0097673Y0061230D01*
X0097618Y0061203D01*
X0097566Y0061174D01*
X0097515Y0061141D01*
X0097466Y0061105D01*
X0097420Y0061067D01*
X0097376Y0061025D01*
X0097334Y0060981D01*
X0097296Y0060935D01*
X0097260Y0060886D01*
X0097227Y0060835D01*
X0097198Y0060783D01*
X0097171Y0060728D01*
X0097148Y0060673D01*
X0097128Y0060616D01*
X0097112Y0060557D01*
X0097099Y0060498D01*
X0097090Y0060439D01*
X0097085Y0060378D01*
X0097083Y0060318D01*
X0097083Y0054318D01*
X0097085Y0054258D01*
X0097090Y0054197D01*
X0097099Y0054138D01*
X0097112Y0054079D01*
X0097128Y0054020D01*
X0097148Y0053963D01*
X0097171Y0053908D01*
X0097198Y0053853D01*
X0097227Y0053801D01*
X0097260Y0053750D01*
X0097296Y0053701D01*
X0097334Y0053655D01*
X0097376Y0053611D01*
X0097420Y0053569D01*
X0097466Y0053531D01*
X0097515Y0053495D01*
X0097566Y0053462D01*
X0097618Y0053433D01*
X0097673Y0053406D01*
X0097728Y0053383D01*
X0097785Y0053363D01*
X0097844Y0053347D01*
X0097903Y0053334D01*
X0097962Y0053325D01*
X0098023Y0053320D01*
X0098083Y0053318D01*
X0098083Y0069066D02*
X0099583Y0069066D01*
X0100083Y0069566D01*
X0114083Y0069566D01*
X0114583Y0069066D01*
X0116083Y0069066D01*
X0116143Y0069068D01*
X0116204Y0069073D01*
X0116263Y0069082D01*
X0116322Y0069095D01*
X0116381Y0069111D01*
X0116438Y0069131D01*
X0116493Y0069154D01*
X0116548Y0069181D01*
X0116600Y0069210D01*
X0116651Y0069243D01*
X0116700Y0069279D01*
X0116746Y0069317D01*
X0116790Y0069359D01*
X0116832Y0069403D01*
X0116870Y0069449D01*
X0116906Y0069498D01*
X0116939Y0069549D01*
X0116968Y0069601D01*
X0116995Y0069656D01*
X0117018Y0069711D01*
X0117038Y0069768D01*
X0117054Y0069827D01*
X0117067Y0069886D01*
X0117076Y0069945D01*
X0117081Y0070006D01*
X0117083Y0070066D01*
X0117083Y0076066D01*
X0117081Y0076126D01*
X0117076Y0076187D01*
X0117067Y0076246D01*
X0117054Y0076305D01*
X0117038Y0076364D01*
X0117018Y0076421D01*
X0116995Y0076476D01*
X0116968Y0076531D01*
X0116939Y0076583D01*
X0116906Y0076634D01*
X0116870Y0076683D01*
X0116832Y0076729D01*
X0116790Y0076773D01*
X0116746Y0076815D01*
X0116700Y0076853D01*
X0116651Y0076889D01*
X0116600Y0076922D01*
X0116548Y0076951D01*
X0116493Y0076978D01*
X0116438Y0077001D01*
X0116381Y0077021D01*
X0116322Y0077037D01*
X0116263Y0077050D01*
X0116204Y0077059D01*
X0116143Y0077064D01*
X0116083Y0077066D01*
X0114583Y0077066D01*
X0114083Y0076566D01*
X0100083Y0076566D01*
X0099583Y0077066D01*
X0098083Y0077066D01*
X0098023Y0077064D01*
X0097962Y0077059D01*
X0097903Y0077050D01*
X0097844Y0077037D01*
X0097785Y0077021D01*
X0097728Y0077001D01*
X0097673Y0076978D01*
X0097618Y0076951D01*
X0097566Y0076922D01*
X0097515Y0076889D01*
X0097466Y0076853D01*
X0097420Y0076815D01*
X0097376Y0076773D01*
X0097334Y0076729D01*
X0097296Y0076683D01*
X0097260Y0076634D01*
X0097227Y0076583D01*
X0097198Y0076531D01*
X0097171Y0076476D01*
X0097148Y0076421D01*
X0097128Y0076364D01*
X0097112Y0076305D01*
X0097099Y0076246D01*
X0097090Y0076187D01*
X0097085Y0076126D01*
X0097083Y0076066D01*
X0097083Y0070066D01*
X0097085Y0070006D01*
X0097090Y0069945D01*
X0097099Y0069886D01*
X0097112Y0069827D01*
X0097128Y0069768D01*
X0097148Y0069711D01*
X0097171Y0069656D01*
X0097198Y0069601D01*
X0097227Y0069549D01*
X0097260Y0069498D01*
X0097296Y0069449D01*
X0097334Y0069403D01*
X0097376Y0069359D01*
X0097420Y0069317D01*
X0097466Y0069279D01*
X0097515Y0069243D01*
X0097566Y0069210D01*
X0097618Y0069181D01*
X0097673Y0069154D01*
X0097728Y0069131D01*
X0097785Y0069111D01*
X0097844Y0069095D01*
X0097903Y0069082D01*
X0097962Y0069073D01*
X0098023Y0069068D01*
X0098083Y0069066D01*
X0098083Y0088751D02*
X0099583Y0088751D01*
X0100083Y0089251D01*
X0114083Y0089251D01*
X0114583Y0088751D01*
X0116083Y0088751D01*
X0116143Y0088753D01*
X0116204Y0088758D01*
X0116263Y0088767D01*
X0116322Y0088780D01*
X0116381Y0088796D01*
X0116438Y0088816D01*
X0116493Y0088839D01*
X0116548Y0088866D01*
X0116600Y0088895D01*
X0116651Y0088928D01*
X0116700Y0088964D01*
X0116746Y0089002D01*
X0116790Y0089044D01*
X0116832Y0089088D01*
X0116870Y0089134D01*
X0116906Y0089183D01*
X0116939Y0089234D01*
X0116968Y0089286D01*
X0116995Y0089341D01*
X0117018Y0089396D01*
X0117038Y0089453D01*
X0117054Y0089512D01*
X0117067Y0089571D01*
X0117076Y0089630D01*
X0117081Y0089691D01*
X0117083Y0089751D01*
X0117083Y0095751D01*
X0117081Y0095811D01*
X0117076Y0095872D01*
X0117067Y0095931D01*
X0117054Y0095990D01*
X0117038Y0096049D01*
X0117018Y0096106D01*
X0116995Y0096161D01*
X0116968Y0096216D01*
X0116939Y0096268D01*
X0116906Y0096319D01*
X0116870Y0096368D01*
X0116832Y0096414D01*
X0116790Y0096458D01*
X0116746Y0096500D01*
X0116700Y0096538D01*
X0116651Y0096574D01*
X0116600Y0096607D01*
X0116548Y0096636D01*
X0116493Y0096663D01*
X0116438Y0096686D01*
X0116381Y0096706D01*
X0116322Y0096722D01*
X0116263Y0096735D01*
X0116204Y0096744D01*
X0116143Y0096749D01*
X0116083Y0096751D01*
X0114583Y0096751D01*
X0114083Y0096251D01*
X0100083Y0096251D01*
X0099583Y0096751D01*
X0098083Y0096751D01*
X0098023Y0096749D01*
X0097962Y0096744D01*
X0097903Y0096735D01*
X0097844Y0096722D01*
X0097785Y0096706D01*
X0097728Y0096686D01*
X0097673Y0096663D01*
X0097618Y0096636D01*
X0097566Y0096607D01*
X0097515Y0096574D01*
X0097466Y0096538D01*
X0097420Y0096500D01*
X0097376Y0096458D01*
X0097334Y0096414D01*
X0097296Y0096368D01*
X0097260Y0096319D01*
X0097227Y0096268D01*
X0097198Y0096216D01*
X0097171Y0096161D01*
X0097148Y0096106D01*
X0097128Y0096049D01*
X0097112Y0095990D01*
X0097099Y0095931D01*
X0097090Y0095872D01*
X0097085Y0095811D01*
X0097083Y0095751D01*
X0097083Y0089751D01*
X0097085Y0089691D01*
X0097090Y0089630D01*
X0097099Y0089571D01*
X0097112Y0089512D01*
X0097128Y0089453D01*
X0097148Y0089396D01*
X0097171Y0089341D01*
X0097198Y0089286D01*
X0097227Y0089234D01*
X0097260Y0089183D01*
X0097296Y0089134D01*
X0097334Y0089088D01*
X0097376Y0089044D01*
X0097420Y0089002D01*
X0097466Y0088964D01*
X0097515Y0088928D01*
X0097566Y0088895D01*
X0097618Y0088866D01*
X0097673Y0088839D01*
X0097728Y0088816D01*
X0097785Y0088796D01*
X0097844Y0088780D01*
X0097903Y0088767D01*
X0097962Y0088758D01*
X0098023Y0088753D01*
X0098083Y0088751D01*
X0098083Y0108436D02*
X0099583Y0108436D01*
X0100083Y0108936D01*
X0114083Y0108936D01*
X0114583Y0108436D01*
X0116083Y0108436D01*
X0116143Y0108438D01*
X0116204Y0108443D01*
X0116263Y0108452D01*
X0116322Y0108465D01*
X0116381Y0108481D01*
X0116438Y0108501D01*
X0116493Y0108524D01*
X0116548Y0108551D01*
X0116600Y0108580D01*
X0116651Y0108613D01*
X0116700Y0108649D01*
X0116746Y0108687D01*
X0116790Y0108729D01*
X0116832Y0108773D01*
X0116870Y0108819D01*
X0116906Y0108868D01*
X0116939Y0108919D01*
X0116968Y0108971D01*
X0116995Y0109026D01*
X0117018Y0109081D01*
X0117038Y0109138D01*
X0117054Y0109197D01*
X0117067Y0109256D01*
X0117076Y0109315D01*
X0117081Y0109376D01*
X0117083Y0109436D01*
X0117083Y0115436D01*
X0117081Y0115496D01*
X0117076Y0115557D01*
X0117067Y0115616D01*
X0117054Y0115675D01*
X0117038Y0115734D01*
X0117018Y0115791D01*
X0116995Y0115846D01*
X0116968Y0115901D01*
X0116939Y0115953D01*
X0116906Y0116004D01*
X0116870Y0116053D01*
X0116832Y0116099D01*
X0116790Y0116143D01*
X0116746Y0116185D01*
X0116700Y0116223D01*
X0116651Y0116259D01*
X0116600Y0116292D01*
X0116548Y0116321D01*
X0116493Y0116348D01*
X0116438Y0116371D01*
X0116381Y0116391D01*
X0116322Y0116407D01*
X0116263Y0116420D01*
X0116204Y0116429D01*
X0116143Y0116434D01*
X0116083Y0116436D01*
X0114583Y0116436D01*
X0114083Y0115936D01*
X0100083Y0115936D01*
X0099583Y0116436D01*
X0098083Y0116436D01*
X0098023Y0116434D01*
X0097962Y0116429D01*
X0097903Y0116420D01*
X0097844Y0116407D01*
X0097785Y0116391D01*
X0097728Y0116371D01*
X0097673Y0116348D01*
X0097618Y0116321D01*
X0097566Y0116292D01*
X0097515Y0116259D01*
X0097466Y0116223D01*
X0097420Y0116185D01*
X0097376Y0116143D01*
X0097334Y0116099D01*
X0097296Y0116053D01*
X0097260Y0116004D01*
X0097227Y0115953D01*
X0097198Y0115901D01*
X0097171Y0115846D01*
X0097148Y0115791D01*
X0097128Y0115734D01*
X0097112Y0115675D01*
X0097099Y0115616D01*
X0097090Y0115557D01*
X0097085Y0115496D01*
X0097083Y0115436D01*
X0097083Y0109436D01*
X0097085Y0109376D01*
X0097090Y0109315D01*
X0097099Y0109256D01*
X0097112Y0109197D01*
X0097128Y0109138D01*
X0097148Y0109081D01*
X0097171Y0109026D01*
X0097198Y0108971D01*
X0097227Y0108919D01*
X0097260Y0108868D01*
X0097296Y0108819D01*
X0097334Y0108773D01*
X0097376Y0108729D01*
X0097420Y0108687D01*
X0097466Y0108649D01*
X0097515Y0108613D01*
X0097566Y0108580D01*
X0097618Y0108551D01*
X0097673Y0108524D01*
X0097728Y0108501D01*
X0097785Y0108481D01*
X0097844Y0108465D01*
X0097903Y0108452D01*
X0097962Y0108443D01*
X0098023Y0108438D01*
X0098083Y0108436D01*
X0076508Y0073945D02*
X0076508Y0070609D01*
X0076508Y0072277D02*
X0071503Y0072277D01*
X0073172Y0070609D01*
X0071503Y0068789D02*
X0076508Y0065453D01*
X0076508Y0068789D02*
X0071503Y0065453D01*
X0132483Y0089655D02*
X0132561Y0089413D01*
X0132644Y0089173D01*
X0132734Y0088935D01*
X0132829Y0088699D01*
X0132931Y0088465D01*
X0133037Y0088234D01*
X0133149Y0088006D01*
X0133267Y0087780D01*
X0133390Y0087557D01*
X0133519Y0087338D01*
X0133653Y0087121D01*
X0133792Y0086908D01*
X0133936Y0086698D01*
X0134085Y0086492D01*
X0134239Y0086290D01*
X0134398Y0086091D01*
X0134562Y0085896D01*
X0134731Y0085706D01*
X0134904Y0085519D01*
X0135081Y0085337D01*
X0135263Y0085159D01*
X0135449Y0084985D01*
X0135640Y0084816D01*
X0135834Y0084652D01*
X0136032Y0084492D01*
X0136234Y0084337D01*
X0136440Y0084188D01*
X0136649Y0084043D01*
X0136862Y0083903D01*
X0137078Y0083769D01*
X0137297Y0083640D01*
X0137520Y0083516D01*
X0137745Y0083398D01*
X0137973Y0083285D01*
X0138204Y0083177D01*
X0138437Y0083076D01*
X0138673Y0082980D01*
X0138911Y0082889D01*
X0139151Y0082805D01*
X0139393Y0082726D01*
X0139637Y0082653D01*
X0139882Y0082587D01*
X0140129Y0082526D01*
X0140378Y0082471D01*
X0140628Y0082422D01*
X0140879Y0082379D01*
X0141130Y0082343D01*
X0141383Y0082312D01*
X0141636Y0082288D01*
X0141890Y0082270D01*
X0142144Y0082258D01*
X0142399Y0082252D01*
X0142653Y0082252D01*
X0142908Y0082258D01*
X0143162Y0082271D01*
X0143416Y0082290D01*
X0143669Y0082315D01*
X0143922Y0082346D01*
X0144173Y0082383D01*
X0144424Y0082426D01*
X0144674Y0082475D01*
X0144922Y0082530D01*
X0145169Y0082592D01*
X0145415Y0082659D01*
X0145658Y0082732D01*
X0145900Y0082811D01*
X0146140Y0082896D01*
X0146378Y0082987D01*
X0146614Y0083084D01*
X0146847Y0083186D01*
X0147077Y0083293D01*
X0147305Y0083407D01*
X0147530Y0083526D01*
X0147752Y0083650D01*
X0147971Y0083779D01*
X0148187Y0083914D01*
X0148400Y0084054D01*
X0148609Y0084199D01*
X0148814Y0084350D01*
X0149016Y0084505D01*
X0143516Y0091625D02*
X0143516Y0093877D01*
X0149016Y0100999D02*
X0148814Y0101154D01*
X0148609Y0101304D01*
X0148400Y0101450D01*
X0148187Y0101590D01*
X0147971Y0101724D01*
X0147752Y0101854D01*
X0147530Y0101978D01*
X0147305Y0102097D01*
X0147077Y0102210D01*
X0146847Y0102318D01*
X0146614Y0102420D01*
X0146378Y0102517D01*
X0146140Y0102608D01*
X0145901Y0102693D01*
X0145659Y0102772D01*
X0145415Y0102845D01*
X0145170Y0102912D01*
X0144923Y0102973D01*
X0144674Y0103029D01*
X0144424Y0103078D01*
X0144174Y0103121D01*
X0143922Y0103158D01*
X0143669Y0103189D01*
X0143416Y0103214D01*
X0143162Y0103233D01*
X0142908Y0103246D01*
X0142654Y0103252D01*
X0142399Y0103252D01*
X0142145Y0103246D01*
X0141890Y0103234D01*
X0141637Y0103216D01*
X0141383Y0103192D01*
X0141131Y0103161D01*
X0140879Y0103125D01*
X0140628Y0103082D01*
X0140378Y0103033D01*
X0140130Y0102978D01*
X0139883Y0102917D01*
X0139637Y0102851D01*
X0139393Y0102778D01*
X0139151Y0102699D01*
X0138911Y0102615D01*
X0138673Y0102524D01*
X0138437Y0102428D01*
X0138204Y0102327D01*
X0137973Y0102219D01*
X0137745Y0102107D01*
X0137520Y0101988D01*
X0137298Y0101864D01*
X0137078Y0101735D01*
X0136862Y0101601D01*
X0136649Y0101461D01*
X0136440Y0101316D01*
X0136234Y0101167D01*
X0136032Y0101012D01*
X0135834Y0100852D01*
X0135640Y0100688D01*
X0135449Y0100519D01*
X0135263Y0100346D01*
X0135081Y0100168D01*
X0134904Y0099985D01*
X0134731Y0099799D01*
X0134562Y0099608D01*
X0134398Y0099413D01*
X0134239Y0099214D01*
X0134085Y0099012D01*
X0133936Y0098806D01*
X0133792Y0098596D01*
X0133653Y0098383D01*
X0133519Y0098166D01*
X0133390Y0097947D01*
X0133267Y0097724D01*
X0133150Y0097498D01*
X0133037Y0097270D01*
X0132931Y0097039D01*
X0132829Y0096805D01*
X0132734Y0096569D01*
X0132645Y0096331D01*
X0132561Y0096091D01*
X0132483Y0095849D01*
X0143516Y0119184D02*
X0143516Y0121436D01*
X0149016Y0128558D02*
X0148814Y0128713D01*
X0148609Y0128863D01*
X0148400Y0129009D01*
X0148187Y0129149D01*
X0147971Y0129283D01*
X0147752Y0129413D01*
X0147530Y0129537D01*
X0147305Y0129656D01*
X0147077Y0129769D01*
X0146847Y0129877D01*
X0146614Y0129979D01*
X0146378Y0130076D01*
X0146140Y0130167D01*
X0145901Y0130252D01*
X0145659Y0130331D01*
X0145415Y0130404D01*
X0145170Y0130471D01*
X0144923Y0130532D01*
X0144674Y0130588D01*
X0144424Y0130637D01*
X0144174Y0130680D01*
X0143922Y0130717D01*
X0143669Y0130748D01*
X0143416Y0130773D01*
X0143162Y0130792D01*
X0142908Y0130805D01*
X0142654Y0130811D01*
X0142399Y0130811D01*
X0142145Y0130805D01*
X0141890Y0130793D01*
X0141637Y0130775D01*
X0141383Y0130751D01*
X0141131Y0130720D01*
X0140879Y0130684D01*
X0140628Y0130641D01*
X0140378Y0130592D01*
X0140130Y0130537D01*
X0139883Y0130476D01*
X0139637Y0130410D01*
X0139393Y0130337D01*
X0139151Y0130258D01*
X0138911Y0130174D01*
X0138673Y0130083D01*
X0138437Y0129987D01*
X0138204Y0129886D01*
X0137973Y0129778D01*
X0137745Y0129666D01*
X0137520Y0129547D01*
X0137298Y0129423D01*
X0137078Y0129294D01*
X0136862Y0129160D01*
X0136649Y0129020D01*
X0136440Y0128875D01*
X0136234Y0128726D01*
X0136032Y0128571D01*
X0135834Y0128411D01*
X0135640Y0128247D01*
X0135449Y0128078D01*
X0135263Y0127905D01*
X0135081Y0127727D01*
X0134904Y0127544D01*
X0134731Y0127358D01*
X0134562Y0127167D01*
X0134398Y0126972D01*
X0134239Y0126773D01*
X0134085Y0126571D01*
X0133936Y0126365D01*
X0133792Y0126155D01*
X0133653Y0125942D01*
X0133519Y0125725D01*
X0133390Y0125506D01*
X0133267Y0125283D01*
X0133150Y0125057D01*
X0133037Y0124829D01*
X0132931Y0124598D01*
X0132829Y0124364D01*
X0132734Y0124128D01*
X0132645Y0123890D01*
X0132561Y0123650D01*
X0132483Y0123408D01*
X0132483Y0117214D02*
X0132561Y0116972D01*
X0132644Y0116732D01*
X0132734Y0116494D01*
X0132829Y0116258D01*
X0132931Y0116024D01*
X0133037Y0115793D01*
X0133149Y0115565D01*
X0133267Y0115339D01*
X0133390Y0115116D01*
X0133519Y0114897D01*
X0133653Y0114680D01*
X0133792Y0114467D01*
X0133936Y0114257D01*
X0134085Y0114051D01*
X0134239Y0113849D01*
X0134398Y0113650D01*
X0134562Y0113455D01*
X0134731Y0113265D01*
X0134904Y0113078D01*
X0135081Y0112896D01*
X0135263Y0112718D01*
X0135449Y0112544D01*
X0135640Y0112375D01*
X0135834Y0112211D01*
X0136032Y0112051D01*
X0136234Y0111896D01*
X0136440Y0111747D01*
X0136649Y0111602D01*
X0136862Y0111462D01*
X0137078Y0111328D01*
X0137297Y0111199D01*
X0137520Y0111075D01*
X0137745Y0110957D01*
X0137973Y0110844D01*
X0138204Y0110736D01*
X0138437Y0110635D01*
X0138673Y0110539D01*
X0138911Y0110448D01*
X0139151Y0110364D01*
X0139393Y0110285D01*
X0139637Y0110212D01*
X0139882Y0110146D01*
X0140129Y0110085D01*
X0140378Y0110030D01*
X0140628Y0109981D01*
X0140879Y0109938D01*
X0141130Y0109902D01*
X0141383Y0109871D01*
X0141636Y0109847D01*
X0141890Y0109829D01*
X0142144Y0109817D01*
X0142399Y0109811D01*
X0142653Y0109811D01*
X0142908Y0109817D01*
X0143162Y0109830D01*
X0143416Y0109849D01*
X0143669Y0109874D01*
X0143922Y0109905D01*
X0144173Y0109942D01*
X0144424Y0109985D01*
X0144674Y0110034D01*
X0144922Y0110089D01*
X0145169Y0110151D01*
X0145415Y0110218D01*
X0145658Y0110291D01*
X0145900Y0110370D01*
X0146140Y0110455D01*
X0146378Y0110546D01*
X0146614Y0110643D01*
X0146847Y0110745D01*
X0147077Y0110852D01*
X0147305Y0110966D01*
X0147530Y0111085D01*
X0147752Y0111209D01*
X0147971Y0111338D01*
X0148187Y0111473D01*
X0148400Y0111613D01*
X0148609Y0111758D01*
X0148814Y0111909D01*
X0149016Y0112064D01*
X0158005Y0185050D02*
X0159505Y0185050D01*
X0160005Y0185550D01*
X0174005Y0185550D01*
X0174505Y0185050D01*
X0176005Y0185050D01*
X0176065Y0185052D01*
X0176126Y0185057D01*
X0176185Y0185066D01*
X0176244Y0185079D01*
X0176303Y0185095D01*
X0176360Y0185115D01*
X0176415Y0185138D01*
X0176470Y0185165D01*
X0176522Y0185194D01*
X0176573Y0185227D01*
X0176622Y0185263D01*
X0176668Y0185301D01*
X0176712Y0185343D01*
X0176754Y0185387D01*
X0176792Y0185433D01*
X0176828Y0185482D01*
X0176861Y0185533D01*
X0176890Y0185585D01*
X0176917Y0185640D01*
X0176940Y0185695D01*
X0176960Y0185752D01*
X0176976Y0185811D01*
X0176989Y0185870D01*
X0176998Y0185929D01*
X0177003Y0185990D01*
X0177005Y0186050D01*
X0177005Y0192050D01*
X0177003Y0192110D01*
X0176998Y0192171D01*
X0176989Y0192230D01*
X0176976Y0192289D01*
X0176960Y0192348D01*
X0176940Y0192405D01*
X0176917Y0192460D01*
X0176890Y0192515D01*
X0176861Y0192567D01*
X0176828Y0192618D01*
X0176792Y0192667D01*
X0176754Y0192713D01*
X0176712Y0192757D01*
X0176668Y0192799D01*
X0176622Y0192837D01*
X0176573Y0192873D01*
X0176522Y0192906D01*
X0176470Y0192935D01*
X0176415Y0192962D01*
X0176360Y0192985D01*
X0176303Y0193005D01*
X0176244Y0193021D01*
X0176185Y0193034D01*
X0176126Y0193043D01*
X0176065Y0193048D01*
X0176005Y0193050D01*
X0174505Y0193050D01*
X0174005Y0192550D01*
X0160005Y0192550D01*
X0159505Y0193050D01*
X0158005Y0193050D01*
X0157945Y0193048D01*
X0157884Y0193043D01*
X0157825Y0193034D01*
X0157766Y0193021D01*
X0157707Y0193005D01*
X0157650Y0192985D01*
X0157595Y0192962D01*
X0157540Y0192935D01*
X0157488Y0192906D01*
X0157437Y0192873D01*
X0157388Y0192837D01*
X0157342Y0192799D01*
X0157298Y0192757D01*
X0157256Y0192713D01*
X0157218Y0192667D01*
X0157182Y0192618D01*
X0157149Y0192567D01*
X0157120Y0192515D01*
X0157093Y0192460D01*
X0157070Y0192405D01*
X0157050Y0192348D01*
X0157034Y0192289D01*
X0157021Y0192230D01*
X0157012Y0192171D01*
X0157007Y0192110D01*
X0157005Y0192050D01*
X0157005Y0186050D01*
X0157007Y0185990D01*
X0157012Y0185929D01*
X0157021Y0185870D01*
X0157034Y0185811D01*
X0157050Y0185752D01*
X0157070Y0185695D01*
X0157093Y0185640D01*
X0157120Y0185585D01*
X0157149Y0185533D01*
X0157182Y0185482D01*
X0157218Y0185433D01*
X0157256Y0185387D01*
X0157298Y0185343D01*
X0157342Y0185301D01*
X0157388Y0185263D01*
X0157437Y0185227D01*
X0157488Y0185194D01*
X0157540Y0185165D01*
X0157595Y0185138D01*
X0157650Y0185115D01*
X0157707Y0185095D01*
X0157766Y0185079D01*
X0157825Y0185066D01*
X0157884Y0185057D01*
X0157945Y0185052D01*
X0158005Y0185050D01*
X0132737Y0201861D02*
X0132737Y0203361D01*
X0132237Y0203861D01*
X0132237Y0217861D01*
X0132737Y0218361D01*
X0132737Y0219861D01*
X0132735Y0219921D01*
X0132730Y0219982D01*
X0132721Y0220041D01*
X0132708Y0220100D01*
X0132692Y0220159D01*
X0132672Y0220216D01*
X0132649Y0220271D01*
X0132622Y0220326D01*
X0132593Y0220378D01*
X0132560Y0220429D01*
X0132524Y0220478D01*
X0132486Y0220524D01*
X0132444Y0220568D01*
X0132400Y0220610D01*
X0132354Y0220648D01*
X0132305Y0220684D01*
X0132254Y0220717D01*
X0132202Y0220746D01*
X0132147Y0220773D01*
X0132092Y0220796D01*
X0132035Y0220816D01*
X0131976Y0220832D01*
X0131917Y0220845D01*
X0131858Y0220854D01*
X0131797Y0220859D01*
X0131737Y0220861D01*
X0125737Y0220861D01*
X0125677Y0220859D01*
X0125616Y0220854D01*
X0125557Y0220845D01*
X0125498Y0220832D01*
X0125439Y0220816D01*
X0125382Y0220796D01*
X0125327Y0220773D01*
X0125272Y0220746D01*
X0125220Y0220717D01*
X0125169Y0220684D01*
X0125120Y0220648D01*
X0125074Y0220610D01*
X0125030Y0220568D01*
X0124988Y0220524D01*
X0124950Y0220478D01*
X0124914Y0220429D01*
X0124881Y0220378D01*
X0124852Y0220326D01*
X0124825Y0220271D01*
X0124802Y0220216D01*
X0124782Y0220159D01*
X0124766Y0220100D01*
X0124753Y0220041D01*
X0124744Y0219982D01*
X0124739Y0219921D01*
X0124737Y0219861D01*
X0124737Y0218361D01*
X0125237Y0217861D01*
X0125237Y0203861D01*
X0124737Y0203361D01*
X0124737Y0201861D01*
X0124739Y0201801D01*
X0124744Y0201740D01*
X0124753Y0201681D01*
X0124766Y0201622D01*
X0124782Y0201563D01*
X0124802Y0201506D01*
X0124825Y0201451D01*
X0124852Y0201396D01*
X0124881Y0201344D01*
X0124914Y0201293D01*
X0124950Y0201244D01*
X0124988Y0201198D01*
X0125030Y0201154D01*
X0125074Y0201112D01*
X0125120Y0201074D01*
X0125169Y0201038D01*
X0125220Y0201005D01*
X0125272Y0200976D01*
X0125327Y0200949D01*
X0125382Y0200926D01*
X0125439Y0200906D01*
X0125498Y0200890D01*
X0125557Y0200877D01*
X0125616Y0200868D01*
X0125677Y0200863D01*
X0125737Y0200861D01*
X0131737Y0200861D01*
X0131797Y0200863D01*
X0131858Y0200868D01*
X0131917Y0200877D01*
X0131976Y0200890D01*
X0132035Y0200906D01*
X0132092Y0200926D01*
X0132147Y0200949D01*
X0132202Y0200976D01*
X0132254Y0201005D01*
X0132305Y0201038D01*
X0132354Y0201074D01*
X0132400Y0201112D01*
X0132444Y0201154D01*
X0132486Y0201198D01*
X0132524Y0201244D01*
X0132560Y0201293D01*
X0132593Y0201344D01*
X0132622Y0201396D01*
X0132649Y0201451D01*
X0132672Y0201506D01*
X0132692Y0201563D01*
X0132708Y0201622D01*
X0132721Y0201681D01*
X0132730Y0201740D01*
X0132735Y0201801D01*
X0132737Y0201861D01*
X0116989Y0201861D02*
X0116989Y0203361D01*
X0116489Y0203861D01*
X0116489Y0217861D01*
X0116989Y0218361D01*
X0116989Y0219861D01*
X0116987Y0219921D01*
X0116982Y0219982D01*
X0116973Y0220041D01*
X0116960Y0220100D01*
X0116944Y0220159D01*
X0116924Y0220216D01*
X0116901Y0220271D01*
X0116874Y0220326D01*
X0116845Y0220378D01*
X0116812Y0220429D01*
X0116776Y0220478D01*
X0116738Y0220524D01*
X0116696Y0220568D01*
X0116652Y0220610D01*
X0116606Y0220648D01*
X0116557Y0220684D01*
X0116506Y0220717D01*
X0116454Y0220746D01*
X0116399Y0220773D01*
X0116344Y0220796D01*
X0116287Y0220816D01*
X0116228Y0220832D01*
X0116169Y0220845D01*
X0116110Y0220854D01*
X0116049Y0220859D01*
X0115989Y0220861D01*
X0109989Y0220861D01*
X0109929Y0220859D01*
X0109868Y0220854D01*
X0109809Y0220845D01*
X0109750Y0220832D01*
X0109691Y0220816D01*
X0109634Y0220796D01*
X0109579Y0220773D01*
X0109524Y0220746D01*
X0109472Y0220717D01*
X0109421Y0220684D01*
X0109372Y0220648D01*
X0109326Y0220610D01*
X0109282Y0220568D01*
X0109240Y0220524D01*
X0109202Y0220478D01*
X0109166Y0220429D01*
X0109133Y0220378D01*
X0109104Y0220326D01*
X0109077Y0220271D01*
X0109054Y0220216D01*
X0109034Y0220159D01*
X0109018Y0220100D01*
X0109005Y0220041D01*
X0108996Y0219982D01*
X0108991Y0219921D01*
X0108989Y0219861D01*
X0108989Y0218361D01*
X0109489Y0217861D01*
X0109489Y0203861D01*
X0108989Y0203361D01*
X0108989Y0201861D01*
X0108991Y0201801D01*
X0108996Y0201740D01*
X0109005Y0201681D01*
X0109018Y0201622D01*
X0109034Y0201563D01*
X0109054Y0201506D01*
X0109077Y0201451D01*
X0109104Y0201396D01*
X0109133Y0201344D01*
X0109166Y0201293D01*
X0109202Y0201244D01*
X0109240Y0201198D01*
X0109282Y0201154D01*
X0109326Y0201112D01*
X0109372Y0201074D01*
X0109421Y0201038D01*
X0109472Y0201005D01*
X0109524Y0200976D01*
X0109579Y0200949D01*
X0109634Y0200926D01*
X0109691Y0200906D01*
X0109750Y0200890D01*
X0109809Y0200877D01*
X0109868Y0200868D01*
X0109929Y0200863D01*
X0109989Y0200861D01*
X0115989Y0200861D01*
X0116049Y0200863D01*
X0116110Y0200868D01*
X0116169Y0200877D01*
X0116228Y0200890D01*
X0116287Y0200906D01*
X0116344Y0200926D01*
X0116399Y0200949D01*
X0116454Y0200976D01*
X0116506Y0201005D01*
X0116557Y0201038D01*
X0116606Y0201074D01*
X0116652Y0201112D01*
X0116696Y0201154D01*
X0116738Y0201198D01*
X0116776Y0201244D01*
X0116812Y0201293D01*
X0116845Y0201344D01*
X0116874Y0201396D01*
X0116901Y0201451D01*
X0116924Y0201506D01*
X0116944Y0201563D01*
X0116960Y0201622D01*
X0116973Y0201681D01*
X0116982Y0201740D01*
X0116987Y0201801D01*
X0116989Y0201861D01*
X0101241Y0201861D02*
X0101241Y0203361D01*
X0100741Y0203861D01*
X0100741Y0217861D01*
X0101241Y0218361D01*
X0101241Y0219861D01*
X0101239Y0219921D01*
X0101234Y0219982D01*
X0101225Y0220041D01*
X0101212Y0220100D01*
X0101196Y0220159D01*
X0101176Y0220216D01*
X0101153Y0220271D01*
X0101126Y0220326D01*
X0101097Y0220378D01*
X0101064Y0220429D01*
X0101028Y0220478D01*
X0100990Y0220524D01*
X0100948Y0220568D01*
X0100904Y0220610D01*
X0100858Y0220648D01*
X0100809Y0220684D01*
X0100758Y0220717D01*
X0100706Y0220746D01*
X0100651Y0220773D01*
X0100596Y0220796D01*
X0100539Y0220816D01*
X0100480Y0220832D01*
X0100421Y0220845D01*
X0100362Y0220854D01*
X0100301Y0220859D01*
X0100241Y0220861D01*
X0094241Y0220861D01*
X0094181Y0220859D01*
X0094120Y0220854D01*
X0094061Y0220845D01*
X0094002Y0220832D01*
X0093943Y0220816D01*
X0093886Y0220796D01*
X0093831Y0220773D01*
X0093776Y0220746D01*
X0093724Y0220717D01*
X0093673Y0220684D01*
X0093624Y0220648D01*
X0093578Y0220610D01*
X0093534Y0220568D01*
X0093492Y0220524D01*
X0093454Y0220478D01*
X0093418Y0220429D01*
X0093385Y0220378D01*
X0093356Y0220326D01*
X0093329Y0220271D01*
X0093306Y0220216D01*
X0093286Y0220159D01*
X0093270Y0220100D01*
X0093257Y0220041D01*
X0093248Y0219982D01*
X0093243Y0219921D01*
X0093241Y0219861D01*
X0093241Y0218361D01*
X0093741Y0217861D01*
X0093741Y0203861D01*
X0093241Y0203361D01*
X0093241Y0201861D01*
X0093243Y0201801D01*
X0093248Y0201740D01*
X0093257Y0201681D01*
X0093270Y0201622D01*
X0093286Y0201563D01*
X0093306Y0201506D01*
X0093329Y0201451D01*
X0093356Y0201396D01*
X0093385Y0201344D01*
X0093418Y0201293D01*
X0093454Y0201244D01*
X0093492Y0201198D01*
X0093534Y0201154D01*
X0093578Y0201112D01*
X0093624Y0201074D01*
X0093673Y0201038D01*
X0093724Y0201005D01*
X0093776Y0200976D01*
X0093831Y0200949D01*
X0093886Y0200926D01*
X0093943Y0200906D01*
X0094002Y0200890D01*
X0094061Y0200877D01*
X0094120Y0200868D01*
X0094181Y0200863D01*
X0094241Y0200861D01*
X0100241Y0200861D01*
X0100301Y0200863D01*
X0100362Y0200868D01*
X0100421Y0200877D01*
X0100480Y0200890D01*
X0100539Y0200906D01*
X0100596Y0200926D01*
X0100651Y0200949D01*
X0100706Y0200976D01*
X0100758Y0201005D01*
X0100809Y0201038D01*
X0100858Y0201074D01*
X0100904Y0201112D01*
X0100948Y0201154D01*
X0100990Y0201198D01*
X0101028Y0201244D01*
X0101064Y0201293D01*
X0101097Y0201344D01*
X0101126Y0201396D01*
X0101153Y0201451D01*
X0101176Y0201506D01*
X0101196Y0201563D01*
X0101212Y0201622D01*
X0101225Y0201681D01*
X0101234Y0201740D01*
X0101239Y0201801D01*
X0101241Y0201861D01*
X0085493Y0201861D02*
X0085493Y0203361D01*
X0084993Y0203861D01*
X0084993Y0217861D01*
X0085493Y0218361D01*
X0085493Y0219861D01*
X0085491Y0219921D01*
X0085486Y0219982D01*
X0085477Y0220041D01*
X0085464Y0220100D01*
X0085448Y0220159D01*
X0085428Y0220216D01*
X0085405Y0220271D01*
X0085378Y0220326D01*
X0085349Y0220378D01*
X0085316Y0220429D01*
X0085280Y0220478D01*
X0085242Y0220524D01*
X0085200Y0220568D01*
X0085156Y0220610D01*
X0085110Y0220648D01*
X0085061Y0220684D01*
X0085010Y0220717D01*
X0084958Y0220746D01*
X0084903Y0220773D01*
X0084848Y0220796D01*
X0084791Y0220816D01*
X0084732Y0220832D01*
X0084673Y0220845D01*
X0084614Y0220854D01*
X0084553Y0220859D01*
X0084493Y0220861D01*
X0078493Y0220861D01*
X0078433Y0220859D01*
X0078372Y0220854D01*
X0078313Y0220845D01*
X0078254Y0220832D01*
X0078195Y0220816D01*
X0078138Y0220796D01*
X0078083Y0220773D01*
X0078028Y0220746D01*
X0077976Y0220717D01*
X0077925Y0220684D01*
X0077876Y0220648D01*
X0077830Y0220610D01*
X0077786Y0220568D01*
X0077744Y0220524D01*
X0077706Y0220478D01*
X0077670Y0220429D01*
X0077637Y0220378D01*
X0077608Y0220326D01*
X0077581Y0220271D01*
X0077558Y0220216D01*
X0077538Y0220159D01*
X0077522Y0220100D01*
X0077509Y0220041D01*
X0077500Y0219982D01*
X0077495Y0219921D01*
X0077493Y0219861D01*
X0077493Y0218361D01*
X0077993Y0217861D01*
X0077993Y0203861D01*
X0077493Y0203361D01*
X0077493Y0201861D01*
X0077495Y0201801D01*
X0077500Y0201740D01*
X0077509Y0201681D01*
X0077522Y0201622D01*
X0077538Y0201563D01*
X0077558Y0201506D01*
X0077581Y0201451D01*
X0077608Y0201396D01*
X0077637Y0201344D01*
X0077670Y0201293D01*
X0077706Y0201244D01*
X0077744Y0201198D01*
X0077786Y0201154D01*
X0077830Y0201112D01*
X0077876Y0201074D01*
X0077925Y0201038D01*
X0077976Y0201005D01*
X0078028Y0200976D01*
X0078083Y0200949D01*
X0078138Y0200926D01*
X0078195Y0200906D01*
X0078254Y0200890D01*
X0078313Y0200877D01*
X0078372Y0200868D01*
X0078433Y0200863D01*
X0078493Y0200861D01*
X0084493Y0200861D01*
X0084553Y0200863D01*
X0084614Y0200868D01*
X0084673Y0200877D01*
X0084732Y0200890D01*
X0084791Y0200906D01*
X0084848Y0200926D01*
X0084903Y0200949D01*
X0084958Y0200976D01*
X0085010Y0201005D01*
X0085061Y0201038D01*
X0085110Y0201074D01*
X0085156Y0201112D01*
X0085200Y0201154D01*
X0085242Y0201198D01*
X0085280Y0201244D01*
X0085316Y0201293D01*
X0085349Y0201344D01*
X0085378Y0201396D01*
X0085405Y0201451D01*
X0085428Y0201506D01*
X0085448Y0201563D01*
X0085464Y0201622D01*
X0085477Y0201681D01*
X0085486Y0201740D01*
X0085491Y0201801D01*
X0085493Y0201861D01*
X0201831Y0219444D02*
X0201834Y0219714D01*
X0201844Y0219984D01*
X0201861Y0220253D01*
X0201884Y0220522D01*
X0201914Y0220791D01*
X0201950Y0221058D01*
X0201993Y0221325D01*
X0202042Y0221590D01*
X0202098Y0221854D01*
X0202161Y0222117D01*
X0202229Y0222378D01*
X0202305Y0222637D01*
X0202386Y0222894D01*
X0202474Y0223150D01*
X0202568Y0223403D01*
X0202668Y0223654D01*
X0202775Y0223902D01*
X0202887Y0224147D01*
X0203006Y0224390D01*
X0203130Y0224629D01*
X0203260Y0224866D01*
X0203396Y0225099D01*
X0203538Y0225329D01*
X0203685Y0225555D01*
X0203838Y0225778D01*
X0203996Y0225997D01*
X0204159Y0226212D01*
X0204328Y0226422D01*
X0204502Y0226629D01*
X0204681Y0226831D01*
X0204864Y0227029D01*
X0205053Y0227222D01*
X0205246Y0227411D01*
X0205444Y0227594D01*
X0205646Y0227773D01*
X0205853Y0227947D01*
X0206063Y0228116D01*
X0206278Y0228279D01*
X0206497Y0228437D01*
X0206720Y0228590D01*
X0206946Y0228737D01*
X0207176Y0228879D01*
X0207409Y0229015D01*
X0207646Y0229145D01*
X0207885Y0229269D01*
X0208128Y0229388D01*
X0208373Y0229500D01*
X0208621Y0229607D01*
X0208872Y0229707D01*
X0209125Y0229801D01*
X0209381Y0229889D01*
X0209638Y0229970D01*
X0209897Y0230046D01*
X0210158Y0230114D01*
X0210421Y0230177D01*
X0210685Y0230233D01*
X0210950Y0230282D01*
X0211217Y0230325D01*
X0211484Y0230361D01*
X0211753Y0230391D01*
X0212022Y0230414D01*
X0212291Y0230431D01*
X0212561Y0230441D01*
X0212831Y0230444D01*
X0213101Y0230441D01*
X0213371Y0230431D01*
X0213640Y0230414D01*
X0213909Y0230391D01*
X0214178Y0230361D01*
X0214445Y0230325D01*
X0214712Y0230282D01*
X0214977Y0230233D01*
X0215241Y0230177D01*
X0215504Y0230114D01*
X0215765Y0230046D01*
X0216024Y0229970D01*
X0216281Y0229889D01*
X0216537Y0229801D01*
X0216790Y0229707D01*
X0217041Y0229607D01*
X0217289Y0229500D01*
X0217534Y0229388D01*
X0217777Y0229269D01*
X0218016Y0229145D01*
X0218253Y0229015D01*
X0218486Y0228879D01*
X0218716Y0228737D01*
X0218942Y0228590D01*
X0219165Y0228437D01*
X0219384Y0228279D01*
X0219599Y0228116D01*
X0219809Y0227947D01*
X0220016Y0227773D01*
X0220218Y0227594D01*
X0220416Y0227411D01*
X0220609Y0227222D01*
X0220798Y0227029D01*
X0220981Y0226831D01*
X0221160Y0226629D01*
X0221334Y0226422D01*
X0221503Y0226212D01*
X0221666Y0225997D01*
X0221824Y0225778D01*
X0221977Y0225555D01*
X0222124Y0225329D01*
X0222266Y0225099D01*
X0222402Y0224866D01*
X0222532Y0224629D01*
X0222656Y0224390D01*
X0222775Y0224147D01*
X0222887Y0223902D01*
X0222994Y0223654D01*
X0223094Y0223403D01*
X0223188Y0223150D01*
X0223276Y0222894D01*
X0223357Y0222637D01*
X0223433Y0222378D01*
X0223501Y0222117D01*
X0223564Y0221854D01*
X0223620Y0221590D01*
X0223669Y0221325D01*
X0223712Y0221058D01*
X0223748Y0220791D01*
X0223778Y0220522D01*
X0223801Y0220253D01*
X0223818Y0219984D01*
X0223828Y0219714D01*
X0223831Y0219444D01*
X0223828Y0219174D01*
X0223818Y0218904D01*
X0223801Y0218635D01*
X0223778Y0218366D01*
X0223748Y0218097D01*
X0223712Y0217830D01*
X0223669Y0217563D01*
X0223620Y0217298D01*
X0223564Y0217034D01*
X0223501Y0216771D01*
X0223433Y0216510D01*
X0223357Y0216251D01*
X0223276Y0215994D01*
X0223188Y0215738D01*
X0223094Y0215485D01*
X0222994Y0215234D01*
X0222887Y0214986D01*
X0222775Y0214741D01*
X0222656Y0214498D01*
X0222532Y0214259D01*
X0222402Y0214022D01*
X0222266Y0213789D01*
X0222124Y0213559D01*
X0221977Y0213333D01*
X0221824Y0213110D01*
X0221666Y0212891D01*
X0221503Y0212676D01*
X0221334Y0212466D01*
X0221160Y0212259D01*
X0220981Y0212057D01*
X0220798Y0211859D01*
X0220609Y0211666D01*
X0220416Y0211477D01*
X0220218Y0211294D01*
X0220016Y0211115D01*
X0219809Y0210941D01*
X0219599Y0210772D01*
X0219384Y0210609D01*
X0219165Y0210451D01*
X0218942Y0210298D01*
X0218716Y0210151D01*
X0218486Y0210009D01*
X0218253Y0209873D01*
X0218016Y0209743D01*
X0217777Y0209619D01*
X0217534Y0209500D01*
X0217289Y0209388D01*
X0217041Y0209281D01*
X0216790Y0209181D01*
X0216537Y0209087D01*
X0216281Y0208999D01*
X0216024Y0208918D01*
X0215765Y0208842D01*
X0215504Y0208774D01*
X0215241Y0208711D01*
X0214977Y0208655D01*
X0214712Y0208606D01*
X0214445Y0208563D01*
X0214178Y0208527D01*
X0213909Y0208497D01*
X0213640Y0208474D01*
X0213371Y0208457D01*
X0213101Y0208447D01*
X0212831Y0208444D01*
X0212561Y0208447D01*
X0212291Y0208457D01*
X0212022Y0208474D01*
X0211753Y0208497D01*
X0211484Y0208527D01*
X0211217Y0208563D01*
X0210950Y0208606D01*
X0210685Y0208655D01*
X0210421Y0208711D01*
X0210158Y0208774D01*
X0209897Y0208842D01*
X0209638Y0208918D01*
X0209381Y0208999D01*
X0209125Y0209087D01*
X0208872Y0209181D01*
X0208621Y0209281D01*
X0208373Y0209388D01*
X0208128Y0209500D01*
X0207885Y0209619D01*
X0207646Y0209743D01*
X0207409Y0209873D01*
X0207176Y0210009D01*
X0206946Y0210151D01*
X0206720Y0210298D01*
X0206497Y0210451D01*
X0206278Y0210609D01*
X0206063Y0210772D01*
X0205853Y0210941D01*
X0205646Y0211115D01*
X0205444Y0211294D01*
X0205246Y0211477D01*
X0205053Y0211666D01*
X0204864Y0211859D01*
X0204681Y0212057D01*
X0204502Y0212259D01*
X0204328Y0212466D01*
X0204159Y0212676D01*
X0203996Y0212891D01*
X0203838Y0213110D01*
X0203685Y0213333D01*
X0203538Y0213559D01*
X0203396Y0213789D01*
X0203260Y0214022D01*
X0203130Y0214259D01*
X0203006Y0214498D01*
X0202887Y0214741D01*
X0202775Y0214986D01*
X0202668Y0215234D01*
X0202568Y0215485D01*
X0202474Y0215738D01*
X0202386Y0215994D01*
X0202305Y0216251D01*
X0202229Y0216510D01*
X0202161Y0216771D01*
X0202098Y0217034D01*
X0202042Y0217298D01*
X0201993Y0217563D01*
X0201950Y0217830D01*
X0201914Y0218097D01*
X0201884Y0218366D01*
X0201861Y0218635D01*
X0201844Y0218904D01*
X0201834Y0219174D01*
X0201831Y0219444D01*
X0230729Y0219444D02*
X0230732Y0219714D01*
X0230742Y0219984D01*
X0230759Y0220253D01*
X0230782Y0220522D01*
X0230812Y0220791D01*
X0230848Y0221058D01*
X0230891Y0221325D01*
X0230940Y0221590D01*
X0230996Y0221854D01*
X0231059Y0222117D01*
X0231127Y0222378D01*
X0231203Y0222637D01*
X0231284Y0222894D01*
X0231372Y0223150D01*
X0231466Y0223403D01*
X0231566Y0223654D01*
X0231673Y0223902D01*
X0231785Y0224147D01*
X0231904Y0224390D01*
X0232028Y0224629D01*
X0232158Y0224866D01*
X0232294Y0225099D01*
X0232436Y0225329D01*
X0232583Y0225555D01*
X0232736Y0225778D01*
X0232894Y0225997D01*
X0233057Y0226212D01*
X0233226Y0226422D01*
X0233400Y0226629D01*
X0233579Y0226831D01*
X0233762Y0227029D01*
X0233951Y0227222D01*
X0234144Y0227411D01*
X0234342Y0227594D01*
X0234544Y0227773D01*
X0234751Y0227947D01*
X0234961Y0228116D01*
X0235176Y0228279D01*
X0235395Y0228437D01*
X0235618Y0228590D01*
X0235844Y0228737D01*
X0236074Y0228879D01*
X0236307Y0229015D01*
X0236544Y0229145D01*
X0236783Y0229269D01*
X0237026Y0229388D01*
X0237271Y0229500D01*
X0237519Y0229607D01*
X0237770Y0229707D01*
X0238023Y0229801D01*
X0238279Y0229889D01*
X0238536Y0229970D01*
X0238795Y0230046D01*
X0239056Y0230114D01*
X0239319Y0230177D01*
X0239583Y0230233D01*
X0239848Y0230282D01*
X0240115Y0230325D01*
X0240382Y0230361D01*
X0240651Y0230391D01*
X0240920Y0230414D01*
X0241189Y0230431D01*
X0241459Y0230441D01*
X0241729Y0230444D01*
X0241999Y0230441D01*
X0242269Y0230431D01*
X0242538Y0230414D01*
X0242807Y0230391D01*
X0243076Y0230361D01*
X0243343Y0230325D01*
X0243610Y0230282D01*
X0243875Y0230233D01*
X0244139Y0230177D01*
X0244402Y0230114D01*
X0244663Y0230046D01*
X0244922Y0229970D01*
X0245179Y0229889D01*
X0245435Y0229801D01*
X0245688Y0229707D01*
X0245939Y0229607D01*
X0246187Y0229500D01*
X0246432Y0229388D01*
X0246675Y0229269D01*
X0246914Y0229145D01*
X0247151Y0229015D01*
X0247384Y0228879D01*
X0247614Y0228737D01*
X0247840Y0228590D01*
X0248063Y0228437D01*
X0248282Y0228279D01*
X0248497Y0228116D01*
X0248707Y0227947D01*
X0248914Y0227773D01*
X0249116Y0227594D01*
X0249314Y0227411D01*
X0249507Y0227222D01*
X0249696Y0227029D01*
X0249879Y0226831D01*
X0250058Y0226629D01*
X0250232Y0226422D01*
X0250401Y0226212D01*
X0250564Y0225997D01*
X0250722Y0225778D01*
X0250875Y0225555D01*
X0251022Y0225329D01*
X0251164Y0225099D01*
X0251300Y0224866D01*
X0251430Y0224629D01*
X0251554Y0224390D01*
X0251673Y0224147D01*
X0251785Y0223902D01*
X0251892Y0223654D01*
X0251992Y0223403D01*
X0252086Y0223150D01*
X0252174Y0222894D01*
X0252255Y0222637D01*
X0252331Y0222378D01*
X0252399Y0222117D01*
X0252462Y0221854D01*
X0252518Y0221590D01*
X0252567Y0221325D01*
X0252610Y0221058D01*
X0252646Y0220791D01*
X0252676Y0220522D01*
X0252699Y0220253D01*
X0252716Y0219984D01*
X0252726Y0219714D01*
X0252729Y0219444D01*
X0252726Y0219174D01*
X0252716Y0218904D01*
X0252699Y0218635D01*
X0252676Y0218366D01*
X0252646Y0218097D01*
X0252610Y0217830D01*
X0252567Y0217563D01*
X0252518Y0217298D01*
X0252462Y0217034D01*
X0252399Y0216771D01*
X0252331Y0216510D01*
X0252255Y0216251D01*
X0252174Y0215994D01*
X0252086Y0215738D01*
X0251992Y0215485D01*
X0251892Y0215234D01*
X0251785Y0214986D01*
X0251673Y0214741D01*
X0251554Y0214498D01*
X0251430Y0214259D01*
X0251300Y0214022D01*
X0251164Y0213789D01*
X0251022Y0213559D01*
X0250875Y0213333D01*
X0250722Y0213110D01*
X0250564Y0212891D01*
X0250401Y0212676D01*
X0250232Y0212466D01*
X0250058Y0212259D01*
X0249879Y0212057D01*
X0249696Y0211859D01*
X0249507Y0211666D01*
X0249314Y0211477D01*
X0249116Y0211294D01*
X0248914Y0211115D01*
X0248707Y0210941D01*
X0248497Y0210772D01*
X0248282Y0210609D01*
X0248063Y0210451D01*
X0247840Y0210298D01*
X0247614Y0210151D01*
X0247384Y0210009D01*
X0247151Y0209873D01*
X0246914Y0209743D01*
X0246675Y0209619D01*
X0246432Y0209500D01*
X0246187Y0209388D01*
X0245939Y0209281D01*
X0245688Y0209181D01*
X0245435Y0209087D01*
X0245179Y0208999D01*
X0244922Y0208918D01*
X0244663Y0208842D01*
X0244402Y0208774D01*
X0244139Y0208711D01*
X0243875Y0208655D01*
X0243610Y0208606D01*
X0243343Y0208563D01*
X0243076Y0208527D01*
X0242807Y0208497D01*
X0242538Y0208474D01*
X0242269Y0208457D01*
X0241999Y0208447D01*
X0241729Y0208444D01*
X0241459Y0208447D01*
X0241189Y0208457D01*
X0240920Y0208474D01*
X0240651Y0208497D01*
X0240382Y0208527D01*
X0240115Y0208563D01*
X0239848Y0208606D01*
X0239583Y0208655D01*
X0239319Y0208711D01*
X0239056Y0208774D01*
X0238795Y0208842D01*
X0238536Y0208918D01*
X0238279Y0208999D01*
X0238023Y0209087D01*
X0237770Y0209181D01*
X0237519Y0209281D01*
X0237271Y0209388D01*
X0237026Y0209500D01*
X0236783Y0209619D01*
X0236544Y0209743D01*
X0236307Y0209873D01*
X0236074Y0210009D01*
X0235844Y0210151D01*
X0235618Y0210298D01*
X0235395Y0210451D01*
X0235176Y0210609D01*
X0234961Y0210772D01*
X0234751Y0210941D01*
X0234544Y0211115D01*
X0234342Y0211294D01*
X0234144Y0211477D01*
X0233951Y0211666D01*
X0233762Y0211859D01*
X0233579Y0212057D01*
X0233400Y0212259D01*
X0233226Y0212466D01*
X0233057Y0212676D01*
X0232894Y0212891D01*
X0232736Y0213110D01*
X0232583Y0213333D01*
X0232436Y0213559D01*
X0232294Y0213789D01*
X0232158Y0214022D01*
X0232028Y0214259D01*
X0231904Y0214498D01*
X0231785Y0214741D01*
X0231673Y0214986D01*
X0231566Y0215234D01*
X0231466Y0215485D01*
X0231372Y0215738D01*
X0231284Y0215994D01*
X0231203Y0216251D01*
X0231127Y0216510D01*
X0231059Y0216771D01*
X0230996Y0217034D01*
X0230940Y0217298D01*
X0230891Y0217563D01*
X0230848Y0217830D01*
X0230812Y0218097D01*
X0230782Y0218366D01*
X0230759Y0218635D01*
X0230742Y0218904D01*
X0230732Y0219174D01*
X0230729Y0219444D01*
D12*
X0235729Y0215444D02*
X0235729Y0211444D01*
X0233729Y0213444D02*
X0237729Y0213444D01*
X0237482Y0231600D02*
X0238983Y0231600D01*
X0239734Y0232350D01*
X0241335Y0231600D02*
X0244337Y0234602D01*
X0244337Y0235353D01*
X0243587Y0236103D01*
X0242086Y0236103D01*
X0241335Y0235353D01*
X0239734Y0235353D02*
X0238983Y0236103D01*
X0237482Y0236103D01*
X0236731Y0235353D01*
X0236731Y0232350D01*
X0237482Y0231600D01*
X0241335Y0231600D02*
X0244337Y0231600D01*
X0215862Y0232867D02*
X0212859Y0232867D01*
X0214361Y0232867D02*
X0214361Y0237371D01*
X0212859Y0235870D01*
X0211258Y0236621D02*
X0210507Y0237371D01*
X0209006Y0237371D01*
X0208255Y0236621D01*
X0208255Y0233618D01*
X0209006Y0232867D01*
X0210507Y0232867D01*
X0211258Y0233618D01*
X0206831Y0215444D02*
X0206831Y0211444D01*
X0204831Y0213444D02*
X0208831Y0213444D01*
X0168798Y0198154D02*
X0168798Y0197403D01*
X0168047Y0196652D01*
X0166546Y0196652D01*
X0165796Y0197403D01*
X0165796Y0198154D01*
X0166546Y0198904D01*
X0168047Y0198904D01*
X0168798Y0198154D01*
X0168047Y0196652D02*
X0168798Y0195902D01*
X0168798Y0195151D01*
X0168047Y0194400D01*
X0166546Y0194400D01*
X0165796Y0195151D01*
X0165796Y0195902D01*
X0166546Y0196652D01*
X0164194Y0196652D02*
X0164194Y0198154D01*
X0163444Y0198904D01*
X0161192Y0198904D01*
X0161192Y0194400D01*
X0161192Y0195902D02*
X0163444Y0195902D01*
X0164194Y0196652D01*
X0162693Y0195902D02*
X0164194Y0194400D01*
X0138587Y0205998D02*
X0134083Y0205998D01*
X0134083Y0208250D01*
X0134834Y0209001D01*
X0136335Y0209001D01*
X0137086Y0208250D01*
X0137086Y0205998D01*
X0137086Y0207499D02*
X0138587Y0209001D01*
X0136335Y0210602D02*
X0136335Y0213605D01*
X0138587Y0212854D02*
X0134083Y0212854D01*
X0136335Y0210602D01*
X0122839Y0210602D02*
X0119836Y0213605D01*
X0119086Y0213605D01*
X0118335Y0212854D01*
X0118335Y0211353D01*
X0119086Y0210602D01*
X0119086Y0209001D02*
X0120587Y0209001D01*
X0121338Y0208250D01*
X0121338Y0205998D01*
X0122839Y0205998D02*
X0118335Y0205998D01*
X0118335Y0208250D01*
X0119086Y0209001D01*
X0121338Y0207499D02*
X0122839Y0209001D01*
X0122839Y0210602D02*
X0122839Y0213605D01*
X0106146Y0212933D02*
X0106146Y0211431D01*
X0105395Y0210681D01*
X0103894Y0210681D01*
X0103894Y0212933D01*
X0104645Y0213683D01*
X0105395Y0213683D01*
X0106146Y0212933D01*
X0103894Y0210681D02*
X0102393Y0212182D01*
X0101642Y0213683D01*
X0102393Y0209079D02*
X0103894Y0209079D01*
X0104645Y0208329D01*
X0104645Y0206077D01*
X0106146Y0206077D02*
X0101642Y0206077D01*
X0101642Y0208329D01*
X0102393Y0209079D01*
X0104645Y0207578D02*
X0106146Y0209079D01*
X0091343Y0209001D02*
X0089841Y0207499D01*
X0089841Y0208250D02*
X0089841Y0205998D01*
X0091343Y0205998D02*
X0086839Y0205998D01*
X0086839Y0208250D01*
X0087590Y0209001D01*
X0089091Y0209001D01*
X0089841Y0208250D01*
X0090592Y0210602D02*
X0091343Y0210602D01*
X0090592Y0210602D02*
X0087590Y0213605D01*
X0086839Y0213605D01*
X0086839Y0210602D01*
X0146046Y0166359D02*
X0150550Y0166359D01*
X0150550Y0164858D02*
X0150550Y0167860D01*
X0147547Y0164858D02*
X0146046Y0166359D01*
X0146797Y0163256D02*
X0146046Y0162506D01*
X0146046Y0161005D01*
X0146797Y0160254D01*
X0149799Y0160254D01*
X0150550Y0161005D01*
X0150550Y0162506D01*
X0149799Y0163256D01*
X0150550Y0158686D02*
X0150550Y0157185D01*
X0150550Y0157935D02*
X0146046Y0157935D01*
X0146046Y0157185D02*
X0146046Y0158686D01*
X0162190Y0159773D02*
X0162190Y0162025D01*
X0162941Y0162775D01*
X0164442Y0162775D01*
X0165193Y0162025D01*
X0165193Y0159773D01*
X0166694Y0159773D02*
X0162190Y0159773D01*
X0165193Y0161274D02*
X0166694Y0162775D01*
X0165943Y0164377D02*
X0166694Y0165127D01*
X0166694Y0166629D01*
X0165943Y0167379D01*
X0165193Y0167379D01*
X0164442Y0166629D01*
X0164442Y0165878D01*
X0164442Y0166629D02*
X0163691Y0167379D01*
X0162941Y0167379D01*
X0162190Y0166629D01*
X0162190Y0165127D01*
X0162941Y0164377D01*
X0181875Y0164377D02*
X0184127Y0164377D01*
X0183376Y0165878D01*
X0183376Y0166629D01*
X0184127Y0167379D01*
X0185628Y0167379D01*
X0186379Y0166629D01*
X0186379Y0165127D01*
X0185628Y0164377D01*
X0186379Y0162775D02*
X0184878Y0161274D01*
X0184878Y0162025D02*
X0184878Y0159773D01*
X0186379Y0159773D02*
X0181875Y0159773D01*
X0181875Y0162025D01*
X0182626Y0162775D01*
X0184127Y0162775D01*
X0184878Y0162025D01*
X0181875Y0164377D02*
X0181875Y0167379D01*
X0156420Y0124919D02*
X0156420Y0121916D01*
X0156420Y0123417D02*
X0151916Y0123417D01*
X0153417Y0121916D01*
X0152667Y0120315D02*
X0155669Y0120315D01*
X0156420Y0119564D01*
X0156420Y0118063D01*
X0155669Y0117312D01*
X0152667Y0117312D01*
X0151916Y0118063D01*
X0151916Y0119564D01*
X0152667Y0120315D01*
X0154919Y0118813D02*
X0156420Y0120315D01*
X0156420Y0097360D02*
X0156420Y0094357D01*
X0153417Y0097360D01*
X0152667Y0097360D01*
X0151916Y0096609D01*
X0151916Y0095108D01*
X0152667Y0094357D01*
X0152667Y0092756D02*
X0155669Y0092756D01*
X0156420Y0092005D01*
X0156420Y0090504D01*
X0155669Y0089753D01*
X0152667Y0089753D01*
X0151916Y0090504D01*
X0151916Y0092005D01*
X0152667Y0092756D01*
X0154919Y0091254D02*
X0156420Y0092756D01*
X0155669Y0067832D02*
X0156420Y0067081D01*
X0156420Y0065580D01*
X0155669Y0064830D01*
X0155669Y0063228D02*
X0156420Y0062478D01*
X0156420Y0060976D01*
X0155669Y0060226D01*
X0152667Y0060226D01*
X0151916Y0060976D01*
X0151916Y0062478D01*
X0152667Y0063228D01*
X0155669Y0063228D01*
X0156420Y0063228D02*
X0154919Y0061727D01*
X0152667Y0064830D02*
X0151916Y0065580D01*
X0151916Y0067081D01*
X0152667Y0067832D01*
X0153417Y0067832D01*
X0154168Y0067081D01*
X0154919Y0067832D01*
X0155669Y0067832D01*
X0154168Y0067081D02*
X0154168Y0066331D01*
X0113481Y0079167D02*
X0113481Y0079917D01*
X0112730Y0080668D01*
X0110478Y0080668D01*
X0110478Y0079167D01*
X0111229Y0078416D01*
X0112730Y0078416D01*
X0113481Y0079167D01*
X0111979Y0082169D02*
X0110478Y0080668D01*
X0111979Y0082169D02*
X0113481Y0082920D01*
X0107376Y0082920D02*
X0107376Y0078416D01*
X0108877Y0078416D02*
X0105874Y0078416D01*
X0104273Y0078416D02*
X0102772Y0079917D01*
X0103522Y0079917D02*
X0101270Y0079917D01*
X0101270Y0078416D02*
X0101270Y0082920D01*
X0103522Y0082920D01*
X0104273Y0082169D01*
X0104273Y0080668D01*
X0103522Y0079917D01*
X0105874Y0081419D02*
X0107376Y0082920D01*
X0107376Y0098101D02*
X0107376Y0102605D01*
X0105874Y0101104D01*
X0104273Y0101854D02*
X0104273Y0100353D01*
X0103522Y0099602D01*
X0101270Y0099602D01*
X0101270Y0098101D02*
X0101270Y0102605D01*
X0103522Y0102605D01*
X0104273Y0101854D01*
X0102772Y0099602D02*
X0104273Y0098101D01*
X0105874Y0098101D02*
X0108877Y0098101D01*
X0110478Y0098852D02*
X0111229Y0098101D01*
X0112730Y0098101D01*
X0113481Y0098852D01*
X0113481Y0100353D01*
X0112730Y0101104D01*
X0111979Y0101104D01*
X0110478Y0100353D01*
X0110478Y0102605D01*
X0113481Y0102605D01*
X0112730Y0117786D02*
X0112730Y0122290D01*
X0110478Y0120038D01*
X0113481Y0120038D01*
X0108877Y0117786D02*
X0105874Y0117786D01*
X0107376Y0117786D02*
X0107376Y0122290D01*
X0105874Y0120789D01*
X0104273Y0121539D02*
X0104273Y0120038D01*
X0103522Y0119287D01*
X0101270Y0119287D01*
X0101270Y0117786D02*
X0101270Y0122290D01*
X0103522Y0122290D01*
X0104273Y0121539D01*
X0102772Y0119287D02*
X0104273Y0117786D01*
X0103239Y0067172D02*
X0105491Y0067172D01*
X0106241Y0066421D01*
X0106241Y0064920D01*
X0105491Y0064169D01*
X0103239Y0064169D01*
X0103239Y0062668D02*
X0103239Y0067172D01*
X0104740Y0064169D02*
X0106241Y0062668D01*
X0107843Y0062668D02*
X0110845Y0062668D01*
X0109344Y0062668D02*
X0109344Y0067172D01*
X0107843Y0065671D01*
X0102944Y0019512D02*
X0101809Y0019512D01*
X0101242Y0018945D01*
X0102944Y0019512D02*
X0103511Y0018945D01*
X0103511Y0018378D01*
X0101242Y0016109D01*
X0103511Y0016109D01*
X0121242Y0016109D02*
X0123511Y0016109D01*
X0122377Y0016109D02*
X0122377Y0019512D01*
X0121242Y0018378D01*
X0219352Y0018945D02*
X0219920Y0019512D01*
X0221054Y0019512D01*
X0221621Y0018945D01*
X0221621Y0018378D01*
X0219352Y0016109D01*
X0221621Y0016109D01*
X0239352Y0016109D02*
X0241621Y0016109D01*
X0240487Y0016109D02*
X0240487Y0019512D01*
X0239352Y0018378D01*
X0248196Y0063415D02*
X0252699Y0063415D01*
X0251198Y0063415D02*
X0248196Y0066417D01*
X0248946Y0068018D02*
X0248196Y0068769D01*
X0248196Y0070270D01*
X0248946Y0071021D01*
X0249697Y0071021D01*
X0250448Y0070270D01*
X0251198Y0071021D01*
X0251949Y0071021D01*
X0252699Y0070270D01*
X0252699Y0068769D01*
X0251949Y0068018D01*
X0252699Y0066417D02*
X0250448Y0064165D01*
X0250448Y0069520D02*
X0250448Y0070270D01*
X0268876Y0071657D02*
X0268876Y0067153D01*
X0268876Y0068654D02*
X0271128Y0068654D01*
X0271878Y0069405D01*
X0271878Y0070906D01*
X0271128Y0071657D01*
X0268876Y0071657D01*
X0270377Y0068654D02*
X0271878Y0067153D01*
X0273480Y0067153D02*
X0276482Y0067153D01*
X0274981Y0067153D02*
X0274981Y0071657D01*
X0273480Y0070156D01*
X0278084Y0070906D02*
X0278834Y0071657D01*
X0280336Y0071657D01*
X0281086Y0070906D01*
X0281086Y0070156D01*
X0280336Y0069405D01*
X0281086Y0068654D01*
X0281086Y0067904D01*
X0280336Y0067153D01*
X0278834Y0067153D01*
X0278084Y0067904D01*
X0279585Y0069405D02*
X0280336Y0069405D01*
X0280804Y0086290D02*
X0277801Y0086290D01*
X0280804Y0089293D01*
X0280804Y0090043D01*
X0280053Y0090794D01*
X0278552Y0090794D01*
X0277801Y0090043D01*
X0274698Y0090794D02*
X0274698Y0086290D01*
X0273197Y0086290D02*
X0276200Y0086290D01*
X0273197Y0089293D02*
X0274698Y0090794D01*
X0271596Y0090043D02*
X0271596Y0088542D01*
X0270845Y0087791D01*
X0268593Y0087791D01*
X0268593Y0086290D02*
X0268593Y0090794D01*
X0270845Y0090794D01*
X0271596Y0090043D01*
X0270094Y0087791D02*
X0271596Y0086290D01*
X0270562Y0102038D02*
X0270562Y0106542D01*
X0272814Y0106542D01*
X0273564Y0105791D01*
X0273564Y0104290D01*
X0272814Y0103539D01*
X0270562Y0103539D01*
X0272063Y0103539D02*
X0273564Y0102038D01*
X0275166Y0102038D02*
X0278168Y0102038D01*
X0276667Y0102038D02*
X0276667Y0106542D01*
X0275166Y0105041D01*
X0279770Y0105791D02*
X0279770Y0102789D01*
X0282772Y0105791D01*
X0282772Y0102789D01*
X0282021Y0102038D01*
X0280520Y0102038D01*
X0279770Y0102789D01*
X0279770Y0105791D02*
X0280520Y0106542D01*
X0282021Y0106542D01*
X0282772Y0105791D01*
X0282772Y0121723D02*
X0279770Y0121723D01*
X0281271Y0121723D02*
X0281271Y0126227D01*
X0279770Y0124726D01*
X0278168Y0121723D02*
X0275166Y0121723D01*
X0276667Y0121723D02*
X0276667Y0126227D01*
X0275166Y0124726D01*
X0273564Y0125476D02*
X0273564Y0123975D01*
X0272814Y0123225D01*
X0270562Y0123225D01*
X0272063Y0123225D02*
X0273564Y0121723D01*
X0270562Y0121723D02*
X0270562Y0126227D01*
X0272814Y0126227D01*
X0273564Y0125476D01*
X0252640Y0126230D02*
X0248137Y0126230D01*
X0250388Y0126980D02*
X0252640Y0129232D01*
X0252640Y0130833D02*
X0252640Y0133836D01*
X0252640Y0132335D02*
X0248137Y0132335D01*
X0249638Y0130833D01*
X0248137Y0129232D02*
X0251139Y0126230D01*
X0249638Y0102340D02*
X0248887Y0102340D01*
X0248137Y0101589D01*
X0248137Y0100088D01*
X0248887Y0099337D01*
X0248137Y0097736D02*
X0251139Y0094733D01*
X0250388Y0095484D02*
X0252640Y0097736D01*
X0252640Y0099337D02*
X0249638Y0102340D01*
X0252640Y0102340D02*
X0252640Y0099337D01*
X0252640Y0094733D02*
X0248137Y0094733D01*
X0248099Y0158754D02*
X0248099Y0161006D01*
X0248849Y0161757D01*
X0250351Y0161757D01*
X0251101Y0161006D01*
X0251101Y0158754D01*
X0251101Y0160255D02*
X0252603Y0161757D01*
X0251852Y0163358D02*
X0252603Y0164109D01*
X0252603Y0165610D01*
X0251852Y0166360D01*
X0248849Y0166360D01*
X0248099Y0165610D01*
X0248099Y0164109D01*
X0248849Y0163358D01*
X0249600Y0163358D01*
X0250351Y0164109D01*
X0250351Y0166360D01*
X0252603Y0158754D02*
X0248099Y0158754D01*
X0235392Y0159153D02*
X0235392Y0160654D01*
X0235392Y0159904D02*
X0230889Y0159904D01*
X0230889Y0160654D02*
X0230889Y0159153D01*
X0231639Y0162222D02*
X0234642Y0162222D01*
X0235392Y0162973D01*
X0235392Y0164474D01*
X0234642Y0165225D01*
X0235392Y0166826D02*
X0232390Y0169829D01*
X0231639Y0169829D01*
X0230889Y0169078D01*
X0230889Y0167577D01*
X0231639Y0166826D01*
X0231639Y0165225D02*
X0230889Y0164474D01*
X0230889Y0162973D01*
X0231639Y0162222D01*
X0235392Y0166826D02*
X0235392Y0169829D01*
X0269942Y0181174D02*
X0271443Y0181174D01*
X0270693Y0181174D02*
X0270693Y0185678D01*
X0271443Y0185678D02*
X0269942Y0185678D01*
X0273011Y0184928D02*
X0273011Y0181925D01*
X0273762Y0181174D01*
X0275263Y0181174D01*
X0276014Y0181925D01*
X0277615Y0181925D02*
X0278366Y0181174D01*
X0279867Y0181174D01*
X0280618Y0181925D01*
X0280618Y0182676D01*
X0279867Y0183426D01*
X0279116Y0183426D01*
X0279867Y0183426D02*
X0280618Y0184177D01*
X0280618Y0184928D01*
X0279867Y0185678D01*
X0278366Y0185678D01*
X0277615Y0184928D01*
X0276014Y0184928D02*
X0275263Y0185678D01*
X0273762Y0185678D01*
X0273011Y0184928D01*
D13*
X0246138Y0139995D02*
X0246138Y0134995D01*
X0241138Y0129995D01*
X0246138Y0124995D01*
X0246138Y0119995D01*
X0166138Y0119995D01*
X0166138Y0139995D01*
X0246138Y0139995D01*
X0246138Y0134995D02*
X0246138Y0124995D01*
X0236138Y0124995D02*
X0236138Y0122495D01*
X0231138Y0122495D01*
X0223638Y0124995D01*
X0223638Y0122495D02*
X0176138Y0122495D01*
X0176138Y0124995D01*
X0166138Y0108499D02*
X0246138Y0108499D01*
X0246138Y0103499D01*
X0241138Y0098499D01*
X0246138Y0093499D01*
X0246138Y0088499D01*
X0166138Y0088499D01*
X0166138Y0108499D01*
X0176138Y0093499D02*
X0176138Y0090999D01*
X0223638Y0090999D01*
X0223638Y0093499D02*
X0231138Y0090999D01*
X0236138Y0090999D01*
X0236138Y0093499D01*
X0246138Y0093499D02*
X0246138Y0103499D01*
X0246138Y0077003D02*
X0246138Y0072003D01*
X0241138Y0067003D01*
X0246138Y0062003D01*
X0246138Y0057003D01*
X0166138Y0057003D01*
X0166138Y0077003D01*
X0246138Y0077003D01*
X0246138Y0072003D02*
X0246138Y0062003D01*
X0236138Y0062003D02*
X0236138Y0059503D01*
X0231138Y0059503D01*
X0223638Y0062003D01*
X0223638Y0059503D02*
X0176138Y0059503D01*
X0176138Y0062003D01*
X0201138Y0067003D02*
X0203638Y0067003D01*
X0203638Y0072003D01*
X0208638Y0072003D01*
X0208638Y0069503D01*
X0203638Y0064503D01*
X0203638Y0067003D01*
X0203638Y0064503D02*
X0203638Y0062003D01*
X0208638Y0062003D01*
X0208638Y0067003D01*
X0211138Y0067003D01*
X0208638Y0067003D02*
X0208638Y0069503D01*
X0210638Y0070503D02*
X0210640Y0070547D01*
X0210646Y0070591D01*
X0210656Y0070634D01*
X0210669Y0070676D01*
X0210686Y0070717D01*
X0210707Y0070756D01*
X0210731Y0070793D01*
X0210758Y0070828D01*
X0210788Y0070860D01*
X0210821Y0070890D01*
X0210857Y0070916D01*
X0210894Y0070940D01*
X0210934Y0070959D01*
X0210975Y0070976D01*
X0211018Y0070988D01*
X0211061Y0070997D01*
X0211105Y0071002D01*
X0211149Y0071003D01*
X0211193Y0071000D01*
X0211237Y0070993D01*
X0211280Y0070982D01*
X0211322Y0070968D01*
X0211362Y0070950D01*
X0211401Y0070928D01*
X0211437Y0070904D01*
X0211471Y0070876D01*
X0211503Y0070845D01*
X0211532Y0070811D01*
X0211558Y0070775D01*
X0211580Y0070737D01*
X0211599Y0070697D01*
X0211614Y0070655D01*
X0211626Y0070613D01*
X0211634Y0070569D01*
X0211638Y0070525D01*
X0211638Y0070481D01*
X0211634Y0070437D01*
X0211626Y0070393D01*
X0211614Y0070351D01*
X0211599Y0070309D01*
X0211580Y0070269D01*
X0211558Y0070231D01*
X0211532Y0070195D01*
X0211503Y0070161D01*
X0211471Y0070130D01*
X0211437Y0070102D01*
X0211401Y0070078D01*
X0211362Y0070056D01*
X0211322Y0070038D01*
X0211280Y0070024D01*
X0211237Y0070013D01*
X0211193Y0070006D01*
X0211149Y0070003D01*
X0211105Y0070004D01*
X0211061Y0070009D01*
X0211018Y0070018D01*
X0210975Y0070030D01*
X0210934Y0070047D01*
X0210894Y0070066D01*
X0210857Y0070090D01*
X0210821Y0070116D01*
X0210788Y0070146D01*
X0210758Y0070178D01*
X0210731Y0070213D01*
X0210707Y0070250D01*
X0210686Y0070289D01*
X0210669Y0070330D01*
X0210656Y0070372D01*
X0210646Y0070415D01*
X0210640Y0070459D01*
X0210638Y0070503D01*
X0208638Y0093499D02*
X0203638Y0093499D01*
X0203638Y0095999D01*
X0208638Y0100999D01*
X0208638Y0098499D01*
X0211138Y0098499D01*
X0208638Y0098499D02*
X0208638Y0093499D01*
X0203638Y0095999D02*
X0203638Y0098499D01*
X0201138Y0098499D01*
X0203638Y0098499D02*
X0203638Y0103499D01*
X0208638Y0103499D01*
X0208638Y0100999D01*
X0210638Y0101999D02*
X0210640Y0102043D01*
X0210646Y0102087D01*
X0210656Y0102130D01*
X0210669Y0102172D01*
X0210686Y0102213D01*
X0210707Y0102252D01*
X0210731Y0102289D01*
X0210758Y0102324D01*
X0210788Y0102356D01*
X0210821Y0102386D01*
X0210857Y0102412D01*
X0210894Y0102436D01*
X0210934Y0102455D01*
X0210975Y0102472D01*
X0211018Y0102484D01*
X0211061Y0102493D01*
X0211105Y0102498D01*
X0211149Y0102499D01*
X0211193Y0102496D01*
X0211237Y0102489D01*
X0211280Y0102478D01*
X0211322Y0102464D01*
X0211362Y0102446D01*
X0211401Y0102424D01*
X0211437Y0102400D01*
X0211471Y0102372D01*
X0211503Y0102341D01*
X0211532Y0102307D01*
X0211558Y0102271D01*
X0211580Y0102233D01*
X0211599Y0102193D01*
X0211614Y0102151D01*
X0211626Y0102109D01*
X0211634Y0102065D01*
X0211638Y0102021D01*
X0211638Y0101977D01*
X0211634Y0101933D01*
X0211626Y0101889D01*
X0211614Y0101847D01*
X0211599Y0101805D01*
X0211580Y0101765D01*
X0211558Y0101727D01*
X0211532Y0101691D01*
X0211503Y0101657D01*
X0211471Y0101626D01*
X0211437Y0101598D01*
X0211401Y0101574D01*
X0211362Y0101552D01*
X0211322Y0101534D01*
X0211280Y0101520D01*
X0211237Y0101509D01*
X0211193Y0101502D01*
X0211149Y0101499D01*
X0211105Y0101500D01*
X0211061Y0101505D01*
X0211018Y0101514D01*
X0210975Y0101526D01*
X0210934Y0101543D01*
X0210894Y0101562D01*
X0210857Y0101586D01*
X0210821Y0101612D01*
X0210788Y0101642D01*
X0210758Y0101674D01*
X0210731Y0101709D01*
X0210707Y0101746D01*
X0210686Y0101785D01*
X0210669Y0101826D01*
X0210656Y0101868D01*
X0210646Y0101911D01*
X0210640Y0101955D01*
X0210638Y0101999D01*
X0208638Y0124995D02*
X0203638Y0124995D01*
X0203638Y0127495D01*
X0208638Y0132495D01*
X0208638Y0129995D01*
X0211138Y0129995D01*
X0208638Y0129995D02*
X0208638Y0124995D01*
X0203638Y0127495D02*
X0203638Y0129995D01*
X0201138Y0129995D01*
X0203638Y0129995D02*
X0203638Y0134995D01*
X0208638Y0134995D01*
X0208638Y0132495D01*
X0210638Y0133495D02*
X0210640Y0133539D01*
X0210646Y0133583D01*
X0210656Y0133626D01*
X0210669Y0133668D01*
X0210686Y0133709D01*
X0210707Y0133748D01*
X0210731Y0133785D01*
X0210758Y0133820D01*
X0210788Y0133852D01*
X0210821Y0133882D01*
X0210857Y0133908D01*
X0210894Y0133932D01*
X0210934Y0133951D01*
X0210975Y0133968D01*
X0211018Y0133980D01*
X0211061Y0133989D01*
X0211105Y0133994D01*
X0211149Y0133995D01*
X0211193Y0133992D01*
X0211237Y0133985D01*
X0211280Y0133974D01*
X0211322Y0133960D01*
X0211362Y0133942D01*
X0211401Y0133920D01*
X0211437Y0133896D01*
X0211471Y0133868D01*
X0211503Y0133837D01*
X0211532Y0133803D01*
X0211558Y0133767D01*
X0211580Y0133729D01*
X0211599Y0133689D01*
X0211614Y0133647D01*
X0211626Y0133605D01*
X0211634Y0133561D01*
X0211638Y0133517D01*
X0211638Y0133473D01*
X0211634Y0133429D01*
X0211626Y0133385D01*
X0211614Y0133343D01*
X0211599Y0133301D01*
X0211580Y0133261D01*
X0211558Y0133223D01*
X0211532Y0133187D01*
X0211503Y0133153D01*
X0211471Y0133122D01*
X0211437Y0133094D01*
X0211401Y0133070D01*
X0211362Y0133048D01*
X0211322Y0133030D01*
X0211280Y0133016D01*
X0211237Y0133005D01*
X0211193Y0132998D01*
X0211149Y0132995D01*
X0211105Y0132996D01*
X0211061Y0133001D01*
X0211018Y0133010D01*
X0210975Y0133022D01*
X0210934Y0133039D01*
X0210894Y0133058D01*
X0210857Y0133082D01*
X0210821Y0133108D01*
X0210788Y0133138D01*
X0210758Y0133170D01*
X0210731Y0133205D01*
X0210707Y0133242D01*
X0210686Y0133281D01*
X0210669Y0133322D01*
X0210656Y0133364D01*
X0210646Y0133407D01*
X0210640Y0133451D01*
X0210638Y0133495D01*
D14*
X0225194Y0029759D03*
X0107083Y0029759D03*
D15*
X0095583Y0057318D02*
X0092083Y0057318D01*
X0092083Y0073066D02*
X0095583Y0073066D01*
X0095583Y0092751D02*
X0092083Y0092751D01*
X0092083Y0112436D02*
X0095583Y0112436D01*
X0118583Y0112436D02*
X0122083Y0112436D01*
X0122083Y0092751D02*
X0118583Y0092751D01*
X0118583Y0073066D02*
X0122083Y0073066D01*
X0122083Y0057318D02*
X0118583Y0057318D01*
X0156296Y0148617D02*
X0156296Y0152117D01*
X0175981Y0152117D02*
X0175981Y0148617D01*
X0175981Y0175117D02*
X0175981Y0178617D01*
X0178505Y0189050D02*
X0182005Y0189050D01*
X0155505Y0189050D02*
X0152005Y0189050D01*
X0156296Y0178617D02*
X0156296Y0175117D01*
X0128737Y0195861D02*
X0128737Y0199361D01*
X0112989Y0199361D02*
X0112989Y0195861D01*
X0097241Y0195861D02*
X0097241Y0199361D01*
X0081493Y0199361D02*
X0081493Y0195861D01*
X0081493Y0222361D02*
X0081493Y0225861D01*
X0097241Y0225861D02*
X0097241Y0222361D01*
X0112989Y0222361D02*
X0112989Y0225861D01*
X0128737Y0225861D02*
X0128737Y0222361D01*
X0242753Y0178617D02*
X0242753Y0175117D01*
X0242753Y0152117D02*
X0242753Y0148617D01*
X0261375Y0116373D02*
X0264875Y0116373D01*
X0264875Y0096688D02*
X0261375Y0096688D01*
X0261375Y0080940D02*
X0264875Y0080940D01*
X0264875Y0061255D02*
X0261375Y0061255D01*
X0287875Y0061255D02*
X0291375Y0061255D01*
X0291375Y0080940D02*
X0287875Y0080940D01*
X0287875Y0096688D02*
X0291375Y0096688D01*
X0291375Y0116373D02*
X0287875Y0116373D01*
D16*
X0287125Y0116373D03*
X0287125Y0096688D03*
X0287125Y0080940D03*
X0287125Y0061255D03*
X0265625Y0061255D03*
X0265625Y0080940D03*
X0265625Y0096688D03*
X0265625Y0116373D03*
X0177755Y0189050D03*
X0156255Y0189050D03*
X0117833Y0112436D03*
X0117833Y0092751D03*
X0117833Y0073066D03*
X0117833Y0057318D03*
X0096333Y0057318D03*
X0096333Y0073066D03*
X0096333Y0092751D03*
X0096333Y0112436D03*
D17*
X0156296Y0152867D03*
X0175981Y0152867D03*
X0175981Y0174367D03*
X0156296Y0174367D03*
X0128737Y0200111D03*
X0112989Y0200111D03*
X0097241Y0200111D03*
X0081493Y0200111D03*
X0081493Y0221611D03*
X0097241Y0221611D03*
X0112989Y0221611D03*
X0128737Y0221611D03*
X0242753Y0174367D03*
X0242753Y0152867D03*
D18*
X0068205Y0063814D02*
X0031985Y0063814D01*
X0031985Y0095739D01*
X0035804Y0095739D01*
X0035804Y0101562D01*
X0031985Y0101562D01*
X0031985Y0095739D01*
X0031985Y0101562D02*
X0031985Y0120771D01*
X0031985Y0135598D01*
X0059800Y0135598D01*
X0059800Y0120771D01*
X0031985Y0120771D01*
X0031985Y0135598D02*
X0031985Y0165739D01*
X0035804Y0165739D01*
X0035804Y0171562D01*
X0031985Y0171562D01*
X0031985Y0165739D01*
X0031985Y0171562D02*
X0031985Y0192554D01*
X0068205Y0192554D01*
X0068205Y0178550D01*
X0032497Y0088184D02*
X0042635Y0083165D01*
X0032497Y0078145D01*
X0032497Y0088184D01*
X0032497Y0087530D02*
X0033819Y0087530D01*
X0032497Y0086731D02*
X0035431Y0086731D01*
X0037044Y0085933D02*
X0032497Y0085933D01*
X0032497Y0085134D02*
X0038657Y0085134D01*
X0040270Y0084336D02*
X0032497Y0084336D01*
X0032497Y0083537D02*
X0041882Y0083537D01*
X0041774Y0082739D02*
X0032497Y0082739D01*
X0032497Y0081940D02*
X0040161Y0081940D01*
X0038549Y0081142D02*
X0032497Y0081142D01*
X0032497Y0080343D02*
X0036936Y0080343D01*
X0035323Y0079545D02*
X0032497Y0079545D01*
X0032497Y0078746D02*
X0033711Y0078746D01*
X0068205Y0077767D02*
X0068205Y0063814D01*
M02*
