%
M48
M72
T01C0.0236
T02C0.0276
T03C0.0320
T04C0.0394
T05C0.0520
T06C0.1969
%
T01
X7952Y4157
X13071Y2976
X19567Y4944
X16220Y10063
X13661Y10653
X11496Y12622
X12283Y13409
X14842Y14984
X16614Y14787
X18385Y14787
X19370Y16559
X21141Y16362
X23307Y14787
X19370Y11440
X16614Y17740
X20748Y20496
X21929Y19708
X23700Y20102
X26653Y19905
X28228Y15377
X11102Y18724
X8937Y17346
X9921Y16559
X9527Y15771
X9134Y12031
X11102Y9275
T02
X12208Y9275
X13502Y9275
X14252Y8775
X14252Y9775
X14252Y11531
X13502Y12031
X14252Y12531
X12208Y11244
X9208Y11244
X9208Y9275
X9208Y7307
X9208Y5732
X12208Y5732
X13502Y6519
X14252Y6019
X14252Y7019
X12208Y7307
X15630Y14862
X17598Y14862
X17598Y17862
X18200Y18905
X15630Y17862
X15200Y18905
X12874Y19586
X11299Y19586
X9724Y19586
X8149Y19586
X8149Y22586
X9724Y22586
X11299Y22586
X12874Y22586
X20783Y21944
X21783Y21944
X23673Y21944
X24673Y21944
X24275Y17862
X24275Y14862
X26137Y11637
X26137Y9669
X26137Y8094
X26137Y6126
X29137Y6126
X29137Y8094
X29137Y9669
X29137Y11637
T03
X29137Y14468
X29137Y15468
X29137Y16468
X29137Y17468
X26137Y17468
X26137Y16468
X26137Y15468
X26137Y14468
X23614Y13000
X21614Y13000
X19614Y13000
X17614Y13000
X19464Y14862
X20464Y14862
X21464Y14862
X22464Y14862
X22464Y17862
X21464Y17862
X20464Y17862
X19464Y17862
X13783Y17862
X12783Y17862
X11783Y17862
X10783Y17862
X10783Y14862
X11783Y14862
X12783Y14862
X13783Y14862
X17614Y9850
X19614Y9850
X21614Y9850
X23614Y9850
X23614Y6700
X21614Y6700
X19614Y6700
X17614Y6700
T04
X8059Y8318
X7059Y8318
X7059Y9318
X8059Y9318
X8059Y10318
X7059Y10318
X7059Y11318
X8059Y11318
X8059Y12318
X7059Y12318
X7059Y13318
X8059Y13318
X8059Y14318
X7059Y14318
X7059Y15318
X8059Y15318
X8059Y16318
X7059Y16318
X7059Y17318
X8059Y17318
T05
X9718Y2976
X11698Y2976
X21529Y2976
X23509Y2976
T06
X5197Y3370
X16614Y3370
X28031Y3370
X28031Y22267
X16614Y22267
X5197Y22267
M30
