G75*
%MOIN*%
%OFA0B0*%
%FSLAX25Y25*%
%IPPOS*%
%LPD*%
%AMOC8*
5,1,8,0,0,1.08239X$1,22.5*
%
%ADD10OC8,0.06200*%
%ADD11C,0.06200*%
%ADD12C,0.06350*%
%ADD13C,0.08350*%
%ADD14OC8,0.05906*%
%ADD15C,0.07087*%
%ADD16C,0.01600*%
%ADD17OC8,0.05600*%
%ADD18OC8,0.38189*%
%ADD19C,0.02400*%
D10*
X0217831Y0219444D03*
X0246729Y0219444D03*
D11*
X0236729Y0219444D03*
X0207831Y0219444D03*
D12*
X0204642Y0181792D02*
X0204642Y0175443D01*
X0214642Y0175443D02*
X0214642Y0181792D01*
X0224642Y0181792D02*
X0224642Y0175443D01*
X0224642Y0151792D02*
X0224642Y0145443D01*
X0214642Y0145443D02*
X0214642Y0151792D01*
X0204642Y0151792D02*
X0204642Y0145443D01*
X0194642Y0145443D02*
X0194642Y0151792D01*
X0196138Y0133170D02*
X0196138Y0126820D01*
X0176138Y0126820D02*
X0176138Y0133170D01*
X0176138Y0101674D02*
X0176138Y0095324D01*
X0196138Y0095324D02*
X0196138Y0101674D01*
X0216138Y0101674D02*
X0216138Y0095324D01*
X0236138Y0095324D02*
X0236138Y0101674D01*
X0236138Y0126820D02*
X0236138Y0133170D01*
X0216138Y0133170D02*
X0216138Y0126820D01*
X0258200Y0144680D02*
X0264549Y0144680D01*
X0264549Y0154680D02*
X0258200Y0154680D01*
X0258200Y0164680D02*
X0264549Y0164680D01*
X0264549Y0174680D02*
X0258200Y0174680D01*
X0288200Y0174680D02*
X0294549Y0174680D01*
X0294549Y0164680D02*
X0288200Y0164680D01*
X0288200Y0154680D02*
X0294549Y0154680D01*
X0294549Y0144680D02*
X0288200Y0144680D01*
X0236138Y0070178D02*
X0236138Y0063828D01*
X0216138Y0063828D02*
X0216138Y0070178D01*
X0196138Y0070178D02*
X0196138Y0063828D01*
X0176138Y0063828D02*
X0176138Y0070178D01*
X0137831Y0145443D02*
X0137831Y0151792D01*
X0127831Y0151792D02*
X0127831Y0145443D01*
X0117831Y0145443D02*
X0117831Y0151792D01*
X0107831Y0151792D02*
X0107831Y0145443D01*
X0107831Y0175443D02*
X0107831Y0181792D01*
X0117831Y0181792D02*
X0117831Y0175443D01*
X0127831Y0175443D02*
X0127831Y0181792D01*
X0137831Y0181792D02*
X0137831Y0175443D01*
X0194642Y0175443D02*
X0194642Y0181792D01*
D13*
X0215294Y0033934D02*
X0215294Y0025584D01*
X0235094Y0025584D02*
X0235094Y0033934D01*
X0116983Y0033934D02*
X0116983Y0025584D01*
X0097183Y0025584D02*
X0097183Y0033934D01*
D14*
X0092083Y0057318D03*
X0092083Y0073066D03*
X0092083Y0092751D03*
X0092083Y0112436D03*
X0122083Y0112436D03*
X0135016Y0120310D03*
X0142516Y0115310D03*
X0142516Y0125310D03*
X0156296Y0148617D03*
X0175981Y0148617D03*
X0175981Y0178617D03*
X0182005Y0189050D03*
X0156296Y0178617D03*
X0152005Y0189050D03*
X0128737Y0195861D03*
X0112989Y0195861D03*
X0097241Y0195861D03*
X0081493Y0195861D03*
X0081493Y0225861D03*
X0097241Y0225861D03*
X0112989Y0225861D03*
X0128737Y0225861D03*
X0242753Y0178617D03*
X0242753Y0148617D03*
X0261375Y0116373D03*
X0261375Y0096688D03*
X0261375Y0080940D03*
X0261375Y0061255D03*
X0291375Y0061255D03*
X0291375Y0080940D03*
X0291375Y0096688D03*
X0291375Y0116373D03*
X0142516Y0097751D03*
X0135016Y0092751D03*
X0142516Y0087751D03*
X0142516Y0070192D03*
X0135016Y0065192D03*
X0142516Y0060192D03*
X0122083Y0057318D03*
X0122083Y0073066D03*
X0122083Y0092751D03*
D15*
X0080587Y0093184D03*
X0070587Y0093184D03*
X0070587Y0083184D03*
X0080587Y0083184D03*
X0080587Y0103184D03*
X0070587Y0103184D03*
X0070587Y0113184D03*
X0070587Y0123184D03*
X0080587Y0123184D03*
X0080587Y0113184D03*
X0080587Y0133184D03*
X0070587Y0133184D03*
X0070587Y0143184D03*
X0070587Y0153184D03*
X0080587Y0153184D03*
X0080587Y0143184D03*
X0080587Y0163184D03*
X0070587Y0163184D03*
X0070587Y0173184D03*
X0080587Y0173184D03*
D16*
X0089367Y0173460D02*
X0089367Y0149838D01*
X0105115Y0134090D01*
X0122831Y0134090D01*
X0114957Y0126216D02*
X0133894Y0126216D01*
X0156296Y0148617D01*
X0152359Y0153775D02*
X0148422Y0149838D01*
X0152359Y0153775D02*
X0174012Y0153775D01*
X0175981Y0151806D01*
X0175981Y0148617D01*
X0166138Y0147869D02*
X0162201Y0143932D01*
X0162201Y0100625D01*
X0136611Y0106531D02*
X0122831Y0120310D01*
X0091335Y0120310D01*
X0111020Y0092751D02*
X0111020Y0061255D01*
X0114957Y0057318D01*
X0122083Y0057318D01*
X0079524Y0041570D02*
X0075587Y0045507D01*
X0075587Y0055350D01*
X0053934Y0077003D01*
X0053934Y0177397D01*
X0057871Y0181334D01*
X0097241Y0181334D01*
X0097241Y0167554D01*
X0099209Y0165586D01*
X0095272Y0157712D02*
X0205509Y0157712D01*
X0211414Y0163617D01*
X0225036Y0189050D02*
X0237005Y0201019D01*
X0225036Y0189050D02*
X0182005Y0189050D01*
X0175981Y0197082D02*
X0219288Y0197082D01*
X0209446Y0206924D02*
X0207477Y0204956D01*
X0209446Y0206924D02*
X0258658Y0206924D01*
X0266532Y0199050D01*
X0282280Y0153775D02*
X0282280Y0125468D01*
X0291375Y0116373D01*
X0242910Y0120310D02*
X0242910Y0148460D01*
X0242753Y0148617D01*
X0242910Y0120310D02*
X0237005Y0114405D01*
X0193698Y0114405D01*
X0166138Y0177397D02*
X0166138Y0187239D01*
X0175981Y0197082D01*
X0152005Y0189050D02*
X0134131Y0206924D01*
X0087398Y0206924D01*
X0081493Y0212830D01*
X0081493Y0225861D01*
X0109052Y0201019D02*
X0103146Y0195113D01*
X0103146Y0187239D01*
X0097241Y0181334D01*
X0109052Y0201019D02*
X0123579Y0201019D01*
X0128737Y0195861D01*
D17*
X0111020Y0187239D03*
X0089367Y0173460D03*
X0099209Y0165586D03*
X0095272Y0157712D03*
X0122831Y0134090D03*
X0114957Y0126216D03*
X0091335Y0120310D03*
X0111020Y0092751D03*
X0136611Y0106531D03*
X0162201Y0100625D03*
X0193698Y0114405D03*
X0183855Y0147869D03*
X0166138Y0147869D03*
X0148422Y0149838D03*
X0166138Y0177397D03*
X0193698Y0165586D03*
X0211414Y0163617D03*
X0233068Y0147869D03*
X0282280Y0153775D03*
X0266532Y0199050D03*
X0237005Y0201019D03*
X0219288Y0197082D03*
X0207477Y0204956D03*
X0195666Y0049444D03*
X0130705Y0029759D03*
X0079524Y0041570D03*
D18*
X0051965Y0033696D03*
X0166138Y0033696D03*
X0280312Y0033696D03*
X0280312Y0222672D03*
X0166138Y0222672D03*
X0051965Y0222672D03*
D19*
X0034043Y0206237D02*
X0041902Y0198378D01*
X0062028Y0198378D01*
X0075493Y0211842D01*
X0075493Y0211636D01*
X0076406Y0209431D01*
X0078094Y0207743D01*
X0081823Y0204014D01*
X0078116Y0204014D01*
X0073340Y0199238D01*
X0073340Y0192484D01*
X0078116Y0187709D01*
X0084870Y0187709D01*
X0089367Y0192206D01*
X0093864Y0187709D01*
X0100618Y0187709D01*
X0103020Y0190111D01*
X0103020Y0188825D01*
X0100732Y0186536D01*
X0099457Y0183458D01*
X0099457Y0173777D01*
X0100732Y0170699D01*
X0103087Y0168343D01*
X0106166Y0167068D01*
X0109497Y0167068D01*
X0112575Y0168343D01*
X0112831Y0168599D01*
X0113087Y0168343D01*
X0116166Y0167068D01*
X0119497Y0167068D01*
X0122575Y0168343D01*
X0122831Y0168599D01*
X0123087Y0168343D01*
X0126166Y0167068D01*
X0129497Y0167068D01*
X0132575Y0168343D01*
X0132831Y0168599D01*
X0133087Y0168343D01*
X0136166Y0167068D01*
X0139497Y0167068D01*
X0142575Y0168343D01*
X0143532Y0169299D01*
X0146933Y0165898D01*
X0148734Y0164097D01*
X0149664Y0163712D01*
X0100586Y0163712D01*
X0098586Y0165712D01*
X0095367Y0165712D01*
X0095367Y0168146D01*
X0097367Y0170146D01*
X0097367Y0176774D01*
X0092680Y0181460D01*
X0086053Y0181460D01*
X0085292Y0180699D01*
X0082326Y0181928D01*
X0078848Y0181928D01*
X0075635Y0180596D01*
X0075587Y0180549D01*
X0075540Y0180596D01*
X0072326Y0181928D01*
X0068848Y0181928D01*
X0065635Y0180596D01*
X0063175Y0178137D01*
X0061844Y0174923D01*
X0061844Y0171445D01*
X0063175Y0168232D01*
X0063222Y0168184D01*
X0063175Y0168137D01*
X0061844Y0164923D01*
X0061844Y0161445D01*
X0063175Y0158232D01*
X0063222Y0158184D01*
X0063175Y0158137D01*
X0061844Y0154923D01*
X0061844Y0151445D01*
X0063175Y0148232D01*
X0063222Y0148184D01*
X0063175Y0148137D01*
X0061844Y0144923D01*
X0061844Y0141445D01*
X0063175Y0138232D01*
X0063222Y0138184D01*
X0063175Y0138137D01*
X0061844Y0134923D01*
X0061844Y0131445D01*
X0063175Y0128232D01*
X0063222Y0128184D01*
X0063175Y0128137D01*
X0061844Y0124923D01*
X0061844Y0121445D01*
X0063175Y0118232D01*
X0063222Y0118184D01*
X0063175Y0118137D01*
X0061844Y0114923D01*
X0061844Y0111445D01*
X0063175Y0108232D01*
X0063222Y0108184D01*
X0063175Y0108137D01*
X0061844Y0104923D01*
X0061844Y0101445D01*
X0063175Y0098232D01*
X0063222Y0098184D01*
X0063175Y0098137D01*
X0061844Y0094923D01*
X0061844Y0091445D01*
X0063175Y0088232D01*
X0063222Y0088184D01*
X0063175Y0088137D01*
X0061844Y0084923D01*
X0061844Y0081445D01*
X0063175Y0078232D01*
X0065635Y0075772D01*
X0068848Y0074441D01*
X0072326Y0074441D01*
X0075540Y0075772D01*
X0075587Y0075819D01*
X0075635Y0075772D01*
X0078848Y0074441D01*
X0082326Y0074441D01*
X0083931Y0075105D01*
X0083931Y0069689D01*
X0088428Y0065192D01*
X0083931Y0060695D01*
X0083931Y0053941D01*
X0088706Y0049165D01*
X0095460Y0049165D01*
X0100236Y0053941D01*
X0100236Y0060695D01*
X0095739Y0065192D01*
X0100236Y0069689D01*
X0100236Y0076443D01*
X0095460Y0081219D01*
X0089237Y0081219D01*
X0089331Y0081445D01*
X0089331Y0084598D01*
X0095460Y0084598D01*
X0100236Y0089374D01*
X0100236Y0096128D01*
X0095460Y0100904D01*
X0089106Y0100904D01*
X0089331Y0101445D01*
X0089331Y0104283D01*
X0095460Y0104283D01*
X0100236Y0109059D01*
X0100236Y0114310D01*
X0113931Y0114310D01*
X0113931Y0109059D01*
X0118706Y0104283D01*
X0125460Y0104283D01*
X0127917Y0106740D01*
X0128611Y0106045D01*
X0128611Y0103217D01*
X0131282Y0100546D01*
X0128550Y0097814D01*
X0125460Y0100904D01*
X0118706Y0100904D01*
X0116444Y0098641D01*
X0114334Y0100751D01*
X0107707Y0100751D01*
X0103020Y0096065D01*
X0103020Y0089437D01*
X0105020Y0087437D01*
X0105020Y0060062D01*
X0105934Y0057856D01*
X0109871Y0053919D01*
X0111559Y0052232D01*
X0113764Y0051318D01*
X0116554Y0051318D01*
X0118706Y0049165D01*
X0125460Y0049165D01*
X0130236Y0053941D01*
X0130236Y0058443D01*
X0131639Y0057039D01*
X0136968Y0057039D01*
X0139968Y0054039D01*
X0142516Y0054039D01*
X0142516Y0060192D01*
X0142516Y0060192D01*
X0151296Y0060192D01*
X0156296Y0065192D01*
X0156296Y0092751D01*
X0151296Y0087751D01*
X0142516Y0087751D01*
X0142516Y0087751D01*
X0142516Y0081598D01*
X0139968Y0081598D01*
X0136968Y0084598D01*
X0131639Y0084598D01*
X0128550Y0087688D01*
X0125460Y0084598D01*
X0118706Y0084598D01*
X0117020Y0086284D01*
X0117020Y0079533D01*
X0118706Y0081219D01*
X0125460Y0081219D01*
X0130236Y0076443D01*
X0130236Y0071942D01*
X0131639Y0073345D01*
X0134364Y0073345D01*
X0134364Y0073569D01*
X0139139Y0078345D01*
X0145893Y0078345D01*
X0150669Y0073569D01*
X0150669Y0066815D01*
X0147632Y0063778D01*
X0148669Y0062741D01*
X0148669Y0060192D01*
X0142517Y0060192D01*
X0142517Y0060192D01*
X0148669Y0060192D01*
X0148669Y0057644D01*
X0145065Y0054039D01*
X0142516Y0054039D01*
X0142516Y0060192D01*
X0142516Y0058044D02*
X0142516Y0058044D01*
X0142516Y0055646D02*
X0142516Y0055646D01*
X0145143Y0053247D02*
X0129542Y0053247D01*
X0130236Y0055646D02*
X0138361Y0055646D01*
X0142744Y0050849D02*
X0127144Y0050849D01*
X0130236Y0058044D02*
X0130635Y0058044D01*
X0140346Y0048450D02*
X0071569Y0048450D01*
X0073967Y0046052D02*
X0137947Y0046052D01*
X0135549Y0043653D02*
X0076260Y0043653D01*
X0076260Y0043759D02*
X0062028Y0057991D01*
X0041902Y0057991D01*
X0034043Y0050132D01*
X0034043Y0206237D01*
X0034043Y0204353D02*
X0035927Y0204353D01*
X0034043Y0201955D02*
X0038325Y0201955D01*
X0040724Y0199556D02*
X0034043Y0199556D01*
X0034043Y0197158D02*
X0073340Y0197158D01*
X0073340Y0194759D02*
X0034043Y0194759D01*
X0034043Y0192361D02*
X0073464Y0192361D01*
X0075862Y0189962D02*
X0034043Y0189962D01*
X0034043Y0187564D02*
X0101759Y0187564D01*
X0102871Y0189962D02*
X0103020Y0189962D01*
X0100164Y0185165D02*
X0034043Y0185165D01*
X0034043Y0182767D02*
X0099457Y0182767D01*
X0099457Y0180368D02*
X0093772Y0180368D01*
X0096171Y0177970D02*
X0099457Y0177970D01*
X0099457Y0175571D02*
X0097367Y0175571D01*
X0097367Y0173173D02*
X0099707Y0173173D01*
X0100700Y0170774D02*
X0097367Y0170774D01*
X0095596Y0168376D02*
X0103054Y0168376D01*
X0095367Y0165977D02*
X0146854Y0165977D01*
X0144455Y0168376D02*
X0142608Y0168376D01*
X0148422Y0173460D02*
X0152359Y0169523D01*
X0189760Y0169523D01*
X0193698Y0165586D01*
X0200820Y0169777D02*
X0201145Y0170101D01*
X0201817Y0169713D01*
X0202589Y0169393D01*
X0203396Y0169177D01*
X0204225Y0169068D01*
X0204642Y0169068D01*
X0204642Y0178617D01*
X0204642Y0178617D01*
X0204642Y0169068D01*
X0205060Y0169068D01*
X0205625Y0169142D01*
X0203414Y0166931D01*
X0203414Y0164103D01*
X0203023Y0163712D01*
X0201697Y0163712D01*
X0201697Y0168900D01*
X0200820Y0169777D01*
X0201697Y0168376D02*
X0204859Y0168376D01*
X0204642Y0170774D02*
X0204642Y0170774D01*
X0204642Y0173173D02*
X0204642Y0173173D01*
X0204642Y0175571D02*
X0204642Y0175571D01*
X0204642Y0177970D02*
X0204642Y0177970D01*
X0203414Y0165977D02*
X0201697Y0165977D01*
X0218408Y0167937D02*
X0219414Y0166931D01*
X0219414Y0160304D01*
X0218408Y0159297D01*
X0219386Y0158892D01*
X0219642Y0158636D01*
X0219898Y0158892D01*
X0222977Y0160167D01*
X0226308Y0160167D01*
X0229386Y0158892D01*
X0231742Y0156536D01*
X0232018Y0155869D01*
X0236381Y0155869D01*
X0237428Y0154822D01*
X0239376Y0156770D01*
X0246130Y0156770D01*
X0249825Y0153075D01*
X0249825Y0156346D01*
X0251100Y0159424D01*
X0251356Y0159680D01*
X0251100Y0159936D01*
X0249825Y0163014D01*
X0249825Y0166346D01*
X0251100Y0169424D01*
X0251356Y0169680D01*
X0251100Y0169936D01*
X0249825Y0173014D01*
X0249825Y0174160D01*
X0246130Y0170465D01*
X0239376Y0170465D01*
X0234600Y0175240D01*
X0234600Y0181994D01*
X0239376Y0186770D01*
X0246130Y0186770D01*
X0250905Y0181994D01*
X0250905Y0178954D01*
X0251100Y0179424D01*
X0253456Y0181780D01*
X0256534Y0183055D01*
X0266215Y0183055D01*
X0269293Y0181780D01*
X0271649Y0179424D01*
X0272924Y0176346D01*
X0272924Y0173014D01*
X0271649Y0169936D01*
X0271393Y0169680D01*
X0271649Y0169424D01*
X0272924Y0166346D01*
X0272924Y0163014D01*
X0271649Y0159936D01*
X0271393Y0159680D01*
X0271649Y0159424D01*
X0272924Y0156346D01*
X0272924Y0153014D01*
X0271649Y0149936D01*
X0271393Y0149680D01*
X0271649Y0149424D01*
X0272924Y0146346D01*
X0272924Y0143014D01*
X0271649Y0139936D01*
X0269293Y0137580D01*
X0266215Y0136306D01*
X0256534Y0136306D01*
X0253456Y0137580D01*
X0251100Y0139936D01*
X0249825Y0143014D01*
X0249825Y0144160D01*
X0248910Y0143245D01*
X0248910Y0119117D01*
X0247997Y0116912D01*
X0246309Y0115224D01*
X0240403Y0109318D01*
X0239986Y0109145D01*
X0240882Y0108774D01*
X0243238Y0106418D01*
X0244513Y0103340D01*
X0244513Y0093659D01*
X0243238Y0090580D01*
X0240882Y0088225D01*
X0237804Y0086950D01*
X0234473Y0086950D01*
X0231395Y0088225D01*
X0229039Y0090580D01*
X0227764Y0093659D01*
X0227764Y0103340D01*
X0229039Y0106418D01*
X0231025Y0108405D01*
X0221251Y0108405D01*
X0223238Y0106418D01*
X0224513Y0103340D01*
X0224513Y0093659D01*
X0223238Y0090580D01*
X0220882Y0088225D01*
X0217804Y0086950D01*
X0214473Y0086950D01*
X0211395Y0088225D01*
X0209039Y0090580D01*
X0207764Y0093659D01*
X0207764Y0103340D01*
X0209039Y0106418D01*
X0211025Y0108405D01*
X0201251Y0108405D01*
X0203238Y0106418D01*
X0204513Y0103340D01*
X0204513Y0093659D01*
X0203238Y0090580D01*
X0200882Y0088225D01*
X0197804Y0086950D01*
X0194473Y0086950D01*
X0191395Y0088225D01*
X0189039Y0090580D01*
X0187764Y0093659D01*
X0187764Y0103340D01*
X0189039Y0106418D01*
X0189705Y0107084D01*
X0185698Y0111091D01*
X0185698Y0117718D01*
X0189547Y0121568D01*
X0189039Y0122077D01*
X0187764Y0125155D01*
X0187764Y0134836D01*
X0187785Y0134888D01*
X0182804Y0139869D01*
X0181283Y0139869D01*
X0183238Y0137914D01*
X0184513Y0134836D01*
X0184513Y0125155D01*
X0183238Y0122077D01*
X0180882Y0119721D01*
X0177804Y0118446D01*
X0174473Y0118446D01*
X0171395Y0119721D01*
X0169039Y0122077D01*
X0168201Y0124098D01*
X0168201Y0105939D01*
X0168653Y0105487D01*
X0169039Y0106418D01*
X0171395Y0108774D01*
X0174473Y0110049D01*
X0177804Y0110049D01*
X0180882Y0108774D01*
X0183238Y0106418D01*
X0184513Y0103340D01*
X0184513Y0093659D01*
X0183238Y0090580D01*
X0180882Y0088225D01*
X0177804Y0086950D01*
X0174473Y0086950D01*
X0171395Y0088225D01*
X0169039Y0090580D01*
X0167764Y0093659D01*
X0167764Y0094874D01*
X0165515Y0092625D01*
X0158888Y0092625D01*
X0154201Y0097311D01*
X0154201Y0103939D01*
X0156201Y0105939D01*
X0156201Y0140038D01*
X0147760Y0131596D01*
X0150669Y0128687D01*
X0150669Y0121933D01*
X0147632Y0118896D01*
X0148669Y0117859D01*
X0148669Y0115310D01*
X0142517Y0115310D01*
X0142517Y0115310D01*
X0148669Y0115310D01*
X0148669Y0112762D01*
X0145065Y0109157D01*
X0144611Y0109157D01*
X0144611Y0105904D01*
X0145893Y0105904D01*
X0150669Y0101128D01*
X0150669Y0094374D01*
X0147632Y0091337D01*
X0148669Y0090300D01*
X0148669Y0087751D01*
X0142517Y0087751D01*
X0142517Y0087751D01*
X0148669Y0087751D01*
X0148669Y0085203D01*
X0145065Y0081598D01*
X0142516Y0081598D01*
X0142516Y0087751D01*
X0142516Y0086826D02*
X0142516Y0086826D01*
X0142516Y0084428D02*
X0142516Y0084428D01*
X0142516Y0082029D02*
X0142516Y0082029D01*
X0139537Y0082029D02*
X0117020Y0082029D01*
X0117020Y0079631D02*
X0117118Y0079631D01*
X0117020Y0084428D02*
X0137138Y0084428D01*
X0138027Y0077232D02*
X0129447Y0077232D01*
X0130236Y0074834D02*
X0135628Y0074834D01*
X0130730Y0072435D02*
X0130236Y0072435D01*
X0127048Y0079631D02*
X0253222Y0079631D01*
X0253222Y0077563D02*
X0257998Y0072787D01*
X0264752Y0072787D01*
X0269527Y0077563D01*
X0269527Y0084317D01*
X0265030Y0088814D01*
X0269527Y0093311D01*
X0269527Y0100065D01*
X0264752Y0104841D01*
X0257998Y0104841D01*
X0253222Y0100065D01*
X0253222Y0093311D01*
X0257719Y0088814D01*
X0253222Y0084317D01*
X0253222Y0077563D01*
X0253553Y0077232D02*
X0240928Y0077232D01*
X0240882Y0077278D02*
X0237804Y0078553D01*
X0234473Y0078553D01*
X0231395Y0077278D01*
X0229039Y0074922D01*
X0227764Y0071844D01*
X0227764Y0062162D01*
X0229039Y0059084D01*
X0231395Y0056729D01*
X0234473Y0055454D01*
X0237804Y0055454D01*
X0240882Y0056729D01*
X0243238Y0059084D01*
X0244513Y0062162D01*
X0244513Y0071844D01*
X0243238Y0074922D01*
X0240882Y0077278D01*
X0243275Y0074834D02*
X0255951Y0074834D01*
X0257998Y0069408D02*
X0253222Y0064632D01*
X0253222Y0057878D01*
X0257998Y0053102D01*
X0264752Y0053102D01*
X0269527Y0057878D01*
X0269527Y0064632D01*
X0264752Y0069408D01*
X0257998Y0069408D01*
X0256228Y0067638D02*
X0244513Y0067638D01*
X0244513Y0065240D02*
X0253830Y0065240D01*
X0253222Y0062841D02*
X0244513Y0062841D01*
X0243801Y0060443D02*
X0253222Y0060443D01*
X0253222Y0058044D02*
X0242198Y0058044D01*
X0238268Y0055646D02*
X0255454Y0055646D01*
X0257853Y0053247D02*
X0203177Y0053247D01*
X0203666Y0052758D02*
X0200043Y0056381D01*
X0200882Y0056729D01*
X0203238Y0059084D01*
X0204513Y0062162D01*
X0204513Y0071844D01*
X0203238Y0074922D01*
X0200882Y0077278D01*
X0197804Y0078553D01*
X0194473Y0078553D01*
X0191395Y0077278D01*
X0189039Y0074922D01*
X0187764Y0071844D01*
X0187764Y0063718D01*
X0184513Y0063718D01*
X0184513Y0071844D01*
X0183238Y0074922D01*
X0180882Y0077278D01*
X0177804Y0078553D01*
X0174473Y0078553D01*
X0171395Y0077278D01*
X0169039Y0074922D01*
X0167764Y0071844D01*
X0167764Y0063718D01*
X0156991Y0063718D01*
X0154639Y0062744D01*
X0129654Y0037759D01*
X0127392Y0037759D01*
X0126087Y0036454D01*
X0124931Y0039244D01*
X0122294Y0041881D01*
X0118848Y0043309D01*
X0115119Y0043309D01*
X0111673Y0041881D01*
X0109036Y0039244D01*
X0107609Y0035799D01*
X0107609Y0023719D01*
X0109036Y0020274D01*
X0111673Y0017637D01*
X0115119Y0016209D01*
X0118848Y0016209D01*
X0122294Y0017637D01*
X0124931Y0020274D01*
X0126087Y0023064D01*
X0127392Y0021759D01*
X0134019Y0021759D01*
X0138705Y0026445D01*
X0138705Y0028708D01*
X0160915Y0050918D01*
X0185141Y0050918D01*
X0187666Y0048393D01*
X0187666Y0046130D01*
X0192352Y0041444D01*
X0198980Y0041444D01*
X0203666Y0046130D01*
X0203666Y0052758D01*
X0203666Y0050849D02*
X0263107Y0050849D01*
X0264896Y0053247D02*
X0265505Y0053247D01*
X0267295Y0055646D02*
X0267904Y0055646D01*
X0269527Y0058044D02*
X0283222Y0058044D01*
X0283222Y0057991D02*
X0270249Y0057991D01*
X0256017Y0043759D01*
X0256017Y0023633D01*
X0263876Y0015774D01*
X0068401Y0015774D01*
X0076260Y0023633D01*
X0076260Y0043759D01*
X0076260Y0041255D02*
X0096290Y0041255D01*
X0096700Y0041309D02*
X0095741Y0041182D01*
X0094808Y0040932D01*
X0093915Y0040562D01*
X0093077Y0040079D01*
X0092310Y0039490D01*
X0091627Y0038807D01*
X0091038Y0038040D01*
X0090555Y0037203D01*
X0090185Y0036309D01*
X0089935Y0035376D01*
X0089809Y0034417D01*
X0089809Y0029859D01*
X0097083Y0029859D01*
X0097083Y0029659D01*
X0089809Y0029659D01*
X0089809Y0025101D01*
X0089935Y0024142D01*
X0090185Y0023209D01*
X0090555Y0022315D01*
X0091038Y0021478D01*
X0091627Y0020711D01*
X0092310Y0020028D01*
X0093077Y0019439D01*
X0093915Y0018956D01*
X0094808Y0018586D01*
X0095741Y0018336D01*
X0096700Y0018209D01*
X0097083Y0018209D01*
X0097083Y0029659D01*
X0097283Y0029659D01*
X0097283Y0018209D01*
X0097667Y0018209D01*
X0098625Y0018336D01*
X0099559Y0018586D01*
X0100452Y0018956D01*
X0101289Y0019439D01*
X0102056Y0020028D01*
X0102740Y0020711D01*
X0103328Y0021478D01*
X0103812Y0022315D01*
X0104182Y0023209D01*
X0104432Y0024142D01*
X0104558Y0025101D01*
X0104558Y0029659D01*
X0097283Y0029659D01*
X0097283Y0029859D01*
X0097083Y0029859D01*
X0097083Y0041309D01*
X0096700Y0041309D01*
X0097083Y0041255D02*
X0097283Y0041255D01*
X0097283Y0041309D02*
X0097283Y0029859D01*
X0104558Y0029859D01*
X0104558Y0034417D01*
X0104432Y0035376D01*
X0104182Y0036309D01*
X0103812Y0037203D01*
X0103328Y0038040D01*
X0102740Y0038807D01*
X0102056Y0039490D01*
X0101289Y0040079D01*
X0100452Y0040562D01*
X0099559Y0040932D01*
X0098625Y0041182D01*
X0097667Y0041309D01*
X0097283Y0041309D01*
X0098077Y0041255D02*
X0111046Y0041255D01*
X0108875Y0038856D02*
X0102691Y0038856D01*
X0104120Y0036458D02*
X0107882Y0036458D01*
X0107609Y0034059D02*
X0104558Y0034059D01*
X0104558Y0031661D02*
X0107609Y0031661D01*
X0107609Y0029262D02*
X0104558Y0029262D01*
X0104558Y0026864D02*
X0107609Y0026864D01*
X0107609Y0024465D02*
X0104474Y0024465D01*
X0103668Y0022067D02*
X0108293Y0022067D01*
X0109642Y0019668D02*
X0101588Y0019668D01*
X0097283Y0019668D02*
X0097083Y0019668D01*
X0097083Y0022067D02*
X0097283Y0022067D01*
X0097283Y0024465D02*
X0097083Y0024465D01*
X0097083Y0026864D02*
X0097283Y0026864D01*
X0097283Y0029262D02*
X0097083Y0029262D01*
X0097083Y0031661D02*
X0097283Y0031661D01*
X0097283Y0034059D02*
X0097083Y0034059D01*
X0097083Y0036458D02*
X0097283Y0036458D01*
X0097283Y0038856D02*
X0097083Y0038856D01*
X0091676Y0038856D02*
X0076260Y0038856D01*
X0076260Y0036458D02*
X0090246Y0036458D01*
X0089809Y0034059D02*
X0076260Y0034059D01*
X0076260Y0031661D02*
X0089809Y0031661D01*
X0089809Y0029262D02*
X0076260Y0029262D01*
X0076260Y0026864D02*
X0089809Y0026864D01*
X0089892Y0024465D02*
X0076260Y0024465D01*
X0074693Y0022067D02*
X0090699Y0022067D01*
X0092779Y0019668D02*
X0072295Y0019668D01*
X0069896Y0017270D02*
X0112559Y0017270D01*
X0121407Y0017270D02*
X0230669Y0017270D01*
X0229783Y0017637D02*
X0233229Y0016209D01*
X0236958Y0016209D01*
X0240404Y0017637D01*
X0243041Y0020274D01*
X0244468Y0023719D01*
X0244468Y0035799D01*
X0243041Y0039244D01*
X0240404Y0041881D01*
X0236958Y0043309D01*
X0233229Y0043309D01*
X0229783Y0041881D01*
X0227146Y0039244D01*
X0225719Y0035799D01*
X0225719Y0023719D01*
X0227146Y0020274D01*
X0229783Y0017637D01*
X0227752Y0019668D02*
X0219698Y0019668D01*
X0219400Y0019439D02*
X0220167Y0020028D01*
X0220850Y0020711D01*
X0221439Y0021478D01*
X0221922Y0022315D01*
X0222292Y0023209D01*
X0222542Y0024142D01*
X0222668Y0025101D01*
X0222668Y0029659D01*
X0215394Y0029659D01*
X0215394Y0029859D01*
X0222668Y0029859D01*
X0222668Y0034417D01*
X0222542Y0035376D01*
X0222292Y0036309D01*
X0221922Y0037203D01*
X0221439Y0038040D01*
X0220850Y0038807D01*
X0220167Y0039490D01*
X0219400Y0040079D01*
X0218562Y0040562D01*
X0217669Y0040932D01*
X0216735Y0041182D01*
X0215777Y0041309D01*
X0215394Y0041309D01*
X0215394Y0029859D01*
X0215194Y0029859D01*
X0215194Y0041309D01*
X0214810Y0041309D01*
X0213852Y0041182D01*
X0212918Y0040932D01*
X0212025Y0040562D01*
X0211188Y0040079D01*
X0210421Y0039490D01*
X0209737Y0038807D01*
X0209148Y0038040D01*
X0208665Y0037203D01*
X0208295Y0036309D01*
X0208045Y0035376D01*
X0207919Y0034417D01*
X0207919Y0029859D01*
X0215193Y0029859D01*
X0215193Y0029659D01*
X0207919Y0029659D01*
X0207919Y0025101D01*
X0208045Y0024142D01*
X0208295Y0023209D01*
X0208665Y0022315D01*
X0209148Y0021478D01*
X0209737Y0020711D01*
X0210421Y0020028D01*
X0211188Y0019439D01*
X0212025Y0018956D01*
X0212918Y0018586D01*
X0213852Y0018336D01*
X0214810Y0018209D01*
X0215194Y0018209D01*
X0215194Y0029659D01*
X0215394Y0029659D01*
X0215394Y0018209D01*
X0215777Y0018209D01*
X0216735Y0018336D01*
X0217669Y0018586D01*
X0218562Y0018956D01*
X0219400Y0019439D01*
X0221778Y0022067D02*
X0226403Y0022067D01*
X0225719Y0024465D02*
X0222585Y0024465D01*
X0222668Y0026864D02*
X0225719Y0026864D01*
X0225719Y0029262D02*
X0222668Y0029262D01*
X0222668Y0031661D02*
X0225719Y0031661D01*
X0225719Y0034059D02*
X0222668Y0034059D01*
X0222231Y0036458D02*
X0225992Y0036458D01*
X0226985Y0038856D02*
X0220801Y0038856D01*
X0216187Y0041255D02*
X0229156Y0041255D01*
X0241031Y0041255D02*
X0256017Y0041255D01*
X0256017Y0043653D02*
X0201189Y0043653D01*
X0203587Y0046052D02*
X0258310Y0046052D01*
X0260708Y0048450D02*
X0203666Y0048450D01*
X0195666Y0049444D02*
X0187792Y0057318D01*
X0158264Y0057318D01*
X0130705Y0029759D01*
X0136725Y0024465D02*
X0208002Y0024465D01*
X0207919Y0026864D02*
X0138705Y0026864D01*
X0139259Y0029262D02*
X0207919Y0029262D01*
X0207919Y0031661D02*
X0141658Y0031661D01*
X0144056Y0034059D02*
X0207919Y0034059D01*
X0208357Y0036458D02*
X0146455Y0036458D01*
X0148853Y0038856D02*
X0209786Y0038856D01*
X0214400Y0041255D02*
X0151252Y0041255D01*
X0153650Y0043653D02*
X0190143Y0043653D01*
X0187745Y0046052D02*
X0156049Y0046052D01*
X0158447Y0048450D02*
X0187609Y0048450D01*
X0185210Y0050849D02*
X0160846Y0050849D01*
X0152338Y0060443D02*
X0148669Y0060443D01*
X0148669Y0058044D02*
X0149940Y0058044D01*
X0147541Y0055646D02*
X0146671Y0055646D01*
X0148569Y0062841D02*
X0154875Y0062841D01*
X0149094Y0065240D02*
X0167764Y0065240D01*
X0167764Y0067638D02*
X0150669Y0067638D01*
X0150669Y0070037D02*
X0167764Y0070037D01*
X0168009Y0072435D02*
X0150669Y0072435D01*
X0149404Y0074834D02*
X0169002Y0074834D01*
X0171349Y0077232D02*
X0147006Y0077232D01*
X0145496Y0082029D02*
X0253222Y0082029D01*
X0253333Y0084428D02*
X0147894Y0084428D01*
X0148669Y0086826D02*
X0255731Y0086826D01*
X0257308Y0089225D02*
X0241883Y0089225D01*
X0243670Y0091623D02*
X0254910Y0091623D01*
X0253222Y0094022D02*
X0244513Y0094022D01*
X0244513Y0096420D02*
X0253222Y0096420D01*
X0253222Y0098819D02*
X0244513Y0098819D01*
X0244513Y0101217D02*
X0254374Y0101217D01*
X0256773Y0103616D02*
X0244399Y0103616D01*
X0243405Y0106014D02*
X0298234Y0106014D01*
X0298234Y0103616D02*
X0295977Y0103616D01*
X0294752Y0104841D02*
X0287998Y0104841D01*
X0283222Y0100065D01*
X0283222Y0093311D01*
X0287719Y0088814D01*
X0283222Y0084317D01*
X0283222Y0077563D01*
X0287998Y0072787D01*
X0294752Y0072787D01*
X0298234Y0076270D01*
X0298234Y0065926D01*
X0294752Y0069408D01*
X0287998Y0069408D01*
X0283222Y0064632D01*
X0283222Y0057991D01*
X0283222Y0060443D02*
X0269527Y0060443D01*
X0269527Y0062841D02*
X0283222Y0062841D01*
X0283830Y0065240D02*
X0268920Y0065240D01*
X0266521Y0067638D02*
X0286228Y0067638D01*
X0285951Y0074834D02*
X0266798Y0074834D01*
X0269197Y0077232D02*
X0283553Y0077232D01*
X0283222Y0079631D02*
X0269527Y0079631D01*
X0269527Y0082029D02*
X0283222Y0082029D01*
X0283333Y0084428D02*
X0269417Y0084428D01*
X0267018Y0086826D02*
X0285731Y0086826D01*
X0287308Y0089225D02*
X0265441Y0089225D01*
X0267840Y0091623D02*
X0284910Y0091623D01*
X0283222Y0094022D02*
X0269527Y0094022D01*
X0269527Y0096420D02*
X0283222Y0096420D01*
X0283222Y0098819D02*
X0269527Y0098819D01*
X0268375Y0101217D02*
X0284374Y0101217D01*
X0286773Y0103616D02*
X0265977Y0103616D01*
X0264752Y0108220D02*
X0257998Y0108220D01*
X0253222Y0112996D01*
X0253222Y0119750D01*
X0257998Y0124526D01*
X0264752Y0124526D01*
X0269527Y0119750D01*
X0269527Y0112996D01*
X0264752Y0108220D01*
X0264944Y0108413D02*
X0287805Y0108413D01*
X0287998Y0108220D02*
X0294752Y0108220D01*
X0298234Y0111703D01*
X0298234Y0101359D01*
X0294752Y0104841D01*
X0294944Y0108413D02*
X0298234Y0108413D01*
X0298234Y0110811D02*
X0297343Y0110811D01*
X0287998Y0108220D02*
X0283222Y0112996D01*
X0283222Y0116041D01*
X0277194Y0122069D01*
X0276280Y0124274D01*
X0276280Y0148461D01*
X0274280Y0150461D01*
X0274280Y0157088D01*
X0278966Y0161775D01*
X0282516Y0161775D01*
X0282470Y0161855D01*
X0282150Y0162627D01*
X0281934Y0163434D01*
X0281825Y0164262D01*
X0281825Y0164680D01*
X0291375Y0164680D01*
X0291375Y0164680D01*
X0281825Y0164680D01*
X0281825Y0165098D01*
X0281934Y0165927D01*
X0282150Y0166734D01*
X0282470Y0167506D01*
X0282858Y0168178D01*
X0281100Y0169936D01*
X0279825Y0173014D01*
X0279825Y0176346D01*
X0281100Y0179424D01*
X0283456Y0181780D01*
X0286534Y0183055D01*
X0296215Y0183055D01*
X0298234Y0182219D01*
X0298234Y0206237D01*
X0290375Y0198378D01*
X0270249Y0198378D01*
X0256017Y0212609D01*
X0256017Y0232736D01*
X0263876Y0240594D01*
X0182574Y0240594D01*
X0190433Y0232736D01*
X0190433Y0212609D01*
X0180905Y0203082D01*
X0213974Y0203082D01*
X0215974Y0205082D01*
X0222602Y0205082D01*
X0227288Y0200396D01*
X0227288Y0199788D01*
X0229005Y0201504D01*
X0229005Y0204333D01*
X0233691Y0209019D01*
X0240318Y0209019D01*
X0245005Y0204333D01*
X0245005Y0197705D01*
X0240318Y0193019D01*
X0237490Y0193019D01*
X0231375Y0186904D01*
X0231742Y0186536D01*
X0233017Y0183458D01*
X0233017Y0173777D01*
X0231742Y0170699D01*
X0229386Y0168343D01*
X0226308Y0167068D01*
X0222977Y0167068D01*
X0219898Y0168343D01*
X0219642Y0168599D01*
X0219386Y0168343D01*
X0218408Y0167937D01*
X0219419Y0168376D02*
X0219865Y0168376D01*
X0219414Y0165977D02*
X0249825Y0165977D01*
X0249825Y0163579D02*
X0219414Y0163579D01*
X0219414Y0161180D02*
X0250585Y0161180D01*
X0250834Y0158782D02*
X0229497Y0158782D01*
X0231806Y0156383D02*
X0238989Y0156383D01*
X0246516Y0156383D02*
X0249840Y0156383D01*
X0249825Y0153985D02*
X0248915Y0153985D01*
X0248910Y0141992D02*
X0250249Y0141992D01*
X0251443Y0139594D02*
X0248910Y0139594D01*
X0248910Y0137195D02*
X0254386Y0137195D01*
X0248910Y0134797D02*
X0276280Y0134797D01*
X0276280Y0137195D02*
X0268363Y0137195D01*
X0271307Y0139594D02*
X0276280Y0139594D01*
X0276280Y0141992D02*
X0272501Y0141992D01*
X0272924Y0144391D02*
X0276280Y0144391D01*
X0276280Y0146789D02*
X0272741Y0146789D01*
X0271747Y0149188D02*
X0275554Y0149188D01*
X0274280Y0151586D02*
X0272333Y0151586D01*
X0272924Y0153985D02*
X0274280Y0153985D01*
X0274280Y0156383D02*
X0272909Y0156383D01*
X0271915Y0158782D02*
X0275973Y0158782D01*
X0278372Y0161180D02*
X0272164Y0161180D01*
X0272924Y0163579D02*
X0281915Y0163579D01*
X0281948Y0165977D02*
X0272924Y0165977D01*
X0272084Y0168376D02*
X0282661Y0168376D01*
X0280753Y0170774D02*
X0271996Y0170774D01*
X0272924Y0173173D02*
X0279825Y0173173D01*
X0279825Y0175571D02*
X0272924Y0175571D01*
X0272252Y0177970D02*
X0280498Y0177970D01*
X0282044Y0180368D02*
X0270705Y0180368D01*
X0266911Y0182767D02*
X0285838Y0182767D01*
X0296911Y0182767D02*
X0298234Y0182767D01*
X0298234Y0185165D02*
X0247734Y0185165D01*
X0250133Y0182767D02*
X0255838Y0182767D01*
X0252044Y0180368D02*
X0250905Y0180368D01*
X0249825Y0173173D02*
X0248838Y0173173D01*
X0250753Y0170774D02*
X0246439Y0170774D01*
X0250666Y0168376D02*
X0229419Y0168376D01*
X0231774Y0170774D02*
X0239066Y0170774D01*
X0236667Y0173173D02*
X0232767Y0173173D01*
X0233017Y0175571D02*
X0234600Y0175571D01*
X0234600Y0177970D02*
X0233017Y0177970D01*
X0233017Y0180368D02*
X0234600Y0180368D01*
X0235372Y0182767D02*
X0233017Y0182767D01*
X0232310Y0185165D02*
X0237771Y0185165D01*
X0234433Y0189962D02*
X0298234Y0189962D01*
X0298234Y0187564D02*
X0232035Y0187564D01*
X0236832Y0192361D02*
X0298234Y0192361D01*
X0298234Y0194759D02*
X0242059Y0194759D01*
X0244457Y0197158D02*
X0298234Y0197158D01*
X0298234Y0199556D02*
X0291553Y0199556D01*
X0293952Y0201955D02*
X0298234Y0201955D01*
X0298234Y0204353D02*
X0296350Y0204353D01*
X0269070Y0199556D02*
X0245005Y0199556D01*
X0245005Y0201955D02*
X0266672Y0201955D01*
X0264273Y0204353D02*
X0244984Y0204353D01*
X0242585Y0206752D02*
X0261875Y0206752D01*
X0259476Y0209150D02*
X0186974Y0209150D01*
X0184576Y0206752D02*
X0231424Y0206752D01*
X0229025Y0204353D02*
X0223330Y0204353D01*
X0225729Y0201955D02*
X0229005Y0201955D01*
X0232027Y0212408D02*
X0235078Y0211144D01*
X0238380Y0211144D01*
X0241431Y0212408D01*
X0241729Y0212706D01*
X0243291Y0211144D01*
X0250167Y0211144D01*
X0255029Y0216006D01*
X0255029Y0222882D01*
X0250167Y0227744D01*
X0243291Y0227744D01*
X0241729Y0226182D01*
X0241431Y0226480D01*
X0238380Y0227744D01*
X0235078Y0227744D01*
X0232027Y0226480D01*
X0229693Y0224146D01*
X0228429Y0221095D01*
X0228429Y0217793D01*
X0229693Y0214743D01*
X0232027Y0212408D01*
X0230488Y0213947D02*
X0224073Y0213947D01*
X0226131Y0216006D02*
X0221269Y0211144D01*
X0214393Y0211144D01*
X0212831Y0212706D01*
X0212533Y0212408D01*
X0209482Y0211144D01*
X0206180Y0211144D01*
X0203130Y0212408D01*
X0200795Y0214743D01*
X0199531Y0217793D01*
X0199531Y0221095D01*
X0200795Y0224146D01*
X0203130Y0226480D01*
X0206180Y0227744D01*
X0209482Y0227744D01*
X0212533Y0226480D01*
X0212831Y0226182D01*
X0214393Y0227744D01*
X0221269Y0227744D01*
X0226131Y0222882D01*
X0226131Y0216006D01*
X0226131Y0216346D02*
X0229028Y0216346D01*
X0228429Y0218745D02*
X0226131Y0218745D01*
X0226131Y0221143D02*
X0228449Y0221143D01*
X0229442Y0223542D02*
X0225472Y0223542D01*
X0223073Y0225940D02*
X0231487Y0225940D01*
X0234101Y0211549D02*
X0221674Y0211549D01*
X0213989Y0211549D02*
X0210460Y0211549D01*
X0205203Y0211549D02*
X0189373Y0211549D01*
X0190433Y0213947D02*
X0201590Y0213947D01*
X0200131Y0216346D02*
X0190433Y0216346D01*
X0190433Y0218745D02*
X0199531Y0218745D01*
X0199551Y0221143D02*
X0190433Y0221143D01*
X0190433Y0223542D02*
X0200545Y0223542D01*
X0202589Y0225940D02*
X0190433Y0225940D01*
X0190433Y0228339D02*
X0256017Y0228339D01*
X0256017Y0230737D02*
X0190433Y0230737D01*
X0190033Y0233136D02*
X0256417Y0233136D01*
X0258816Y0235534D02*
X0187634Y0235534D01*
X0185236Y0237933D02*
X0261214Y0237933D01*
X0263613Y0240331D02*
X0182837Y0240331D01*
X0182177Y0204353D02*
X0215246Y0204353D01*
X0239357Y0211549D02*
X0242886Y0211549D01*
X0250572Y0211549D02*
X0257078Y0211549D01*
X0256017Y0213947D02*
X0252970Y0213947D01*
X0255029Y0216346D02*
X0256017Y0216346D01*
X0256017Y0218745D02*
X0255029Y0218745D01*
X0255029Y0221143D02*
X0256017Y0221143D01*
X0256017Y0223542D02*
X0254370Y0223542D01*
X0256017Y0225940D02*
X0251971Y0225940D01*
X0219788Y0158782D02*
X0219497Y0158782D01*
X0233068Y0147869D02*
X0233068Y0143932D01*
X0228638Y0139503D01*
X0192221Y0139503D01*
X0183855Y0147869D01*
X0183080Y0139594D02*
X0181559Y0139594D01*
X0183536Y0137195D02*
X0185478Y0137195D01*
X0184513Y0134797D02*
X0187764Y0134797D01*
X0187764Y0132398D02*
X0184513Y0132398D01*
X0184513Y0130000D02*
X0187764Y0130000D01*
X0187764Y0127601D02*
X0184513Y0127601D01*
X0184513Y0125203D02*
X0187764Y0125203D01*
X0188737Y0122804D02*
X0183540Y0122804D01*
X0181567Y0120406D02*
X0188385Y0120406D01*
X0185986Y0118007D02*
X0168201Y0118007D01*
X0168201Y0115609D02*
X0185698Y0115609D01*
X0185698Y0113210D02*
X0168201Y0113210D01*
X0168201Y0110811D02*
X0185977Y0110811D01*
X0188376Y0108413D02*
X0181243Y0108413D01*
X0183405Y0106014D02*
X0188872Y0106014D01*
X0187878Y0103616D02*
X0184399Y0103616D01*
X0184513Y0101217D02*
X0187764Y0101217D01*
X0187764Y0098819D02*
X0184513Y0098819D01*
X0184513Y0096420D02*
X0187764Y0096420D01*
X0187764Y0094022D02*
X0184513Y0094022D01*
X0183670Y0091623D02*
X0188607Y0091623D01*
X0190394Y0089225D02*
X0181883Y0089225D01*
X0170394Y0089225D02*
X0148669Y0089225D01*
X0147918Y0091623D02*
X0168607Y0091623D01*
X0167764Y0094022D02*
X0166912Y0094022D01*
X0157491Y0094022D02*
X0150317Y0094022D01*
X0150669Y0096420D02*
X0155093Y0096420D01*
X0154201Y0098819D02*
X0150669Y0098819D01*
X0150580Y0101217D02*
X0154201Y0101217D01*
X0154201Y0103616D02*
X0148181Y0103616D01*
X0144611Y0106014D02*
X0156201Y0106014D01*
X0156201Y0108413D02*
X0144611Y0108413D01*
X0146719Y0110811D02*
X0156201Y0110811D01*
X0156296Y0108499D02*
X0156296Y0092751D01*
X0168201Y0106014D02*
X0168872Y0106014D01*
X0168201Y0108413D02*
X0171034Y0108413D01*
X0170710Y0120406D02*
X0168201Y0120406D01*
X0168201Y0122804D02*
X0168737Y0122804D01*
X0156201Y0122804D02*
X0150669Y0122804D01*
X0150669Y0125203D02*
X0156201Y0125203D01*
X0156201Y0127601D02*
X0150669Y0127601D01*
X0149357Y0130000D02*
X0156201Y0130000D01*
X0156201Y0132398D02*
X0148562Y0132398D01*
X0150960Y0134797D02*
X0156201Y0134797D01*
X0156201Y0137195D02*
X0153359Y0137195D01*
X0155757Y0139594D02*
X0156201Y0139594D01*
X0156201Y0120406D02*
X0149141Y0120406D01*
X0148521Y0118007D02*
X0156201Y0118007D01*
X0156201Y0115609D02*
X0148669Y0115609D01*
X0149485Y0115310D02*
X0156296Y0108499D01*
X0156201Y0113210D02*
X0148669Y0113210D01*
X0149485Y0115310D02*
X0142516Y0115310D01*
X0128611Y0106014D02*
X0127191Y0106014D01*
X0128611Y0103616D02*
X0089331Y0103616D01*
X0089236Y0101217D02*
X0130610Y0101217D01*
X0129554Y0098819D02*
X0127545Y0098819D01*
X0116621Y0098819D02*
X0116266Y0098819D01*
X0116975Y0106014D02*
X0097191Y0106014D01*
X0099590Y0108413D02*
X0114577Y0108413D01*
X0113931Y0110811D02*
X0100236Y0110811D01*
X0100236Y0113210D02*
X0113931Y0113210D01*
X0105774Y0098819D02*
X0097545Y0098819D01*
X0099944Y0096420D02*
X0103376Y0096420D01*
X0103020Y0094022D02*
X0100236Y0094022D01*
X0100236Y0091623D02*
X0103020Y0091623D01*
X0103233Y0089225D02*
X0100087Y0089225D01*
X0097688Y0086826D02*
X0105020Y0086826D01*
X0105020Y0084428D02*
X0089331Y0084428D01*
X0089331Y0082029D02*
X0105020Y0082029D01*
X0105020Y0079631D02*
X0097048Y0079631D01*
X0099447Y0077232D02*
X0105020Y0077232D01*
X0105020Y0074834D02*
X0100236Y0074834D01*
X0100236Y0072435D02*
X0105020Y0072435D01*
X0105020Y0070037D02*
X0100236Y0070037D01*
X0098185Y0067638D02*
X0105020Y0067638D01*
X0105020Y0065240D02*
X0095787Y0065240D01*
X0098090Y0062841D02*
X0105020Y0062841D01*
X0105020Y0060443D02*
X0100236Y0060443D01*
X0100236Y0058044D02*
X0105856Y0058044D01*
X0108144Y0055646D02*
X0100236Y0055646D01*
X0099542Y0053247D02*
X0110543Y0053247D01*
X0117023Y0050849D02*
X0097144Y0050849D01*
X0087023Y0050849D02*
X0069170Y0050849D01*
X0066772Y0053247D02*
X0084624Y0053247D01*
X0083931Y0055646D02*
X0064373Y0055646D01*
X0083931Y0058044D02*
X0034043Y0058044D01*
X0034043Y0055646D02*
X0039557Y0055646D01*
X0037159Y0053247D02*
X0034043Y0053247D01*
X0034043Y0050849D02*
X0034760Y0050849D01*
X0034043Y0060443D02*
X0083931Y0060443D01*
X0086077Y0062841D02*
X0034043Y0062841D01*
X0034043Y0065240D02*
X0088380Y0065240D01*
X0085981Y0067638D02*
X0034043Y0067638D01*
X0034043Y0070037D02*
X0083931Y0070037D01*
X0083931Y0072435D02*
X0034043Y0072435D01*
X0034043Y0074834D02*
X0067900Y0074834D01*
X0064174Y0077232D02*
X0034043Y0077232D01*
X0034043Y0079631D02*
X0062595Y0079631D01*
X0061844Y0082029D02*
X0034043Y0082029D01*
X0034043Y0084428D02*
X0061844Y0084428D01*
X0062632Y0086826D02*
X0034043Y0086826D01*
X0034043Y0089225D02*
X0062764Y0089225D01*
X0061844Y0091623D02*
X0034043Y0091623D01*
X0034043Y0094022D02*
X0061844Y0094022D01*
X0062464Y0096420D02*
X0034043Y0096420D01*
X0034043Y0098819D02*
X0062932Y0098819D01*
X0061938Y0101217D02*
X0034043Y0101217D01*
X0034043Y0103616D02*
X0061844Y0103616D01*
X0062296Y0106014D02*
X0034043Y0106014D01*
X0034043Y0108413D02*
X0063100Y0108413D01*
X0062106Y0110811D02*
X0034043Y0110811D01*
X0034043Y0113210D02*
X0061844Y0113210D01*
X0062128Y0115609D02*
X0034043Y0115609D01*
X0034043Y0118007D02*
X0063121Y0118007D01*
X0062275Y0120406D02*
X0034043Y0120406D01*
X0034043Y0122804D02*
X0061844Y0122804D01*
X0061960Y0125203D02*
X0034043Y0125203D01*
X0034043Y0127601D02*
X0062953Y0127601D01*
X0062443Y0130000D02*
X0034043Y0130000D01*
X0034043Y0132398D02*
X0061844Y0132398D01*
X0061844Y0134797D02*
X0034043Y0134797D01*
X0034043Y0137195D02*
X0062785Y0137195D01*
X0062611Y0139594D02*
X0034043Y0139594D01*
X0034043Y0141992D02*
X0061844Y0141992D01*
X0061844Y0144391D02*
X0034043Y0144391D01*
X0034043Y0146789D02*
X0062617Y0146789D01*
X0062779Y0149188D02*
X0034043Y0149188D01*
X0034043Y0151586D02*
X0061844Y0151586D01*
X0061844Y0153985D02*
X0034043Y0153985D01*
X0034043Y0156383D02*
X0062449Y0156383D01*
X0062947Y0158782D02*
X0034043Y0158782D01*
X0034043Y0161180D02*
X0061954Y0161180D01*
X0061844Y0163579D02*
X0034043Y0163579D01*
X0034043Y0165977D02*
X0062280Y0165977D01*
X0063115Y0168376D02*
X0034043Y0168376D01*
X0034043Y0170774D02*
X0062122Y0170774D01*
X0061844Y0173173D02*
X0034043Y0173173D01*
X0034043Y0175571D02*
X0062112Y0175571D01*
X0063106Y0177970D02*
X0034043Y0177970D01*
X0034043Y0180368D02*
X0065406Y0180368D01*
X0063207Y0199556D02*
X0073658Y0199556D01*
X0076057Y0201955D02*
X0065605Y0201955D01*
X0068004Y0204353D02*
X0081484Y0204353D01*
X0079085Y0206752D02*
X0070402Y0206752D01*
X0072801Y0209150D02*
X0076687Y0209150D01*
X0078094Y0207743D02*
X0078094Y0207743D01*
X0075529Y0211549D02*
X0075199Y0211549D01*
X0087123Y0189962D02*
X0091610Y0189962D01*
X0111020Y0187239D02*
X0142516Y0187239D01*
X0148422Y0181334D01*
X0148422Y0173460D01*
X0133054Y0168376D02*
X0132608Y0168376D01*
X0123054Y0168376D02*
X0122608Y0168376D01*
X0113054Y0168376D02*
X0112608Y0168376D01*
X0101457Y0151712D02*
X0101457Y0148617D01*
X0101457Y0146233D01*
X0097978Y0149712D01*
X0098586Y0149712D01*
X0100586Y0151712D01*
X0101457Y0151712D01*
X0101457Y0151586D02*
X0100460Y0151586D01*
X0101457Y0149188D02*
X0098502Y0149188D01*
X0101457Y0148617D02*
X0107831Y0148617D01*
X0101457Y0148617D01*
X0101457Y0146789D02*
X0100901Y0146789D01*
X0107831Y0148617D02*
X0107831Y0148617D01*
X0121142Y0193639D02*
X0121142Y0199238D01*
X0119456Y0200924D01*
X0125099Y0200924D01*
X0122584Y0198410D01*
X0122584Y0195861D01*
X0122584Y0193639D01*
X0121142Y0193639D01*
X0121142Y0194759D02*
X0122584Y0194759D01*
X0122584Y0195861D02*
X0128737Y0195861D01*
X0128737Y0195861D01*
X0134890Y0195861D01*
X0134890Y0193639D01*
X0138930Y0193639D01*
X0134890Y0197680D01*
X0134890Y0195861D01*
X0128737Y0195861D01*
X0128737Y0195861D01*
X0122584Y0195861D01*
X0122584Y0197158D02*
X0121142Y0197158D01*
X0120824Y0199556D02*
X0123731Y0199556D01*
X0134890Y0197158D02*
X0135412Y0197158D01*
X0134890Y0194759D02*
X0137810Y0194759D01*
X0203405Y0106014D02*
X0208872Y0106014D01*
X0207878Y0103616D02*
X0204399Y0103616D01*
X0204513Y0101217D02*
X0207764Y0101217D01*
X0207764Y0098819D02*
X0204513Y0098819D01*
X0204513Y0096420D02*
X0207764Y0096420D01*
X0207764Y0094022D02*
X0204513Y0094022D01*
X0203670Y0091623D02*
X0208607Y0091623D01*
X0210394Y0089225D02*
X0201883Y0089225D01*
X0200928Y0077232D02*
X0211349Y0077232D01*
X0211395Y0077278D02*
X0209039Y0074922D01*
X0207764Y0071844D01*
X0207764Y0062162D01*
X0209039Y0059084D01*
X0211395Y0056729D01*
X0214473Y0055454D01*
X0217804Y0055454D01*
X0220882Y0056729D01*
X0223238Y0059084D01*
X0224513Y0062162D01*
X0224513Y0071844D01*
X0223238Y0074922D01*
X0220882Y0077278D01*
X0217804Y0078553D01*
X0214473Y0078553D01*
X0211395Y0077278D01*
X0209002Y0074834D02*
X0203275Y0074834D01*
X0204268Y0072435D02*
X0208009Y0072435D01*
X0207764Y0070037D02*
X0204513Y0070037D01*
X0204513Y0067638D02*
X0207764Y0067638D01*
X0207764Y0065240D02*
X0204513Y0065240D01*
X0204513Y0062841D02*
X0207764Y0062841D01*
X0208476Y0060443D02*
X0203801Y0060443D01*
X0202198Y0058044D02*
X0210079Y0058044D01*
X0214009Y0055646D02*
X0200778Y0055646D01*
X0187764Y0065240D02*
X0184513Y0065240D01*
X0184513Y0067638D02*
X0187764Y0067638D01*
X0187764Y0070037D02*
X0184513Y0070037D01*
X0184268Y0072435D02*
X0188009Y0072435D01*
X0189002Y0074834D02*
X0183275Y0074834D01*
X0180928Y0077232D02*
X0191349Y0077232D01*
X0218268Y0055646D02*
X0234009Y0055646D01*
X0230079Y0058044D02*
X0222198Y0058044D01*
X0223801Y0060443D02*
X0228476Y0060443D01*
X0227764Y0062841D02*
X0224513Y0062841D01*
X0224513Y0065240D02*
X0227764Y0065240D01*
X0227764Y0067638D02*
X0224513Y0067638D01*
X0224513Y0070037D02*
X0227764Y0070037D01*
X0228009Y0072435D02*
X0224268Y0072435D01*
X0223275Y0074834D02*
X0229002Y0074834D01*
X0231349Y0077232D02*
X0220928Y0077232D01*
X0221883Y0089225D02*
X0230394Y0089225D01*
X0228607Y0091623D02*
X0223670Y0091623D01*
X0224513Y0094022D02*
X0227764Y0094022D01*
X0227764Y0096420D02*
X0224513Y0096420D01*
X0224513Y0098819D02*
X0227764Y0098819D01*
X0227764Y0101217D02*
X0224513Y0101217D01*
X0224399Y0103616D02*
X0227878Y0103616D01*
X0228872Y0106014D02*
X0223405Y0106014D01*
X0241243Y0108413D02*
X0257805Y0108413D01*
X0255407Y0110811D02*
X0241897Y0110811D01*
X0244295Y0113210D02*
X0253222Y0113210D01*
X0253222Y0115609D02*
X0246694Y0115609D01*
X0248450Y0118007D02*
X0253222Y0118007D01*
X0253877Y0120406D02*
X0248910Y0120406D01*
X0248910Y0122804D02*
X0256276Y0122804D01*
X0248910Y0125203D02*
X0276280Y0125203D01*
X0276280Y0127601D02*
X0248910Y0127601D01*
X0248910Y0130000D02*
X0276280Y0130000D01*
X0276280Y0132398D02*
X0248910Y0132398D01*
X0266474Y0122804D02*
X0276889Y0122804D01*
X0278857Y0120406D02*
X0268872Y0120406D01*
X0269527Y0118007D02*
X0281256Y0118007D01*
X0283222Y0115609D02*
X0269527Y0115609D01*
X0269527Y0113210D02*
X0283222Y0113210D01*
X0285407Y0110811D02*
X0267343Y0110811D01*
X0296798Y0074834D02*
X0298234Y0074834D01*
X0298234Y0072435D02*
X0244268Y0072435D01*
X0244513Y0070037D02*
X0298234Y0070037D01*
X0298234Y0067638D02*
X0296521Y0067638D01*
X0256017Y0038856D02*
X0243202Y0038856D01*
X0244195Y0036458D02*
X0256017Y0036458D01*
X0256017Y0034059D02*
X0244468Y0034059D01*
X0244468Y0031661D02*
X0256017Y0031661D01*
X0256017Y0029262D02*
X0244468Y0029262D01*
X0244468Y0026864D02*
X0256017Y0026864D01*
X0256017Y0024465D02*
X0244468Y0024465D01*
X0243784Y0022067D02*
X0257584Y0022067D01*
X0259982Y0019668D02*
X0242435Y0019668D01*
X0239518Y0017270D02*
X0262381Y0017270D01*
X0215394Y0019668D02*
X0215194Y0019668D01*
X0215194Y0022067D02*
X0215394Y0022067D01*
X0215394Y0024465D02*
X0215194Y0024465D01*
X0215194Y0026864D02*
X0215394Y0026864D01*
X0215394Y0029262D02*
X0215194Y0029262D01*
X0215194Y0031661D02*
X0215394Y0031661D01*
X0215394Y0034059D02*
X0215194Y0034059D01*
X0215194Y0036458D02*
X0215394Y0036458D01*
X0215394Y0038856D02*
X0215194Y0038856D01*
X0215194Y0041255D02*
X0215394Y0041255D01*
X0208809Y0022067D02*
X0134327Y0022067D01*
X0127084Y0022067D02*
X0125673Y0022067D01*
X0124325Y0019668D02*
X0210889Y0019668D01*
X0133150Y0041255D02*
X0122920Y0041255D01*
X0125092Y0038856D02*
X0130752Y0038856D01*
X0126090Y0036458D02*
X0126085Y0036458D01*
X0083931Y0074834D02*
X0083275Y0074834D01*
X0077900Y0074834D02*
X0073275Y0074834D01*
X0127688Y0086826D02*
X0129411Y0086826D01*
M02*
