G75*
%MOIN*%
%OFA0B0*%
%FSLAX25Y25*%
%IPPOS*%
%LPD*%
%AMOC8*
5,1,8,0,0,1.08239X$1,22.5*
%
%ADD10OC8,0.07087*%
%ADD11C,0.07087*%
%ADD12OC8,0.05906*%
%ADD13C,0.06350*%
%ADD14C,0.07087*%
%ADD15C,0.07000*%
%ADD16OC8,0.17717*%
%ADD17OC8,0.07600*%
%ADD18C,0.08350*%
%ADD19C,0.10000*%
%ADD20OC8,0.07000*%
%ADD21C,0.02400*%
%ADD22C,0.03200*%
%ADD23OC8,0.05600*%
%ADD24C,0.01600*%
%ADD25OC8,0.05512*%
%ADD26C,0.01575*%
%ADD27C,0.05512*%
D10*
X0187792Y0216571D03*
X0197792Y0216571D03*
X0207792Y0216571D03*
X0217792Y0216571D03*
X0207792Y0281571D03*
X0207792Y0291571D03*
D11*
X0214249Y0296571D02*
X0221335Y0296571D01*
X0221335Y0306571D02*
X0214249Y0306571D01*
X0214249Y0316571D02*
X0221335Y0316571D01*
X0221335Y0326571D02*
X0214249Y0326571D01*
X0214249Y0286571D02*
X0221335Y0286571D01*
X0221335Y0276571D02*
X0214249Y0276571D01*
X0214249Y0266571D02*
X0221335Y0266571D01*
X0221335Y0256571D02*
X0214249Y0256571D01*
X0214249Y0246571D02*
X0221335Y0246571D01*
X0221335Y0236571D02*
X0214249Y0236571D01*
X0214249Y0226571D02*
X0221335Y0226571D01*
X0161335Y0226571D02*
X0154249Y0226571D01*
X0154249Y0216571D02*
X0161335Y0216571D01*
X0161335Y0236571D02*
X0154249Y0236571D01*
X0154249Y0246571D02*
X0161335Y0246571D01*
X0161335Y0256571D02*
X0154249Y0256571D01*
X0154249Y0266571D02*
X0161335Y0266571D01*
X0161335Y0276571D02*
X0154249Y0276571D01*
X0154249Y0286571D02*
X0161335Y0286571D01*
X0161335Y0296571D02*
X0154249Y0296571D01*
X0154249Y0306571D02*
X0161335Y0306571D01*
X0161335Y0316571D02*
X0154249Y0316571D01*
X0154249Y0326571D02*
X0161335Y0326571D01*
D12*
X0093698Y0332752D03*
X0083698Y0332752D03*
X0080351Y0276020D03*
X0090351Y0276020D03*
X0119288Y0094209D03*
X0129288Y0094209D03*
D13*
X0135365Y0109878D02*
X0141715Y0109878D01*
X0141715Y0119878D02*
X0135365Y0119878D01*
X0135365Y0129878D02*
X0141715Y0129878D01*
X0141715Y0139878D02*
X0135365Y0139878D01*
X0135365Y0162240D02*
X0141715Y0162240D01*
X0141715Y0172240D02*
X0135365Y0172240D01*
X0135365Y0182240D02*
X0141715Y0182240D01*
X0141715Y0192240D02*
X0135365Y0192240D01*
X0111715Y0192240D02*
X0105365Y0192240D01*
X0105365Y0182240D02*
X0111715Y0182240D01*
X0111715Y0172240D02*
X0105365Y0172240D01*
X0105365Y0162240D02*
X0111715Y0162240D01*
X0111715Y0139878D02*
X0105365Y0139878D01*
X0105365Y0129878D02*
X0111715Y0129878D01*
X0111715Y0119878D02*
X0105365Y0119878D01*
X0105365Y0109878D02*
X0111715Y0109878D01*
X0101085Y0229957D02*
X0094735Y0229957D01*
X0094735Y0239957D02*
X0101085Y0239957D01*
X0101085Y0249957D02*
X0094735Y0249957D01*
X0094735Y0259957D02*
X0101085Y0259957D01*
X0124735Y0259957D02*
X0131085Y0259957D01*
X0131085Y0249957D02*
X0124735Y0249957D01*
X0124735Y0239957D02*
X0131085Y0239957D01*
X0131085Y0229957D02*
X0124735Y0229957D01*
X0076754Y0230350D02*
X0070405Y0230350D01*
X0070405Y0240350D02*
X0076754Y0240350D01*
X0076754Y0250350D02*
X0070405Y0250350D01*
X0070405Y0260350D02*
X0076754Y0260350D01*
X0046754Y0260350D02*
X0040405Y0260350D01*
X0040405Y0250350D02*
X0046754Y0250350D01*
X0046754Y0240350D02*
X0040405Y0240350D01*
X0040405Y0230350D02*
X0046754Y0230350D01*
X0047935Y0292161D02*
X0041586Y0292161D01*
X0041586Y0302161D02*
X0047935Y0302161D01*
X0047935Y0312161D02*
X0041586Y0312161D01*
X0041586Y0322161D02*
X0047935Y0322161D01*
X0071586Y0322161D02*
X0077935Y0322161D01*
X0077935Y0312161D02*
X0071586Y0312161D01*
X0071586Y0302161D02*
X0077935Y0302161D01*
X0077935Y0292161D02*
X0071586Y0292161D01*
X0094735Y0291374D02*
X0101085Y0291374D01*
X0101085Y0301374D02*
X0094735Y0301374D01*
X0094735Y0311374D02*
X0101085Y0311374D01*
X0101085Y0321374D02*
X0094735Y0321374D01*
X0124735Y0321374D02*
X0131085Y0321374D01*
X0131085Y0311374D02*
X0124735Y0311374D01*
X0124735Y0301374D02*
X0131085Y0301374D01*
X0131085Y0291374D02*
X0124735Y0291374D01*
D14*
X0080587Y0146453D03*
X0070587Y0146453D03*
X0070587Y0136453D03*
X0080587Y0136453D03*
X0080587Y0126453D03*
X0070587Y0126453D03*
X0070587Y0116453D03*
X0070587Y0106453D03*
X0080587Y0106453D03*
X0080587Y0116453D03*
X0080587Y0096453D03*
X0070587Y0096453D03*
X0070587Y0086453D03*
X0070587Y0076453D03*
X0080587Y0076453D03*
X0080587Y0086453D03*
X0080587Y0066453D03*
X0070587Y0066453D03*
X0070587Y0056453D03*
X0080587Y0056453D03*
D15*
X0278938Y0064051D02*
X0285938Y0064051D01*
X0285938Y0074051D02*
X0278938Y0074051D01*
X0278938Y0084051D02*
X0285938Y0084051D01*
X0285938Y0094051D02*
X0278938Y0094051D01*
X0278938Y0104051D02*
X0285938Y0104051D01*
X0285938Y0114051D02*
X0278938Y0114051D01*
X0278938Y0124051D02*
X0285938Y0124051D01*
X0285938Y0134051D02*
X0278938Y0134051D01*
X0278938Y0144051D02*
X0285938Y0144051D01*
X0285938Y0154051D02*
X0278938Y0154051D01*
X0278938Y0164051D02*
X0285938Y0164051D01*
X0285938Y0174051D02*
X0278938Y0174051D01*
X0278938Y0184051D02*
X0285938Y0184051D01*
X0285938Y0194051D02*
X0278938Y0194051D01*
X0278938Y0204051D02*
X0285938Y0204051D01*
X0285938Y0214051D02*
X0278938Y0214051D01*
D16*
X0282438Y0337516D03*
X0404170Y0337516D03*
X0404170Y0042555D03*
X0282438Y0042555D03*
D17*
X0312713Y0040429D03*
X0322713Y0040429D03*
X0218698Y0046138D03*
X0218698Y0056138D03*
X0218698Y0066138D03*
X0218698Y0076138D03*
X0218698Y0086138D03*
X0218698Y0096138D03*
X0218698Y0106138D03*
X0218698Y0116138D03*
X0218698Y0126138D03*
X0218698Y0136138D03*
X0218698Y0146138D03*
X0218698Y0156138D03*
X0218698Y0166138D03*
X0218698Y0176138D03*
X0218698Y0186138D03*
X0218698Y0196138D03*
X0308776Y0339642D03*
X0318776Y0339642D03*
X0199792Y0046138D03*
X0189792Y0046138D03*
X0179792Y0046138D03*
X0169792Y0046138D03*
D18*
X0132731Y0048065D02*
X0132731Y0056415D01*
X0112931Y0056415D02*
X0112931Y0048065D01*
D19*
X0236020Y0260902D03*
X0261611Y0260902D03*
X0261611Y0288461D03*
X0236020Y0288461D03*
X0236020Y0316020D03*
X0261611Y0316020D03*
D20*
X0324367Y0308146D03*
X0324367Y0284524D03*
X0324367Y0260902D03*
X0354367Y0260902D03*
X0354367Y0284524D03*
X0354367Y0308146D03*
D21*
X0034043Y0162071D02*
X0034043Y0038255D01*
X0164947Y0038255D01*
X0160792Y0042410D01*
X0160792Y0049866D01*
X0163392Y0052466D01*
X0163392Y0174161D01*
X0158888Y0174161D01*
X0157288Y0175761D01*
X0151496Y0175761D01*
X0155758Y0171500D01*
X0157445Y0169812D01*
X0158359Y0167607D01*
X0158359Y0114039D01*
X0157445Y0111834D01*
X0150403Y0104791D01*
X0148198Y0103878D01*
X0147559Y0103878D01*
X0146459Y0102778D01*
X0145950Y0102567D01*
X0147603Y0100914D01*
X0148516Y0098709D01*
X0148516Y0091018D01*
X0150516Y0089018D01*
X0150516Y0082391D01*
X0145830Y0077705D01*
X0139531Y0077705D01*
X0139531Y0062873D01*
X0140679Y0061725D01*
X0142106Y0058280D01*
X0142106Y0046201D01*
X0140679Y0042755D01*
X0138042Y0040118D01*
X0134596Y0038691D01*
X0130867Y0038691D01*
X0127421Y0040118D01*
X0124784Y0042755D01*
X0123357Y0046201D01*
X0123357Y0058280D01*
X0124784Y0061725D01*
X0125931Y0062873D01*
X0125931Y0086056D01*
X0125911Y0086056D01*
X0122874Y0089093D01*
X0121837Y0088056D01*
X0119288Y0088056D01*
X0119288Y0094209D01*
X0119288Y0088056D01*
X0116739Y0088056D01*
X0113135Y0091660D01*
X0113135Y0093114D01*
X0113075Y0093054D01*
X0111388Y0091366D01*
X0109182Y0090453D01*
X0095932Y0090453D01*
X0099335Y0087050D01*
X0099335Y0084294D01*
X0103863Y0079766D01*
X0103863Y0073139D01*
X0101114Y0070390D01*
X0101737Y0069766D01*
X0101737Y0063139D01*
X0097728Y0059130D01*
X0099335Y0057522D01*
X0099335Y0050895D01*
X0094649Y0046209D01*
X0088022Y0046209D01*
X0085292Y0048938D01*
X0082326Y0047709D01*
X0078848Y0047709D01*
X0075635Y0049041D01*
X0075587Y0049088D01*
X0075540Y0049041D01*
X0072326Y0047709D01*
X0068848Y0047709D01*
X0065635Y0049041D01*
X0063175Y0051500D01*
X0061844Y0054714D01*
X0061844Y0058192D01*
X0063175Y0061405D01*
X0063222Y0061453D01*
X0063175Y0061500D01*
X0061844Y0064714D01*
X0061844Y0068192D01*
X0063175Y0071405D01*
X0063222Y0071453D01*
X0063175Y0071500D01*
X0061844Y0074714D01*
X0061844Y0078192D01*
X0063175Y0081405D01*
X0063222Y0081453D01*
X0063175Y0081500D01*
X0061844Y0084714D01*
X0061844Y0088192D01*
X0063175Y0091405D01*
X0063222Y0091453D01*
X0063175Y0091500D01*
X0061844Y0094714D01*
X0061844Y0098192D01*
X0063175Y0101405D01*
X0063222Y0101453D01*
X0063175Y0101500D01*
X0061844Y0104714D01*
X0061844Y0108192D01*
X0063175Y0111405D01*
X0063222Y0111453D01*
X0063175Y0111500D01*
X0061844Y0114714D01*
X0061844Y0118192D01*
X0063175Y0121405D01*
X0063222Y0121453D01*
X0063175Y0121500D01*
X0061844Y0124714D01*
X0061844Y0128192D01*
X0063103Y0131232D01*
X0062779Y0131366D01*
X0061091Y0133054D01*
X0057385Y0136760D01*
X0056526Y0136760D01*
X0051839Y0141446D01*
X0051839Y0145039D01*
X0050535Y0145579D01*
X0048847Y0147267D01*
X0034043Y0162071D01*
X0034043Y0159676D02*
X0036438Y0159676D01*
X0034043Y0157278D02*
X0038836Y0157278D01*
X0041235Y0154879D02*
X0034043Y0154879D01*
X0034043Y0152481D02*
X0043633Y0152481D01*
X0046032Y0150082D02*
X0034043Y0150082D01*
X0034043Y0147684D02*
X0048430Y0147684D01*
X0051244Y0145285D02*
X0034043Y0145285D01*
X0034043Y0142887D02*
X0051839Y0142887D01*
X0052797Y0140488D02*
X0034043Y0140488D01*
X0034043Y0138090D02*
X0055196Y0138090D01*
X0058454Y0135691D02*
X0034043Y0135691D01*
X0034043Y0133293D02*
X0060853Y0133293D01*
X0062963Y0130894D02*
X0034043Y0130894D01*
X0034043Y0128496D02*
X0061970Y0128496D01*
X0061844Y0126097D02*
X0034043Y0126097D01*
X0034043Y0123699D02*
X0062264Y0123699D01*
X0063131Y0121300D02*
X0034043Y0121300D01*
X0034043Y0118902D02*
X0062138Y0118902D01*
X0061844Y0116503D02*
X0034043Y0116503D01*
X0034043Y0114105D02*
X0062096Y0114105D01*
X0063090Y0111706D02*
X0034043Y0111706D01*
X0034043Y0109307D02*
X0062306Y0109307D01*
X0061844Y0106909D02*
X0034043Y0106909D01*
X0034043Y0104510D02*
X0061928Y0104510D01*
X0062922Y0102112D02*
X0034043Y0102112D01*
X0034043Y0099713D02*
X0062474Y0099713D01*
X0061844Y0097315D02*
X0034043Y0097315D01*
X0034043Y0094916D02*
X0061844Y0094916D01*
X0062753Y0092518D02*
X0034043Y0092518D01*
X0034043Y0090119D02*
X0062642Y0090119D01*
X0061844Y0087721D02*
X0034043Y0087721D01*
X0034043Y0085322D02*
X0061844Y0085322D01*
X0062585Y0082924D02*
X0034043Y0082924D01*
X0034043Y0080525D02*
X0062811Y0080525D01*
X0061844Y0078127D02*
X0034043Y0078127D01*
X0034043Y0075728D02*
X0061844Y0075728D01*
X0062417Y0073330D02*
X0034043Y0073330D01*
X0034043Y0070931D02*
X0062979Y0070931D01*
X0061985Y0068533D02*
X0034043Y0068533D01*
X0034043Y0066134D02*
X0061844Y0066134D01*
X0062249Y0063736D02*
X0034043Y0063736D01*
X0034043Y0061337D02*
X0063147Y0061337D01*
X0062153Y0058939D02*
X0034043Y0058939D01*
X0034043Y0056540D02*
X0061844Y0056540D01*
X0062081Y0054142D02*
X0034043Y0054142D01*
X0034043Y0051743D02*
X0063074Y0051743D01*
X0065330Y0049345D02*
X0034043Y0049345D01*
X0034043Y0046946D02*
X0087284Y0046946D01*
X0095387Y0046946D02*
X0105640Y0046946D01*
X0105683Y0046623D02*
X0105933Y0045690D01*
X0106303Y0044797D01*
X0106786Y0043959D01*
X0107375Y0043192D01*
X0108058Y0042509D01*
X0108825Y0041920D01*
X0109663Y0041437D01*
X0110556Y0041067D01*
X0111490Y0040817D01*
X0112448Y0040691D01*
X0112831Y0040691D01*
X0112831Y0052140D01*
X0105557Y0052140D01*
X0105557Y0047582D01*
X0105683Y0046623D01*
X0106447Y0044548D02*
X0034043Y0044548D01*
X0034043Y0042149D02*
X0108527Y0042149D01*
X0112831Y0042149D02*
X0113031Y0042149D01*
X0113031Y0040691D02*
X0113415Y0040691D01*
X0114373Y0040817D01*
X0115307Y0041067D01*
X0116200Y0041437D01*
X0117037Y0041920D01*
X0117804Y0042509D01*
X0118488Y0043192D01*
X0119076Y0043959D01*
X0119560Y0044797D01*
X0119930Y0045690D01*
X0120180Y0046623D01*
X0120306Y0047582D01*
X0120306Y0052140D01*
X0113031Y0052140D01*
X0113031Y0040691D01*
X0113031Y0044548D02*
X0112831Y0044548D01*
X0112831Y0046946D02*
X0113031Y0046946D01*
X0113031Y0049345D02*
X0112831Y0049345D01*
X0112831Y0051743D02*
X0113031Y0051743D01*
X0113031Y0052140D02*
X0112831Y0052140D01*
X0112831Y0052340D01*
X0105557Y0052340D01*
X0105557Y0056898D01*
X0105683Y0057857D01*
X0105933Y0058791D01*
X0106303Y0059684D01*
X0106786Y0060521D01*
X0107375Y0061288D01*
X0108058Y0061972D01*
X0108825Y0062560D01*
X0109663Y0063043D01*
X0110556Y0063413D01*
X0111490Y0063664D01*
X0112448Y0063790D01*
X0112831Y0063790D01*
X0112831Y0052340D01*
X0113031Y0052340D01*
X0113031Y0063790D01*
X0113415Y0063790D01*
X0114373Y0063664D01*
X0115307Y0063413D01*
X0116200Y0063043D01*
X0117037Y0062560D01*
X0117804Y0061972D01*
X0118488Y0061288D01*
X0119076Y0060521D01*
X0119560Y0059684D01*
X0119930Y0058791D01*
X0120180Y0057857D01*
X0120306Y0056898D01*
X0120306Y0052340D01*
X0113031Y0052340D01*
X0113031Y0052140D01*
X0112931Y0052240D02*
X0126711Y0038461D01*
X0192115Y0038461D01*
X0199792Y0046138D01*
X0199792Y0046138D01*
X0199792Y0053138D01*
X0202691Y0053138D01*
X0206792Y0049037D01*
X0206792Y0046138D01*
X0199792Y0046138D01*
X0199792Y0053138D01*
X0196892Y0053138D01*
X0196206Y0052451D01*
X0196192Y0052466D01*
X0196192Y0065074D01*
X0197760Y0066643D01*
X0197760Y0073270D01*
X0194184Y0076846D01*
X0195792Y0078454D01*
X0195792Y0081282D01*
X0209698Y0095188D01*
X0209698Y0092410D01*
X0210970Y0091138D01*
X0209698Y0089866D01*
X0209698Y0082410D01*
X0210970Y0081138D01*
X0209698Y0079866D01*
X0209698Y0072410D01*
X0210970Y0071138D01*
X0209698Y0069866D01*
X0209698Y0062410D01*
X0210970Y0061138D01*
X0209698Y0059866D01*
X0209698Y0052410D01*
X0210970Y0051138D01*
X0209698Y0049866D01*
X0209698Y0042410D01*
X0213852Y0038255D01*
X0194637Y0038255D01*
X0196206Y0039824D01*
X0196892Y0039138D01*
X0199792Y0039138D01*
X0202691Y0039138D01*
X0206792Y0043238D01*
X0206792Y0046138D01*
X0199792Y0046138D01*
X0199792Y0046138D01*
X0199792Y0039138D01*
X0199792Y0046138D01*
X0199792Y0046138D01*
X0199792Y0046946D02*
X0199792Y0046946D01*
X0199792Y0044548D02*
X0199792Y0044548D01*
X0199792Y0042149D02*
X0199792Y0042149D01*
X0199792Y0039751D02*
X0199792Y0039751D01*
X0203304Y0039751D02*
X0212357Y0039751D01*
X0209958Y0042149D02*
X0205703Y0042149D01*
X0206792Y0044548D02*
X0209698Y0044548D01*
X0209698Y0046946D02*
X0206792Y0046946D01*
X0206485Y0049345D02*
X0209698Y0049345D01*
X0210364Y0051743D02*
X0204086Y0051743D01*
X0199792Y0051743D02*
X0199792Y0051743D01*
X0199792Y0049345D02*
X0199792Y0049345D01*
X0196192Y0054142D02*
X0209698Y0054142D01*
X0209698Y0056540D02*
X0196192Y0056540D01*
X0196192Y0058939D02*
X0209698Y0058939D01*
X0210770Y0061337D02*
X0196192Y0061337D01*
X0196192Y0063736D02*
X0209698Y0063736D01*
X0209698Y0066134D02*
X0197252Y0066134D01*
X0197760Y0068533D02*
X0209698Y0068533D01*
X0210763Y0070931D02*
X0197760Y0070931D01*
X0197701Y0073330D02*
X0209698Y0073330D01*
X0209698Y0075728D02*
X0195303Y0075728D01*
X0195465Y0078127D02*
X0209698Y0078127D01*
X0210357Y0080525D02*
X0195792Y0080525D01*
X0197433Y0082924D02*
X0209698Y0082924D01*
X0209698Y0085322D02*
X0199832Y0085322D01*
X0202230Y0087721D02*
X0209698Y0087721D01*
X0209951Y0090119D02*
X0204629Y0090119D01*
X0207027Y0092518D02*
X0209698Y0092518D01*
X0209698Y0094916D02*
X0209426Y0094916D01*
X0218698Y0096138D02*
X0236611Y0114051D01*
X0282438Y0114051D01*
X0282438Y0124051D02*
X0236611Y0124051D01*
X0218698Y0106138D01*
X0218698Y0116138D02*
X0236611Y0134051D01*
X0282438Y0134051D01*
X0282438Y0144051D02*
X0236611Y0144051D01*
X0218698Y0126138D01*
X0218698Y0136138D02*
X0236611Y0154051D01*
X0282438Y0154051D01*
X0282438Y0164051D02*
X0236611Y0164051D01*
X0218698Y0146138D01*
X0218698Y0156138D02*
X0236611Y0174051D01*
X0282438Y0174051D01*
X0282438Y0184051D02*
X0236611Y0184051D01*
X0218698Y0166138D01*
X0218698Y0176138D02*
X0236611Y0194051D01*
X0282438Y0194051D01*
X0282438Y0204051D02*
X0236611Y0204051D01*
X0218698Y0186138D01*
X0218698Y0196138D02*
X0236611Y0214051D01*
X0282438Y0214051D01*
X0297703Y0224436D02*
X0416344Y0224436D01*
X0416344Y0222038D02*
X0300102Y0222038D01*
X0302500Y0219639D02*
X0416344Y0219639D01*
X0416344Y0217240D02*
X0304899Y0217240D01*
X0305083Y0217056D02*
X0303395Y0218744D01*
X0272170Y0249970D01*
X0270482Y0251657D01*
X0268277Y0252571D01*
X0267582Y0252571D01*
X0267874Y0252740D01*
X0269773Y0254639D01*
X0271116Y0256965D01*
X0271811Y0259559D01*
X0271811Y0262244D01*
X0271116Y0264839D01*
X0269773Y0267165D01*
X0268411Y0268527D01*
X0268411Y0280836D01*
X0269773Y0282198D01*
X0271116Y0284524D01*
X0271811Y0287118D01*
X0271811Y0289803D01*
X0271116Y0292398D01*
X0269773Y0294724D01*
X0268411Y0296086D01*
X0268411Y0308395D01*
X0269773Y0309757D01*
X0271116Y0312083D01*
X0271811Y0314677D01*
X0271811Y0317363D01*
X0271116Y0319957D01*
X0269773Y0322283D01*
X0267874Y0324182D01*
X0265548Y0325525D01*
X0262954Y0326220D01*
X0261028Y0326220D01*
X0249659Y0337588D01*
X0247746Y0339501D01*
X0245247Y0340536D01*
X0208093Y0340536D01*
X0205594Y0339501D01*
X0203540Y0337447D01*
X0203455Y0337532D01*
X0203371Y0337567D01*
X0198899Y0341816D01*
X0268379Y0341816D01*
X0268379Y0331693D01*
X0276615Y0323457D01*
X0288261Y0323457D01*
X0296496Y0331693D01*
X0296496Y0341816D01*
X0299776Y0341816D01*
X0299776Y0335914D01*
X0305048Y0330642D01*
X0312504Y0330642D01*
X0313776Y0331914D01*
X0315048Y0330642D01*
X0322504Y0330642D01*
X0327776Y0335914D01*
X0327776Y0341816D01*
X0390112Y0341816D01*
X0390112Y0331693D01*
X0398347Y0323457D01*
X0409993Y0323457D01*
X0416344Y0329808D01*
X0416344Y0050262D01*
X0409993Y0056613D01*
X0398347Y0056613D01*
X0390112Y0048378D01*
X0390112Y0038255D01*
X0331713Y0038255D01*
X0331713Y0044157D01*
X0326441Y0049429D01*
X0318985Y0049429D01*
X0317713Y0048157D01*
X0316441Y0049429D01*
X0308985Y0049429D01*
X0303713Y0044157D01*
X0303713Y0038255D01*
X0296496Y0038255D01*
X0296496Y0048378D01*
X0294293Y0050582D01*
X0295521Y0051091D01*
X0297209Y0052778D01*
X0305083Y0060652D01*
X0305997Y0062858D01*
X0305997Y0214851D01*
X0305083Y0217056D01*
X0305997Y0214842D02*
X0416344Y0214842D01*
X0416344Y0212443D02*
X0305997Y0212443D01*
X0305997Y0210045D02*
X0416344Y0210045D01*
X0416344Y0207646D02*
X0305997Y0207646D01*
X0305997Y0205248D02*
X0416344Y0205248D01*
X0416344Y0202849D02*
X0305997Y0202849D01*
X0305997Y0200451D02*
X0416344Y0200451D01*
X0416344Y0198052D02*
X0305997Y0198052D01*
X0305997Y0195654D02*
X0416344Y0195654D01*
X0416344Y0193255D02*
X0305997Y0193255D01*
X0305997Y0190857D02*
X0416344Y0190857D01*
X0416344Y0188458D02*
X0305997Y0188458D01*
X0305997Y0186060D02*
X0416344Y0186060D01*
X0416344Y0183661D02*
X0305997Y0183661D01*
X0305997Y0181263D02*
X0416344Y0181263D01*
X0416344Y0178864D02*
X0305997Y0178864D01*
X0305997Y0176466D02*
X0416344Y0176466D01*
X0416344Y0174067D02*
X0305997Y0174067D01*
X0305997Y0171669D02*
X0416344Y0171669D01*
X0416344Y0169270D02*
X0305997Y0169270D01*
X0305997Y0166872D02*
X0416344Y0166872D01*
X0416344Y0164473D02*
X0305997Y0164473D01*
X0305997Y0162075D02*
X0416344Y0162075D01*
X0416344Y0159676D02*
X0305997Y0159676D01*
X0305997Y0157278D02*
X0416344Y0157278D01*
X0416344Y0154879D02*
X0305997Y0154879D01*
X0305997Y0152481D02*
X0416344Y0152481D01*
X0416344Y0150082D02*
X0305997Y0150082D01*
X0305997Y0147684D02*
X0416344Y0147684D01*
X0416344Y0145285D02*
X0305997Y0145285D01*
X0305997Y0142887D02*
X0416344Y0142887D01*
X0416344Y0140488D02*
X0305997Y0140488D01*
X0305997Y0138090D02*
X0416344Y0138090D01*
X0416344Y0135691D02*
X0305997Y0135691D01*
X0305997Y0133293D02*
X0416344Y0133293D01*
X0416344Y0130894D02*
X0305997Y0130894D01*
X0305997Y0128496D02*
X0416344Y0128496D01*
X0416344Y0126097D02*
X0305997Y0126097D01*
X0305997Y0123699D02*
X0416344Y0123699D01*
X0416344Y0121300D02*
X0305997Y0121300D01*
X0305997Y0118902D02*
X0416344Y0118902D01*
X0416344Y0116503D02*
X0305997Y0116503D01*
X0305997Y0114105D02*
X0416344Y0114105D01*
X0416344Y0111706D02*
X0305997Y0111706D01*
X0305997Y0109307D02*
X0416344Y0109307D01*
X0416344Y0106909D02*
X0305997Y0106909D01*
X0305997Y0104510D02*
X0416344Y0104510D01*
X0416344Y0102112D02*
X0305997Y0102112D01*
X0305997Y0099713D02*
X0416344Y0099713D01*
X0416344Y0097315D02*
X0305997Y0097315D01*
X0305997Y0094916D02*
X0416344Y0094916D01*
X0416344Y0092518D02*
X0305997Y0092518D01*
X0305997Y0090119D02*
X0416344Y0090119D01*
X0416344Y0087721D02*
X0305997Y0087721D01*
X0305997Y0085322D02*
X0416344Y0085322D01*
X0416344Y0082924D02*
X0305997Y0082924D01*
X0305997Y0080525D02*
X0416344Y0080525D01*
X0416344Y0078127D02*
X0305997Y0078127D01*
X0305997Y0075728D02*
X0416344Y0075728D01*
X0416344Y0073330D02*
X0305997Y0073330D01*
X0305997Y0070931D02*
X0416344Y0070931D01*
X0416344Y0068533D02*
X0305997Y0068533D01*
X0305997Y0066134D02*
X0416344Y0066134D01*
X0416344Y0063736D02*
X0305997Y0063736D01*
X0305367Y0061337D02*
X0416344Y0061337D01*
X0416344Y0058939D02*
X0303370Y0058939D01*
X0300971Y0056540D02*
X0398274Y0056540D01*
X0395875Y0054142D02*
X0298573Y0054142D01*
X0296174Y0051743D02*
X0393477Y0051743D01*
X0391078Y0049345D02*
X0326526Y0049345D01*
X0328924Y0046946D02*
X0390112Y0046946D01*
X0390112Y0044548D02*
X0331323Y0044548D01*
X0331713Y0042149D02*
X0390112Y0042149D01*
X0390112Y0039751D02*
X0331713Y0039751D01*
X0318901Y0049345D02*
X0316526Y0049345D01*
X0308901Y0049345D02*
X0295529Y0049345D01*
X0296496Y0046946D02*
X0306502Y0046946D01*
X0304104Y0044548D02*
X0296496Y0044548D01*
X0296496Y0042149D02*
X0303713Y0042149D01*
X0303713Y0039751D02*
X0296496Y0039751D01*
X0282438Y0064051D02*
X0236611Y0064051D01*
X0218698Y0046138D01*
X0218698Y0056138D02*
X0236611Y0074051D01*
X0282438Y0074051D01*
X0282438Y0084051D02*
X0236611Y0084051D01*
X0218698Y0066138D01*
X0218698Y0076138D02*
X0236611Y0094051D01*
X0282438Y0094051D01*
X0282438Y0104051D02*
X0236611Y0104051D01*
X0218698Y0086138D01*
X0189792Y0069925D02*
X0189760Y0069957D01*
X0189792Y0069925D02*
X0189792Y0046138D01*
X0196133Y0039751D02*
X0196280Y0039751D01*
X0179792Y0046138D02*
X0179792Y0253571D01*
X0207792Y0281571D01*
X0217792Y0276571D02*
X0223146Y0276571D01*
X0227162Y0280587D01*
X0227162Y0307161D01*
X0236020Y0316020D01*
X0254878Y0332369D02*
X0268379Y0332369D01*
X0268379Y0334768D02*
X0252480Y0334768D01*
X0250081Y0337166D02*
X0268379Y0337166D01*
X0268379Y0339565D02*
X0247593Y0339565D01*
X0257277Y0329971D02*
X0270101Y0329971D01*
X0272500Y0327572D02*
X0259675Y0327572D01*
X0266156Y0325173D02*
X0274899Y0325173D01*
X0269281Y0322775D02*
X0416344Y0322775D01*
X0416344Y0325173D02*
X0411709Y0325173D01*
X0414108Y0327572D02*
X0416344Y0327572D01*
X0416344Y0320376D02*
X0270873Y0320376D01*
X0271646Y0317978D02*
X0416344Y0317978D01*
X0416344Y0315579D02*
X0329237Y0315579D01*
X0327970Y0316846D02*
X0333067Y0311749D01*
X0333067Y0304542D01*
X0327970Y0299446D01*
X0320763Y0299446D01*
X0315667Y0304542D01*
X0315667Y0311749D01*
X0320763Y0316846D01*
X0327970Y0316846D01*
X0331635Y0313181D02*
X0349927Y0313181D01*
X0351592Y0314846D02*
X0347667Y0310921D01*
X0347667Y0308146D01*
X0354367Y0308146D01*
X0354367Y0308146D01*
X0354367Y0314846D01*
X0357142Y0314846D01*
X0361067Y0310921D01*
X0361067Y0308146D01*
X0354367Y0308146D01*
X0354367Y0308146D01*
X0354367Y0314846D01*
X0351592Y0314846D01*
X0354367Y0313181D02*
X0354367Y0313181D01*
X0354367Y0310782D02*
X0354367Y0310782D01*
X0354367Y0308384D02*
X0354367Y0308384D01*
X0354367Y0308146D02*
X0354367Y0308146D01*
X0361067Y0308146D01*
X0361067Y0305370D01*
X0357142Y0301446D01*
X0354367Y0301446D01*
X0354367Y0308146D01*
X0354367Y0308146D01*
X0347667Y0308146D01*
X0347667Y0305370D01*
X0351592Y0301446D01*
X0354367Y0301446D01*
X0354367Y0308146D01*
X0354367Y0305985D02*
X0354367Y0305985D01*
X0354367Y0303587D02*
X0354367Y0303587D01*
X0359283Y0303587D02*
X0416344Y0303587D01*
X0416344Y0305985D02*
X0361067Y0305985D01*
X0361067Y0308384D02*
X0416344Y0308384D01*
X0416344Y0310782D02*
X0361067Y0310782D01*
X0358807Y0313181D02*
X0416344Y0313181D01*
X0416344Y0301188D02*
X0329713Y0301188D01*
X0332112Y0303587D02*
X0349450Y0303587D01*
X0347667Y0305985D02*
X0333067Y0305985D01*
X0333067Y0308384D02*
X0347667Y0308384D01*
X0347667Y0310782D02*
X0333067Y0310782D01*
X0319497Y0315579D02*
X0271811Y0315579D01*
X0271410Y0313181D02*
X0317098Y0313181D01*
X0315667Y0310782D02*
X0270365Y0310782D01*
X0268411Y0308384D02*
X0315667Y0308384D01*
X0315667Y0305985D02*
X0268411Y0305985D01*
X0268411Y0303587D02*
X0316622Y0303587D01*
X0319020Y0301188D02*
X0268411Y0301188D01*
X0268411Y0298790D02*
X0416344Y0298790D01*
X0416344Y0296391D02*
X0268411Y0296391D01*
X0270195Y0293993D02*
X0416344Y0293993D01*
X0416344Y0291594D02*
X0329600Y0291594D01*
X0327970Y0293224D02*
X0333067Y0288127D01*
X0333067Y0280920D01*
X0327970Y0275824D01*
X0320763Y0275824D01*
X0315667Y0280920D01*
X0315667Y0288127D01*
X0320763Y0293224D01*
X0327970Y0293224D01*
X0331998Y0289196D02*
X0349564Y0289196D01*
X0347667Y0287299D02*
X0347667Y0284524D01*
X0354367Y0284524D01*
X0354367Y0284524D01*
X0354367Y0291224D01*
X0357142Y0291224D01*
X0361067Y0287299D01*
X0361067Y0284524D01*
X0354367Y0284524D01*
X0354367Y0284524D01*
X0354367Y0291224D01*
X0351592Y0291224D01*
X0347667Y0287299D01*
X0347667Y0286797D02*
X0333067Y0286797D01*
X0333067Y0284399D02*
X0347667Y0284399D01*
X0347667Y0284524D02*
X0347667Y0281748D01*
X0351592Y0277824D01*
X0354367Y0277824D01*
X0357142Y0277824D01*
X0361067Y0281748D01*
X0361067Y0284524D01*
X0354367Y0284524D01*
X0354367Y0284524D01*
X0354367Y0284523D02*
X0354367Y0277824D01*
X0354367Y0284523D01*
X0354367Y0284523D01*
X0354367Y0284524D02*
X0347667Y0284524D01*
X0347667Y0282000D02*
X0333067Y0282000D01*
X0331749Y0279602D02*
X0349813Y0279602D01*
X0354367Y0279602D02*
X0354367Y0279602D01*
X0354367Y0282000D02*
X0354367Y0282000D01*
X0354367Y0284399D02*
X0354367Y0284399D01*
X0354367Y0286797D02*
X0354367Y0286797D01*
X0354367Y0289196D02*
X0354367Y0289196D01*
X0359170Y0289196D02*
X0416344Y0289196D01*
X0416344Y0286797D02*
X0361067Y0286797D01*
X0361067Y0284399D02*
X0416344Y0284399D01*
X0416344Y0282000D02*
X0361067Y0282000D01*
X0358920Y0279602D02*
X0416344Y0279602D01*
X0416344Y0277203D02*
X0329350Y0277203D01*
X0327970Y0269602D02*
X0320763Y0269602D01*
X0315667Y0264505D01*
X0315667Y0257298D01*
X0320763Y0252202D01*
X0327970Y0252202D01*
X0333067Y0257298D01*
X0333067Y0264505D01*
X0327970Y0269602D01*
X0329963Y0267609D02*
X0416344Y0267609D01*
X0416344Y0265211D02*
X0359533Y0265211D01*
X0361067Y0263677D02*
X0357142Y0267602D01*
X0354367Y0267602D01*
X0354367Y0260902D01*
X0354367Y0260902D01*
X0361067Y0260902D01*
X0361067Y0263677D01*
X0361067Y0262812D02*
X0416344Y0262812D01*
X0416344Y0260414D02*
X0361067Y0260414D01*
X0361067Y0260902D02*
X0361067Y0258126D01*
X0357142Y0254202D01*
X0354367Y0254202D01*
X0354367Y0260901D01*
X0354367Y0260901D01*
X0354367Y0260902D02*
X0354367Y0260902D01*
X0354367Y0267602D01*
X0351592Y0267602D01*
X0347667Y0263677D01*
X0347667Y0260902D01*
X0354367Y0260902D01*
X0361067Y0260902D01*
X0360956Y0258015D02*
X0416344Y0258015D01*
X0416344Y0255617D02*
X0358557Y0255617D01*
X0354367Y0255617D02*
X0354367Y0255617D01*
X0354367Y0254202D02*
X0354367Y0260901D01*
X0354367Y0260902D02*
X0347667Y0260902D01*
X0347667Y0258126D01*
X0351592Y0254202D01*
X0354367Y0254202D01*
X0354367Y0258015D02*
X0354367Y0258015D01*
X0354367Y0260414D02*
X0354367Y0260414D01*
X0354367Y0260902D02*
X0354367Y0260902D01*
X0354367Y0262812D02*
X0354367Y0262812D01*
X0354367Y0265211D02*
X0354367Y0265211D01*
X0349201Y0265211D02*
X0332361Y0265211D01*
X0333067Y0262812D02*
X0347667Y0262812D01*
X0347667Y0260414D02*
X0333067Y0260414D01*
X0333067Y0258015D02*
X0347778Y0258015D01*
X0350176Y0255617D02*
X0331386Y0255617D01*
X0328987Y0253218D02*
X0416344Y0253218D01*
X0416344Y0250820D02*
X0271320Y0250820D01*
X0272170Y0249970D02*
X0272170Y0249970D01*
X0273718Y0248421D02*
X0416344Y0248421D01*
X0416344Y0246023D02*
X0276117Y0246023D01*
X0278515Y0243624D02*
X0416344Y0243624D01*
X0416344Y0241226D02*
X0280914Y0241226D01*
X0283312Y0238827D02*
X0416344Y0238827D01*
X0416344Y0236429D02*
X0285711Y0236429D01*
X0288109Y0234030D02*
X0416344Y0234030D01*
X0416344Y0231632D02*
X0290508Y0231632D01*
X0292906Y0229233D02*
X0416344Y0229233D01*
X0416344Y0226835D02*
X0295305Y0226835D01*
X0319747Y0253218D02*
X0268352Y0253218D01*
X0270338Y0255617D02*
X0317348Y0255617D01*
X0315667Y0258015D02*
X0271397Y0258015D01*
X0271811Y0260414D02*
X0315667Y0260414D01*
X0315667Y0262812D02*
X0271659Y0262812D01*
X0270901Y0265211D02*
X0316372Y0265211D01*
X0318771Y0267609D02*
X0269328Y0267609D01*
X0268411Y0270008D02*
X0416344Y0270008D01*
X0416344Y0272406D02*
X0268411Y0272406D01*
X0268411Y0274805D02*
X0416344Y0274805D01*
X0396631Y0325173D02*
X0289977Y0325173D01*
X0292375Y0327572D02*
X0394232Y0327572D01*
X0391834Y0329971D02*
X0294774Y0329971D01*
X0296496Y0332369D02*
X0303321Y0332369D01*
X0300923Y0334768D02*
X0296496Y0334768D01*
X0296496Y0337166D02*
X0299776Y0337166D01*
X0299776Y0339565D02*
X0296496Y0339565D01*
X0324231Y0332369D02*
X0390112Y0332369D01*
X0390112Y0334768D02*
X0326630Y0334768D01*
X0327776Y0337166D02*
X0390112Y0337166D01*
X0390112Y0339565D02*
X0327776Y0339565D01*
X0319134Y0291594D02*
X0271331Y0291594D01*
X0271811Y0289196D02*
X0316735Y0289196D01*
X0315667Y0286797D02*
X0271725Y0286797D01*
X0271044Y0284399D02*
X0315667Y0284399D01*
X0315667Y0282000D02*
X0269576Y0282000D01*
X0268411Y0279602D02*
X0316985Y0279602D01*
X0319383Y0277203D02*
X0268411Y0277203D01*
X0236020Y0279602D02*
X0236020Y0288461D01*
X0236020Y0279602D02*
X0222989Y0266571D01*
X0217792Y0266571D01*
X0217792Y0256571D02*
X0231690Y0256571D01*
X0236020Y0260902D01*
X0207792Y0291571D02*
X0169792Y0253571D01*
X0169792Y0046138D01*
X0163451Y0039751D02*
X0137155Y0039751D01*
X0140073Y0042149D02*
X0161053Y0042149D01*
X0160792Y0044548D02*
X0141421Y0044548D01*
X0142106Y0046946D02*
X0160792Y0046946D01*
X0160792Y0049345D02*
X0142106Y0049345D01*
X0142106Y0051743D02*
X0162670Y0051743D01*
X0163392Y0054142D02*
X0142106Y0054142D01*
X0142106Y0056540D02*
X0163392Y0056540D01*
X0163392Y0058939D02*
X0141833Y0058939D01*
X0140840Y0061337D02*
X0163392Y0061337D01*
X0163392Y0063736D02*
X0139531Y0063736D01*
X0139531Y0066134D02*
X0163392Y0066134D01*
X0163392Y0068533D02*
X0139531Y0068533D01*
X0139531Y0070931D02*
X0163392Y0070931D01*
X0163392Y0073330D02*
X0139531Y0073330D01*
X0139531Y0075728D02*
X0163392Y0075728D01*
X0163392Y0078127D02*
X0146252Y0078127D01*
X0148651Y0080525D02*
X0163392Y0080525D01*
X0163392Y0082924D02*
X0150516Y0082924D01*
X0150516Y0085322D02*
X0163392Y0085322D01*
X0163392Y0087721D02*
X0150516Y0087721D01*
X0149415Y0090119D02*
X0163392Y0090119D01*
X0163392Y0092518D02*
X0148516Y0092518D01*
X0148516Y0094916D02*
X0163392Y0094916D01*
X0163392Y0097315D02*
X0148516Y0097315D01*
X0148100Y0099713D02*
X0163392Y0099713D01*
X0163392Y0102112D02*
X0146405Y0102112D01*
X0149725Y0104510D02*
X0163392Y0104510D01*
X0163392Y0106909D02*
X0152521Y0106909D01*
X0154919Y0109307D02*
X0163392Y0109307D01*
X0163392Y0111706D02*
X0157318Y0111706D01*
X0158359Y0114105D02*
X0163392Y0114105D01*
X0163392Y0116503D02*
X0158359Y0116503D01*
X0158359Y0118902D02*
X0163392Y0118902D01*
X0163392Y0121300D02*
X0158359Y0121300D01*
X0158359Y0123699D02*
X0163392Y0123699D01*
X0163392Y0126097D02*
X0158359Y0126097D01*
X0158359Y0128496D02*
X0163392Y0128496D01*
X0163392Y0130894D02*
X0158359Y0130894D01*
X0158359Y0133293D02*
X0163392Y0133293D01*
X0163392Y0135691D02*
X0158359Y0135691D01*
X0158359Y0138090D02*
X0163392Y0138090D01*
X0163392Y0140488D02*
X0158359Y0140488D01*
X0158359Y0142887D02*
X0163392Y0142887D01*
X0163392Y0145285D02*
X0158359Y0145285D01*
X0158359Y0147684D02*
X0163392Y0147684D01*
X0163392Y0150082D02*
X0158359Y0150082D01*
X0158359Y0152481D02*
X0163392Y0152481D01*
X0163392Y0154879D02*
X0158359Y0154879D01*
X0158359Y0157278D02*
X0163392Y0157278D01*
X0163392Y0159676D02*
X0158359Y0159676D01*
X0158359Y0162075D02*
X0163392Y0162075D01*
X0163392Y0164473D02*
X0158359Y0164473D01*
X0158359Y0166872D02*
X0163392Y0166872D01*
X0163392Y0169270D02*
X0157670Y0169270D01*
X0155589Y0171669D02*
X0163392Y0171669D01*
X0163392Y0174067D02*
X0153190Y0174067D01*
X0162201Y0182161D02*
X0138619Y0182161D01*
X0138540Y0182240D01*
X0154327Y0195941D02*
X0154327Y0197909D01*
X0150390Y0201846D01*
X0142516Y0201846D01*
X0138579Y0205783D01*
X0135587Y0216571D02*
X0120863Y0201846D01*
X0120863Y0186098D01*
X0116926Y0182161D01*
X0108619Y0182161D01*
X0108540Y0192240D02*
X0108540Y0197398D01*
X0137713Y0226571D01*
X0157792Y0226571D01*
X0157792Y0216571D02*
X0135587Y0216571D01*
X0112894Y0225985D02*
X0112472Y0225563D01*
X0108460Y0225563D01*
X0106837Y0227186D01*
X0107134Y0227903D01*
X0107351Y0228710D01*
X0107460Y0229539D01*
X0107460Y0229957D01*
X0107460Y0230375D01*
X0107351Y0231203D01*
X0107172Y0231871D01*
X0110040Y0231871D01*
X0112894Y0233053D01*
X0112894Y0225985D01*
X0112894Y0226835D02*
X0107188Y0226835D01*
X0107419Y0229233D02*
X0112894Y0229233D01*
X0112894Y0231632D02*
X0107236Y0231632D01*
X0107460Y0229957D02*
X0097910Y0229957D01*
X0097910Y0220232D01*
X0093304Y0215626D01*
X0093304Y0166413D01*
X0093304Y0152634D01*
X0097241Y0148697D01*
X0097241Y0115232D01*
X0097241Y0103421D01*
X0100562Y0105666D02*
X0100053Y0106329D01*
X0099636Y0107052D01*
X0099316Y0107824D01*
X0099099Y0108632D01*
X0098990Y0109460D01*
X0098990Y0109878D01*
X0108540Y0109878D01*
X0102595Y0109878D01*
X0097241Y0115232D01*
X0098265Y0115134D02*
X0100024Y0113376D01*
X0099636Y0112704D01*
X0099316Y0111931D01*
X0099099Y0111124D01*
X0098990Y0110296D01*
X0098990Y0109878D01*
X0108540Y0109878D01*
X0108540Y0109878D01*
X0106554Y0103503D02*
X0105504Y0102453D01*
X0088394Y0102453D01*
X0089331Y0104714D01*
X0089331Y0108192D01*
X0087999Y0111405D01*
X0087952Y0111453D01*
X0087999Y0111500D01*
X0089331Y0114714D01*
X0089331Y0118192D01*
X0087999Y0121405D01*
X0087952Y0121453D01*
X0087999Y0121500D01*
X0089331Y0124714D01*
X0089331Y0128192D01*
X0088360Y0130536D01*
X0090364Y0131366D01*
X0091821Y0132823D01*
X0094649Y0132823D01*
X0097883Y0136057D01*
X0098265Y0135134D01*
X0098521Y0134878D01*
X0098265Y0134622D01*
X0096990Y0131544D01*
X0096990Y0128212D01*
X0098265Y0125134D01*
X0098521Y0124878D01*
X0098265Y0124622D01*
X0096990Y0121544D01*
X0096990Y0118212D01*
X0098265Y0115134D01*
X0099295Y0114105D02*
X0089078Y0114105D01*
X0089331Y0116503D02*
X0097698Y0116503D01*
X0096990Y0118902D02*
X0089037Y0118902D01*
X0088043Y0121300D02*
X0096990Y0121300D01*
X0097883Y0123699D02*
X0088910Y0123699D01*
X0089331Y0126097D02*
X0097866Y0126097D01*
X0096990Y0128496D02*
X0089205Y0128496D01*
X0089224Y0130894D02*
X0096990Y0130894D01*
X0097715Y0133293D02*
X0095119Y0133293D01*
X0097517Y0135691D02*
X0098035Y0135691D01*
X0098558Y0144914D02*
X0094649Y0148823D01*
X0089069Y0148823D01*
X0087999Y0151405D01*
X0086915Y0152490D01*
X0088587Y0154163D01*
X0088587Y0160790D01*
X0083901Y0165476D01*
X0077274Y0165476D01*
X0072587Y0160790D01*
X0072587Y0155088D01*
X0072326Y0155196D01*
X0070329Y0155196D01*
X0069773Y0155752D01*
X0067568Y0156665D01*
X0056419Y0156665D01*
X0040249Y0172836D01*
X0040249Y0206186D01*
X0044715Y0201720D01*
X0051342Y0201720D01*
X0053342Y0203720D01*
X0080116Y0203720D01*
X0082116Y0201720D01*
X0088743Y0201720D01*
X0093430Y0206407D01*
X0093430Y0213034D01*
X0088743Y0217720D01*
X0082116Y0217720D01*
X0080116Y0215720D01*
X0075184Y0215720D01*
X0077682Y0218218D01*
X0077682Y0221976D01*
X0078420Y0221976D01*
X0081498Y0223251D01*
X0081869Y0223621D01*
X0084085Y0221406D01*
X0090712Y0221406D01*
X0093101Y0223795D01*
X0093489Y0223691D01*
X0094317Y0223582D01*
X0095852Y0223582D01*
X0095146Y0222877D01*
X0095146Y0216249D01*
X0099833Y0211563D01*
X0104378Y0211563D01*
X0100693Y0207878D01*
X0097864Y0207878D01*
X0093178Y0203192D01*
X0093178Y0196564D01*
X0096990Y0192752D01*
X0096990Y0190574D01*
X0098265Y0187496D01*
X0098521Y0187240D01*
X0098265Y0186984D01*
X0096990Y0183906D01*
X0096990Y0180574D01*
X0098265Y0177496D01*
X0098521Y0177240D01*
X0098265Y0176984D01*
X0096990Y0173906D01*
X0096990Y0170574D01*
X0098265Y0167496D01*
X0100024Y0165738D01*
X0099636Y0165066D01*
X0099316Y0164294D01*
X0099099Y0163486D01*
X0098990Y0162658D01*
X0098990Y0162240D01*
X0098990Y0161822D01*
X0099099Y0160994D01*
X0099316Y0160187D01*
X0099636Y0159415D01*
X0100053Y0158691D01*
X0100562Y0158028D01*
X0101153Y0157437D01*
X0101816Y0156928D01*
X0102540Y0156511D01*
X0103312Y0156191D01*
X0104119Y0155974D01*
X0104947Y0155865D01*
X0108540Y0155865D01*
X0108540Y0162240D01*
X0108540Y0162240D01*
X0108540Y0155865D01*
X0111482Y0155865D01*
X0111482Y0148253D01*
X0103699Y0148253D01*
X0100621Y0146978D01*
X0098558Y0144914D01*
X0098187Y0145285D02*
X0098929Y0145285D01*
X0095788Y0147684D02*
X0102325Y0147684D01*
X0111482Y0150082D02*
X0088548Y0150082D01*
X0086924Y0152481D02*
X0111482Y0152481D01*
X0111482Y0154879D02*
X0088587Y0154879D01*
X0088587Y0157278D02*
X0101361Y0157278D01*
X0099527Y0159676D02*
X0088587Y0159676D01*
X0087303Y0162075D02*
X0098990Y0162075D01*
X0098990Y0162240D02*
X0108540Y0162240D01*
X0108540Y0162240D01*
X0097477Y0162240D01*
X0093304Y0166413D01*
X0097531Y0169270D02*
X0043814Y0169270D01*
X0046213Y0166872D02*
X0098890Y0166872D01*
X0099390Y0164473D02*
X0084904Y0164473D01*
X0076270Y0164473D02*
X0048611Y0164473D01*
X0051010Y0162075D02*
X0073872Y0162075D01*
X0072587Y0159676D02*
X0053408Y0159676D01*
X0055807Y0157278D02*
X0072587Y0157278D01*
X0098990Y0162240D02*
X0108540Y0162240D01*
X0108540Y0162075D02*
X0108540Y0162075D01*
X0108540Y0159676D02*
X0108540Y0159676D01*
X0108540Y0157278D02*
X0108540Y0157278D01*
X0096990Y0171669D02*
X0041416Y0171669D01*
X0040249Y0174067D02*
X0097057Y0174067D01*
X0098051Y0176466D02*
X0040249Y0176466D01*
X0040249Y0178864D02*
X0097699Y0178864D01*
X0096990Y0181263D02*
X0040249Y0181263D01*
X0040249Y0183661D02*
X0096990Y0183661D01*
X0097883Y0186060D02*
X0040249Y0186060D01*
X0040249Y0188458D02*
X0097867Y0188458D01*
X0096990Y0190857D02*
X0040249Y0190857D01*
X0040249Y0193255D02*
X0096487Y0193255D01*
X0094088Y0195654D02*
X0040249Y0195654D01*
X0040249Y0198052D02*
X0093178Y0198052D01*
X0093178Y0200451D02*
X0040249Y0200451D01*
X0040249Y0202849D02*
X0043586Y0202849D01*
X0041187Y0205248D02*
X0040249Y0205248D01*
X0040249Y0213255D02*
X0040249Y0223976D01*
X0043579Y0223976D01*
X0043579Y0230350D01*
X0043579Y0230350D01*
X0043579Y0223976D01*
X0047172Y0223976D01*
X0048001Y0224085D01*
X0048808Y0224301D01*
X0049580Y0224621D01*
X0050303Y0225039D01*
X0050966Y0225547D01*
X0051557Y0226138D01*
X0052066Y0226801D01*
X0052293Y0227194D01*
X0052784Y0226007D01*
X0054472Y0224319D01*
X0062346Y0216445D01*
X0064095Y0215720D01*
X0053342Y0215720D01*
X0051342Y0217720D01*
X0044715Y0217720D01*
X0040249Y0213255D01*
X0040249Y0214842D02*
X0041836Y0214842D01*
X0040154Y0215626D02*
X0048028Y0215626D01*
X0043579Y0220075D01*
X0043579Y0230350D01*
X0043579Y0229233D02*
X0043579Y0229233D01*
X0043579Y0226835D02*
X0043579Y0226835D01*
X0043579Y0224436D02*
X0043579Y0224436D01*
X0040249Y0222038D02*
X0056753Y0222038D01*
X0054355Y0224436D02*
X0049134Y0224436D01*
X0052085Y0226835D02*
X0052441Y0226835D01*
X0059152Y0219639D02*
X0040249Y0219639D01*
X0040249Y0217240D02*
X0044235Y0217240D01*
X0048028Y0215626D02*
X0093304Y0215626D01*
X0091622Y0214842D02*
X0096554Y0214842D01*
X0095146Y0217240D02*
X0089223Y0217240D01*
X0091344Y0222038D02*
X0095146Y0222038D01*
X0095146Y0219639D02*
X0077682Y0219639D01*
X0078570Y0222038D02*
X0083453Y0222038D01*
X0081636Y0217240D02*
X0076704Y0217240D01*
X0061550Y0217240D02*
X0051822Y0217240D01*
X0052471Y0202849D02*
X0080987Y0202849D01*
X0089872Y0202849D02*
X0093178Y0202849D01*
X0092271Y0205248D02*
X0095234Y0205248D01*
X0093430Y0207646D02*
X0097633Y0207646D01*
X0093430Y0210045D02*
X0102860Y0210045D01*
X0098952Y0212443D02*
X0093430Y0212443D01*
X0097910Y0229957D02*
X0097910Y0229957D01*
X0107460Y0229957D01*
X0127910Y0249957D02*
X0141650Y0249957D01*
X0145036Y0246571D01*
X0157792Y0246571D01*
X0157792Y0256571D02*
X0146847Y0256571D01*
X0132674Y0270744D01*
X0101178Y0270744D01*
X0097910Y0267476D01*
X0097910Y0259957D01*
X0114957Y0258933D02*
X0115981Y0259957D01*
X0127910Y0259957D01*
X0116926Y0276650D02*
X0109217Y0284358D01*
X0109052Y0284524D01*
X0109052Y0308146D01*
X0105823Y0311374D01*
X0097910Y0311374D01*
X0087398Y0314051D02*
X0085509Y0312161D01*
X0074760Y0312161D01*
X0074760Y0292161D02*
X0083698Y0292161D01*
X0085430Y0290429D01*
X0090713Y0284399D02*
X0100790Y0284399D01*
X0101391Y0284999D02*
X0095732Y0279340D01*
X0092900Y0282172D01*
X0090351Y0282172D01*
X0090028Y0282172D01*
X0089257Y0282943D01*
X0091944Y0285630D01*
X0092682Y0285325D01*
X0093489Y0285108D01*
X0094317Y0284999D01*
X0097910Y0284999D01*
X0097910Y0291374D01*
X0097910Y0283579D01*
X0090351Y0276020D01*
X0090351Y0281849D02*
X0090351Y0281849D01*
X0090351Y0282172D01*
X0090351Y0281849D01*
X0090351Y0282000D02*
X0090351Y0282000D01*
X0093072Y0282000D02*
X0098392Y0282000D01*
X0097910Y0284999D02*
X0101391Y0284999D01*
X0097910Y0284999D02*
X0097910Y0291374D01*
X0097910Y0291374D01*
X0097910Y0289196D02*
X0097910Y0289196D01*
X0097910Y0286797D02*
X0097910Y0286797D01*
X0095993Y0279602D02*
X0095470Y0279602D01*
X0080351Y0276020D02*
X0073579Y0269248D01*
X0073579Y0260350D01*
X0067179Y0268079D02*
X0065661Y0267450D01*
X0063305Y0265094D01*
X0062069Y0262111D01*
X0059216Y0264965D01*
X0056387Y0264965D01*
X0055915Y0265437D01*
X0053710Y0266350D01*
X0052598Y0266350D01*
X0051498Y0267450D01*
X0048420Y0268725D01*
X0048154Y0268725D01*
X0048154Y0272089D01*
X0043468Y0276776D01*
X0036840Y0276776D01*
X0034043Y0273978D01*
X0034043Y0298486D01*
X0034486Y0297417D01*
X0036244Y0295659D01*
X0035856Y0294987D01*
X0035536Y0294215D01*
X0035320Y0293408D01*
X0035211Y0292579D01*
X0035211Y0292161D01*
X0035211Y0291744D01*
X0035320Y0290915D01*
X0035536Y0290108D01*
X0035856Y0289336D01*
X0036274Y0288612D01*
X0036783Y0287949D01*
X0037373Y0287358D01*
X0038036Y0286850D01*
X0038760Y0286432D01*
X0039532Y0286112D01*
X0040339Y0285896D01*
X0041168Y0285787D01*
X0044760Y0285787D01*
X0044760Y0292161D01*
X0035211Y0292161D01*
X0044760Y0292161D01*
X0044760Y0292161D01*
X0044761Y0292161D01*
X0044761Y0285787D01*
X0048353Y0285787D01*
X0049182Y0285896D01*
X0049989Y0286112D01*
X0050761Y0286432D01*
X0051485Y0286850D01*
X0052148Y0287358D01*
X0052261Y0287472D01*
X0052261Y0277258D01*
X0053173Y0275057D01*
X0057035Y0271195D01*
X0058719Y0269511D01*
X0060920Y0268599D01*
X0067179Y0268599D01*
X0067179Y0268079D01*
X0066045Y0267609D02*
X0051114Y0267609D01*
X0048154Y0270008D02*
X0058222Y0270008D01*
X0057035Y0271195D02*
X0057035Y0271195D01*
X0055824Y0272406D02*
X0047837Y0272406D01*
X0045439Y0274805D02*
X0053425Y0274805D01*
X0052284Y0277203D02*
X0034043Y0277203D01*
X0034043Y0274805D02*
X0034870Y0274805D01*
X0034043Y0279602D02*
X0052261Y0279602D01*
X0052261Y0282000D02*
X0034043Y0282000D01*
X0034043Y0284399D02*
X0052261Y0284399D01*
X0052261Y0286797D02*
X0051394Y0286797D01*
X0044761Y0286797D02*
X0044760Y0286797D01*
X0044760Y0289196D02*
X0044761Y0289196D01*
X0044760Y0291594D02*
X0044761Y0291594D01*
X0038127Y0286797D02*
X0034043Y0286797D01*
X0034043Y0289196D02*
X0035937Y0289196D01*
X0035231Y0291594D02*
X0034043Y0291594D01*
X0034043Y0293993D02*
X0035477Y0293993D01*
X0035512Y0296391D02*
X0034043Y0296391D01*
X0044760Y0322161D02*
X0044760Y0330469D01*
X0053934Y0339642D01*
X0079524Y0331768D02*
X0080509Y0332752D01*
X0093698Y0332752D02*
X0099850Y0332752D01*
X0099850Y0334318D01*
X0106957Y0334318D01*
X0106957Y0332391D01*
X0108557Y0330791D01*
X0108557Y0327774D01*
X0106529Y0327774D01*
X0105829Y0328474D01*
X0102751Y0329749D01*
X0099396Y0329749D01*
X0099850Y0330203D01*
X0099850Y0332752D01*
X0093698Y0332752D01*
X0093698Y0332752D01*
X0099850Y0332369D02*
X0106979Y0332369D01*
X0108557Y0329971D02*
X0099617Y0329971D01*
X0097910Y0321374D02*
X0107635Y0321374D01*
X0112989Y0316020D01*
X0114957Y0317988D01*
X0114957Y0335705D01*
X0112989Y0316020D02*
X0112989Y0288461D01*
X0120863Y0282555D01*
X0144485Y0282555D01*
X0150469Y0276571D01*
X0157792Y0276571D01*
X0157792Y0266571D02*
X0152595Y0266571D01*
X0140548Y0276650D01*
X0116926Y0276650D01*
X0118894Y0300272D02*
X0119997Y0301374D01*
X0127910Y0301374D01*
X0127910Y0311374D02*
X0121572Y0311374D01*
X0118894Y0314051D01*
X0138087Y0341118D02*
X0138579Y0341118D01*
X0165479Y0334318D02*
X0187045Y0334318D01*
X0192803Y0328848D01*
X0192803Y0308762D01*
X0193838Y0306262D01*
X0201978Y0298122D01*
X0199049Y0295192D01*
X0199049Y0291879D01*
X0168721Y0261550D01*
X0168700Y0261571D01*
X0168748Y0261618D01*
X0170079Y0264832D01*
X0170079Y0268310D01*
X0168748Y0271524D01*
X0168700Y0271571D01*
X0168748Y0271618D01*
X0170079Y0274832D01*
X0170079Y0278310D01*
X0168748Y0281524D01*
X0168700Y0281571D01*
X0168748Y0281618D01*
X0170079Y0284832D01*
X0170079Y0288310D01*
X0168748Y0291524D01*
X0167137Y0293134D01*
X0167396Y0293582D01*
X0167734Y0294399D01*
X0167963Y0295252D01*
X0168079Y0296129D01*
X0168079Y0296571D01*
X0168079Y0297013D01*
X0167963Y0297889D01*
X0167734Y0298743D01*
X0167396Y0299560D01*
X0167137Y0300008D01*
X0168748Y0301618D01*
X0170079Y0304832D01*
X0170079Y0308310D01*
X0168748Y0311524D01*
X0168700Y0311571D01*
X0168748Y0311618D01*
X0170079Y0314832D01*
X0170079Y0318310D01*
X0168748Y0321524D01*
X0168700Y0321571D01*
X0168748Y0321618D01*
X0170079Y0324832D01*
X0170079Y0328310D01*
X0168748Y0331524D01*
X0166288Y0333983D01*
X0165479Y0334318D01*
X0167902Y0332369D02*
X0189097Y0332369D01*
X0191622Y0329971D02*
X0169391Y0329971D01*
X0170079Y0327572D02*
X0192803Y0327572D01*
X0192803Y0325173D02*
X0170079Y0325173D01*
X0169227Y0322775D02*
X0192803Y0322775D01*
X0192803Y0320376D02*
X0169223Y0320376D01*
X0170079Y0317978D02*
X0192803Y0317978D01*
X0192803Y0315579D02*
X0170079Y0315579D01*
X0169395Y0313181D02*
X0192803Y0313181D01*
X0192803Y0310782D02*
X0169054Y0310782D01*
X0170048Y0308384D02*
X0192959Y0308384D01*
X0194115Y0305985D02*
X0170079Y0305985D01*
X0169563Y0303587D02*
X0196514Y0303587D01*
X0198912Y0301188D02*
X0168318Y0301188D01*
X0167715Y0298790D02*
X0201311Y0298790D01*
X0200248Y0296391D02*
X0168079Y0296391D01*
X0168079Y0296571D02*
X0157792Y0296571D01*
X0168079Y0296571D01*
X0167566Y0293993D02*
X0199049Y0293993D01*
X0198765Y0291594D02*
X0168677Y0291594D01*
X0169712Y0289196D02*
X0196366Y0289196D01*
X0193967Y0286797D02*
X0170079Y0286797D01*
X0169899Y0284399D02*
X0191569Y0284399D01*
X0189170Y0282000D02*
X0168906Y0282000D01*
X0169544Y0279602D02*
X0186772Y0279602D01*
X0184373Y0277203D02*
X0170079Y0277203D01*
X0170067Y0274805D02*
X0181975Y0274805D01*
X0179576Y0272406D02*
X0169074Y0272406D01*
X0169375Y0270008D02*
X0177178Y0270008D01*
X0174779Y0267609D02*
X0170079Y0267609D01*
X0170079Y0265211D02*
X0172381Y0265211D01*
X0169982Y0262812D02*
X0169242Y0262812D01*
X0157792Y0296571D02*
X0157792Y0296571D01*
X0201269Y0339565D02*
X0205747Y0339565D01*
X0217792Y0216571D02*
X0217792Y0212161D01*
X0187792Y0182161D01*
X0140548Y0148697D02*
X0138540Y0146689D01*
X0138540Y0139878D01*
X0099718Y0106909D02*
X0089331Y0106909D01*
X0089246Y0104510D02*
X0101912Y0104510D01*
X0101816Y0104566D02*
X0102540Y0104148D01*
X0103312Y0103829D01*
X0104119Y0103612D01*
X0104947Y0103503D01*
X0106554Y0103503D01*
X0101816Y0104566D02*
X0101153Y0105075D01*
X0100562Y0105666D01*
X0099011Y0109307D02*
X0088868Y0109307D01*
X0088085Y0111706D02*
X0099255Y0111706D01*
X0112539Y0092518D02*
X0113135Y0092518D01*
X0114676Y0090119D02*
X0096266Y0090119D01*
X0098664Y0087721D02*
X0124246Y0087721D01*
X0125931Y0085322D02*
X0099335Y0085322D01*
X0100705Y0082924D02*
X0125931Y0082924D01*
X0125931Y0080525D02*
X0103104Y0080525D01*
X0103863Y0078127D02*
X0125931Y0078127D01*
X0125931Y0075728D02*
X0103863Y0075728D01*
X0103863Y0073330D02*
X0125931Y0073330D01*
X0125931Y0070931D02*
X0101655Y0070931D01*
X0101737Y0068533D02*
X0125931Y0068533D01*
X0125931Y0066134D02*
X0101737Y0066134D01*
X0101737Y0063736D02*
X0112038Y0063736D01*
X0112831Y0063736D02*
X0113031Y0063736D01*
X0113825Y0063736D02*
X0125931Y0063736D01*
X0124623Y0061337D02*
X0118439Y0061337D01*
X0119868Y0058939D02*
X0123630Y0058939D01*
X0123357Y0056540D02*
X0120306Y0056540D01*
X0120306Y0054142D02*
X0123357Y0054142D01*
X0123357Y0051743D02*
X0120306Y0051743D01*
X0120306Y0049345D02*
X0123357Y0049345D01*
X0123357Y0046946D02*
X0120222Y0046946D01*
X0119416Y0044548D02*
X0124041Y0044548D01*
X0125390Y0042149D02*
X0117336Y0042149D01*
X0128307Y0039751D02*
X0034043Y0039751D01*
X0097785Y0049345D02*
X0105557Y0049345D01*
X0105557Y0051743D02*
X0099335Y0051743D01*
X0099335Y0054142D02*
X0105557Y0054142D01*
X0105557Y0056540D02*
X0099335Y0056540D01*
X0097919Y0058939D02*
X0105994Y0058939D01*
X0107424Y0061337D02*
X0099935Y0061337D01*
X0112831Y0061337D02*
X0113031Y0061337D01*
X0113031Y0058939D02*
X0112831Y0058939D01*
X0112831Y0056540D02*
X0113031Y0056540D01*
X0113031Y0054142D02*
X0112831Y0054142D01*
X0119288Y0090119D02*
X0119288Y0090119D01*
X0119288Y0092518D02*
X0119288Y0092518D01*
X0119288Y0094209D02*
X0119288Y0094209D01*
X0062359Y0262812D02*
X0061368Y0262812D01*
X0063421Y0265211D02*
X0056141Y0265211D01*
X0410066Y0056540D02*
X0416344Y0056540D01*
X0416344Y0054142D02*
X0412465Y0054142D01*
X0414863Y0051743D02*
X0416344Y0051743D01*
D22*
X0199792Y0046138D02*
X0199792Y0069768D01*
X0199603Y0069957D01*
X0132731Y0052240D02*
X0132731Y0090765D01*
X0129288Y0094209D01*
X0119288Y0094209D02*
X0112931Y0087852D01*
X0112931Y0052240D01*
X0108619Y0182161D02*
X0108540Y0182240D01*
X0138540Y0192240D02*
X0138579Y0192280D01*
X0138579Y0205783D01*
X0138579Y0256965D02*
X0135587Y0259957D01*
X0127910Y0259957D01*
X0170075Y0266807D02*
X0170075Y0290429D01*
X0163934Y0296571D01*
X0157792Y0296571D01*
X0127910Y0321374D02*
X0127910Y0332417D01*
X0136611Y0341118D01*
X0138087Y0341118D01*
X0138579Y0341118D02*
X0146453Y0341118D01*
X0189760Y0341118D01*
X0199603Y0331768D01*
X0199603Y0323894D01*
X0209446Y0333736D01*
X0243894Y0333736D01*
X0261611Y0316020D01*
X0261611Y0288461D01*
X0261611Y0260902D01*
X0217792Y0296571D02*
X0213146Y0296571D01*
X0199603Y0310114D01*
X0199603Y0323894D01*
X0235036Y0339642D02*
X0256690Y0339642D01*
X0272438Y0323894D01*
X0338619Y0323894D01*
X0354367Y0308146D01*
X0354367Y0284524D01*
X0354367Y0260902D01*
X0136611Y0341118D02*
X0088875Y0341118D01*
X0079524Y0331768D01*
X0074760Y0327004D01*
X0074760Y0322161D01*
X0080509Y0332752D02*
X0083698Y0332752D01*
D23*
X0087398Y0314051D03*
X0114957Y0335705D03*
X0118894Y0314051D03*
X0118894Y0300272D03*
X0142516Y0288461D03*
X0170075Y0266807D03*
X0138579Y0256965D03*
X0114957Y0258933D03*
X0108186Y0249957D03*
X0087398Y0260902D03*
X0083461Y0245154D03*
X0087398Y0229406D03*
X0103146Y0219563D03*
X0085430Y0209720D03*
X0069682Y0221531D03*
X0063776Y0235311D03*
X0059839Y0249091D03*
X0055902Y0256965D03*
X0040154Y0268776D03*
X0036217Y0288461D03*
X0063776Y0280587D03*
X0085430Y0290429D03*
X0053934Y0339642D03*
X0140548Y0331768D03*
X0231099Y0233343D03*
X0187792Y0182161D03*
X0162201Y0182161D03*
X0154327Y0195941D03*
X0138579Y0205783D03*
X0128737Y0180193D03*
X0101178Y0199878D03*
X0080587Y0157476D03*
X0091335Y0140823D03*
X0059839Y0144760D03*
X0097241Y0103421D03*
X0091335Y0083736D03*
X0095863Y0076453D03*
X0093737Y0066453D03*
X0091335Y0054209D03*
X0142516Y0085705D03*
X0187792Y0081768D03*
X0189760Y0069957D03*
X0199603Y0069957D03*
X0233068Y0042398D03*
X0128737Y0134917D03*
X0140548Y0148697D03*
X0048028Y0209720D03*
X0040154Y0215626D03*
D24*
X0048028Y0209720D02*
X0085430Y0209720D01*
X0069682Y0221531D02*
X0065745Y0221531D01*
X0057871Y0229406D01*
X0057871Y0243185D01*
X0050705Y0250350D01*
X0043579Y0250350D01*
X0043579Y0260350D02*
X0052516Y0260350D01*
X0055902Y0256965D01*
X0061099Y0250350D02*
X0073579Y0250350D01*
X0083461Y0245154D02*
X0088264Y0249957D01*
X0097910Y0249957D01*
X0108186Y0249957D01*
X0112989Y0247122D02*
X0112989Y0244358D01*
X0108457Y0239827D01*
X0112989Y0247122D02*
X0115993Y0250126D01*
X0127768Y0250126D01*
X0127910Y0239957D02*
X0123540Y0239957D01*
X0118894Y0235311D01*
X0118894Y0223500D01*
X0114957Y0219563D01*
X0103146Y0219563D01*
X0087398Y0229406D02*
X0086453Y0230350D01*
X0073579Y0230350D01*
X0073579Y0240350D02*
X0068816Y0240350D01*
X0063776Y0235311D01*
X0059839Y0249091D02*
X0061099Y0250350D01*
X0040154Y0268776D02*
X0034249Y0262870D01*
X0034249Y0170350D01*
X0053934Y0150665D01*
X0066375Y0150665D01*
X0070587Y0146453D01*
X0070587Y0136453D02*
X0066178Y0136453D01*
X0059839Y0142791D01*
X0059839Y0144760D01*
X0080587Y0146453D02*
X0080587Y0157476D01*
X0091335Y0140823D02*
X0086965Y0136453D01*
X0080587Y0136453D01*
X0122831Y0154602D02*
X0122831Y0111295D01*
X0107989Y0096453D01*
X0080587Y0096453D01*
X0080587Y0086453D02*
X0083304Y0083736D01*
X0091335Y0083736D01*
X0095863Y0076453D02*
X0080587Y0076453D01*
X0080587Y0066453D02*
X0093737Y0066453D01*
X0089091Y0056453D02*
X0080587Y0056453D01*
X0089091Y0056453D02*
X0091335Y0054209D01*
X0142516Y0085705D02*
X0142516Y0097516D01*
X0138579Y0101453D01*
X0130705Y0101453D01*
X0128737Y0103421D01*
X0128737Y0117201D01*
X0131414Y0119878D01*
X0138540Y0119878D01*
X0138540Y0109878D02*
X0147005Y0109878D01*
X0152359Y0115232D01*
X0152359Y0166413D01*
X0146532Y0172240D01*
X0138540Y0172240D01*
X0138540Y0162240D02*
X0130469Y0162240D01*
X0122831Y0154602D01*
X0128737Y0134917D02*
X0133776Y0129878D01*
X0138540Y0129878D01*
X0128737Y0180193D02*
X0130784Y0182240D01*
X0138540Y0182240D01*
X0101178Y0199878D02*
X0127910Y0226610D01*
X0127910Y0229957D01*
X0097910Y0259957D02*
X0088343Y0259957D01*
X0087398Y0260902D01*
X0063776Y0280587D02*
X0063776Y0298303D01*
X0067635Y0302161D01*
X0074760Y0302161D01*
X0058249Y0299047D02*
X0058249Y0307768D01*
X0053855Y0312161D01*
X0044760Y0312161D01*
X0044760Y0292161D02*
X0039918Y0292161D01*
X0036217Y0288461D01*
X0127910Y0291374D02*
X0139603Y0291374D01*
X0142516Y0288461D01*
X0148422Y0290429D02*
X0148422Y0306177D01*
X0143225Y0311374D01*
X0127910Y0311374D01*
X0140548Y0331768D02*
X0140548Y0335213D01*
X0146453Y0341118D01*
X0148422Y0290429D02*
X0152280Y0286571D01*
X0157792Y0286571D01*
X0217792Y0246571D02*
X0267083Y0246571D01*
X0299997Y0213657D01*
X0299997Y0064051D01*
X0292123Y0056177D01*
X0254721Y0056177D01*
X0252753Y0056177D01*
X0238973Y0056177D01*
X0233068Y0050272D01*
X0233068Y0042398D01*
X0187792Y0081768D02*
X0207477Y0101453D01*
X0207477Y0195941D01*
X0229131Y0217594D01*
X0229131Y0223500D01*
X0226060Y0226571D01*
X0217792Y0226571D01*
X0217792Y0236571D02*
X0227871Y0236571D01*
X0231099Y0233343D01*
D25*
X0235036Y0339642D03*
D26*
X0134205Y0244976D02*
X0118757Y0244976D01*
X0127768Y0250126D02*
X0127910Y0249957D01*
X0134205Y0244976D02*
X0141930Y0237252D01*
X0157379Y0237252D01*
X0157792Y0236571D01*
X0109217Y0284358D02*
X0095583Y0270724D01*
X0087859Y0270724D01*
X0085284Y0273299D01*
X0085284Y0278449D01*
X0082709Y0281024D01*
X0077560Y0281024D01*
X0071123Y0274587D01*
X0062111Y0274587D01*
X0058249Y0278449D01*
X0058249Y0299047D01*
X0116926Y0182161D02*
X0117469Y0181894D01*
X0117469Y0138122D01*
X0109745Y0130398D01*
X0108540Y0129878D01*
D27*
X0108457Y0239827D03*
X0118757Y0244976D03*
M02*
