G75*
%MOIN*%
%OFA0B0*%
%FSLAX25Y25*%
%IPPOS*%
%LPD*%
%AMOC8*
5,1,8,0,0,1.08239X$1,22.5*
%
%ADD10OC8,0.07887*%
%ADD11C,0.07887*%
%ADD12OC8,0.06706*%
%ADD13C,0.07150*%
%ADD14C,0.07887*%
%ADD15C,0.07800*%
%ADD16OC8,0.18517*%
%ADD17OC8,0.08400*%
%ADD18C,0.09150*%
%ADD19C,0.10800*%
%ADD20OC8,0.07800*%
%ADD21OC8,0.06400*%
%ADD22OC8,0.06312*%
%ADD23C,0.06312*%
D10*
X0187792Y0216571D03*
X0197792Y0216571D03*
X0207792Y0216571D03*
X0217792Y0216571D03*
X0207792Y0281571D03*
X0207792Y0291571D03*
D11*
X0214249Y0296571D02*
X0221335Y0296571D01*
X0221335Y0306571D02*
X0214249Y0306571D01*
X0214249Y0316571D02*
X0221335Y0316571D01*
X0221335Y0326571D02*
X0214249Y0326571D01*
X0214249Y0286571D02*
X0221335Y0286571D01*
X0221335Y0276571D02*
X0214249Y0276571D01*
X0214249Y0266571D02*
X0221335Y0266571D01*
X0221335Y0256571D02*
X0214249Y0256571D01*
X0214249Y0246571D02*
X0221335Y0246571D01*
X0221335Y0236571D02*
X0214249Y0236571D01*
X0214249Y0226571D02*
X0221335Y0226571D01*
X0161335Y0226571D02*
X0154249Y0226571D01*
X0154249Y0216571D02*
X0161335Y0216571D01*
X0161335Y0236571D02*
X0154249Y0236571D01*
X0154249Y0246571D02*
X0161335Y0246571D01*
X0161335Y0256571D02*
X0154249Y0256571D01*
X0154249Y0266571D02*
X0161335Y0266571D01*
X0161335Y0276571D02*
X0154249Y0276571D01*
X0154249Y0286571D02*
X0161335Y0286571D01*
X0161335Y0296571D02*
X0154249Y0296571D01*
X0154249Y0306571D02*
X0161335Y0306571D01*
X0161335Y0316571D02*
X0154249Y0316571D01*
X0154249Y0326571D02*
X0161335Y0326571D01*
D12*
X0093698Y0332752D03*
X0083698Y0332752D03*
X0080351Y0276020D03*
X0090351Y0276020D03*
X0119288Y0094209D03*
X0129288Y0094209D03*
D13*
X0135365Y0109878D02*
X0141715Y0109878D01*
X0141715Y0119878D02*
X0135365Y0119878D01*
X0135365Y0129878D02*
X0141715Y0129878D01*
X0141715Y0139878D02*
X0135365Y0139878D01*
X0135365Y0162240D02*
X0141715Y0162240D01*
X0141715Y0172240D02*
X0135365Y0172240D01*
X0135365Y0182240D02*
X0141715Y0182240D01*
X0141715Y0192240D02*
X0135365Y0192240D01*
X0111715Y0192240D02*
X0105365Y0192240D01*
X0105365Y0182240D02*
X0111715Y0182240D01*
X0111715Y0172240D02*
X0105365Y0172240D01*
X0105365Y0162240D02*
X0111715Y0162240D01*
X0111715Y0139878D02*
X0105365Y0139878D01*
X0105365Y0129878D02*
X0111715Y0129878D01*
X0111715Y0119878D02*
X0105365Y0119878D01*
X0105365Y0109878D02*
X0111715Y0109878D01*
X0101085Y0229957D02*
X0094735Y0229957D01*
X0094735Y0239957D02*
X0101085Y0239957D01*
X0101085Y0249957D02*
X0094735Y0249957D01*
X0094735Y0259957D02*
X0101085Y0259957D01*
X0124735Y0259957D02*
X0131085Y0259957D01*
X0131085Y0249957D02*
X0124735Y0249957D01*
X0124735Y0239957D02*
X0131085Y0239957D01*
X0131085Y0229957D02*
X0124735Y0229957D01*
X0076754Y0230350D02*
X0070405Y0230350D01*
X0070405Y0240350D02*
X0076754Y0240350D01*
X0076754Y0250350D02*
X0070405Y0250350D01*
X0070405Y0260350D02*
X0076754Y0260350D01*
X0046754Y0260350D02*
X0040405Y0260350D01*
X0040405Y0250350D02*
X0046754Y0250350D01*
X0046754Y0240350D02*
X0040405Y0240350D01*
X0040405Y0230350D02*
X0046754Y0230350D01*
X0047935Y0292161D02*
X0041586Y0292161D01*
X0041586Y0302161D02*
X0047935Y0302161D01*
X0047935Y0312161D02*
X0041586Y0312161D01*
X0041586Y0322161D02*
X0047935Y0322161D01*
X0071586Y0322161D02*
X0077935Y0322161D01*
X0077935Y0312161D02*
X0071586Y0312161D01*
X0071586Y0302161D02*
X0077935Y0302161D01*
X0077935Y0292161D02*
X0071586Y0292161D01*
X0094735Y0291374D02*
X0101085Y0291374D01*
X0101085Y0301374D02*
X0094735Y0301374D01*
X0094735Y0311374D02*
X0101085Y0311374D01*
X0101085Y0321374D02*
X0094735Y0321374D01*
X0124735Y0321374D02*
X0131085Y0321374D01*
X0131085Y0311374D02*
X0124735Y0311374D01*
X0124735Y0301374D02*
X0131085Y0301374D01*
X0131085Y0291374D02*
X0124735Y0291374D01*
D14*
X0070587Y0056453D03*
X0080587Y0056453D03*
X0080587Y0066453D03*
X0070587Y0066453D03*
X0070587Y0076453D03*
X0070587Y0086453D03*
X0080587Y0086453D03*
X0080587Y0076453D03*
X0080587Y0096453D03*
X0070587Y0096453D03*
X0070587Y0106453D03*
X0070587Y0116453D03*
X0080587Y0116453D03*
X0080587Y0106453D03*
X0080587Y0126453D03*
X0070587Y0126453D03*
X0070587Y0136453D03*
X0070587Y0146453D03*
X0080587Y0146453D03*
X0080587Y0136453D03*
D15*
X0278938Y0134051D02*
X0285938Y0134051D01*
X0285938Y0124051D02*
X0278938Y0124051D01*
X0278938Y0114051D02*
X0285938Y0114051D01*
X0285938Y0104051D02*
X0278938Y0104051D01*
X0278938Y0094051D02*
X0285938Y0094051D01*
X0285938Y0084051D02*
X0278938Y0084051D01*
X0278938Y0074051D02*
X0285938Y0074051D01*
X0285938Y0064051D02*
X0278938Y0064051D01*
X0278938Y0144051D02*
X0285938Y0144051D01*
X0285938Y0154051D02*
X0278938Y0154051D01*
X0278938Y0164051D02*
X0285938Y0164051D01*
X0285938Y0174051D02*
X0278938Y0174051D01*
X0278938Y0184051D02*
X0285938Y0184051D01*
X0285938Y0194051D02*
X0278938Y0194051D01*
X0278938Y0204051D02*
X0285938Y0204051D01*
X0285938Y0214051D02*
X0278938Y0214051D01*
D16*
X0282438Y0337516D03*
X0404170Y0337516D03*
X0404170Y0042555D03*
X0282438Y0042555D03*
D17*
X0312713Y0040429D03*
X0322713Y0040429D03*
X0218698Y0046138D03*
X0218698Y0056138D03*
X0218698Y0066138D03*
X0218698Y0076138D03*
X0218698Y0086138D03*
X0218698Y0096138D03*
X0218698Y0106138D03*
X0218698Y0116138D03*
X0218698Y0126138D03*
X0218698Y0136138D03*
X0218698Y0146138D03*
X0218698Y0156138D03*
X0218698Y0166138D03*
X0218698Y0176138D03*
X0218698Y0186138D03*
X0218698Y0196138D03*
X0308776Y0339642D03*
X0318776Y0339642D03*
X0199792Y0046138D03*
X0189792Y0046138D03*
X0179792Y0046138D03*
X0169792Y0046138D03*
D18*
X0132731Y0048065D02*
X0132731Y0056415D01*
X0112931Y0056415D02*
X0112931Y0048065D01*
D19*
X0236020Y0260902D03*
X0261611Y0260902D03*
X0261611Y0288461D03*
X0236020Y0288461D03*
X0236020Y0316020D03*
X0261611Y0316020D03*
D20*
X0324367Y0308146D03*
X0324367Y0284524D03*
X0324367Y0260902D03*
X0354367Y0260902D03*
X0354367Y0284524D03*
X0354367Y0308146D03*
D21*
X0231099Y0233343D03*
X0187792Y0182161D03*
X0162201Y0182161D03*
X0154327Y0195941D03*
X0138579Y0205783D03*
X0128737Y0180193D03*
X0101178Y0199878D03*
X0085430Y0209720D03*
X0069682Y0221531D03*
X0063776Y0235311D03*
X0059839Y0249091D03*
X0055902Y0256965D03*
X0040154Y0268776D03*
X0036217Y0288461D03*
X0063776Y0280587D03*
X0085430Y0290429D03*
X0087398Y0314051D03*
X0114957Y0335705D03*
X0118894Y0314051D03*
X0118894Y0300272D03*
X0142516Y0288461D03*
X0170075Y0266807D03*
X0138579Y0256965D03*
X0114957Y0258933D03*
X0108186Y0249957D03*
X0087398Y0260902D03*
X0083461Y0245154D03*
X0087398Y0229406D03*
X0103146Y0219563D03*
X0048028Y0209720D03*
X0040154Y0215626D03*
X0080587Y0157476D03*
X0091335Y0140823D03*
X0059839Y0144760D03*
X0097241Y0103421D03*
X0091335Y0083736D03*
X0095863Y0076453D03*
X0093737Y0066453D03*
X0091335Y0054209D03*
X0142516Y0085705D03*
X0187792Y0081768D03*
X0189760Y0069957D03*
X0199603Y0069957D03*
X0233068Y0042398D03*
X0128737Y0134917D03*
X0140548Y0148697D03*
X0140548Y0331768D03*
X0053934Y0339642D03*
D22*
X0235036Y0339642D03*
D23*
X0118757Y0244976D03*
X0108457Y0239827D03*
M02*
