%
M48
M72
T01C0.0236
T02C0.0276
T03C0.0315
T04C0.0320
T05C0.0354
T06C0.0394
T07C0.0512
T08C0.0520
T09C0.1181
%
T01
X9134Y5421
X9374Y6645
X9586Y7645
X9134Y8374
X9724Y10342
X12874Y13492
X14055Y14870
X12874Y18019
X15433Y19594
X16220Y18216
X18779Y18216
X13858Y20578
X10118Y19988
X8543Y20972
X6968Y22153
X6378Y23531
X5984Y24909
X5590Y25696
X4015Y26878
X3622Y28846
X6378Y28059
X8543Y29043
X8740Y31405
X11496Y33570
X11889Y31405
X11889Y30027
X14252Y28846
X17008Y26681
X13858Y25696
X11876Y24498
X10846Y23983
X10819Y24996
X11496Y25893
X8740Y26090
X8346Y24515
X8740Y22941
X10315Y21956
X4803Y20972
X4015Y21563
X8059Y15748
X9134Y14082
X5984Y14476
X14252Y8570
X18779Y8177
X18976Y6996
X19960Y6996
X23307Y4240
X23110Y23334
X14055Y33177
X5393Y33964
X23504Y33964
T02
X9370Y33275
X8370Y33275
X8035Y27602
X9035Y27602
X11929Y9421
X12929Y9421
T03
X28244Y9405
X28244Y8405
X28244Y7405
X28244Y6405
X28244Y10405
X28244Y11405
X28244Y12405
X28244Y13405
X28244Y14405
X28244Y15405
X28244Y16405
X28244Y17405
X28244Y18405
X28244Y19405
X28244Y20405
X28244Y21405
X32437Y26090
X32437Y28452
X32437Y30815
X35437Y30815
X35437Y28452
X35437Y26090
T04
X13854Y19224
X13854Y18224
X13854Y17224
X13854Y16224
X13854Y13988
X13854Y12988
X13854Y11988
X13854Y10988
X10854Y10988
X10854Y11988
X10854Y12988
X10854Y13988
X10854Y16224
X10854Y17224
X10854Y18224
X10854Y19224
X9791Y22996
X9791Y23996
X9791Y24996
X9791Y25996
X7358Y26035
X7358Y25035
X7358Y24035
X7358Y23035
X4358Y23035
X4358Y24035
X4358Y25035
X4358Y26035
X4476Y29216
X4476Y30216
X4476Y31216
X4476Y32216
X7476Y32216
X7476Y31216
X7476Y30216
X7476Y29216
X9791Y29137
X9791Y30137
X9791Y31137
X9791Y32137
X12791Y32137
X12791Y31137
X12791Y30137
X12791Y29137
X12791Y25996
X12791Y24996
X12791Y23996
X12791Y22996
T05
X21870Y19614
X21870Y18614
X21870Y17614
X21870Y16614
X21870Y15614
X21870Y14614
X21870Y13614
X21870Y12614
X21870Y11614
X21870Y10614
X21870Y9614
X21870Y8614
X21870Y7614
X21870Y6614
X21870Y5614
X21870Y4614
X19979Y4614
X18979Y4614
X17979Y4614
X16979Y4614
X31271Y4043
X32271Y4043
X31878Y33964
X30878Y33964
T06
X7059Y5645
X8059Y5645
X8059Y6645
X7059Y6645
X7059Y7645
X8059Y7645
X8059Y8645
X7059Y8645
X7059Y9645
X8059Y9645
X8059Y10645
X7059Y10645
X7059Y11645
X8059Y11645
X8059Y12645
X7059Y12645
X7059Y13645
X8059Y13645
X8059Y14645
X7059Y14645
X15779Y21657
X15779Y22657
X15779Y23657
X15779Y24657
X15779Y25657
X15779Y26657
X15779Y27657
X15779Y28657
X15779Y29657
X15779Y30657
X15779Y31657
X15779Y32657
X20779Y29157
X21779Y28657
X21779Y27657
X20779Y28157
X21779Y26657
X21779Y25657
X21779Y24657
X21779Y23657
X21779Y22657
X21779Y21657
X20779Y21657
X19779Y21657
X18779Y21657
X21779Y29657
X21779Y30657
X21779Y31657
X21779Y32657
T07
X23602Y31602
X26161Y31602
X26161Y28846
X23602Y28846
X23602Y26090
X26161Y26090
T08
X13273Y5224
X11293Y5224
T09
X28244Y4256
X40417Y4256
X40417Y33752
X28244Y33752
M30
