G75*
%MOIN*%
%OFA0B0*%
%FSLAX25Y25*%
%IPPOS*%
%LPD*%
%AMOC8*
5,1,8,0,0,1.08239X$1,22.5*
%
%ADD10C,0.01000*%
%ADD11C,0.00500*%
%ADD12C,0.00600*%
%ADD13C,0.00197*%
%ADD14C,0.00800*%
%ADD15C,0.00787*%
%ADD16C,0.00700*%
%ADD17R,0.03000X0.15000*%
%ADD18R,0.01500X0.02000*%
%ADD19C,0.00400*%
D10*
X0028343Y0032555D02*
X0422044Y0032555D01*
X0422044Y0347516D01*
X0028343Y0347516D01*
X0028343Y0032555D01*
X0123288Y0091209D02*
X0123288Y0094209D01*
X0123288Y0097209D01*
X0125288Y0097209D02*
X0125288Y0094209D01*
X0125288Y0091209D01*
X0086351Y0273020D02*
X0086351Y0276020D01*
X0086351Y0279020D01*
X0084351Y0279020D02*
X0084351Y0276020D01*
X0084351Y0273020D01*
X0087698Y0329752D02*
X0087698Y0332752D01*
X0087698Y0335752D01*
X0089698Y0335752D02*
X0089698Y0332752D01*
X0089698Y0329752D01*
D11*
X0090053Y0338002D02*
X0090053Y0342506D01*
X0088551Y0341005D01*
X0086950Y0341755D02*
X0086199Y0342506D01*
X0084698Y0342506D01*
X0083948Y0341755D01*
X0083948Y0338753D01*
X0084698Y0338002D01*
X0086199Y0338002D01*
X0086950Y0338753D01*
X0088551Y0338002D02*
X0091554Y0338002D01*
X0107566Y0332128D02*
X0109067Y0332128D01*
X0108316Y0332128D02*
X0108316Y0327624D01*
X0107566Y0327624D02*
X0109067Y0327624D01*
X0110635Y0328375D02*
X0111386Y0327624D01*
X0112887Y0327624D01*
X0113637Y0328375D01*
X0115239Y0327624D02*
X0118241Y0327624D01*
X0116740Y0327624D02*
X0116740Y0332128D01*
X0115239Y0330627D01*
X0113637Y0331377D02*
X0112887Y0332128D01*
X0111386Y0332128D01*
X0110635Y0331377D01*
X0110635Y0328375D01*
X0152792Y0329071D02*
X0155292Y0331571D01*
X0160292Y0331571D01*
X0162792Y0329071D01*
X0162792Y0324071D01*
X0160292Y0321571D01*
X0162792Y0319071D01*
X0162792Y0314071D01*
X0160292Y0311571D01*
X0162792Y0309071D01*
X0162792Y0304071D01*
X0160292Y0301571D01*
X0162792Y0299071D01*
X0162792Y0294071D01*
X0160292Y0291571D01*
X0162792Y0289071D01*
X0162792Y0284071D01*
X0160292Y0281571D01*
X0162792Y0279071D01*
X0162792Y0274071D01*
X0160292Y0271571D01*
X0162792Y0269071D01*
X0162792Y0264071D01*
X0160292Y0261571D01*
X0162792Y0259071D01*
X0162792Y0254071D01*
X0160292Y0251571D01*
X0162792Y0249071D01*
X0162792Y0244071D01*
X0160292Y0241571D01*
X0162792Y0239071D01*
X0162792Y0234071D01*
X0160292Y0231571D01*
X0162792Y0229071D01*
X0162792Y0224071D01*
X0160292Y0221571D01*
X0162792Y0219071D01*
X0162792Y0214071D01*
X0160292Y0211571D01*
X0155292Y0211571D02*
X0152792Y0214071D01*
X0152792Y0211571D02*
X0222792Y0211571D01*
X0222792Y0224071D01*
X0220292Y0221571D01*
X0222792Y0219071D01*
X0222792Y0214071D02*
X0220292Y0211571D01*
X0215292Y0211571D02*
X0212792Y0214071D01*
X0210292Y0211571D01*
X0212792Y0214071D02*
X0212792Y0219071D01*
X0210292Y0221571D01*
X0205292Y0221571D01*
X0202792Y0219071D01*
X0200292Y0221571D01*
X0195292Y0221571D01*
X0192792Y0219071D01*
X0190292Y0221571D01*
X0185292Y0221571D01*
X0182792Y0219071D01*
X0182792Y0214071D01*
X0185292Y0211571D01*
X0190292Y0211571D02*
X0192792Y0214071D01*
X0195292Y0211571D01*
X0200292Y0211571D02*
X0202792Y0214071D01*
X0205292Y0211571D01*
X0212792Y0219071D02*
X0215292Y0221571D01*
X0212792Y0224071D01*
X0212792Y0229071D01*
X0215292Y0231571D01*
X0212792Y0234071D01*
X0212792Y0239071D01*
X0215292Y0241571D01*
X0212792Y0244071D01*
X0212792Y0249071D01*
X0215292Y0251571D01*
X0212792Y0254071D01*
X0212792Y0259071D01*
X0215292Y0261571D01*
X0212792Y0264071D01*
X0212792Y0269071D01*
X0215292Y0271571D01*
X0212792Y0274071D01*
X0212792Y0279071D01*
X0210292Y0276571D01*
X0205292Y0276571D01*
X0202792Y0279071D01*
X0202792Y0284071D01*
X0205292Y0286571D01*
X0202792Y0289071D01*
X0202792Y0294071D01*
X0205292Y0296571D01*
X0210292Y0296571D01*
X0212792Y0294071D01*
X0212792Y0289071D01*
X0210292Y0286571D01*
X0212792Y0284071D01*
X0212792Y0279071D01*
X0215292Y0281571D01*
X0212792Y0284071D01*
X0212792Y0289071D01*
X0215292Y0291571D01*
X0212792Y0294071D01*
X0212792Y0299071D01*
X0215292Y0301571D01*
X0212792Y0304071D01*
X0212792Y0309071D01*
X0215292Y0311571D01*
X0212792Y0314071D01*
X0212792Y0319071D01*
X0215292Y0321571D01*
X0212792Y0324071D01*
X0212792Y0329071D01*
X0215292Y0331571D01*
X0220292Y0331571D01*
X0222792Y0329071D01*
X0222792Y0324071D02*
X0220292Y0321571D01*
X0222792Y0319071D01*
X0222792Y0314071D02*
X0220292Y0311571D01*
X0222792Y0309071D01*
X0222792Y0304071D02*
X0220292Y0301571D01*
X0222792Y0299071D01*
X0222792Y0304071D02*
X0222792Y0341571D01*
X0217792Y0341571D01*
X0217792Y0351571D01*
X0214792Y0351571D01*
X0214792Y0374571D01*
X0212792Y0376571D01*
X0210792Y0374571D01*
X0210792Y0351571D01*
X0157792Y0351571D01*
X0157792Y0341571D01*
X0152792Y0341571D01*
X0152792Y0324071D01*
X0155292Y0321571D01*
X0152792Y0319071D01*
X0152792Y0314071D01*
X0155292Y0311571D01*
X0152792Y0309071D01*
X0152792Y0304071D01*
X0155292Y0301571D01*
X0152792Y0299071D01*
X0152792Y0294071D01*
X0155292Y0291571D01*
X0152792Y0289071D01*
X0152792Y0284071D01*
X0155292Y0281571D01*
X0152792Y0279071D01*
X0152792Y0274071D01*
X0155292Y0271571D01*
X0152792Y0269071D01*
X0152792Y0264071D01*
X0155292Y0261571D01*
X0152792Y0259071D01*
X0152792Y0254071D01*
X0155292Y0251571D01*
X0152792Y0249071D01*
X0152792Y0244071D01*
X0155292Y0241571D01*
X0152792Y0239071D01*
X0152792Y0234071D01*
X0155292Y0231571D01*
X0152792Y0229071D01*
X0152792Y0224071D01*
X0155292Y0221571D01*
X0152792Y0219071D01*
X0152792Y0211571D01*
X0152792Y0219071D02*
X0152792Y0224071D01*
X0152792Y0229071D02*
X0152792Y0234071D01*
X0152792Y0239071D02*
X0152792Y0244071D01*
X0152792Y0249071D02*
X0152792Y0254071D01*
X0152792Y0259071D02*
X0152792Y0264071D01*
X0152792Y0269071D02*
X0152792Y0274071D01*
X0152792Y0279071D02*
X0152792Y0284071D01*
X0152792Y0289071D02*
X0152792Y0294071D01*
X0152792Y0299071D02*
X0152792Y0304071D01*
X0152792Y0309071D02*
X0152792Y0314071D01*
X0152792Y0319071D02*
X0152792Y0324071D01*
X0160792Y0334071D02*
X0160792Y0341571D01*
X0157792Y0341571D02*
X0210792Y0341571D01*
X0210792Y0334071D01*
X0214792Y0334071D01*
X0214792Y0341571D01*
X0210792Y0341571D01*
X0214792Y0341571D02*
X0217792Y0341571D01*
X0214792Y0351571D02*
X0210792Y0351571D01*
X0204792Y0351571D02*
X0204792Y0374571D01*
X0202792Y0376571D01*
X0200792Y0374571D01*
X0200792Y0351571D01*
X0194792Y0351571D02*
X0194792Y0374571D01*
X0192792Y0376571D01*
X0190792Y0374571D01*
X0190792Y0351571D01*
X0184792Y0351571D02*
X0184792Y0374571D01*
X0182792Y0376571D01*
X0180792Y0374571D01*
X0180792Y0351571D01*
X0174792Y0351571D02*
X0174792Y0374571D01*
X0172792Y0376571D01*
X0170792Y0374571D01*
X0170792Y0351571D01*
X0164792Y0351571D02*
X0164792Y0374571D01*
X0162792Y0376571D01*
X0160792Y0374571D01*
X0160792Y0351571D01*
X0164792Y0341571D02*
X0164792Y0334071D01*
X0160792Y0334071D01*
X0170792Y0334071D02*
X0170792Y0341571D01*
X0174792Y0341571D02*
X0174792Y0334071D01*
X0170792Y0334071D01*
X0180792Y0334071D02*
X0180792Y0341571D01*
X0184792Y0341571D02*
X0184792Y0334071D01*
X0180792Y0334071D01*
X0190792Y0334071D02*
X0190792Y0341571D01*
X0194792Y0341571D02*
X0194792Y0334071D01*
X0190792Y0334071D01*
X0200792Y0334071D02*
X0200792Y0341571D01*
X0204792Y0341571D02*
X0204792Y0334071D01*
X0200792Y0334071D01*
X0222792Y0304071D02*
X0222792Y0239071D01*
X0220292Y0241571D01*
X0222792Y0244071D01*
X0222792Y0249071D02*
X0220292Y0251571D01*
X0222792Y0254071D01*
X0222792Y0259071D02*
X0220292Y0261571D01*
X0222792Y0264071D01*
X0222792Y0269071D02*
X0220292Y0271571D01*
X0222792Y0274071D01*
X0222792Y0279071D02*
X0220292Y0281571D01*
X0222792Y0284071D01*
X0222792Y0289071D02*
X0220292Y0291571D01*
X0222792Y0294071D01*
X0236611Y0294366D02*
X0236611Y0295941D01*
X0261020Y0295941D01*
X0261020Y0294366D01*
X0261020Y0282555D02*
X0261020Y0280980D01*
X0236611Y0280980D01*
X0236611Y0282555D01*
X0236611Y0268382D02*
X0261020Y0268382D01*
X0261020Y0266807D01*
X0261020Y0254996D02*
X0261020Y0253421D01*
X0236611Y0253421D01*
X0236611Y0254996D01*
X0236611Y0266807D02*
X0236611Y0268382D01*
X0222792Y0239071D02*
X0222792Y0224071D01*
X0222792Y0229071D02*
X0220292Y0231571D01*
X0222792Y0234071D01*
X0225194Y0201846D02*
X0150390Y0201846D01*
X0150390Y0040429D01*
X0225194Y0040429D01*
X0225194Y0201846D01*
X0212365Y0198392D02*
X0209362Y0195389D01*
X0210113Y0196140D02*
X0212365Y0193888D01*
X0209362Y0193888D02*
X0209362Y0198392D01*
X0210863Y0188392D02*
X0212365Y0186890D01*
X0212365Y0183888D01*
X0212365Y0186140D02*
X0209362Y0186140D01*
X0209362Y0186890D02*
X0210863Y0188392D01*
X0209362Y0186890D02*
X0209362Y0183888D01*
X0209696Y0178392D02*
X0212698Y0178392D01*
X0212698Y0177641D01*
X0209696Y0174638D01*
X0209696Y0173888D01*
X0208094Y0174638D02*
X0208094Y0177641D01*
X0207344Y0178392D01*
X0205092Y0178392D01*
X0205092Y0173888D01*
X0207344Y0173888D01*
X0208094Y0174638D01*
X0207344Y0168392D02*
X0205092Y0168392D01*
X0205092Y0163888D01*
X0207344Y0163888D01*
X0208094Y0164638D01*
X0208094Y0167641D01*
X0207344Y0168392D01*
X0209696Y0166140D02*
X0211947Y0166140D01*
X0212698Y0165389D01*
X0212698Y0164638D01*
X0211947Y0163888D01*
X0210446Y0163888D01*
X0209696Y0164638D01*
X0209696Y0166140D01*
X0211197Y0167641D01*
X0212698Y0168392D01*
X0212698Y0158392D02*
X0209696Y0158392D01*
X0209696Y0156140D01*
X0211197Y0156890D01*
X0211947Y0156890D01*
X0212698Y0156140D01*
X0212698Y0154638D01*
X0211947Y0153888D01*
X0210446Y0153888D01*
X0209696Y0154638D01*
X0208094Y0154638D02*
X0208094Y0157641D01*
X0207344Y0158392D01*
X0205092Y0158392D01*
X0205092Y0153888D01*
X0207344Y0153888D01*
X0208094Y0154638D01*
X0207344Y0148392D02*
X0205092Y0148392D01*
X0205092Y0143888D01*
X0207344Y0143888D01*
X0208094Y0144638D01*
X0208094Y0147641D01*
X0207344Y0148392D01*
X0209696Y0146140D02*
X0212698Y0146140D01*
X0211947Y0143888D02*
X0211947Y0148392D01*
X0209696Y0146140D01*
X0210446Y0138392D02*
X0211947Y0138392D01*
X0212698Y0137641D01*
X0212698Y0136890D01*
X0211947Y0136140D01*
X0212698Y0135389D01*
X0212698Y0134638D01*
X0211947Y0133888D01*
X0210446Y0133888D01*
X0209696Y0134638D01*
X0208094Y0134638D02*
X0208094Y0137641D01*
X0207344Y0138392D01*
X0205092Y0138392D01*
X0205092Y0133888D01*
X0207344Y0133888D01*
X0208094Y0134638D01*
X0209696Y0137641D02*
X0210446Y0138392D01*
X0211197Y0136140D02*
X0211947Y0136140D01*
X0211947Y0128392D02*
X0210446Y0128392D01*
X0209696Y0127641D01*
X0208094Y0127641D02*
X0207344Y0128392D01*
X0205092Y0128392D01*
X0205092Y0123888D01*
X0207344Y0123888D01*
X0208094Y0124638D01*
X0208094Y0127641D01*
X0211947Y0128392D02*
X0212698Y0127641D01*
X0212698Y0126890D01*
X0209696Y0123888D01*
X0212698Y0123888D01*
X0211197Y0118392D02*
X0211197Y0113888D01*
X0209696Y0113888D02*
X0212698Y0113888D01*
X0209696Y0116890D02*
X0211197Y0118392D01*
X0208094Y0117641D02*
X0207344Y0118392D01*
X0205092Y0118392D01*
X0205092Y0113888D01*
X0207344Y0113888D01*
X0208094Y0114638D01*
X0208094Y0117641D01*
X0207344Y0108392D02*
X0205092Y0108392D01*
X0205092Y0103888D01*
X0207344Y0103888D01*
X0208094Y0104638D01*
X0208094Y0107641D01*
X0207344Y0108392D01*
X0209696Y0107641D02*
X0209696Y0104638D01*
X0212698Y0107641D01*
X0212698Y0104638D01*
X0211947Y0103888D01*
X0210446Y0103888D01*
X0209696Y0104638D01*
X0209696Y0107641D02*
X0210446Y0108392D01*
X0211947Y0108392D01*
X0212698Y0107641D01*
X0212698Y0098392D02*
X0212698Y0093888D01*
X0209696Y0098392D01*
X0209696Y0093888D01*
X0208094Y0093888D02*
X0205092Y0093888D01*
X0205092Y0098392D01*
X0208094Y0098392D01*
X0206593Y0096140D02*
X0205092Y0096140D01*
X0205092Y0088392D02*
X0207344Y0088392D01*
X0208094Y0087641D01*
X0208094Y0086140D01*
X0207344Y0085389D01*
X0205092Y0085389D01*
X0206593Y0085389D02*
X0208094Y0083888D01*
X0209696Y0083888D02*
X0211197Y0085389D01*
X0212698Y0083888D01*
X0212698Y0088392D01*
X0209696Y0088392D02*
X0209696Y0083888D01*
X0205092Y0083888D02*
X0205092Y0088392D01*
X0205092Y0078392D02*
X0207344Y0078392D01*
X0208094Y0077641D01*
X0208094Y0076140D01*
X0207344Y0075389D01*
X0205092Y0075389D01*
X0206593Y0075389D02*
X0208094Y0073888D01*
X0209696Y0074638D02*
X0210446Y0073888D01*
X0211947Y0073888D01*
X0212698Y0074638D01*
X0212698Y0075389D01*
X0211947Y0076140D01*
X0210446Y0076140D01*
X0209696Y0076890D01*
X0209696Y0077641D01*
X0210446Y0078392D01*
X0211947Y0078392D01*
X0212698Y0077641D01*
X0205092Y0078392D02*
X0205092Y0073888D01*
X0205092Y0068392D02*
X0205092Y0065389D01*
X0206593Y0063888D01*
X0208094Y0065389D01*
X0208094Y0068392D01*
X0209696Y0067641D02*
X0210446Y0068392D01*
X0211947Y0068392D01*
X0212698Y0067641D01*
X0209696Y0064638D01*
X0210446Y0063888D01*
X0211947Y0063888D01*
X0212698Y0064638D01*
X0212698Y0067641D01*
X0209696Y0067641D02*
X0209696Y0064638D01*
X0208752Y0058141D02*
X0208752Y0055472D01*
X0207418Y0054138D01*
X0206083Y0055472D01*
X0206083Y0058141D01*
X0210227Y0056140D02*
X0212896Y0056140D01*
X0211562Y0057474D02*
X0211562Y0054805D01*
X0208752Y0048141D02*
X0208752Y0045472D01*
X0207418Y0044138D01*
X0206083Y0045472D01*
X0206083Y0048141D01*
X0210227Y0046140D02*
X0212896Y0046140D01*
X0201322Y0053772D02*
X0201322Y0055274D01*
X0200571Y0056024D01*
X0199070Y0056024D01*
X0199070Y0054523D01*
X0200571Y0053022D02*
X0201322Y0053772D01*
X0200571Y0053022D02*
X0197568Y0053022D01*
X0196818Y0053772D01*
X0196818Y0055274D01*
X0197568Y0056024D01*
X0196818Y0057626D02*
X0201322Y0060628D01*
X0196818Y0060628D01*
X0196818Y0062230D02*
X0196818Y0064481D01*
X0197568Y0065232D01*
X0200571Y0065232D01*
X0201322Y0064481D01*
X0201322Y0062230D01*
X0196818Y0062230D01*
X0196818Y0057626D02*
X0201322Y0057626D01*
X0191479Y0058376D02*
X0191479Y0059877D01*
X0190728Y0060628D01*
X0190728Y0062230D02*
X0191479Y0062980D01*
X0191479Y0064481D01*
X0190728Y0065232D01*
X0187726Y0065232D02*
X0186975Y0064481D01*
X0186975Y0062980D01*
X0187726Y0062230D01*
X0190728Y0062230D01*
X0187726Y0060628D02*
X0186975Y0059877D01*
X0186975Y0058376D01*
X0187726Y0057626D01*
X0190728Y0057626D01*
X0191479Y0058376D01*
X0189978Y0056024D02*
X0186975Y0056024D01*
X0186975Y0053022D02*
X0189978Y0053022D01*
X0191479Y0054523D01*
X0189978Y0056024D01*
X0181636Y0055274D02*
X0181636Y0053772D01*
X0180886Y0053022D01*
X0179385Y0053772D02*
X0179385Y0055274D01*
X0180135Y0056024D01*
X0180886Y0056024D01*
X0181636Y0055274D01*
X0181636Y0057626D02*
X0181636Y0059877D01*
X0180886Y0060628D01*
X0177883Y0060628D01*
X0177133Y0059877D01*
X0177133Y0057626D01*
X0181636Y0057626D01*
X0177883Y0056024D02*
X0177133Y0055274D01*
X0177133Y0053772D01*
X0177883Y0053022D01*
X0178634Y0053022D01*
X0179385Y0053772D01*
X0171794Y0053772D02*
X0171043Y0053022D01*
X0171794Y0053772D02*
X0171794Y0055274D01*
X0171043Y0056024D01*
X0170293Y0056024D01*
X0169542Y0055274D01*
X0169542Y0053772D01*
X0168791Y0053022D01*
X0168041Y0053022D01*
X0167290Y0053772D01*
X0167290Y0055274D01*
X0168041Y0056024D01*
X0168041Y0057626D02*
X0171043Y0057626D01*
X0171794Y0058376D01*
X0171794Y0059877D01*
X0171043Y0060628D01*
X0171794Y0062230D02*
X0171794Y0065232D01*
X0171794Y0062230D02*
X0167290Y0062230D01*
X0168041Y0060628D02*
X0167290Y0059877D01*
X0167290Y0058376D01*
X0168041Y0057626D01*
X0177133Y0063731D02*
X0178634Y0065232D01*
X0181636Y0065232D01*
X0179385Y0065232D02*
X0179385Y0062230D01*
X0178634Y0062230D02*
X0177133Y0063731D01*
X0178634Y0062230D02*
X0181636Y0062230D01*
X0139259Y0038590D02*
X0136990Y0038590D01*
X0138125Y0038590D02*
X0138125Y0041993D01*
X0136990Y0040859D01*
X0119259Y0040859D02*
X0119259Y0041426D01*
X0118692Y0041993D01*
X0117557Y0041993D01*
X0116990Y0041426D01*
X0119259Y0040859D02*
X0116990Y0038590D01*
X0119259Y0038590D01*
X0121081Y0084459D02*
X0120330Y0085209D01*
X0120330Y0088212D01*
X0121081Y0088962D01*
X0122582Y0088962D01*
X0123333Y0088212D01*
X0124934Y0088212D02*
X0125685Y0088962D01*
X0127186Y0088962D01*
X0127937Y0088212D01*
X0127937Y0087461D01*
X0127186Y0086711D01*
X0127937Y0085960D01*
X0127937Y0085209D01*
X0127186Y0084459D01*
X0125685Y0084459D01*
X0124934Y0085209D01*
X0123333Y0085209D02*
X0122582Y0084459D01*
X0121081Y0084459D01*
X0126435Y0086711D02*
X0127186Y0086711D01*
X0126619Y0146128D02*
X0128121Y0146128D01*
X0128871Y0146879D01*
X0128871Y0147629D01*
X0128121Y0148380D01*
X0125869Y0148380D01*
X0125869Y0146879D01*
X0126619Y0146128D01*
X0125869Y0148380D02*
X0127370Y0149881D01*
X0128871Y0150632D01*
X0124267Y0149881D02*
X0123517Y0150632D01*
X0122015Y0150632D01*
X0121265Y0149881D01*
X0121265Y0146879D01*
X0122015Y0146128D01*
X0123517Y0146128D01*
X0124267Y0146879D01*
X0119697Y0146128D02*
X0118196Y0146128D01*
X0118946Y0146128D02*
X0118946Y0150632D01*
X0118196Y0150632D02*
X0119697Y0150632D01*
X0119697Y0198490D02*
X0118196Y0198490D01*
X0118946Y0198490D02*
X0118946Y0202994D01*
X0118196Y0202994D02*
X0119697Y0202994D01*
X0121265Y0202243D02*
X0121265Y0199241D01*
X0122015Y0198490D01*
X0123517Y0198490D01*
X0124267Y0199241D01*
X0125869Y0199241D02*
X0126619Y0198490D01*
X0128121Y0198490D01*
X0128871Y0199241D01*
X0128871Y0200742D01*
X0128121Y0201493D01*
X0127370Y0201493D01*
X0125869Y0200742D01*
X0125869Y0202994D01*
X0128871Y0202994D01*
X0124267Y0202243D02*
X0123517Y0202994D01*
X0122015Y0202994D01*
X0121265Y0202243D01*
X0117491Y0266207D02*
X0115989Y0266207D01*
X0115239Y0266957D01*
X0113637Y0266957D02*
X0112887Y0266207D01*
X0111386Y0266207D01*
X0110635Y0266957D01*
X0110635Y0269960D01*
X0111386Y0270711D01*
X0112887Y0270711D01*
X0113637Y0269960D01*
X0115239Y0269960D02*
X0115989Y0270711D01*
X0117491Y0270711D01*
X0118241Y0269960D01*
X0118241Y0269209D01*
X0117491Y0268459D01*
X0118241Y0267708D01*
X0118241Y0266957D01*
X0117491Y0266207D01*
X0117491Y0268459D02*
X0116740Y0268459D01*
X0109067Y0270711D02*
X0107566Y0270711D01*
X0108316Y0270711D02*
X0108316Y0266207D01*
X0107566Y0266207D02*
X0109067Y0266207D01*
X0088208Y0281270D02*
X0085205Y0281270D01*
X0088208Y0284272D01*
X0088208Y0285023D01*
X0087457Y0285774D01*
X0085956Y0285774D01*
X0085205Y0285023D01*
X0083604Y0285023D02*
X0082853Y0285774D01*
X0081352Y0285774D01*
X0080601Y0285023D01*
X0080601Y0282020D01*
X0081352Y0281270D01*
X0082853Y0281270D01*
X0083604Y0282020D01*
X0061192Y0271104D02*
X0061192Y0266600D01*
X0061942Y0268852D02*
X0058940Y0268852D01*
X0061192Y0271104D01*
X0057338Y0270354D02*
X0056588Y0271104D01*
X0055086Y0271104D01*
X0054336Y0270354D01*
X0054336Y0267351D01*
X0055086Y0266600D01*
X0056588Y0266600D01*
X0057338Y0267351D01*
X0052768Y0266600D02*
X0051266Y0266600D01*
X0052017Y0266600D02*
X0052017Y0271104D01*
X0051266Y0271104D02*
X0052768Y0271104D01*
X0054416Y0328411D02*
X0055917Y0328411D01*
X0055167Y0328411D02*
X0055167Y0332915D01*
X0055917Y0332915D02*
X0054416Y0332915D01*
X0057485Y0332165D02*
X0057485Y0329162D01*
X0058236Y0328411D01*
X0059737Y0328411D01*
X0060488Y0329162D01*
X0062089Y0328411D02*
X0065092Y0331414D01*
X0065092Y0332165D01*
X0064341Y0332915D01*
X0062840Y0332915D01*
X0062089Y0332165D01*
X0060488Y0332165D02*
X0059737Y0332915D01*
X0058236Y0332915D01*
X0057485Y0332165D01*
X0062089Y0328411D02*
X0065092Y0328411D01*
X0236611Y0323500D02*
X0261020Y0323500D01*
X0261020Y0321925D01*
X0261020Y0310114D02*
X0261020Y0308539D01*
X0236611Y0308539D01*
X0236611Y0310114D01*
X0236611Y0321925D02*
X0236611Y0323500D01*
X0326428Y0333644D02*
X0326428Y0335145D01*
X0326428Y0334395D02*
X0330181Y0334395D01*
X0330932Y0333644D01*
X0330932Y0332894D01*
X0330181Y0332143D01*
X0329430Y0336747D02*
X0329430Y0338999D01*
X0328680Y0339749D01*
X0327179Y0339749D01*
X0326428Y0338999D01*
X0326428Y0336747D01*
X0330932Y0336747D01*
X0330932Y0341351D02*
X0327929Y0344353D01*
X0327179Y0344353D01*
X0326428Y0343603D01*
X0326428Y0342101D01*
X0327179Y0341351D01*
X0330932Y0341351D02*
X0330932Y0344353D01*
X0334869Y0045141D02*
X0334869Y0042138D01*
X0334869Y0043639D02*
X0330365Y0043639D01*
X0331866Y0042138D01*
X0331116Y0040537D02*
X0332617Y0040537D01*
X0333367Y0039786D01*
X0333367Y0037534D01*
X0334869Y0037534D02*
X0330365Y0037534D01*
X0330365Y0039786D01*
X0331116Y0040537D01*
X0330365Y0035933D02*
X0330365Y0034432D01*
X0330365Y0035182D02*
X0334118Y0035182D01*
X0334869Y0034432D01*
X0334869Y0033681D01*
X0334118Y0032930D01*
D12*
X0327713Y0036429D02*
X0327713Y0044429D01*
X0326713Y0045429D01*
X0318713Y0045429D01*
X0317713Y0044429D01*
X0316713Y0045429D01*
X0308713Y0045429D01*
X0307713Y0044429D01*
X0307713Y0036429D01*
X0308713Y0035429D01*
X0316713Y0035429D01*
X0317713Y0036429D01*
X0318713Y0035429D01*
X0326713Y0035429D01*
X0327713Y0036429D01*
X0161694Y0042227D02*
X0156690Y0042227D01*
X0158358Y0043895D01*
X0156690Y0045564D01*
X0161694Y0045564D01*
X0160860Y0047384D02*
X0161694Y0048218D01*
X0161694Y0049886D01*
X0160860Y0050720D01*
X0157524Y0050720D01*
X0156690Y0049886D01*
X0156690Y0048218D01*
X0157524Y0047384D01*
X0160860Y0047384D01*
X0161694Y0052540D02*
X0156690Y0052540D01*
X0156690Y0055042D01*
X0157524Y0055876D01*
X0160860Y0055876D01*
X0161694Y0055042D01*
X0161694Y0052540D01*
X0159192Y0057697D02*
X0159192Y0061033D01*
X0156690Y0060199D02*
X0159192Y0057697D01*
X0161694Y0060199D02*
X0156690Y0060199D01*
X0142831Y0060740D02*
X0142831Y0043740D01*
X0102831Y0043740D01*
X0102831Y0060740D01*
X0102831Y0066240D01*
X0142831Y0066240D01*
X0142831Y0060740D01*
X0102831Y0060740D01*
X0102831Y0043740D02*
X0102831Y0036740D01*
X0142831Y0036740D01*
X0142831Y0040240D01*
X0142831Y0043740D01*
X0144831Y0044240D01*
X0144831Y0039740D01*
X0142831Y0040240D01*
X0130731Y0040240D02*
X0130733Y0040329D01*
X0130739Y0040418D01*
X0130749Y0040507D01*
X0130763Y0040595D01*
X0130780Y0040682D01*
X0130802Y0040768D01*
X0130828Y0040854D01*
X0130857Y0040938D01*
X0130890Y0041021D01*
X0130926Y0041102D01*
X0130967Y0041182D01*
X0131010Y0041259D01*
X0131057Y0041335D01*
X0131108Y0041408D01*
X0131161Y0041479D01*
X0131218Y0041548D01*
X0131278Y0041614D01*
X0131341Y0041678D01*
X0131406Y0041738D01*
X0131474Y0041796D01*
X0131545Y0041850D01*
X0131618Y0041901D01*
X0131693Y0041949D01*
X0131770Y0041994D01*
X0131849Y0042035D01*
X0131930Y0042072D01*
X0132012Y0042106D01*
X0132096Y0042137D01*
X0132181Y0042163D01*
X0132267Y0042186D01*
X0132354Y0042204D01*
X0132442Y0042219D01*
X0132531Y0042230D01*
X0132620Y0042237D01*
X0132709Y0042240D01*
X0132798Y0042239D01*
X0132887Y0042234D01*
X0132975Y0042225D01*
X0133064Y0042212D01*
X0133151Y0042195D01*
X0133238Y0042175D01*
X0133324Y0042150D01*
X0133408Y0042122D01*
X0133491Y0042090D01*
X0133573Y0042054D01*
X0133653Y0042015D01*
X0133731Y0041972D01*
X0133807Y0041926D01*
X0133881Y0041876D01*
X0133953Y0041823D01*
X0134022Y0041767D01*
X0134089Y0041708D01*
X0134153Y0041646D01*
X0134214Y0041582D01*
X0134273Y0041514D01*
X0134328Y0041444D01*
X0134380Y0041372D01*
X0134429Y0041297D01*
X0134474Y0041221D01*
X0134516Y0041142D01*
X0134554Y0041062D01*
X0134589Y0040980D01*
X0134620Y0040896D01*
X0134648Y0040811D01*
X0134671Y0040725D01*
X0134691Y0040638D01*
X0134707Y0040551D01*
X0134719Y0040462D01*
X0134727Y0040374D01*
X0134731Y0040285D01*
X0134731Y0040195D01*
X0134727Y0040106D01*
X0134719Y0040018D01*
X0134707Y0039929D01*
X0134691Y0039842D01*
X0134671Y0039755D01*
X0134648Y0039669D01*
X0134620Y0039584D01*
X0134589Y0039500D01*
X0134554Y0039418D01*
X0134516Y0039338D01*
X0134474Y0039259D01*
X0134429Y0039183D01*
X0134380Y0039108D01*
X0134328Y0039036D01*
X0134273Y0038966D01*
X0134214Y0038898D01*
X0134153Y0038834D01*
X0134089Y0038772D01*
X0134022Y0038713D01*
X0133953Y0038657D01*
X0133881Y0038604D01*
X0133807Y0038554D01*
X0133731Y0038508D01*
X0133653Y0038465D01*
X0133573Y0038426D01*
X0133491Y0038390D01*
X0133408Y0038358D01*
X0133324Y0038330D01*
X0133238Y0038305D01*
X0133151Y0038285D01*
X0133064Y0038268D01*
X0132975Y0038255D01*
X0132887Y0038246D01*
X0132798Y0038241D01*
X0132709Y0038240D01*
X0132620Y0038243D01*
X0132531Y0038250D01*
X0132442Y0038261D01*
X0132354Y0038276D01*
X0132267Y0038294D01*
X0132181Y0038317D01*
X0132096Y0038343D01*
X0132012Y0038374D01*
X0131930Y0038408D01*
X0131849Y0038445D01*
X0131770Y0038486D01*
X0131693Y0038531D01*
X0131618Y0038579D01*
X0131545Y0038630D01*
X0131474Y0038684D01*
X0131406Y0038742D01*
X0131341Y0038802D01*
X0131278Y0038866D01*
X0131218Y0038932D01*
X0131161Y0039001D01*
X0131108Y0039072D01*
X0131057Y0039145D01*
X0131010Y0039221D01*
X0130967Y0039298D01*
X0130926Y0039378D01*
X0130890Y0039459D01*
X0130857Y0039542D01*
X0130828Y0039626D01*
X0130802Y0039712D01*
X0130780Y0039798D01*
X0130763Y0039885D01*
X0130749Y0039973D01*
X0130739Y0040062D01*
X0130733Y0040151D01*
X0130731Y0040240D01*
X0110931Y0040240D02*
X0110933Y0040329D01*
X0110939Y0040418D01*
X0110949Y0040507D01*
X0110963Y0040595D01*
X0110980Y0040682D01*
X0111002Y0040768D01*
X0111028Y0040854D01*
X0111057Y0040938D01*
X0111090Y0041021D01*
X0111126Y0041102D01*
X0111167Y0041182D01*
X0111210Y0041259D01*
X0111257Y0041335D01*
X0111308Y0041408D01*
X0111361Y0041479D01*
X0111418Y0041548D01*
X0111478Y0041614D01*
X0111541Y0041678D01*
X0111606Y0041738D01*
X0111674Y0041796D01*
X0111745Y0041850D01*
X0111818Y0041901D01*
X0111893Y0041949D01*
X0111970Y0041994D01*
X0112049Y0042035D01*
X0112130Y0042072D01*
X0112212Y0042106D01*
X0112296Y0042137D01*
X0112381Y0042163D01*
X0112467Y0042186D01*
X0112554Y0042204D01*
X0112642Y0042219D01*
X0112731Y0042230D01*
X0112820Y0042237D01*
X0112909Y0042240D01*
X0112998Y0042239D01*
X0113087Y0042234D01*
X0113175Y0042225D01*
X0113264Y0042212D01*
X0113351Y0042195D01*
X0113438Y0042175D01*
X0113524Y0042150D01*
X0113608Y0042122D01*
X0113691Y0042090D01*
X0113773Y0042054D01*
X0113853Y0042015D01*
X0113931Y0041972D01*
X0114007Y0041926D01*
X0114081Y0041876D01*
X0114153Y0041823D01*
X0114222Y0041767D01*
X0114289Y0041708D01*
X0114353Y0041646D01*
X0114414Y0041582D01*
X0114473Y0041514D01*
X0114528Y0041444D01*
X0114580Y0041372D01*
X0114629Y0041297D01*
X0114674Y0041221D01*
X0114716Y0041142D01*
X0114754Y0041062D01*
X0114789Y0040980D01*
X0114820Y0040896D01*
X0114848Y0040811D01*
X0114871Y0040725D01*
X0114891Y0040638D01*
X0114907Y0040551D01*
X0114919Y0040462D01*
X0114927Y0040374D01*
X0114931Y0040285D01*
X0114931Y0040195D01*
X0114927Y0040106D01*
X0114919Y0040018D01*
X0114907Y0039929D01*
X0114891Y0039842D01*
X0114871Y0039755D01*
X0114848Y0039669D01*
X0114820Y0039584D01*
X0114789Y0039500D01*
X0114754Y0039418D01*
X0114716Y0039338D01*
X0114674Y0039259D01*
X0114629Y0039183D01*
X0114580Y0039108D01*
X0114528Y0039036D01*
X0114473Y0038966D01*
X0114414Y0038898D01*
X0114353Y0038834D01*
X0114289Y0038772D01*
X0114222Y0038713D01*
X0114153Y0038657D01*
X0114081Y0038604D01*
X0114007Y0038554D01*
X0113931Y0038508D01*
X0113853Y0038465D01*
X0113773Y0038426D01*
X0113691Y0038390D01*
X0113608Y0038358D01*
X0113524Y0038330D01*
X0113438Y0038305D01*
X0113351Y0038285D01*
X0113264Y0038268D01*
X0113175Y0038255D01*
X0113087Y0038246D01*
X0112998Y0038241D01*
X0112909Y0038240D01*
X0112820Y0038243D01*
X0112731Y0038250D01*
X0112642Y0038261D01*
X0112554Y0038276D01*
X0112467Y0038294D01*
X0112381Y0038317D01*
X0112296Y0038343D01*
X0112212Y0038374D01*
X0112130Y0038408D01*
X0112049Y0038445D01*
X0111970Y0038486D01*
X0111893Y0038531D01*
X0111818Y0038579D01*
X0111745Y0038630D01*
X0111674Y0038684D01*
X0111606Y0038742D01*
X0111541Y0038802D01*
X0111478Y0038866D01*
X0111418Y0038932D01*
X0111361Y0039001D01*
X0111308Y0039072D01*
X0111257Y0039145D01*
X0111210Y0039221D01*
X0111167Y0039298D01*
X0111126Y0039378D01*
X0111090Y0039459D01*
X0111057Y0039542D01*
X0111028Y0039626D01*
X0111002Y0039712D01*
X0110980Y0039798D01*
X0110963Y0039885D01*
X0110949Y0039973D01*
X0110939Y0040062D01*
X0110933Y0040151D01*
X0110931Y0040240D01*
X0115788Y0089209D02*
X0132788Y0089209D01*
X0132848Y0089211D01*
X0132909Y0089216D01*
X0132968Y0089225D01*
X0133027Y0089238D01*
X0133086Y0089254D01*
X0133143Y0089274D01*
X0133198Y0089297D01*
X0133253Y0089324D01*
X0133305Y0089353D01*
X0133356Y0089386D01*
X0133405Y0089422D01*
X0133451Y0089460D01*
X0133495Y0089502D01*
X0133537Y0089546D01*
X0133575Y0089592D01*
X0133611Y0089641D01*
X0133644Y0089692D01*
X0133673Y0089744D01*
X0133700Y0089799D01*
X0133723Y0089854D01*
X0133743Y0089911D01*
X0133759Y0089970D01*
X0133772Y0090029D01*
X0133781Y0090088D01*
X0133786Y0090149D01*
X0133788Y0090209D01*
X0133788Y0098209D01*
X0133786Y0098269D01*
X0133781Y0098330D01*
X0133772Y0098389D01*
X0133759Y0098448D01*
X0133743Y0098507D01*
X0133723Y0098564D01*
X0133700Y0098619D01*
X0133673Y0098674D01*
X0133644Y0098726D01*
X0133611Y0098777D01*
X0133575Y0098826D01*
X0133537Y0098872D01*
X0133495Y0098916D01*
X0133451Y0098958D01*
X0133405Y0098996D01*
X0133356Y0099032D01*
X0133305Y0099065D01*
X0133253Y0099094D01*
X0133198Y0099121D01*
X0133143Y0099144D01*
X0133086Y0099164D01*
X0133027Y0099180D01*
X0132968Y0099193D01*
X0132909Y0099202D01*
X0132848Y0099207D01*
X0132788Y0099209D01*
X0115788Y0099209D01*
X0115728Y0099207D01*
X0115667Y0099202D01*
X0115608Y0099193D01*
X0115549Y0099180D01*
X0115490Y0099164D01*
X0115433Y0099144D01*
X0115378Y0099121D01*
X0115323Y0099094D01*
X0115271Y0099065D01*
X0115220Y0099032D01*
X0115171Y0098996D01*
X0115125Y0098958D01*
X0115081Y0098916D01*
X0115039Y0098872D01*
X0115001Y0098826D01*
X0114965Y0098777D01*
X0114932Y0098726D01*
X0114903Y0098674D01*
X0114876Y0098619D01*
X0114853Y0098564D01*
X0114833Y0098507D01*
X0114817Y0098448D01*
X0114804Y0098389D01*
X0114795Y0098330D01*
X0114790Y0098269D01*
X0114788Y0098209D01*
X0114788Y0090209D01*
X0114790Y0090149D01*
X0114795Y0090088D01*
X0114804Y0090029D01*
X0114817Y0089970D01*
X0114833Y0089911D01*
X0114853Y0089854D01*
X0114876Y0089799D01*
X0114903Y0089744D01*
X0114932Y0089692D01*
X0114965Y0089641D01*
X0115001Y0089592D01*
X0115039Y0089546D01*
X0115081Y0089502D01*
X0115125Y0089460D01*
X0115171Y0089422D01*
X0115220Y0089386D01*
X0115271Y0089353D01*
X0115323Y0089324D01*
X0115378Y0089297D01*
X0115433Y0089274D01*
X0115490Y0089254D01*
X0115549Y0089238D01*
X0115608Y0089225D01*
X0115667Y0089216D01*
X0115728Y0089211D01*
X0115788Y0089209D01*
X0122788Y0094209D02*
X0123288Y0094209D01*
X0125288Y0094209D02*
X0125788Y0094209D01*
X0135040Y0104878D02*
X0112040Y0104878D01*
X0112040Y0144878D01*
X0119540Y0144878D01*
X0119542Y0144752D01*
X0119548Y0144627D01*
X0119558Y0144502D01*
X0119572Y0144377D01*
X0119589Y0144252D01*
X0119611Y0144128D01*
X0119636Y0144005D01*
X0119666Y0143883D01*
X0119699Y0143762D01*
X0119736Y0143642D01*
X0119776Y0143523D01*
X0119821Y0143406D01*
X0119869Y0143289D01*
X0119921Y0143175D01*
X0119976Y0143062D01*
X0120035Y0142951D01*
X0120097Y0142842D01*
X0120163Y0142735D01*
X0120232Y0142630D01*
X0120304Y0142527D01*
X0120379Y0142426D01*
X0120458Y0142328D01*
X0120540Y0142233D01*
X0120624Y0142140D01*
X0120712Y0142050D01*
X0120802Y0141962D01*
X0120895Y0141878D01*
X0120990Y0141796D01*
X0121088Y0141717D01*
X0121189Y0141642D01*
X0121292Y0141570D01*
X0121397Y0141501D01*
X0121504Y0141435D01*
X0121613Y0141373D01*
X0121724Y0141314D01*
X0121837Y0141259D01*
X0121951Y0141207D01*
X0122068Y0141159D01*
X0122185Y0141114D01*
X0122304Y0141074D01*
X0122424Y0141037D01*
X0122545Y0141004D01*
X0122667Y0140974D01*
X0122790Y0140949D01*
X0122914Y0140927D01*
X0123039Y0140910D01*
X0123164Y0140896D01*
X0123289Y0140886D01*
X0123414Y0140880D01*
X0123540Y0140878D01*
X0123666Y0140880D01*
X0123791Y0140886D01*
X0123916Y0140896D01*
X0124041Y0140910D01*
X0124166Y0140927D01*
X0124290Y0140949D01*
X0124413Y0140974D01*
X0124535Y0141004D01*
X0124656Y0141037D01*
X0124776Y0141074D01*
X0124895Y0141114D01*
X0125012Y0141159D01*
X0125129Y0141207D01*
X0125243Y0141259D01*
X0125356Y0141314D01*
X0125467Y0141373D01*
X0125576Y0141435D01*
X0125683Y0141501D01*
X0125788Y0141570D01*
X0125891Y0141642D01*
X0125992Y0141717D01*
X0126090Y0141796D01*
X0126185Y0141878D01*
X0126278Y0141962D01*
X0126368Y0142050D01*
X0126456Y0142140D01*
X0126540Y0142233D01*
X0126622Y0142328D01*
X0126701Y0142426D01*
X0126776Y0142527D01*
X0126848Y0142630D01*
X0126917Y0142735D01*
X0126983Y0142842D01*
X0127045Y0142951D01*
X0127104Y0143062D01*
X0127159Y0143175D01*
X0127211Y0143289D01*
X0127259Y0143406D01*
X0127304Y0143523D01*
X0127344Y0143642D01*
X0127381Y0143762D01*
X0127414Y0143883D01*
X0127444Y0144005D01*
X0127469Y0144128D01*
X0127491Y0144252D01*
X0127508Y0144377D01*
X0127522Y0144502D01*
X0127532Y0144627D01*
X0127538Y0144752D01*
X0127540Y0144878D01*
X0135040Y0144878D01*
X0135040Y0104878D01*
X0135040Y0157240D02*
X0112040Y0157240D01*
X0112040Y0197240D01*
X0119540Y0197240D01*
X0119542Y0197114D01*
X0119548Y0196989D01*
X0119558Y0196864D01*
X0119572Y0196739D01*
X0119589Y0196614D01*
X0119611Y0196490D01*
X0119636Y0196367D01*
X0119666Y0196245D01*
X0119699Y0196124D01*
X0119736Y0196004D01*
X0119776Y0195885D01*
X0119821Y0195768D01*
X0119869Y0195651D01*
X0119921Y0195537D01*
X0119976Y0195424D01*
X0120035Y0195313D01*
X0120097Y0195204D01*
X0120163Y0195097D01*
X0120232Y0194992D01*
X0120304Y0194889D01*
X0120379Y0194788D01*
X0120458Y0194690D01*
X0120540Y0194595D01*
X0120624Y0194502D01*
X0120712Y0194412D01*
X0120802Y0194324D01*
X0120895Y0194240D01*
X0120990Y0194158D01*
X0121088Y0194079D01*
X0121189Y0194004D01*
X0121292Y0193932D01*
X0121397Y0193863D01*
X0121504Y0193797D01*
X0121613Y0193735D01*
X0121724Y0193676D01*
X0121837Y0193621D01*
X0121951Y0193569D01*
X0122068Y0193521D01*
X0122185Y0193476D01*
X0122304Y0193436D01*
X0122424Y0193399D01*
X0122545Y0193366D01*
X0122667Y0193336D01*
X0122790Y0193311D01*
X0122914Y0193289D01*
X0123039Y0193272D01*
X0123164Y0193258D01*
X0123289Y0193248D01*
X0123414Y0193242D01*
X0123540Y0193240D01*
X0123666Y0193242D01*
X0123791Y0193248D01*
X0123916Y0193258D01*
X0124041Y0193272D01*
X0124166Y0193289D01*
X0124290Y0193311D01*
X0124413Y0193336D01*
X0124535Y0193366D01*
X0124656Y0193399D01*
X0124776Y0193436D01*
X0124895Y0193476D01*
X0125012Y0193521D01*
X0125129Y0193569D01*
X0125243Y0193621D01*
X0125356Y0193676D01*
X0125467Y0193735D01*
X0125576Y0193797D01*
X0125683Y0193863D01*
X0125788Y0193932D01*
X0125891Y0194004D01*
X0125992Y0194079D01*
X0126090Y0194158D01*
X0126185Y0194240D01*
X0126278Y0194324D01*
X0126368Y0194412D01*
X0126456Y0194502D01*
X0126540Y0194595D01*
X0126622Y0194690D01*
X0126701Y0194788D01*
X0126776Y0194889D01*
X0126848Y0194992D01*
X0126917Y0195097D01*
X0126983Y0195204D01*
X0127045Y0195313D01*
X0127104Y0195424D01*
X0127159Y0195537D01*
X0127211Y0195651D01*
X0127259Y0195768D01*
X0127304Y0195885D01*
X0127344Y0196004D01*
X0127381Y0196124D01*
X0127414Y0196245D01*
X0127444Y0196367D01*
X0127469Y0196490D01*
X0127491Y0196614D01*
X0127508Y0196739D01*
X0127522Y0196864D01*
X0127532Y0196989D01*
X0127538Y0197114D01*
X0127540Y0197240D01*
X0135040Y0197240D01*
X0135040Y0157240D01*
X0074539Y0158051D02*
X0074539Y0161387D01*
X0074539Y0159719D02*
X0069535Y0159719D01*
X0071203Y0158051D01*
X0069535Y0156231D02*
X0074539Y0152894D01*
X0074539Y0156231D02*
X0069535Y0152894D01*
X0070079Y0225350D02*
X0047079Y0225350D01*
X0047079Y0265350D01*
X0054579Y0265350D01*
X0054581Y0265224D01*
X0054587Y0265099D01*
X0054597Y0264974D01*
X0054611Y0264849D01*
X0054628Y0264724D01*
X0054650Y0264600D01*
X0054675Y0264477D01*
X0054705Y0264355D01*
X0054738Y0264234D01*
X0054775Y0264114D01*
X0054815Y0263995D01*
X0054860Y0263878D01*
X0054908Y0263761D01*
X0054960Y0263647D01*
X0055015Y0263534D01*
X0055074Y0263423D01*
X0055136Y0263314D01*
X0055202Y0263207D01*
X0055271Y0263102D01*
X0055343Y0262999D01*
X0055418Y0262898D01*
X0055497Y0262800D01*
X0055579Y0262705D01*
X0055663Y0262612D01*
X0055751Y0262522D01*
X0055841Y0262434D01*
X0055934Y0262350D01*
X0056029Y0262268D01*
X0056127Y0262189D01*
X0056228Y0262114D01*
X0056331Y0262042D01*
X0056436Y0261973D01*
X0056543Y0261907D01*
X0056652Y0261845D01*
X0056763Y0261786D01*
X0056876Y0261731D01*
X0056990Y0261679D01*
X0057107Y0261631D01*
X0057224Y0261586D01*
X0057343Y0261546D01*
X0057463Y0261509D01*
X0057584Y0261476D01*
X0057706Y0261446D01*
X0057829Y0261421D01*
X0057953Y0261399D01*
X0058078Y0261382D01*
X0058203Y0261368D01*
X0058328Y0261358D01*
X0058453Y0261352D01*
X0058579Y0261350D01*
X0058705Y0261352D01*
X0058830Y0261358D01*
X0058955Y0261368D01*
X0059080Y0261382D01*
X0059205Y0261399D01*
X0059329Y0261421D01*
X0059452Y0261446D01*
X0059574Y0261476D01*
X0059695Y0261509D01*
X0059815Y0261546D01*
X0059934Y0261586D01*
X0060051Y0261631D01*
X0060168Y0261679D01*
X0060282Y0261731D01*
X0060395Y0261786D01*
X0060506Y0261845D01*
X0060615Y0261907D01*
X0060722Y0261973D01*
X0060827Y0262042D01*
X0060930Y0262114D01*
X0061031Y0262189D01*
X0061129Y0262268D01*
X0061224Y0262350D01*
X0061317Y0262434D01*
X0061407Y0262522D01*
X0061495Y0262612D01*
X0061579Y0262705D01*
X0061661Y0262800D01*
X0061740Y0262898D01*
X0061815Y0262999D01*
X0061887Y0263102D01*
X0061956Y0263207D01*
X0062022Y0263314D01*
X0062084Y0263423D01*
X0062143Y0263534D01*
X0062198Y0263647D01*
X0062250Y0263761D01*
X0062298Y0263878D01*
X0062343Y0263995D01*
X0062383Y0264114D01*
X0062420Y0264234D01*
X0062453Y0264355D01*
X0062483Y0264477D01*
X0062508Y0264600D01*
X0062530Y0264724D01*
X0062547Y0264849D01*
X0062561Y0264974D01*
X0062571Y0265099D01*
X0062577Y0265224D01*
X0062579Y0265350D01*
X0070079Y0265350D01*
X0070079Y0225350D01*
X0101410Y0224957D02*
X0124410Y0224957D01*
X0124410Y0264957D01*
X0116910Y0264957D01*
X0116908Y0264831D01*
X0116902Y0264706D01*
X0116892Y0264581D01*
X0116878Y0264456D01*
X0116861Y0264331D01*
X0116839Y0264207D01*
X0116814Y0264084D01*
X0116784Y0263962D01*
X0116751Y0263841D01*
X0116714Y0263721D01*
X0116674Y0263602D01*
X0116629Y0263485D01*
X0116581Y0263368D01*
X0116529Y0263254D01*
X0116474Y0263141D01*
X0116415Y0263030D01*
X0116353Y0262921D01*
X0116287Y0262814D01*
X0116218Y0262709D01*
X0116146Y0262606D01*
X0116071Y0262505D01*
X0115992Y0262407D01*
X0115910Y0262312D01*
X0115826Y0262219D01*
X0115738Y0262129D01*
X0115648Y0262041D01*
X0115555Y0261957D01*
X0115460Y0261875D01*
X0115362Y0261796D01*
X0115261Y0261721D01*
X0115158Y0261649D01*
X0115053Y0261580D01*
X0114946Y0261514D01*
X0114837Y0261452D01*
X0114726Y0261393D01*
X0114613Y0261338D01*
X0114499Y0261286D01*
X0114382Y0261238D01*
X0114265Y0261193D01*
X0114146Y0261153D01*
X0114026Y0261116D01*
X0113905Y0261083D01*
X0113783Y0261053D01*
X0113660Y0261028D01*
X0113536Y0261006D01*
X0113411Y0260989D01*
X0113286Y0260975D01*
X0113161Y0260965D01*
X0113036Y0260959D01*
X0112910Y0260957D01*
X0112784Y0260959D01*
X0112659Y0260965D01*
X0112534Y0260975D01*
X0112409Y0260989D01*
X0112284Y0261006D01*
X0112160Y0261028D01*
X0112037Y0261053D01*
X0111915Y0261083D01*
X0111794Y0261116D01*
X0111674Y0261153D01*
X0111555Y0261193D01*
X0111438Y0261238D01*
X0111321Y0261286D01*
X0111207Y0261338D01*
X0111094Y0261393D01*
X0110983Y0261452D01*
X0110874Y0261514D01*
X0110767Y0261580D01*
X0110662Y0261649D01*
X0110559Y0261721D01*
X0110458Y0261796D01*
X0110360Y0261875D01*
X0110265Y0261957D01*
X0110172Y0262041D01*
X0110082Y0262129D01*
X0109994Y0262219D01*
X0109910Y0262312D01*
X0109828Y0262407D01*
X0109749Y0262505D01*
X0109674Y0262606D01*
X0109602Y0262709D01*
X0109533Y0262814D01*
X0109467Y0262921D01*
X0109405Y0263030D01*
X0109346Y0263141D01*
X0109291Y0263254D01*
X0109239Y0263368D01*
X0109191Y0263485D01*
X0109146Y0263602D01*
X0109106Y0263721D01*
X0109069Y0263841D01*
X0109036Y0263962D01*
X0109006Y0264084D01*
X0108981Y0264207D01*
X0108959Y0264331D01*
X0108942Y0264456D01*
X0108928Y0264581D01*
X0108918Y0264706D01*
X0108912Y0264831D01*
X0108910Y0264957D01*
X0101410Y0264957D01*
X0101410Y0224957D01*
X0093851Y0271020D02*
X0076851Y0271020D01*
X0076791Y0271022D01*
X0076730Y0271027D01*
X0076671Y0271036D01*
X0076612Y0271049D01*
X0076553Y0271065D01*
X0076496Y0271085D01*
X0076441Y0271108D01*
X0076386Y0271135D01*
X0076334Y0271164D01*
X0076283Y0271197D01*
X0076234Y0271233D01*
X0076188Y0271271D01*
X0076144Y0271313D01*
X0076102Y0271357D01*
X0076064Y0271403D01*
X0076028Y0271452D01*
X0075995Y0271503D01*
X0075966Y0271555D01*
X0075939Y0271610D01*
X0075916Y0271665D01*
X0075896Y0271722D01*
X0075880Y0271781D01*
X0075867Y0271840D01*
X0075858Y0271899D01*
X0075853Y0271960D01*
X0075851Y0272020D01*
X0075851Y0280020D01*
X0075853Y0280080D01*
X0075858Y0280141D01*
X0075867Y0280200D01*
X0075880Y0280259D01*
X0075896Y0280318D01*
X0075916Y0280375D01*
X0075939Y0280430D01*
X0075966Y0280485D01*
X0075995Y0280537D01*
X0076028Y0280588D01*
X0076064Y0280637D01*
X0076102Y0280683D01*
X0076144Y0280727D01*
X0076188Y0280769D01*
X0076234Y0280807D01*
X0076283Y0280843D01*
X0076334Y0280876D01*
X0076386Y0280905D01*
X0076441Y0280932D01*
X0076496Y0280955D01*
X0076553Y0280975D01*
X0076612Y0280991D01*
X0076671Y0281004D01*
X0076730Y0281013D01*
X0076791Y0281018D01*
X0076851Y0281020D01*
X0093851Y0281020D01*
X0093911Y0281018D01*
X0093972Y0281013D01*
X0094031Y0281004D01*
X0094090Y0280991D01*
X0094149Y0280975D01*
X0094206Y0280955D01*
X0094261Y0280932D01*
X0094316Y0280905D01*
X0094368Y0280876D01*
X0094419Y0280843D01*
X0094468Y0280807D01*
X0094514Y0280769D01*
X0094558Y0280727D01*
X0094600Y0280683D01*
X0094638Y0280637D01*
X0094674Y0280588D01*
X0094707Y0280537D01*
X0094736Y0280485D01*
X0094763Y0280430D01*
X0094786Y0280375D01*
X0094806Y0280318D01*
X0094822Y0280259D01*
X0094835Y0280200D01*
X0094844Y0280141D01*
X0094849Y0280080D01*
X0094851Y0280020D01*
X0094851Y0272020D01*
X0094849Y0271960D01*
X0094844Y0271899D01*
X0094835Y0271840D01*
X0094822Y0271781D01*
X0094806Y0271722D01*
X0094786Y0271665D01*
X0094763Y0271610D01*
X0094736Y0271555D01*
X0094707Y0271503D01*
X0094674Y0271452D01*
X0094638Y0271403D01*
X0094600Y0271357D01*
X0094558Y0271313D01*
X0094514Y0271271D01*
X0094468Y0271233D01*
X0094419Y0271197D01*
X0094368Y0271164D01*
X0094316Y0271135D01*
X0094261Y0271108D01*
X0094206Y0271085D01*
X0094149Y0271065D01*
X0094090Y0271049D01*
X0094031Y0271036D01*
X0093972Y0271027D01*
X0093911Y0271022D01*
X0093851Y0271020D01*
X0086851Y0276020D02*
X0086351Y0276020D01*
X0084351Y0276020D02*
X0083851Y0276020D01*
X0071260Y0287161D02*
X0048260Y0287161D01*
X0048260Y0327161D01*
X0055760Y0327161D01*
X0055762Y0327035D01*
X0055768Y0326910D01*
X0055778Y0326785D01*
X0055792Y0326660D01*
X0055809Y0326535D01*
X0055831Y0326411D01*
X0055856Y0326288D01*
X0055886Y0326166D01*
X0055919Y0326045D01*
X0055956Y0325925D01*
X0055996Y0325806D01*
X0056041Y0325689D01*
X0056089Y0325572D01*
X0056141Y0325458D01*
X0056196Y0325345D01*
X0056255Y0325234D01*
X0056317Y0325125D01*
X0056383Y0325018D01*
X0056452Y0324913D01*
X0056524Y0324810D01*
X0056599Y0324709D01*
X0056678Y0324611D01*
X0056760Y0324516D01*
X0056844Y0324423D01*
X0056932Y0324333D01*
X0057022Y0324245D01*
X0057115Y0324161D01*
X0057210Y0324079D01*
X0057308Y0324000D01*
X0057409Y0323925D01*
X0057512Y0323853D01*
X0057617Y0323784D01*
X0057724Y0323718D01*
X0057833Y0323656D01*
X0057944Y0323597D01*
X0058057Y0323542D01*
X0058171Y0323490D01*
X0058288Y0323442D01*
X0058405Y0323397D01*
X0058524Y0323357D01*
X0058644Y0323320D01*
X0058765Y0323287D01*
X0058887Y0323257D01*
X0059010Y0323232D01*
X0059134Y0323210D01*
X0059259Y0323193D01*
X0059384Y0323179D01*
X0059509Y0323169D01*
X0059634Y0323163D01*
X0059760Y0323161D01*
X0059886Y0323163D01*
X0060011Y0323169D01*
X0060136Y0323179D01*
X0060261Y0323193D01*
X0060386Y0323210D01*
X0060510Y0323232D01*
X0060633Y0323257D01*
X0060755Y0323287D01*
X0060876Y0323320D01*
X0060996Y0323357D01*
X0061115Y0323397D01*
X0061232Y0323442D01*
X0061349Y0323490D01*
X0061463Y0323542D01*
X0061576Y0323597D01*
X0061687Y0323656D01*
X0061796Y0323718D01*
X0061903Y0323784D01*
X0062008Y0323853D01*
X0062111Y0323925D01*
X0062212Y0324000D01*
X0062310Y0324079D01*
X0062405Y0324161D01*
X0062498Y0324245D01*
X0062588Y0324333D01*
X0062676Y0324423D01*
X0062760Y0324516D01*
X0062842Y0324611D01*
X0062921Y0324709D01*
X0062996Y0324810D01*
X0063068Y0324913D01*
X0063137Y0325018D01*
X0063203Y0325125D01*
X0063265Y0325234D01*
X0063324Y0325345D01*
X0063379Y0325458D01*
X0063431Y0325572D01*
X0063479Y0325689D01*
X0063524Y0325806D01*
X0063564Y0325925D01*
X0063601Y0326045D01*
X0063634Y0326166D01*
X0063664Y0326288D01*
X0063689Y0326411D01*
X0063711Y0326535D01*
X0063728Y0326660D01*
X0063742Y0326785D01*
X0063752Y0326910D01*
X0063758Y0327035D01*
X0063760Y0327161D01*
X0071260Y0327161D01*
X0071260Y0287161D01*
X0101410Y0286374D02*
X0124410Y0286374D01*
X0124410Y0326374D01*
X0116910Y0326374D01*
X0116908Y0326248D01*
X0116902Y0326123D01*
X0116892Y0325998D01*
X0116878Y0325873D01*
X0116861Y0325748D01*
X0116839Y0325624D01*
X0116814Y0325501D01*
X0116784Y0325379D01*
X0116751Y0325258D01*
X0116714Y0325138D01*
X0116674Y0325019D01*
X0116629Y0324902D01*
X0116581Y0324785D01*
X0116529Y0324671D01*
X0116474Y0324558D01*
X0116415Y0324447D01*
X0116353Y0324338D01*
X0116287Y0324231D01*
X0116218Y0324126D01*
X0116146Y0324023D01*
X0116071Y0323922D01*
X0115992Y0323824D01*
X0115910Y0323729D01*
X0115826Y0323636D01*
X0115738Y0323546D01*
X0115648Y0323458D01*
X0115555Y0323374D01*
X0115460Y0323292D01*
X0115362Y0323213D01*
X0115261Y0323138D01*
X0115158Y0323066D01*
X0115053Y0322997D01*
X0114946Y0322931D01*
X0114837Y0322869D01*
X0114726Y0322810D01*
X0114613Y0322755D01*
X0114499Y0322703D01*
X0114382Y0322655D01*
X0114265Y0322610D01*
X0114146Y0322570D01*
X0114026Y0322533D01*
X0113905Y0322500D01*
X0113783Y0322470D01*
X0113660Y0322445D01*
X0113536Y0322423D01*
X0113411Y0322406D01*
X0113286Y0322392D01*
X0113161Y0322382D01*
X0113036Y0322376D01*
X0112910Y0322374D01*
X0112784Y0322376D01*
X0112659Y0322382D01*
X0112534Y0322392D01*
X0112409Y0322406D01*
X0112284Y0322423D01*
X0112160Y0322445D01*
X0112037Y0322470D01*
X0111915Y0322500D01*
X0111794Y0322533D01*
X0111674Y0322570D01*
X0111555Y0322610D01*
X0111438Y0322655D01*
X0111321Y0322703D01*
X0111207Y0322755D01*
X0111094Y0322810D01*
X0110983Y0322869D01*
X0110874Y0322931D01*
X0110767Y0322997D01*
X0110662Y0323066D01*
X0110559Y0323138D01*
X0110458Y0323213D01*
X0110360Y0323292D01*
X0110265Y0323374D01*
X0110172Y0323458D01*
X0110082Y0323546D01*
X0109994Y0323636D01*
X0109910Y0323729D01*
X0109828Y0323824D01*
X0109749Y0323922D01*
X0109674Y0324023D01*
X0109602Y0324126D01*
X0109533Y0324231D01*
X0109467Y0324338D01*
X0109405Y0324447D01*
X0109346Y0324558D01*
X0109291Y0324671D01*
X0109239Y0324785D01*
X0109191Y0324902D01*
X0109146Y0325019D01*
X0109106Y0325138D01*
X0109069Y0325258D01*
X0109036Y0325379D01*
X0109006Y0325501D01*
X0108981Y0325624D01*
X0108959Y0325748D01*
X0108942Y0325873D01*
X0108928Y0325998D01*
X0108918Y0326123D01*
X0108912Y0326248D01*
X0108910Y0326374D01*
X0101410Y0326374D01*
X0101410Y0286374D01*
X0097198Y0327752D02*
X0080198Y0327752D01*
X0080138Y0327754D01*
X0080077Y0327759D01*
X0080018Y0327768D01*
X0079959Y0327781D01*
X0079900Y0327797D01*
X0079843Y0327817D01*
X0079788Y0327840D01*
X0079733Y0327867D01*
X0079681Y0327896D01*
X0079630Y0327929D01*
X0079581Y0327965D01*
X0079535Y0328003D01*
X0079491Y0328045D01*
X0079449Y0328089D01*
X0079411Y0328135D01*
X0079375Y0328184D01*
X0079342Y0328235D01*
X0079313Y0328287D01*
X0079286Y0328342D01*
X0079263Y0328397D01*
X0079243Y0328454D01*
X0079227Y0328513D01*
X0079214Y0328572D01*
X0079205Y0328631D01*
X0079200Y0328692D01*
X0079198Y0328752D01*
X0079198Y0336752D01*
X0079200Y0336812D01*
X0079205Y0336873D01*
X0079214Y0336932D01*
X0079227Y0336991D01*
X0079243Y0337050D01*
X0079263Y0337107D01*
X0079286Y0337162D01*
X0079313Y0337217D01*
X0079342Y0337269D01*
X0079375Y0337320D01*
X0079411Y0337369D01*
X0079449Y0337415D01*
X0079491Y0337459D01*
X0079535Y0337501D01*
X0079581Y0337539D01*
X0079630Y0337575D01*
X0079681Y0337608D01*
X0079733Y0337637D01*
X0079788Y0337664D01*
X0079843Y0337687D01*
X0079900Y0337707D01*
X0079959Y0337723D01*
X0080018Y0337736D01*
X0080077Y0337745D01*
X0080138Y0337750D01*
X0080198Y0337752D01*
X0097198Y0337752D01*
X0097258Y0337750D01*
X0097319Y0337745D01*
X0097378Y0337736D01*
X0097437Y0337723D01*
X0097496Y0337707D01*
X0097553Y0337687D01*
X0097608Y0337664D01*
X0097663Y0337637D01*
X0097715Y0337608D01*
X0097766Y0337575D01*
X0097815Y0337539D01*
X0097861Y0337501D01*
X0097905Y0337459D01*
X0097947Y0337415D01*
X0097985Y0337369D01*
X0098021Y0337320D01*
X0098054Y0337269D01*
X0098083Y0337217D01*
X0098110Y0337162D01*
X0098133Y0337107D01*
X0098153Y0337050D01*
X0098169Y0336991D01*
X0098182Y0336932D01*
X0098191Y0336873D01*
X0098196Y0336812D01*
X0098198Y0336752D01*
X0098198Y0328752D01*
X0098196Y0328692D01*
X0098191Y0328631D01*
X0098182Y0328572D01*
X0098169Y0328513D01*
X0098153Y0328454D01*
X0098133Y0328397D01*
X0098110Y0328342D01*
X0098083Y0328287D01*
X0098054Y0328235D01*
X0098021Y0328184D01*
X0097985Y0328135D01*
X0097947Y0328089D01*
X0097905Y0328045D01*
X0097861Y0328003D01*
X0097815Y0327965D01*
X0097766Y0327929D01*
X0097715Y0327896D01*
X0097663Y0327867D01*
X0097608Y0327840D01*
X0097553Y0327817D01*
X0097496Y0327797D01*
X0097437Y0327781D01*
X0097378Y0327768D01*
X0097319Y0327759D01*
X0097258Y0327754D01*
X0097198Y0327752D01*
X0090198Y0332752D02*
X0089698Y0332752D01*
X0087698Y0332752D02*
X0087198Y0332752D01*
X0176005Y0227667D02*
X0176005Y0224331D01*
X0176005Y0225999D02*
X0171001Y0225999D01*
X0172669Y0224331D01*
X0171835Y0222511D02*
X0173503Y0222511D01*
X0174337Y0221677D01*
X0174337Y0219175D01*
X0174337Y0220843D02*
X0176005Y0222511D01*
X0176005Y0219175D02*
X0171001Y0219175D01*
X0171001Y0221677D01*
X0171835Y0222511D01*
X0172669Y0217354D02*
X0176005Y0217354D01*
X0173503Y0217354D02*
X0173503Y0214018D01*
X0172669Y0214018D02*
X0176005Y0214018D01*
X0172669Y0214018D02*
X0171001Y0215686D01*
X0172669Y0217354D01*
X0245009Y0270579D02*
X0245843Y0269745D01*
X0247511Y0269745D01*
X0248345Y0270579D01*
X0248345Y0274749D01*
X0250166Y0274749D02*
X0252668Y0274749D01*
X0253502Y0273915D01*
X0253502Y0272247D01*
X0252668Y0271413D01*
X0250166Y0271413D01*
X0250166Y0269745D02*
X0250166Y0274749D01*
X0245009Y0274749D02*
X0245009Y0270579D01*
X0245843Y0297304D02*
X0247511Y0297304D01*
X0248345Y0298138D01*
X0248345Y0301474D01*
X0247511Y0302308D01*
X0245843Y0302308D01*
X0245009Y0301474D01*
X0245009Y0298138D01*
X0245843Y0297304D01*
X0250166Y0297304D02*
X0250166Y0302308D01*
X0251000Y0299806D02*
X0253502Y0297304D01*
X0250166Y0298972D02*
X0253502Y0302308D01*
X0252604Y0324863D02*
X0252604Y0329867D01*
X0255941Y0324863D01*
X0255941Y0329867D01*
X0250784Y0329867D02*
X0250784Y0324863D01*
X0249116Y0326531D01*
X0247448Y0324863D01*
X0247448Y0329867D01*
X0245628Y0329033D02*
X0245628Y0325697D01*
X0244794Y0324863D01*
X0243126Y0324863D01*
X0242292Y0325697D01*
X0242292Y0329033D01*
X0243126Y0329867D01*
X0244794Y0329867D01*
X0245628Y0329033D01*
X0240471Y0329033D02*
X0240471Y0325697D01*
X0239637Y0324863D01*
X0237135Y0324863D01*
X0237135Y0329867D01*
X0239637Y0329867D01*
X0240471Y0329033D01*
X0303776Y0335642D02*
X0304776Y0334642D01*
X0312776Y0334642D01*
X0313776Y0335642D01*
X0314776Y0334642D01*
X0322776Y0334642D01*
X0323776Y0335642D01*
X0323776Y0343642D01*
X0322776Y0344642D01*
X0314776Y0344642D01*
X0313776Y0343642D01*
X0312776Y0344642D01*
X0304776Y0344642D01*
X0303776Y0343642D01*
X0303776Y0335642D01*
X0329367Y0311146D02*
X0329367Y0305146D01*
X0329369Y0305086D01*
X0329374Y0305025D01*
X0329383Y0304966D01*
X0329396Y0304907D01*
X0329412Y0304848D01*
X0329432Y0304791D01*
X0329455Y0304736D01*
X0329482Y0304681D01*
X0329511Y0304629D01*
X0329544Y0304578D01*
X0329580Y0304529D01*
X0329618Y0304483D01*
X0329660Y0304439D01*
X0329704Y0304397D01*
X0329750Y0304359D01*
X0329799Y0304323D01*
X0329850Y0304290D01*
X0329902Y0304261D01*
X0329957Y0304234D01*
X0330012Y0304211D01*
X0330069Y0304191D01*
X0330128Y0304175D01*
X0330187Y0304162D01*
X0330246Y0304153D01*
X0330307Y0304148D01*
X0330367Y0304146D01*
X0331867Y0304146D01*
X0332367Y0304646D01*
X0346367Y0304646D01*
X0346867Y0304146D01*
X0348367Y0304146D01*
X0348427Y0304148D01*
X0348488Y0304153D01*
X0348547Y0304162D01*
X0348606Y0304175D01*
X0348665Y0304191D01*
X0348722Y0304211D01*
X0348777Y0304234D01*
X0348832Y0304261D01*
X0348884Y0304290D01*
X0348935Y0304323D01*
X0348984Y0304359D01*
X0349030Y0304397D01*
X0349074Y0304439D01*
X0349116Y0304483D01*
X0349154Y0304529D01*
X0349190Y0304578D01*
X0349223Y0304629D01*
X0349252Y0304681D01*
X0349279Y0304736D01*
X0349302Y0304791D01*
X0349322Y0304848D01*
X0349338Y0304907D01*
X0349351Y0304966D01*
X0349360Y0305025D01*
X0349365Y0305086D01*
X0349367Y0305146D01*
X0349367Y0311146D01*
X0349365Y0311206D01*
X0349360Y0311267D01*
X0349351Y0311326D01*
X0349338Y0311385D01*
X0349322Y0311444D01*
X0349302Y0311501D01*
X0349279Y0311556D01*
X0349252Y0311611D01*
X0349223Y0311663D01*
X0349190Y0311714D01*
X0349154Y0311763D01*
X0349116Y0311809D01*
X0349074Y0311853D01*
X0349030Y0311895D01*
X0348984Y0311933D01*
X0348935Y0311969D01*
X0348884Y0312002D01*
X0348832Y0312031D01*
X0348777Y0312058D01*
X0348722Y0312081D01*
X0348665Y0312101D01*
X0348606Y0312117D01*
X0348547Y0312130D01*
X0348488Y0312139D01*
X0348427Y0312144D01*
X0348367Y0312146D01*
X0346867Y0312146D01*
X0346367Y0311646D01*
X0332367Y0311646D01*
X0331867Y0312146D01*
X0330367Y0312146D01*
X0330307Y0312144D01*
X0330246Y0312139D01*
X0330187Y0312130D01*
X0330128Y0312117D01*
X0330069Y0312101D01*
X0330012Y0312081D01*
X0329957Y0312058D01*
X0329902Y0312031D01*
X0329850Y0312002D01*
X0329799Y0311969D01*
X0329750Y0311933D01*
X0329704Y0311895D01*
X0329660Y0311853D01*
X0329618Y0311809D01*
X0329580Y0311763D01*
X0329544Y0311714D01*
X0329511Y0311663D01*
X0329482Y0311611D01*
X0329455Y0311556D01*
X0329432Y0311501D01*
X0329412Y0311444D01*
X0329396Y0311385D01*
X0329383Y0311326D01*
X0329374Y0311267D01*
X0329369Y0311206D01*
X0329367Y0311146D01*
X0330367Y0288524D02*
X0331867Y0288524D01*
X0332367Y0288024D01*
X0346367Y0288024D01*
X0346867Y0288524D01*
X0348367Y0288524D01*
X0348427Y0288522D01*
X0348488Y0288517D01*
X0348547Y0288508D01*
X0348606Y0288495D01*
X0348665Y0288479D01*
X0348722Y0288459D01*
X0348777Y0288436D01*
X0348832Y0288409D01*
X0348884Y0288380D01*
X0348935Y0288347D01*
X0348984Y0288311D01*
X0349030Y0288273D01*
X0349074Y0288231D01*
X0349116Y0288187D01*
X0349154Y0288141D01*
X0349190Y0288092D01*
X0349223Y0288041D01*
X0349252Y0287989D01*
X0349279Y0287934D01*
X0349302Y0287879D01*
X0349322Y0287822D01*
X0349338Y0287763D01*
X0349351Y0287704D01*
X0349360Y0287645D01*
X0349365Y0287584D01*
X0349367Y0287524D01*
X0349367Y0281524D01*
X0349365Y0281464D01*
X0349360Y0281403D01*
X0349351Y0281344D01*
X0349338Y0281285D01*
X0349322Y0281226D01*
X0349302Y0281169D01*
X0349279Y0281114D01*
X0349252Y0281059D01*
X0349223Y0281007D01*
X0349190Y0280956D01*
X0349154Y0280907D01*
X0349116Y0280861D01*
X0349074Y0280817D01*
X0349030Y0280775D01*
X0348984Y0280737D01*
X0348935Y0280701D01*
X0348884Y0280668D01*
X0348832Y0280639D01*
X0348777Y0280612D01*
X0348722Y0280589D01*
X0348665Y0280569D01*
X0348606Y0280553D01*
X0348547Y0280540D01*
X0348488Y0280531D01*
X0348427Y0280526D01*
X0348367Y0280524D01*
X0346867Y0280524D01*
X0346367Y0281024D01*
X0332367Y0281024D01*
X0331867Y0280524D01*
X0330367Y0280524D01*
X0330307Y0280526D01*
X0330246Y0280531D01*
X0330187Y0280540D01*
X0330128Y0280553D01*
X0330069Y0280569D01*
X0330012Y0280589D01*
X0329957Y0280612D01*
X0329902Y0280639D01*
X0329850Y0280668D01*
X0329799Y0280701D01*
X0329750Y0280737D01*
X0329704Y0280775D01*
X0329660Y0280817D01*
X0329618Y0280861D01*
X0329580Y0280907D01*
X0329544Y0280956D01*
X0329511Y0281007D01*
X0329482Y0281059D01*
X0329455Y0281114D01*
X0329432Y0281169D01*
X0329412Y0281226D01*
X0329396Y0281285D01*
X0329383Y0281344D01*
X0329374Y0281403D01*
X0329369Y0281464D01*
X0329367Y0281524D01*
X0329367Y0287524D01*
X0329369Y0287584D01*
X0329374Y0287645D01*
X0329383Y0287704D01*
X0329396Y0287763D01*
X0329412Y0287822D01*
X0329432Y0287879D01*
X0329455Y0287934D01*
X0329482Y0287989D01*
X0329511Y0288041D01*
X0329544Y0288092D01*
X0329580Y0288141D01*
X0329618Y0288187D01*
X0329660Y0288231D01*
X0329704Y0288273D01*
X0329750Y0288311D01*
X0329799Y0288347D01*
X0329850Y0288380D01*
X0329902Y0288409D01*
X0329957Y0288436D01*
X0330012Y0288459D01*
X0330069Y0288479D01*
X0330128Y0288495D01*
X0330187Y0288508D01*
X0330246Y0288517D01*
X0330307Y0288522D01*
X0330367Y0288524D01*
X0330367Y0264902D02*
X0331867Y0264902D01*
X0332367Y0264402D01*
X0346367Y0264402D01*
X0346867Y0264902D01*
X0348367Y0264902D01*
X0348427Y0264900D01*
X0348488Y0264895D01*
X0348547Y0264886D01*
X0348606Y0264873D01*
X0348665Y0264857D01*
X0348722Y0264837D01*
X0348777Y0264814D01*
X0348832Y0264787D01*
X0348884Y0264758D01*
X0348935Y0264725D01*
X0348984Y0264689D01*
X0349030Y0264651D01*
X0349074Y0264609D01*
X0349116Y0264565D01*
X0349154Y0264519D01*
X0349190Y0264470D01*
X0349223Y0264419D01*
X0349252Y0264367D01*
X0349279Y0264312D01*
X0349302Y0264257D01*
X0349322Y0264200D01*
X0349338Y0264141D01*
X0349351Y0264082D01*
X0349360Y0264023D01*
X0349365Y0263962D01*
X0349367Y0263902D01*
X0349367Y0257902D01*
X0349365Y0257842D01*
X0349360Y0257781D01*
X0349351Y0257722D01*
X0349338Y0257663D01*
X0349322Y0257604D01*
X0349302Y0257547D01*
X0349279Y0257492D01*
X0349252Y0257437D01*
X0349223Y0257385D01*
X0349190Y0257334D01*
X0349154Y0257285D01*
X0349116Y0257239D01*
X0349074Y0257195D01*
X0349030Y0257153D01*
X0348984Y0257115D01*
X0348935Y0257079D01*
X0348884Y0257046D01*
X0348832Y0257017D01*
X0348777Y0256990D01*
X0348722Y0256967D01*
X0348665Y0256947D01*
X0348606Y0256931D01*
X0348547Y0256918D01*
X0348488Y0256909D01*
X0348427Y0256904D01*
X0348367Y0256902D01*
X0346867Y0256902D01*
X0346367Y0257402D01*
X0332367Y0257402D01*
X0331867Y0256902D01*
X0330367Y0256902D01*
X0330307Y0256904D01*
X0330246Y0256909D01*
X0330187Y0256918D01*
X0330128Y0256931D01*
X0330069Y0256947D01*
X0330012Y0256967D01*
X0329957Y0256990D01*
X0329902Y0257017D01*
X0329850Y0257046D01*
X0329799Y0257079D01*
X0329750Y0257115D01*
X0329704Y0257153D01*
X0329660Y0257195D01*
X0329618Y0257239D01*
X0329580Y0257285D01*
X0329544Y0257334D01*
X0329511Y0257385D01*
X0329482Y0257437D01*
X0329455Y0257492D01*
X0329432Y0257547D01*
X0329412Y0257604D01*
X0329396Y0257663D01*
X0329383Y0257722D01*
X0329374Y0257781D01*
X0329369Y0257842D01*
X0329367Y0257902D01*
X0329367Y0263902D01*
X0329369Y0263962D01*
X0329374Y0264023D01*
X0329383Y0264082D01*
X0329396Y0264141D01*
X0329412Y0264200D01*
X0329432Y0264257D01*
X0329455Y0264312D01*
X0329482Y0264367D01*
X0329511Y0264419D01*
X0329544Y0264470D01*
X0329580Y0264519D01*
X0329618Y0264565D01*
X0329660Y0264609D01*
X0329704Y0264651D01*
X0329750Y0264689D01*
X0329799Y0264725D01*
X0329850Y0264758D01*
X0329902Y0264787D01*
X0329957Y0264814D01*
X0330012Y0264837D01*
X0330069Y0264857D01*
X0330128Y0264873D01*
X0330187Y0264886D01*
X0330246Y0264895D01*
X0330307Y0264900D01*
X0330367Y0264902D01*
D13*
X0084128Y0199980D02*
X0079916Y0199980D01*
X0079985Y0199785D02*
X0084179Y0199785D01*
X0084231Y0199589D02*
X0080050Y0199589D01*
X0080040Y0199625D02*
X0080329Y0198571D01*
X0080545Y0197500D01*
X0080690Y0196416D01*
X0079812Y0196408D01*
X0078935Y0196402D01*
X0078057Y0196397D01*
X0077180Y0196395D01*
X0077083Y0197363D01*
X0076898Y0198319D01*
X0076626Y0199252D01*
X0076268Y0200157D01*
X0075824Y0201023D01*
X0075296Y0201840D01*
X0074687Y0202599D01*
X0073955Y0203336D01*
X0073151Y0203991D01*
X0072282Y0204560D01*
X0071358Y0205034D01*
X0070396Y0204641D01*
X0069556Y0204025D01*
X0068840Y0203267D01*
X0068233Y0202420D01*
X0067719Y0201512D01*
X0067287Y0200563D01*
X0066928Y0199584D01*
X0066637Y0198583D01*
X0066412Y0197565D01*
X0066252Y0196534D01*
X0066157Y0195496D01*
X0066140Y0194792D01*
X0084841Y0194792D01*
X0084835Y0194790D01*
X0084841Y0194974D01*
X0084801Y0196041D01*
X0084703Y0197104D01*
X0084547Y0198160D01*
X0084332Y0199206D01*
X0084060Y0200239D01*
X0083731Y0201254D01*
X0083347Y0202251D01*
X0082910Y0203224D01*
X0082419Y0204172D01*
X0081878Y0205093D01*
X0081287Y0205982D01*
X0080650Y0206839D01*
X0079968Y0207660D01*
X0079242Y0208444D01*
X0078476Y0209187D01*
X0077671Y0209888D01*
X0076830Y0210545D01*
X0075955Y0211156D01*
X0075048Y0211719D01*
X0074112Y0212232D01*
X0073149Y0212694D01*
X0072163Y0213101D01*
X0071155Y0213455D01*
X0070130Y0213753D01*
X0069089Y0213992D01*
X0068038Y0214174D01*
X0066977Y0214296D01*
X0065911Y0214360D01*
X0064844Y0214365D01*
X0063756Y0214310D01*
X0062674Y0214193D01*
X0061599Y0214014D01*
X0060536Y0213775D01*
X0059489Y0213475D01*
X0058460Y0213117D01*
X0057454Y0212701D01*
X0056473Y0212229D01*
X0055519Y0211704D01*
X0054597Y0211125D01*
X0053707Y0210497D01*
X0052854Y0209820D01*
X0052038Y0209098D01*
X0051263Y0208331D01*
X0050531Y0207525D01*
X0049844Y0206679D01*
X0049205Y0205797D01*
X0048614Y0204882D01*
X0048075Y0203936D01*
X0047589Y0202962D01*
X0047158Y0201962D01*
X0046783Y0200939D01*
X0046466Y0199897D01*
X0046208Y0198839D01*
X0046010Y0197768D01*
X0045874Y0196687D01*
X0045799Y0195600D01*
X0045789Y0194790D01*
X0049742Y0194790D01*
X0049762Y0195771D01*
X0049862Y0196836D01*
X0050040Y0197891D01*
X0050293Y0198929D01*
X0050620Y0199947D01*
X0051020Y0200939D01*
X0051487Y0201901D01*
X0052018Y0202830D01*
X0052611Y0203719D01*
X0053262Y0204568D01*
X0053965Y0205373D01*
X0054719Y0206131D01*
X0055520Y0206840D01*
X0056365Y0207496D01*
X0057249Y0208097D01*
X0058171Y0208640D01*
X0059125Y0209123D01*
X0060109Y0209542D01*
X0061118Y0209894D01*
X0062150Y0210175D01*
X0063198Y0210383D01*
X0064259Y0210515D01*
X0065327Y0210569D01*
X0066396Y0210542D01*
X0067460Y0210433D01*
X0068536Y0210239D01*
X0069594Y0209966D01*
X0070631Y0209618D01*
X0071639Y0209197D01*
X0072615Y0208705D01*
X0073554Y0208146D01*
X0074452Y0207523D01*
X0075305Y0206840D01*
X0076107Y0206098D01*
X0076857Y0205303D01*
X0077549Y0204458D01*
X0078181Y0203566D01*
X0078748Y0202632D01*
X0079249Y0201661D01*
X0079680Y0200657D01*
X0080040Y0199625D01*
X0080104Y0199394D02*
X0084282Y0199394D01*
X0084333Y0199199D02*
X0080157Y0199199D01*
X0080211Y0199003D02*
X0084374Y0199003D01*
X0084414Y0198808D02*
X0080264Y0198808D01*
X0080318Y0198613D02*
X0084454Y0198613D01*
X0084494Y0198417D02*
X0080360Y0198417D01*
X0080400Y0198222D02*
X0084534Y0198222D01*
X0084567Y0198026D02*
X0080439Y0198026D01*
X0080478Y0197831D02*
X0084596Y0197831D01*
X0084625Y0197636D02*
X0080518Y0197636D01*
X0080553Y0197440D02*
X0084653Y0197440D01*
X0084682Y0197245D02*
X0080579Y0197245D01*
X0080605Y0197050D02*
X0084708Y0197050D01*
X0084726Y0196854D02*
X0080631Y0196854D01*
X0080657Y0196659D02*
X0084744Y0196659D01*
X0084762Y0196464D02*
X0080683Y0196464D01*
X0077173Y0196464D02*
X0066246Y0196464D01*
X0066271Y0196659D02*
X0077153Y0196659D01*
X0077134Y0196854D02*
X0066302Y0196854D01*
X0066332Y0197050D02*
X0077114Y0197050D01*
X0077095Y0197245D02*
X0066362Y0197245D01*
X0066393Y0197440D02*
X0077068Y0197440D01*
X0077030Y0197636D02*
X0066428Y0197636D01*
X0066471Y0197831D02*
X0076992Y0197831D01*
X0076954Y0198026D02*
X0066514Y0198026D01*
X0066557Y0198222D02*
X0076916Y0198222D01*
X0076869Y0198417D02*
X0066600Y0198417D01*
X0066645Y0198613D02*
X0076812Y0198613D01*
X0076755Y0198808D02*
X0066702Y0198808D01*
X0066759Y0199003D02*
X0076699Y0199003D01*
X0076642Y0199199D02*
X0066816Y0199199D01*
X0066872Y0199394D02*
X0076570Y0199394D01*
X0076493Y0199589D02*
X0066930Y0199589D01*
X0067001Y0199785D02*
X0076416Y0199785D01*
X0076338Y0199980D02*
X0067073Y0199980D01*
X0067145Y0200175D02*
X0076259Y0200175D01*
X0076159Y0200371D02*
X0067217Y0200371D01*
X0067288Y0200566D02*
X0076058Y0200566D01*
X0075958Y0200762D02*
X0067377Y0200762D01*
X0067466Y0200957D02*
X0075858Y0200957D01*
X0075740Y0201152D02*
X0067555Y0201152D01*
X0067644Y0201348D02*
X0075614Y0201348D01*
X0075488Y0201543D02*
X0067737Y0201543D01*
X0067847Y0201738D02*
X0075361Y0201738D01*
X0075220Y0201934D02*
X0067958Y0201934D01*
X0068068Y0202129D02*
X0075064Y0202129D01*
X0074907Y0202324D02*
X0068179Y0202324D01*
X0068305Y0202520D02*
X0074751Y0202520D01*
X0074572Y0202715D02*
X0068445Y0202715D01*
X0068585Y0202911D02*
X0074378Y0202911D01*
X0074184Y0203106D02*
X0068725Y0203106D01*
X0068872Y0203301D02*
X0073989Y0203301D01*
X0073758Y0203497D02*
X0069057Y0203497D01*
X0069242Y0203692D02*
X0073518Y0203692D01*
X0073278Y0203887D02*
X0069426Y0203887D01*
X0069635Y0204083D02*
X0073011Y0204083D01*
X0072713Y0204278D02*
X0069901Y0204278D01*
X0070168Y0204473D02*
X0072415Y0204473D01*
X0072071Y0204669D02*
X0070464Y0204669D01*
X0070942Y0204864D02*
X0071690Y0204864D01*
X0069219Y0206138D02*
X0068141Y0206359D01*
X0067051Y0206507D01*
X0065953Y0206579D01*
X0064853Y0206571D01*
X0063756Y0206481D01*
X0062669Y0206305D01*
X0061600Y0206043D01*
X0060557Y0205690D01*
X0059550Y0205246D01*
X0058590Y0204709D01*
X0057687Y0204080D01*
X0056855Y0203361D01*
X0056103Y0202557D01*
X0055477Y0201731D01*
X0054936Y0200845D01*
X0054483Y0199912D01*
X0054117Y0198940D01*
X0053837Y0197942D01*
X0053640Y0196923D01*
X0053530Y0195891D01*
X0053521Y0195034D01*
X0064191Y0195034D01*
X0064191Y0195033D01*
X0064195Y0195460D01*
X0064285Y0196556D01*
X0064456Y0197642D01*
X0064707Y0198712D01*
X0065037Y0199762D01*
X0065441Y0200785D01*
X0065915Y0201777D01*
X0066457Y0202734D01*
X0067060Y0203653D01*
X0067721Y0204531D01*
X0068440Y0205362D01*
X0069219Y0206138D01*
X0069117Y0206036D02*
X0061580Y0206036D01*
X0061002Y0205841D02*
X0068921Y0205841D01*
X0068725Y0205646D02*
X0060456Y0205646D01*
X0060013Y0205450D02*
X0068529Y0205450D01*
X0068347Y0205255D02*
X0059570Y0205255D01*
X0059217Y0205060D02*
X0068178Y0205060D01*
X0068009Y0204864D02*
X0058867Y0204864D01*
X0058532Y0204669D02*
X0067840Y0204669D01*
X0067678Y0204473D02*
X0058252Y0204473D01*
X0057972Y0204278D02*
X0067531Y0204278D01*
X0067383Y0204083D02*
X0057692Y0204083D01*
X0057465Y0203887D02*
X0067236Y0203887D01*
X0067089Y0203692D02*
X0057238Y0203692D01*
X0057012Y0203497D02*
X0066957Y0203497D01*
X0066829Y0203301D02*
X0056799Y0203301D01*
X0056616Y0203106D02*
X0066701Y0203106D01*
X0066573Y0202911D02*
X0056434Y0202911D01*
X0056251Y0202715D02*
X0066446Y0202715D01*
X0066336Y0202520D02*
X0056075Y0202520D01*
X0055927Y0202324D02*
X0066225Y0202324D01*
X0066115Y0202129D02*
X0055779Y0202129D01*
X0055631Y0201934D02*
X0066004Y0201934D01*
X0065897Y0201738D02*
X0055483Y0201738D01*
X0055362Y0201543D02*
X0065804Y0201543D01*
X0065710Y0201348D02*
X0055243Y0201348D01*
X0055123Y0201152D02*
X0065617Y0201152D01*
X0065524Y0200957D02*
X0055004Y0200957D01*
X0054895Y0200762D02*
X0065432Y0200762D01*
X0065355Y0200566D02*
X0054800Y0200566D01*
X0054706Y0200371D02*
X0065278Y0200371D01*
X0065200Y0200175D02*
X0054611Y0200175D01*
X0054516Y0199980D02*
X0065123Y0199980D01*
X0065046Y0199785D02*
X0054435Y0199785D01*
X0054361Y0199589D02*
X0064983Y0199589D01*
X0064921Y0199394D02*
X0054288Y0199394D01*
X0054214Y0199199D02*
X0064860Y0199199D01*
X0064798Y0199003D02*
X0054140Y0199003D01*
X0054080Y0198808D02*
X0064737Y0198808D01*
X0064684Y0198613D02*
X0054025Y0198613D01*
X0053970Y0198417D02*
X0064638Y0198417D01*
X0064592Y0198222D02*
X0053915Y0198222D01*
X0053860Y0198026D02*
X0064546Y0198026D01*
X0064500Y0197831D02*
X0053815Y0197831D01*
X0053778Y0197636D02*
X0064455Y0197636D01*
X0064424Y0197440D02*
X0053740Y0197440D01*
X0053703Y0197245D02*
X0064393Y0197245D01*
X0064363Y0197050D02*
X0053665Y0197050D01*
X0053633Y0196854D02*
X0064332Y0196854D01*
X0064301Y0196659D02*
X0053612Y0196659D01*
X0053591Y0196464D02*
X0064277Y0196464D01*
X0064261Y0196268D02*
X0053571Y0196268D01*
X0053550Y0196073D02*
X0064245Y0196073D01*
X0064229Y0195878D02*
X0053530Y0195878D01*
X0053528Y0195682D02*
X0064213Y0195682D01*
X0064197Y0195487D02*
X0053526Y0195487D01*
X0053524Y0195291D02*
X0064193Y0195291D01*
X0064192Y0195096D02*
X0053522Y0195096D01*
X0053521Y0195033D02*
X0053519Y0194799D01*
X0053607Y0193711D01*
X0053785Y0192634D01*
X0054052Y0191576D01*
X0054409Y0190544D01*
X0054859Y0189549D01*
X0055400Y0188603D01*
X0056032Y0187713D01*
X0056714Y0186925D01*
X0057467Y0186203D01*
X0058283Y0185552D01*
X0059152Y0184977D01*
X0060068Y0184477D01*
X0061022Y0184055D01*
X0062006Y0183711D01*
X0063015Y0183445D01*
X0064040Y0183254D01*
X0065077Y0183139D01*
X0066120Y0183098D01*
X0067163Y0183130D01*
X0068202Y0183234D01*
X0069230Y0183408D01*
X0068496Y0184132D01*
X0067814Y0184906D01*
X0067182Y0185721D01*
X0066602Y0186574D01*
X0066076Y0187462D01*
X0065609Y0188381D01*
X0065203Y0189329D01*
X0064861Y0190302D01*
X0064587Y0191297D01*
X0064382Y0192308D01*
X0064249Y0193331D01*
X0064186Y0194360D01*
X0064191Y0195031D01*
X0064191Y0195033D01*
X0053521Y0195033D01*
X0053520Y0194901D02*
X0064190Y0194901D01*
X0064189Y0194705D02*
X0053527Y0194705D01*
X0053543Y0194510D02*
X0064187Y0194510D01*
X0064188Y0194315D02*
X0053558Y0194315D01*
X0053574Y0194119D02*
X0064200Y0194119D01*
X0064212Y0193924D02*
X0053590Y0193924D01*
X0053606Y0193729D02*
X0064224Y0193729D01*
X0064236Y0193533D02*
X0053637Y0193533D01*
X0053669Y0193338D02*
X0064248Y0193338D01*
X0064273Y0193142D02*
X0053701Y0193142D01*
X0053733Y0192947D02*
X0064299Y0192947D01*
X0064324Y0192752D02*
X0053765Y0192752D01*
X0053804Y0192556D02*
X0064349Y0192556D01*
X0064375Y0192361D02*
X0053854Y0192361D01*
X0053903Y0192166D02*
X0064411Y0192166D01*
X0064450Y0191970D02*
X0053952Y0191970D01*
X0054001Y0191775D02*
X0064490Y0191775D01*
X0064530Y0191580D02*
X0054051Y0191580D01*
X0054118Y0191384D02*
X0064569Y0191384D01*
X0064617Y0191189D02*
X0054186Y0191189D01*
X0054253Y0190993D02*
X0064671Y0190993D01*
X0064725Y0190798D02*
X0054321Y0190798D01*
X0054388Y0190603D02*
X0064779Y0190603D01*
X0064832Y0190407D02*
X0054471Y0190407D01*
X0054559Y0190212D02*
X0064893Y0190212D01*
X0064962Y0190017D02*
X0054647Y0190017D01*
X0054736Y0189821D02*
X0065030Y0189821D01*
X0065099Y0189626D02*
X0054824Y0189626D01*
X0054927Y0189431D02*
X0065168Y0189431D01*
X0065243Y0189235D02*
X0055038Y0189235D01*
X0055150Y0189040D02*
X0065327Y0189040D01*
X0065410Y0188844D02*
X0055262Y0188844D01*
X0055373Y0188649D02*
X0065494Y0188649D01*
X0065578Y0188454D02*
X0055505Y0188454D01*
X0055644Y0188258D02*
X0065671Y0188258D01*
X0065770Y0188063D02*
X0055783Y0188063D01*
X0055922Y0187868D02*
X0065870Y0187868D01*
X0065969Y0187672D02*
X0056067Y0187672D01*
X0056236Y0187477D02*
X0066068Y0187477D01*
X0066183Y0187282D02*
X0056405Y0187282D01*
X0056574Y0187086D02*
X0066299Y0187086D01*
X0066414Y0186891D02*
X0056749Y0186891D01*
X0056953Y0186696D02*
X0066530Y0186696D01*
X0066652Y0186500D02*
X0057157Y0186500D01*
X0057360Y0186305D02*
X0066785Y0186305D01*
X0066918Y0186109D02*
X0057584Y0186109D01*
X0057829Y0185914D02*
X0067051Y0185914D01*
X0067184Y0185719D02*
X0058074Y0185719D01*
X0058326Y0185523D02*
X0067335Y0185523D01*
X0067487Y0185328D02*
X0058622Y0185328D01*
X0058917Y0185133D02*
X0067638Y0185133D01*
X0067790Y0184937D02*
X0059225Y0184937D01*
X0059583Y0184742D02*
X0067959Y0184742D01*
X0068131Y0184547D02*
X0059942Y0184547D01*
X0060354Y0184351D02*
X0068303Y0184351D01*
X0068475Y0184156D02*
X0060795Y0184156D01*
X0061293Y0183960D02*
X0068670Y0183960D01*
X0068868Y0183765D02*
X0061852Y0183765D01*
X0062542Y0183570D02*
X0069066Y0183570D01*
X0069030Y0183374D02*
X0063392Y0183374D01*
X0064718Y0183179D02*
X0067650Y0183179D01*
X0069994Y0185523D02*
X0073427Y0185523D01*
X0073190Y0185328D02*
X0070177Y0185328D01*
X0070361Y0185133D02*
X0072908Y0185133D01*
X0073134Y0185282D02*
X0073949Y0185952D01*
X0074688Y0186704D01*
X0075344Y0187531D01*
X0075866Y0188342D01*
X0076306Y0189201D01*
X0076659Y0190097D01*
X0076926Y0191024D01*
X0077104Y0191972D01*
X0077191Y0192933D01*
X0078060Y0192935D01*
X0078931Y0192938D01*
X0079801Y0192941D01*
X0080671Y0192943D01*
X0080521Y0191889D01*
X0080302Y0190847D01*
X0080012Y0189823D01*
X0079650Y0188822D01*
X0079218Y0187850D01*
X0078716Y0186910D01*
X0078148Y0186011D01*
X0077516Y0185154D01*
X0076824Y0184346D01*
X0076075Y0183589D01*
X0075276Y0182887D01*
X0074429Y0182242D01*
X0073541Y0181657D01*
X0072615Y0181133D01*
X0071656Y0180672D01*
X0070668Y0180276D01*
X0069655Y0179948D01*
X0068623Y0179688D01*
X0067576Y0179497D01*
X0066485Y0179379D01*
X0065387Y0179347D01*
X0064290Y0179400D01*
X0063200Y0179534D01*
X0062123Y0179749D01*
X0061063Y0180040D01*
X0060027Y0180404D01*
X0059018Y0180839D01*
X0058040Y0181339D01*
X0057098Y0181903D01*
X0056195Y0182529D01*
X0055334Y0183211D01*
X0054521Y0183948D01*
X0053757Y0184738D01*
X0053048Y0185577D01*
X0052398Y0186461D01*
X0051809Y0187388D01*
X0051286Y0188353D01*
X0050834Y0189354D01*
X0050456Y0190385D01*
X0050155Y0191441D01*
X0049934Y0192517D01*
X0049794Y0193606D01*
X0049736Y0194703D01*
X0049739Y0194791D01*
X0045786Y0194791D01*
X0045782Y0194512D01*
X0045831Y0193448D01*
X0045938Y0192388D01*
X0046103Y0191335D01*
X0046327Y0190294D01*
X0046608Y0189266D01*
X0046945Y0188255D01*
X0047338Y0187265D01*
X0047784Y0186297D01*
X0048282Y0185356D01*
X0048830Y0184442D01*
X0049427Y0183559D01*
X0050069Y0182709D01*
X0050756Y0181896D01*
X0051486Y0181120D01*
X0052255Y0180383D01*
X0053063Y0179689D01*
X0053907Y0179038D01*
X0054784Y0178434D01*
X0055692Y0177879D01*
X0056631Y0177373D01*
X0057594Y0176919D01*
X0058582Y0176518D01*
X0059589Y0176173D01*
X0060615Y0175885D01*
X0061654Y0175653D01*
X0062706Y0175480D01*
X0063765Y0175366D01*
X0064829Y0175312D01*
X0065904Y0175319D01*
X0066976Y0175386D01*
X0068043Y0175514D01*
X0069102Y0175703D01*
X0070148Y0175951D01*
X0071178Y0176257D01*
X0072190Y0176621D01*
X0073180Y0177040D01*
X0074146Y0177513D01*
X0075084Y0178037D01*
X0075992Y0178612D01*
X0076869Y0179235D01*
X0077710Y0179904D01*
X0078515Y0180617D01*
X0079280Y0181372D01*
X0080004Y0182167D01*
X0080684Y0182999D01*
X0081319Y0183867D01*
X0081907Y0184767D01*
X0082445Y0185698D01*
X0082932Y0186656D01*
X0083366Y0187639D01*
X0083746Y0188644D01*
X0084072Y0189670D01*
X0084340Y0190710D01*
X0084551Y0191764D01*
X0084704Y0192828D01*
X0084799Y0193898D01*
X0084830Y0194789D01*
X0084835Y0194790D01*
X0066133Y0194790D01*
X0066124Y0194451D01*
X0066208Y0193381D01*
X0066383Y0192323D01*
X0066648Y0191283D01*
X0066997Y0190269D01*
X0067425Y0189286D01*
X0067925Y0188337D01*
X0068492Y0187426D01*
X0069119Y0186557D01*
X0069802Y0185729D01*
X0070536Y0184946D01*
X0071318Y0184213D01*
X0072254Y0184700D01*
X0073134Y0185282D01*
X0072613Y0184937D02*
X0070545Y0184937D01*
X0070754Y0184742D02*
X0072317Y0184742D01*
X0071959Y0184547D02*
X0070962Y0184547D01*
X0071171Y0184351D02*
X0071584Y0184351D01*
X0069811Y0185719D02*
X0073665Y0185719D01*
X0073902Y0185914D02*
X0069649Y0185914D01*
X0069488Y0186109D02*
X0074103Y0186109D01*
X0074295Y0186305D02*
X0069327Y0186305D01*
X0069166Y0186500D02*
X0074488Y0186500D01*
X0074680Y0186696D02*
X0069019Y0186696D01*
X0068878Y0186891D02*
X0074836Y0186891D01*
X0074991Y0187086D02*
X0068737Y0187086D01*
X0068596Y0187282D02*
X0075146Y0187282D01*
X0075301Y0187477D02*
X0068460Y0187477D01*
X0068339Y0187672D02*
X0075435Y0187672D01*
X0075561Y0187868D02*
X0068217Y0187868D01*
X0068096Y0188063D02*
X0075686Y0188063D01*
X0075812Y0188258D02*
X0067974Y0188258D01*
X0067864Y0188454D02*
X0075923Y0188454D01*
X0076023Y0188649D02*
X0067761Y0188649D01*
X0067658Y0188844D02*
X0076123Y0188844D01*
X0076223Y0189040D02*
X0067555Y0189040D01*
X0067452Y0189235D02*
X0076319Y0189235D01*
X0076396Y0189431D02*
X0067362Y0189431D01*
X0067277Y0189626D02*
X0076473Y0189626D01*
X0076550Y0189821D02*
X0067192Y0189821D01*
X0067107Y0190017D02*
X0076628Y0190017D01*
X0076692Y0190212D02*
X0067022Y0190212D01*
X0066950Y0190407D02*
X0076749Y0190407D01*
X0076805Y0190603D02*
X0066882Y0190603D01*
X0066815Y0190798D02*
X0076861Y0190798D01*
X0076917Y0190993D02*
X0066748Y0190993D01*
X0066680Y0191189D02*
X0076957Y0191189D01*
X0076994Y0191384D02*
X0066622Y0191384D01*
X0066572Y0191580D02*
X0077030Y0191580D01*
X0077067Y0191775D02*
X0066523Y0191775D01*
X0066473Y0191970D02*
X0077103Y0191970D01*
X0077121Y0192166D02*
X0066423Y0192166D01*
X0066377Y0192361D02*
X0077139Y0192361D01*
X0077157Y0192556D02*
X0066345Y0192556D01*
X0066312Y0192752D02*
X0077174Y0192752D01*
X0080588Y0192361D02*
X0084637Y0192361D01*
X0084609Y0192166D02*
X0080560Y0192166D01*
X0080533Y0191970D02*
X0084581Y0191970D01*
X0084553Y0191775D02*
X0080497Y0191775D01*
X0080456Y0191580D02*
X0084514Y0191580D01*
X0084475Y0191384D02*
X0080415Y0191384D01*
X0080374Y0191189D02*
X0084436Y0191189D01*
X0084396Y0190993D02*
X0080332Y0190993D01*
X0080288Y0190798D02*
X0084357Y0190798D01*
X0084312Y0190603D02*
X0080232Y0190603D01*
X0080177Y0190407D02*
X0084262Y0190407D01*
X0084211Y0190212D02*
X0080122Y0190212D01*
X0080067Y0190017D02*
X0084161Y0190017D01*
X0084111Y0189821D02*
X0080011Y0189821D01*
X0079941Y0189626D02*
X0084058Y0189626D01*
X0083996Y0189431D02*
X0079870Y0189431D01*
X0079799Y0189235D02*
X0083934Y0189235D01*
X0083872Y0189040D02*
X0079729Y0189040D01*
X0079658Y0188844D02*
X0083810Y0188844D01*
X0083748Y0188649D02*
X0079573Y0188649D01*
X0079486Y0188454D02*
X0083674Y0188454D01*
X0083600Y0188258D02*
X0079400Y0188258D01*
X0079313Y0188063D02*
X0083527Y0188063D01*
X0083453Y0187868D02*
X0079226Y0187868D01*
X0079123Y0187672D02*
X0083379Y0187672D01*
X0083295Y0187477D02*
X0079019Y0187477D01*
X0078915Y0187282D02*
X0083208Y0187282D01*
X0083122Y0187086D02*
X0078810Y0187086D01*
X0078704Y0186891D02*
X0083036Y0186891D01*
X0082949Y0186696D02*
X0078581Y0186696D01*
X0078457Y0186500D02*
X0082853Y0186500D01*
X0082753Y0186305D02*
X0078333Y0186305D01*
X0078210Y0186109D02*
X0082654Y0186109D01*
X0082555Y0185914D02*
X0078076Y0185914D01*
X0077932Y0185719D02*
X0082455Y0185719D01*
X0082344Y0185523D02*
X0077788Y0185523D01*
X0077644Y0185328D02*
X0082231Y0185328D01*
X0082118Y0185133D02*
X0077497Y0185133D01*
X0077330Y0184937D02*
X0082005Y0184937D01*
X0081890Y0184742D02*
X0077163Y0184742D01*
X0076995Y0184547D02*
X0081763Y0184547D01*
X0081635Y0184351D02*
X0076828Y0184351D01*
X0076635Y0184156D02*
X0081508Y0184156D01*
X0081380Y0183960D02*
X0076442Y0183960D01*
X0076249Y0183765D02*
X0081245Y0183765D01*
X0081102Y0183570D02*
X0076053Y0183570D01*
X0075831Y0183374D02*
X0080959Y0183374D01*
X0080816Y0183179D02*
X0075609Y0183179D01*
X0075386Y0182984D02*
X0080671Y0182984D01*
X0080512Y0182788D02*
X0075147Y0182788D01*
X0074890Y0182593D02*
X0080352Y0182593D01*
X0080192Y0182398D02*
X0074634Y0182398D01*
X0074369Y0182202D02*
X0080033Y0182202D01*
X0079858Y0182007D02*
X0074073Y0182007D01*
X0073776Y0181811D02*
X0079680Y0181811D01*
X0079502Y0181616D02*
X0073469Y0181616D01*
X0073124Y0181421D02*
X0079324Y0181421D01*
X0079131Y0181225D02*
X0072778Y0181225D01*
X0072401Y0181030D02*
X0078933Y0181030D01*
X0078735Y0180835D02*
X0071994Y0180835D01*
X0071574Y0180639D02*
X0078537Y0180639D01*
X0078319Y0180444D02*
X0071086Y0180444D01*
X0070582Y0180249D02*
X0078099Y0180249D01*
X0077879Y0180053D02*
X0069980Y0180053D01*
X0069298Y0179858D02*
X0077652Y0179858D01*
X0077407Y0179662D02*
X0068485Y0179662D01*
X0067299Y0179467D02*
X0077161Y0179467D01*
X0076915Y0179272D02*
X0053604Y0179272D01*
X0053351Y0179467D02*
X0063746Y0179467D01*
X0062558Y0179662D02*
X0053097Y0179662D01*
X0052867Y0179858D02*
X0061728Y0179858D01*
X0061027Y0180053D02*
X0052639Y0180053D01*
X0052412Y0180249D02*
X0060470Y0180249D01*
X0059935Y0180444D02*
X0052192Y0180444D01*
X0051988Y0180639D02*
X0059481Y0180639D01*
X0059027Y0180835D02*
X0051784Y0180835D01*
X0051580Y0181030D02*
X0058644Y0181030D01*
X0058263Y0181225D02*
X0051386Y0181225D01*
X0051203Y0181421D02*
X0057904Y0181421D01*
X0057578Y0181616D02*
X0051019Y0181616D01*
X0050835Y0181811D02*
X0057252Y0181811D01*
X0056949Y0182007D02*
X0050662Y0182007D01*
X0050497Y0182202D02*
X0056666Y0182202D01*
X0056384Y0182398D02*
X0050332Y0182398D01*
X0050168Y0182593D02*
X0056114Y0182593D01*
X0055867Y0182788D02*
X0050010Y0182788D01*
X0049862Y0182984D02*
X0055621Y0182984D01*
X0055374Y0183179D02*
X0049714Y0183179D01*
X0049566Y0183374D02*
X0055154Y0183374D01*
X0054938Y0183570D02*
X0049420Y0183570D01*
X0049288Y0183765D02*
X0054723Y0183765D01*
X0054509Y0183960D02*
X0049156Y0183960D01*
X0049024Y0184156D02*
X0054320Y0184156D01*
X0054131Y0184351D02*
X0048892Y0184351D01*
X0048768Y0184547D02*
X0053942Y0184547D01*
X0053753Y0184742D02*
X0048651Y0184742D01*
X0048533Y0184937D02*
X0053588Y0184937D01*
X0053423Y0185133D02*
X0048416Y0185133D01*
X0048299Y0185328D02*
X0053258Y0185328D01*
X0053093Y0185523D02*
X0048194Y0185523D01*
X0048090Y0185719D02*
X0052943Y0185719D01*
X0052800Y0185914D02*
X0047987Y0185914D01*
X0047884Y0186109D02*
X0052656Y0186109D01*
X0052512Y0186305D02*
X0047781Y0186305D01*
X0047691Y0186500D02*
X0052372Y0186500D01*
X0052248Y0186696D02*
X0047601Y0186696D01*
X0047510Y0186891D02*
X0052124Y0186891D01*
X0052000Y0187086D02*
X0047420Y0187086D01*
X0047331Y0187282D02*
X0051876Y0187282D01*
X0051761Y0187477D02*
X0047254Y0187477D01*
X0047176Y0187672D02*
X0051655Y0187672D01*
X0051549Y0187868D02*
X0047099Y0187868D01*
X0047021Y0188063D02*
X0051443Y0188063D01*
X0051338Y0188258D02*
X0046944Y0188258D01*
X0046879Y0188454D02*
X0051241Y0188454D01*
X0051153Y0188649D02*
X0046814Y0188649D01*
X0046749Y0188844D02*
X0051065Y0188844D01*
X0050976Y0189040D02*
X0046683Y0189040D01*
X0046618Y0189235D02*
X0050888Y0189235D01*
X0050806Y0189431D02*
X0046563Y0189431D01*
X0046509Y0189626D02*
X0050735Y0189626D01*
X0050663Y0189821D02*
X0046456Y0189821D01*
X0046403Y0190017D02*
X0050591Y0190017D01*
X0050520Y0190212D02*
X0046349Y0190212D01*
X0046302Y0190407D02*
X0050450Y0190407D01*
X0050394Y0190603D02*
X0046260Y0190603D01*
X0046218Y0190798D02*
X0050339Y0190798D01*
X0050283Y0190993D02*
X0046176Y0190993D01*
X0046134Y0191189D02*
X0050227Y0191189D01*
X0050172Y0191384D02*
X0046095Y0191384D01*
X0046065Y0191580D02*
X0050127Y0191580D01*
X0050087Y0191775D02*
X0046034Y0191775D01*
X0046003Y0191970D02*
X0050046Y0191970D01*
X0050006Y0192166D02*
X0045973Y0192166D01*
X0045942Y0192361D02*
X0049966Y0192361D01*
X0049929Y0192556D02*
X0045921Y0192556D01*
X0045901Y0192752D02*
X0049904Y0192752D01*
X0049878Y0192947D02*
X0045881Y0192947D01*
X0045862Y0193142D02*
X0049853Y0193142D01*
X0049828Y0193338D02*
X0045842Y0193338D01*
X0045827Y0193533D02*
X0049803Y0193533D01*
X0049787Y0193729D02*
X0045818Y0193729D01*
X0045809Y0193924D02*
X0049777Y0193924D01*
X0049767Y0194119D02*
X0045800Y0194119D01*
X0045791Y0194315D02*
X0049757Y0194315D01*
X0049746Y0194510D02*
X0045782Y0194510D01*
X0045785Y0194705D02*
X0049736Y0194705D01*
X0049744Y0194901D02*
X0045790Y0194901D01*
X0045793Y0195096D02*
X0049748Y0195096D01*
X0049752Y0195291D02*
X0045795Y0195291D01*
X0045797Y0195487D02*
X0049756Y0195487D01*
X0049760Y0195682D02*
X0045804Y0195682D01*
X0045818Y0195878D02*
X0049772Y0195878D01*
X0049790Y0196073D02*
X0045831Y0196073D01*
X0045845Y0196268D02*
X0049809Y0196268D01*
X0049827Y0196464D02*
X0045858Y0196464D01*
X0045872Y0196659D02*
X0049845Y0196659D01*
X0049865Y0196854D02*
X0045895Y0196854D01*
X0045920Y0197050D02*
X0049898Y0197050D01*
X0049931Y0197245D02*
X0045944Y0197245D01*
X0045969Y0197440D02*
X0049964Y0197440D01*
X0049997Y0197636D02*
X0045994Y0197636D01*
X0046022Y0197831D02*
X0050029Y0197831D01*
X0050073Y0198026D02*
X0046058Y0198026D01*
X0046094Y0198222D02*
X0050120Y0198222D01*
X0050168Y0198417D02*
X0046130Y0198417D01*
X0046166Y0198613D02*
X0050216Y0198613D01*
X0050263Y0198808D02*
X0046202Y0198808D01*
X0046248Y0199003D02*
X0050317Y0199003D01*
X0050380Y0199199D02*
X0046295Y0199199D01*
X0046343Y0199394D02*
X0050443Y0199394D01*
X0050505Y0199589D02*
X0046391Y0199589D01*
X0046438Y0199785D02*
X0050568Y0199785D01*
X0050634Y0199980D02*
X0046491Y0199980D01*
X0046550Y0200175D02*
X0050712Y0200175D01*
X0050791Y0200371D02*
X0046610Y0200371D01*
X0046670Y0200566D02*
X0050870Y0200566D01*
X0050948Y0200762D02*
X0046729Y0200762D01*
X0046790Y0200957D02*
X0051028Y0200957D01*
X0051123Y0201152D02*
X0046861Y0201152D01*
X0046933Y0201348D02*
X0051218Y0201348D01*
X0051313Y0201543D02*
X0047004Y0201543D01*
X0047076Y0201738D02*
X0051408Y0201738D01*
X0051505Y0201934D02*
X0047148Y0201934D01*
X0047230Y0202129D02*
X0051617Y0202129D01*
X0051729Y0202324D02*
X0047314Y0202324D01*
X0047398Y0202520D02*
X0051841Y0202520D01*
X0051953Y0202715D02*
X0047483Y0202715D01*
X0047567Y0202911D02*
X0052072Y0202911D01*
X0052202Y0203106D02*
X0047661Y0203106D01*
X0047758Y0203301D02*
X0052333Y0203301D01*
X0052463Y0203497D02*
X0047856Y0203497D01*
X0047953Y0203692D02*
X0052593Y0203692D01*
X0052740Y0203887D02*
X0048051Y0203887D01*
X0048159Y0204083D02*
X0052890Y0204083D01*
X0053040Y0204278D02*
X0048270Y0204278D01*
X0048381Y0204473D02*
X0053189Y0204473D01*
X0053350Y0204669D02*
X0048493Y0204669D01*
X0048604Y0204864D02*
X0053521Y0204864D01*
X0053691Y0205060D02*
X0048729Y0205060D01*
X0048855Y0205255D02*
X0053862Y0205255D01*
X0054042Y0205450D02*
X0048981Y0205450D01*
X0049107Y0205646D02*
X0054236Y0205646D01*
X0054431Y0205841D02*
X0049237Y0205841D01*
X0049378Y0206036D02*
X0054625Y0206036D01*
X0054833Y0206232D02*
X0049520Y0206232D01*
X0049662Y0206427D02*
X0055054Y0206427D01*
X0055274Y0206622D02*
X0049803Y0206622D01*
X0049957Y0206818D02*
X0055495Y0206818D01*
X0055743Y0207013D02*
X0050116Y0207013D01*
X0050274Y0207208D02*
X0055995Y0207208D01*
X0056246Y0207404D02*
X0050433Y0207404D01*
X0050599Y0207599D02*
X0056517Y0207599D01*
X0056804Y0207795D02*
X0050776Y0207795D01*
X0050953Y0207990D02*
X0057092Y0207990D01*
X0057399Y0208185D02*
X0051131Y0208185D01*
X0051313Y0208381D02*
X0057731Y0208381D01*
X0058062Y0208576D02*
X0051511Y0208576D01*
X0051708Y0208771D02*
X0058430Y0208771D01*
X0058816Y0208967D02*
X0051906Y0208967D01*
X0052111Y0209162D02*
X0059217Y0209162D01*
X0059676Y0209357D02*
X0052332Y0209357D01*
X0052552Y0209553D02*
X0060140Y0209553D01*
X0060701Y0209748D02*
X0052773Y0209748D01*
X0053010Y0209944D02*
X0061302Y0209944D01*
X0062019Y0210139D02*
X0053256Y0210139D01*
X0053503Y0210334D02*
X0062953Y0210334D01*
X0064543Y0210530D02*
X0053754Y0210530D01*
X0054031Y0210725D02*
X0076572Y0210725D01*
X0076850Y0210530D02*
X0066514Y0210530D01*
X0068005Y0210334D02*
X0077100Y0210334D01*
X0077350Y0210139D02*
X0068923Y0210139D01*
X0069662Y0209944D02*
X0077600Y0209944D01*
X0077832Y0209748D02*
X0070243Y0209748D01*
X0070787Y0209553D02*
X0078056Y0209553D01*
X0078280Y0209357D02*
X0071255Y0209357D01*
X0071708Y0209162D02*
X0078502Y0209162D01*
X0078703Y0208967D02*
X0072096Y0208967D01*
X0072483Y0208771D02*
X0078905Y0208771D01*
X0079106Y0208576D02*
X0072832Y0208576D01*
X0073160Y0208381D02*
X0079301Y0208381D01*
X0079482Y0208185D02*
X0073488Y0208185D01*
X0073780Y0207990D02*
X0079662Y0207990D01*
X0079843Y0207795D02*
X0074061Y0207795D01*
X0074343Y0207599D02*
X0080018Y0207599D01*
X0080181Y0207404D02*
X0074602Y0207404D01*
X0074845Y0207208D02*
X0080343Y0207208D01*
X0080505Y0207013D02*
X0075089Y0207013D01*
X0075329Y0206818D02*
X0080666Y0206818D01*
X0080811Y0206622D02*
X0075540Y0206622D01*
X0075751Y0206427D02*
X0080956Y0206427D01*
X0081102Y0206232D02*
X0075963Y0206232D01*
X0076165Y0206036D02*
X0081247Y0206036D01*
X0081381Y0205841D02*
X0076350Y0205841D01*
X0076534Y0205646D02*
X0081511Y0205646D01*
X0081641Y0205450D02*
X0076718Y0205450D01*
X0076896Y0205255D02*
X0081770Y0205255D01*
X0081898Y0205060D02*
X0077056Y0205060D01*
X0077216Y0204864D02*
X0082012Y0204864D01*
X0082127Y0204669D02*
X0077376Y0204669D01*
X0077536Y0204473D02*
X0082242Y0204473D01*
X0082357Y0204278D02*
X0077676Y0204278D01*
X0077815Y0204083D02*
X0082466Y0204083D01*
X0082567Y0203887D02*
X0077953Y0203887D01*
X0078091Y0203692D02*
X0082668Y0203692D01*
X0082769Y0203497D02*
X0078223Y0203497D01*
X0078342Y0203301D02*
X0082870Y0203301D01*
X0082963Y0203106D02*
X0078460Y0203106D01*
X0078579Y0202911D02*
X0083051Y0202911D01*
X0083139Y0202715D02*
X0078698Y0202715D01*
X0078806Y0202520D02*
X0083227Y0202520D01*
X0083314Y0202324D02*
X0078907Y0202324D01*
X0079008Y0202129D02*
X0083394Y0202129D01*
X0083470Y0201934D02*
X0079108Y0201934D01*
X0079209Y0201738D02*
X0083545Y0201738D01*
X0083620Y0201543D02*
X0079300Y0201543D01*
X0079383Y0201348D02*
X0083695Y0201348D01*
X0083764Y0201152D02*
X0079467Y0201152D01*
X0079551Y0200957D02*
X0083827Y0200957D01*
X0083890Y0200762D02*
X0079635Y0200762D01*
X0079712Y0200566D02*
X0083954Y0200566D01*
X0084017Y0200371D02*
X0079780Y0200371D01*
X0079848Y0200175D02*
X0084076Y0200175D01*
X0084780Y0196268D02*
X0066228Y0196268D01*
X0066210Y0196073D02*
X0084799Y0196073D01*
X0084808Y0195878D02*
X0066192Y0195878D01*
X0066174Y0195682D02*
X0084815Y0195682D01*
X0084822Y0195487D02*
X0066157Y0195487D01*
X0066152Y0195291D02*
X0084829Y0195291D01*
X0084837Y0195096D02*
X0066147Y0195096D01*
X0066142Y0194901D02*
X0084838Y0194901D01*
X0084827Y0194705D02*
X0066131Y0194705D01*
X0066126Y0194510D02*
X0084820Y0194510D01*
X0084814Y0194315D02*
X0066135Y0194315D01*
X0066150Y0194119D02*
X0084807Y0194119D01*
X0084800Y0193924D02*
X0066165Y0193924D01*
X0066181Y0193729D02*
X0084784Y0193729D01*
X0084767Y0193533D02*
X0066196Y0193533D01*
X0066215Y0193338D02*
X0084750Y0193338D01*
X0084732Y0193142D02*
X0066247Y0193142D01*
X0066280Y0192947D02*
X0084715Y0192947D01*
X0084693Y0192752D02*
X0080644Y0192752D01*
X0080616Y0192556D02*
X0084665Y0192556D01*
X0076646Y0179076D02*
X0053857Y0179076D01*
X0054135Y0178881D02*
X0076371Y0178881D01*
X0076096Y0178686D02*
X0054419Y0178686D01*
X0054703Y0178490D02*
X0075800Y0178490D01*
X0075491Y0178295D02*
X0055012Y0178295D01*
X0055331Y0178100D02*
X0075182Y0178100D01*
X0074846Y0177904D02*
X0055651Y0177904D01*
X0056007Y0177709D02*
X0074497Y0177709D01*
X0074147Y0177514D02*
X0056370Y0177514D01*
X0056746Y0177318D02*
X0073749Y0177318D01*
X0073350Y0177123D02*
X0057161Y0177123D01*
X0057575Y0176927D02*
X0072915Y0176927D01*
X0072453Y0176732D02*
X0058054Y0176732D01*
X0058537Y0176537D02*
X0071956Y0176537D01*
X0071413Y0176341D02*
X0059099Y0176341D01*
X0059687Y0176146D02*
X0070804Y0176146D01*
X0070147Y0175951D02*
X0060380Y0175951D01*
X0061195Y0175755D02*
X0069323Y0175755D01*
X0068300Y0175560D02*
X0062220Y0175560D01*
X0063803Y0175365D02*
X0066629Y0175365D01*
X0068762Y0206232D02*
X0062369Y0206232D01*
X0063423Y0206427D02*
X0067642Y0206427D01*
X0068777Y0214046D02*
X0061791Y0214046D01*
X0060873Y0213851D02*
X0069704Y0213851D01*
X0070466Y0213655D02*
X0060119Y0213655D01*
X0059446Y0213460D02*
X0071139Y0213460D01*
X0071698Y0213265D02*
X0058885Y0213265D01*
X0058345Y0213069D02*
X0072240Y0213069D01*
X0072713Y0212874D02*
X0057872Y0212874D01*
X0057407Y0212679D02*
X0073181Y0212679D01*
X0073588Y0212483D02*
X0057001Y0212483D01*
X0056594Y0212288D02*
X0073995Y0212288D01*
X0074366Y0212093D02*
X0056225Y0212093D01*
X0055870Y0211897D02*
X0074723Y0211897D01*
X0075076Y0211702D02*
X0055517Y0211702D01*
X0055205Y0211506D02*
X0075390Y0211506D01*
X0075705Y0211311D02*
X0054894Y0211311D01*
X0054584Y0211116D02*
X0076012Y0211116D01*
X0076292Y0210920D02*
X0054307Y0210920D01*
X0063125Y0214242D02*
X0067453Y0214242D01*
D14*
X0068205Y0165823D02*
X0031985Y0165823D01*
X0031985Y0144831D01*
X0035804Y0144831D01*
X0035804Y0139008D01*
X0031985Y0139008D01*
X0031985Y0108866D01*
X0031985Y0094039D01*
X0031985Y0074831D01*
X0035804Y0074831D01*
X0035804Y0069008D01*
X0031985Y0069008D01*
X0031985Y0037083D01*
X0068205Y0037083D01*
X0068205Y0051035D01*
X0042635Y0056433D02*
X0032497Y0051413D01*
X0032497Y0061453D01*
X0042635Y0056433D01*
X0042478Y0056510D02*
X0032497Y0056510D01*
X0032497Y0055712D02*
X0041178Y0055712D01*
X0040866Y0057309D02*
X0032497Y0057309D01*
X0032497Y0058107D02*
X0039253Y0058107D01*
X0037640Y0058906D02*
X0032497Y0058906D01*
X0032497Y0059705D02*
X0036027Y0059705D01*
X0034415Y0060503D02*
X0032497Y0060503D01*
X0032497Y0061302D02*
X0032802Y0061302D01*
X0032497Y0054913D02*
X0039565Y0054913D01*
X0037953Y0054115D02*
X0032497Y0054115D01*
X0032497Y0053316D02*
X0036340Y0053316D01*
X0034727Y0052518D02*
X0032497Y0052518D01*
X0032497Y0051719D02*
X0033115Y0051719D01*
X0031985Y0069008D02*
X0031985Y0074831D01*
X0031985Y0094039D02*
X0059800Y0094039D01*
X0059800Y0108866D01*
X0031985Y0108866D01*
X0031985Y0139008D02*
X0031985Y0144831D01*
X0068205Y0151819D02*
X0068205Y0165823D01*
D15*
X0272438Y0032555D02*
X0272438Y0347516D01*
X0414170Y0347516D01*
X0414170Y0032555D01*
X0272438Y0032555D01*
X0296060Y0048303D02*
X0390548Y0048303D01*
X0390548Y0331768D01*
X0296060Y0331768D01*
X0296060Y0048303D01*
X0303934Y0056177D02*
X0307871Y0056177D01*
X0307871Y0323894D01*
X0303934Y0323894D01*
X0303934Y0056177D01*
X0327556Y0064051D02*
X0359052Y0064051D01*
X0359337Y0064054D01*
X0359623Y0064065D01*
X0359908Y0064082D01*
X0360192Y0064106D01*
X0360476Y0064137D01*
X0360759Y0064175D01*
X0361040Y0064220D01*
X0361321Y0064271D01*
X0361601Y0064329D01*
X0361879Y0064394D01*
X0362155Y0064466D01*
X0362429Y0064544D01*
X0362702Y0064629D01*
X0362972Y0064721D01*
X0363240Y0064819D01*
X0363506Y0064923D01*
X0363769Y0065034D01*
X0364029Y0065151D01*
X0364287Y0065274D01*
X0364541Y0065404D01*
X0364792Y0065540D01*
X0365040Y0065681D01*
X0365284Y0065829D01*
X0365525Y0065982D01*
X0365761Y0066142D01*
X0365994Y0066307D01*
X0366223Y0066477D01*
X0366448Y0066653D01*
X0366668Y0066835D01*
X0366884Y0067021D01*
X0367095Y0067213D01*
X0367302Y0067410D01*
X0367504Y0067612D01*
X0367701Y0067819D01*
X0367893Y0068030D01*
X0368079Y0068246D01*
X0368261Y0068466D01*
X0368437Y0068691D01*
X0368607Y0068920D01*
X0368772Y0069153D01*
X0368932Y0069389D01*
X0369085Y0069630D01*
X0369233Y0069874D01*
X0369374Y0070122D01*
X0369510Y0070373D01*
X0369640Y0070627D01*
X0369763Y0070885D01*
X0369880Y0071145D01*
X0369991Y0071408D01*
X0370095Y0071674D01*
X0370193Y0071942D01*
X0370285Y0072212D01*
X0370370Y0072485D01*
X0370448Y0072759D01*
X0370520Y0073035D01*
X0370585Y0073313D01*
X0370643Y0073593D01*
X0370694Y0073874D01*
X0370739Y0074155D01*
X0370777Y0074438D01*
X0370808Y0074722D01*
X0370832Y0075006D01*
X0370849Y0075291D01*
X0370860Y0075577D01*
X0370863Y0075862D01*
X0370863Y0304209D01*
X0370860Y0304494D01*
X0370849Y0304780D01*
X0370832Y0305065D01*
X0370808Y0305349D01*
X0370777Y0305633D01*
X0370739Y0305916D01*
X0370694Y0306197D01*
X0370643Y0306478D01*
X0370585Y0306758D01*
X0370520Y0307036D01*
X0370448Y0307312D01*
X0370370Y0307586D01*
X0370285Y0307859D01*
X0370193Y0308129D01*
X0370095Y0308397D01*
X0369991Y0308663D01*
X0369880Y0308926D01*
X0369763Y0309186D01*
X0369640Y0309444D01*
X0369510Y0309698D01*
X0369374Y0309949D01*
X0369233Y0310197D01*
X0369085Y0310441D01*
X0368932Y0310682D01*
X0368772Y0310918D01*
X0368607Y0311151D01*
X0368437Y0311380D01*
X0368261Y0311605D01*
X0368079Y0311825D01*
X0367893Y0312041D01*
X0367701Y0312252D01*
X0367504Y0312459D01*
X0367302Y0312661D01*
X0367095Y0312858D01*
X0366884Y0313050D01*
X0366668Y0313236D01*
X0366448Y0313418D01*
X0366223Y0313594D01*
X0365994Y0313764D01*
X0365761Y0313929D01*
X0365525Y0314089D01*
X0365284Y0314242D01*
X0365040Y0314390D01*
X0364792Y0314531D01*
X0364541Y0314667D01*
X0364287Y0314797D01*
X0364029Y0314920D01*
X0363769Y0315037D01*
X0363506Y0315148D01*
X0363240Y0315252D01*
X0362972Y0315350D01*
X0362702Y0315442D01*
X0362429Y0315527D01*
X0362155Y0315605D01*
X0361879Y0315677D01*
X0361601Y0315742D01*
X0361321Y0315800D01*
X0361040Y0315851D01*
X0360759Y0315896D01*
X0360476Y0315934D01*
X0360192Y0315965D01*
X0359908Y0315989D01*
X0359623Y0316006D01*
X0359337Y0316017D01*
X0359052Y0316020D01*
X0327556Y0316020D01*
X0327271Y0316017D01*
X0326985Y0316006D01*
X0326700Y0315989D01*
X0326416Y0315965D01*
X0326132Y0315934D01*
X0325849Y0315896D01*
X0325568Y0315851D01*
X0325287Y0315800D01*
X0325007Y0315742D01*
X0324729Y0315677D01*
X0324453Y0315605D01*
X0324179Y0315527D01*
X0323906Y0315442D01*
X0323636Y0315350D01*
X0323368Y0315252D01*
X0323102Y0315148D01*
X0322839Y0315037D01*
X0322579Y0314920D01*
X0322321Y0314797D01*
X0322067Y0314667D01*
X0321816Y0314531D01*
X0321568Y0314390D01*
X0321324Y0314242D01*
X0321083Y0314089D01*
X0320847Y0313929D01*
X0320614Y0313764D01*
X0320385Y0313594D01*
X0320160Y0313418D01*
X0319940Y0313236D01*
X0319724Y0313050D01*
X0319513Y0312858D01*
X0319306Y0312661D01*
X0319104Y0312459D01*
X0318907Y0312252D01*
X0318715Y0312041D01*
X0318529Y0311825D01*
X0318347Y0311605D01*
X0318171Y0311380D01*
X0318001Y0311151D01*
X0317836Y0310918D01*
X0317676Y0310682D01*
X0317523Y0310441D01*
X0317375Y0310197D01*
X0317234Y0309949D01*
X0317098Y0309698D01*
X0316968Y0309444D01*
X0316845Y0309186D01*
X0316728Y0308926D01*
X0316617Y0308663D01*
X0316513Y0308397D01*
X0316415Y0308129D01*
X0316323Y0307859D01*
X0316238Y0307586D01*
X0316160Y0307312D01*
X0316088Y0307036D01*
X0316023Y0306758D01*
X0315965Y0306478D01*
X0315914Y0306197D01*
X0315869Y0305916D01*
X0315831Y0305633D01*
X0315800Y0305349D01*
X0315776Y0305065D01*
X0315759Y0304780D01*
X0315748Y0304494D01*
X0315745Y0304209D01*
X0315745Y0075862D01*
X0315748Y0075577D01*
X0315759Y0075291D01*
X0315776Y0075006D01*
X0315800Y0074722D01*
X0315831Y0074438D01*
X0315869Y0074155D01*
X0315914Y0073874D01*
X0315965Y0073593D01*
X0316023Y0073313D01*
X0316088Y0073035D01*
X0316160Y0072759D01*
X0316238Y0072485D01*
X0316323Y0072212D01*
X0316415Y0071942D01*
X0316513Y0071674D01*
X0316617Y0071408D01*
X0316728Y0071145D01*
X0316845Y0070885D01*
X0316968Y0070627D01*
X0317098Y0070373D01*
X0317234Y0070122D01*
X0317375Y0069874D01*
X0317523Y0069630D01*
X0317676Y0069389D01*
X0317836Y0069153D01*
X0318001Y0068920D01*
X0318171Y0068691D01*
X0318347Y0068466D01*
X0318529Y0068246D01*
X0318715Y0068030D01*
X0318907Y0067819D01*
X0319104Y0067612D01*
X0319306Y0067410D01*
X0319513Y0067213D01*
X0319724Y0067021D01*
X0319940Y0066835D01*
X0320160Y0066653D01*
X0320385Y0066477D01*
X0320614Y0066307D01*
X0320847Y0066142D01*
X0321083Y0065982D01*
X0321324Y0065829D01*
X0321568Y0065681D01*
X0321816Y0065540D01*
X0322067Y0065404D01*
X0322321Y0065274D01*
X0322579Y0065151D01*
X0322839Y0065034D01*
X0323102Y0064923D01*
X0323368Y0064819D01*
X0323636Y0064721D01*
X0323906Y0064629D01*
X0324179Y0064544D01*
X0324453Y0064466D01*
X0324729Y0064394D01*
X0325007Y0064329D01*
X0325287Y0064271D01*
X0325568Y0064220D01*
X0325849Y0064175D01*
X0326132Y0064137D01*
X0326416Y0064106D01*
X0326700Y0064082D01*
X0326985Y0064065D01*
X0327271Y0064054D01*
X0327556Y0064051D01*
X0378737Y0056177D02*
X0382674Y0056177D01*
X0382674Y0323894D01*
X0378737Y0323894D01*
X0378737Y0056177D01*
D16*
X0270788Y0138220D02*
X0270788Y0142424D01*
X0269738Y0144666D02*
X0265534Y0144666D01*
X0264483Y0145716D01*
X0264483Y0147818D01*
X0265534Y0148869D01*
X0264483Y0151111D02*
X0264483Y0154264D01*
X0265534Y0155315D01*
X0269738Y0155315D01*
X0270788Y0154264D01*
X0270788Y0151111D01*
X0264483Y0151111D01*
X0269738Y0148869D02*
X0270788Y0147818D01*
X0270788Y0145716D01*
X0269738Y0144666D01*
X0270788Y0138220D02*
X0264483Y0138220D01*
X0266585Y0157557D02*
X0264483Y0159658D01*
X0270788Y0159658D01*
X0270788Y0157557D02*
X0270788Y0161760D01*
X0101706Y0058537D02*
X0099604Y0056435D01*
X0099604Y0057486D02*
X0099604Y0054334D01*
X0101706Y0054334D02*
X0095400Y0054334D01*
X0095400Y0057486D01*
X0096451Y0058537D01*
X0098553Y0058537D01*
X0099604Y0057486D01*
X0101706Y0052092D02*
X0095400Y0052092D01*
X0095400Y0047888D02*
X0101706Y0047888D01*
X0099604Y0049990D01*
X0101706Y0052092D01*
X0098553Y0045646D02*
X0099604Y0044595D01*
X0099604Y0041443D01*
X0101706Y0041443D02*
X0095400Y0041443D01*
X0095400Y0044595D01*
X0096451Y0045646D01*
X0098553Y0045646D01*
D17*
X0122831Y0052240D03*
D18*
X0328617Y0260902D03*
X0350117Y0260902D03*
X0350117Y0284524D03*
X0328617Y0284524D03*
X0328617Y0308146D03*
X0350117Y0308146D03*
D19*
X0343367Y0302585D02*
X0343367Y0302001D01*
X0342783Y0301418D01*
X0343367Y0300834D01*
X0343367Y0300250D01*
X0342783Y0299666D01*
X0341616Y0299666D01*
X0341032Y0300250D01*
X0339776Y0299666D02*
X0338608Y0300834D01*
X0339192Y0300834D02*
X0337441Y0300834D01*
X0337441Y0299666D02*
X0337441Y0303169D01*
X0339192Y0303169D01*
X0339776Y0302585D01*
X0339776Y0301418D01*
X0339192Y0300834D01*
X0341032Y0302585D02*
X0341616Y0303169D01*
X0342783Y0303169D01*
X0343367Y0302585D01*
X0342783Y0301418D02*
X0342200Y0301418D01*
X0342783Y0279547D02*
X0341616Y0279547D01*
X0341032Y0278963D01*
X0339776Y0278963D02*
X0339776Y0277796D01*
X0339192Y0277212D01*
X0337441Y0277212D01*
X0338608Y0277212D02*
X0339776Y0276044D01*
X0341032Y0276044D02*
X0343367Y0278379D01*
X0343367Y0278963D01*
X0342783Y0279547D01*
X0339776Y0278963D02*
X0339192Y0279547D01*
X0337441Y0279547D01*
X0337441Y0276044D01*
X0341032Y0276044D02*
X0343367Y0276044D01*
X0340356Y0256025D02*
X0340356Y0252422D01*
X0339155Y0252422D02*
X0341557Y0252422D01*
X0339155Y0254824D02*
X0340356Y0256025D01*
X0337874Y0255425D02*
X0337874Y0254224D01*
X0337274Y0253623D01*
X0335472Y0253623D01*
X0335472Y0252422D02*
X0335472Y0256025D01*
X0337274Y0256025D01*
X0337874Y0255425D01*
X0336673Y0253623D02*
X0337874Y0252422D01*
M02*
