G75*
%MOIN*%
%OFA0B0*%
%FSLAX25Y25*%
%IPPOS*%
%LPD*%
%AMOC8*
5,1,8,0,0,1.08239X$1,22.5*
%
%ADD10OC8,0.07087*%
%ADD11C,0.07087*%
%ADD12OC8,0.05906*%
%ADD13C,0.06350*%
%ADD14C,0.07087*%
%ADD15C,0.07000*%
%ADD16OC8,0.17717*%
%ADD17OC8,0.07600*%
%ADD18C,0.08350*%
%ADD19C,0.10000*%
%ADD20OC8,0.07000*%
%ADD21OC8,0.05600*%
%ADD22C,0.03200*%
%ADD23C,0.01575*%
%ADD24C,0.01600*%
%ADD25C,0.02400*%
%ADD26OC8,0.05512*%
%ADD27C,0.05512*%
D10*
X0187792Y0216571D03*
X0197792Y0216571D03*
X0207792Y0216571D03*
X0217792Y0216571D03*
X0207792Y0281571D03*
X0207792Y0291571D03*
D11*
X0214249Y0296571D02*
X0221335Y0296571D01*
X0221335Y0306571D02*
X0214249Y0306571D01*
X0214249Y0316571D02*
X0221335Y0316571D01*
X0221335Y0326571D02*
X0214249Y0326571D01*
X0214249Y0286571D02*
X0221335Y0286571D01*
X0221335Y0276571D02*
X0214249Y0276571D01*
X0214249Y0266571D02*
X0221335Y0266571D01*
X0221335Y0256571D02*
X0214249Y0256571D01*
X0214249Y0246571D02*
X0221335Y0246571D01*
X0221335Y0236571D02*
X0214249Y0236571D01*
X0214249Y0226571D02*
X0221335Y0226571D01*
X0161335Y0226571D02*
X0154249Y0226571D01*
X0154249Y0216571D02*
X0161335Y0216571D01*
X0161335Y0236571D02*
X0154249Y0236571D01*
X0154249Y0246571D02*
X0161335Y0246571D01*
X0161335Y0256571D02*
X0154249Y0256571D01*
X0154249Y0266571D02*
X0161335Y0266571D01*
X0161335Y0276571D02*
X0154249Y0276571D01*
X0154249Y0286571D02*
X0161335Y0286571D01*
X0161335Y0296571D02*
X0154249Y0296571D01*
X0154249Y0306571D02*
X0161335Y0306571D01*
X0161335Y0316571D02*
X0154249Y0316571D01*
X0154249Y0326571D02*
X0161335Y0326571D01*
D12*
X0093698Y0332752D03*
X0083698Y0332752D03*
X0080351Y0276020D03*
X0090351Y0276020D03*
X0119288Y0094209D03*
X0129288Y0094209D03*
D13*
X0135365Y0109878D02*
X0141715Y0109878D01*
X0141715Y0119878D02*
X0135365Y0119878D01*
X0135365Y0129878D02*
X0141715Y0129878D01*
X0141715Y0139878D02*
X0135365Y0139878D01*
X0135365Y0162240D02*
X0141715Y0162240D01*
X0141715Y0172240D02*
X0135365Y0172240D01*
X0135365Y0182240D02*
X0141715Y0182240D01*
X0141715Y0192240D02*
X0135365Y0192240D01*
X0111715Y0192240D02*
X0105365Y0192240D01*
X0105365Y0182240D02*
X0111715Y0182240D01*
X0111715Y0172240D02*
X0105365Y0172240D01*
X0105365Y0162240D02*
X0111715Y0162240D01*
X0111715Y0139878D02*
X0105365Y0139878D01*
X0105365Y0129878D02*
X0111715Y0129878D01*
X0111715Y0119878D02*
X0105365Y0119878D01*
X0105365Y0109878D02*
X0111715Y0109878D01*
X0101085Y0229957D02*
X0094735Y0229957D01*
X0094735Y0239957D02*
X0101085Y0239957D01*
X0101085Y0249957D02*
X0094735Y0249957D01*
X0094735Y0259957D02*
X0101085Y0259957D01*
X0124735Y0259957D02*
X0131085Y0259957D01*
X0131085Y0249957D02*
X0124735Y0249957D01*
X0124735Y0239957D02*
X0131085Y0239957D01*
X0131085Y0229957D02*
X0124735Y0229957D01*
X0076754Y0230350D02*
X0070405Y0230350D01*
X0070405Y0240350D02*
X0076754Y0240350D01*
X0076754Y0250350D02*
X0070405Y0250350D01*
X0070405Y0260350D02*
X0076754Y0260350D01*
X0046754Y0260350D02*
X0040405Y0260350D01*
X0040405Y0250350D02*
X0046754Y0250350D01*
X0046754Y0240350D02*
X0040405Y0240350D01*
X0040405Y0230350D02*
X0046754Y0230350D01*
X0047935Y0292161D02*
X0041586Y0292161D01*
X0041586Y0302161D02*
X0047935Y0302161D01*
X0047935Y0312161D02*
X0041586Y0312161D01*
X0041586Y0322161D02*
X0047935Y0322161D01*
X0071586Y0322161D02*
X0077935Y0322161D01*
X0077935Y0312161D02*
X0071586Y0312161D01*
X0071586Y0302161D02*
X0077935Y0302161D01*
X0077935Y0292161D02*
X0071586Y0292161D01*
X0094735Y0291374D02*
X0101085Y0291374D01*
X0101085Y0301374D02*
X0094735Y0301374D01*
X0094735Y0311374D02*
X0101085Y0311374D01*
X0101085Y0321374D02*
X0094735Y0321374D01*
X0124735Y0321374D02*
X0131085Y0321374D01*
X0131085Y0311374D02*
X0124735Y0311374D01*
X0124735Y0301374D02*
X0131085Y0301374D01*
X0131085Y0291374D02*
X0124735Y0291374D01*
D14*
X0080587Y0146453D03*
X0070587Y0146453D03*
X0070587Y0136453D03*
X0080587Y0136453D03*
X0080587Y0126453D03*
X0070587Y0126453D03*
X0070587Y0116453D03*
X0070587Y0106453D03*
X0080587Y0106453D03*
X0080587Y0116453D03*
X0080587Y0096453D03*
X0070587Y0096453D03*
X0070587Y0086453D03*
X0070587Y0076453D03*
X0080587Y0076453D03*
X0080587Y0086453D03*
X0080587Y0066453D03*
X0070587Y0066453D03*
X0070587Y0056453D03*
X0080587Y0056453D03*
D15*
X0278938Y0064051D02*
X0285938Y0064051D01*
X0285938Y0074051D02*
X0278938Y0074051D01*
X0278938Y0084051D02*
X0285938Y0084051D01*
X0285938Y0094051D02*
X0278938Y0094051D01*
X0278938Y0104051D02*
X0285938Y0104051D01*
X0285938Y0114051D02*
X0278938Y0114051D01*
X0278938Y0124051D02*
X0285938Y0124051D01*
X0285938Y0134051D02*
X0278938Y0134051D01*
X0278938Y0144051D02*
X0285938Y0144051D01*
X0285938Y0154051D02*
X0278938Y0154051D01*
X0278938Y0164051D02*
X0285938Y0164051D01*
X0285938Y0174051D02*
X0278938Y0174051D01*
X0278938Y0184051D02*
X0285938Y0184051D01*
X0285938Y0194051D02*
X0278938Y0194051D01*
X0278938Y0204051D02*
X0285938Y0204051D01*
X0285938Y0214051D02*
X0278938Y0214051D01*
D16*
X0282438Y0337516D03*
X0404170Y0337516D03*
X0404170Y0042555D03*
X0282438Y0042555D03*
D17*
X0312713Y0040429D03*
X0322713Y0040429D03*
X0218698Y0046138D03*
X0218698Y0056138D03*
X0218698Y0066138D03*
X0218698Y0076138D03*
X0218698Y0086138D03*
X0218698Y0096138D03*
X0218698Y0106138D03*
X0218698Y0116138D03*
X0218698Y0126138D03*
X0218698Y0136138D03*
X0218698Y0146138D03*
X0218698Y0156138D03*
X0218698Y0166138D03*
X0218698Y0176138D03*
X0218698Y0186138D03*
X0218698Y0196138D03*
X0308776Y0339642D03*
X0318776Y0339642D03*
X0199792Y0046138D03*
X0189792Y0046138D03*
X0179792Y0046138D03*
X0169792Y0046138D03*
D18*
X0132731Y0048065D02*
X0132731Y0056415D01*
X0112931Y0056415D02*
X0112931Y0048065D01*
D19*
X0236020Y0260902D03*
X0261611Y0260902D03*
X0261611Y0288461D03*
X0236020Y0288461D03*
X0236020Y0316020D03*
X0261611Y0316020D03*
D20*
X0324367Y0308146D03*
X0324367Y0284524D03*
X0324367Y0260902D03*
X0354367Y0260902D03*
X0354367Y0284524D03*
X0354367Y0308146D03*
D21*
X0231099Y0233343D03*
X0187792Y0182161D03*
X0162201Y0182161D03*
X0154327Y0195941D03*
X0138579Y0205783D03*
X0128737Y0180193D03*
X0101178Y0199878D03*
X0085430Y0209720D03*
X0069682Y0221531D03*
X0063776Y0235311D03*
X0059839Y0249091D03*
X0055902Y0256965D03*
X0040154Y0268776D03*
X0036217Y0288461D03*
X0063776Y0280587D03*
X0085430Y0290429D03*
X0087398Y0314051D03*
X0114957Y0335705D03*
X0118894Y0314051D03*
X0118894Y0300272D03*
X0142516Y0288461D03*
X0170075Y0266807D03*
X0138579Y0256965D03*
X0114957Y0258933D03*
X0108186Y0249957D03*
X0087398Y0260902D03*
X0083461Y0245154D03*
X0087398Y0229406D03*
X0103146Y0219563D03*
X0048028Y0209720D03*
X0040154Y0215626D03*
X0080587Y0157476D03*
X0091335Y0140823D03*
X0059839Y0144760D03*
X0097241Y0103421D03*
X0091335Y0083736D03*
X0095863Y0076453D03*
X0093737Y0066453D03*
X0091335Y0054209D03*
X0142516Y0085705D03*
X0187792Y0081768D03*
X0189760Y0069957D03*
X0199603Y0069957D03*
X0233068Y0042398D03*
X0128737Y0134917D03*
X0140548Y0148697D03*
X0140548Y0331768D03*
X0053934Y0339642D03*
D22*
X0138579Y0256965D02*
X0138579Y0205783D01*
X0170075Y0211689D02*
X0199603Y0182161D01*
X0199603Y0069957D01*
X0170075Y0211689D02*
X0170075Y0266807D01*
X0170075Y0319957D01*
X0189760Y0339642D01*
X0235036Y0339642D01*
D23*
X0136780Y0313209D02*
X0136780Y0284886D01*
X0122012Y0270118D01*
X0090351Y0276020D02*
X0089146Y0277161D01*
X0086572Y0277161D01*
X0077560Y0286173D01*
X0065973Y0286173D01*
X0053099Y0299047D01*
X0053099Y0311921D01*
X0068548Y0327370D01*
X0085284Y0327370D01*
X0090434Y0332520D01*
X0093009Y0332520D01*
X0093698Y0332752D01*
X0081422Y0275874D02*
X0080351Y0276020D01*
X0081422Y0275874D02*
X0087178Y0270118D01*
X0108540Y0192240D02*
X0109745Y0192193D01*
X0117469Y0184469D01*
X0117469Y0160008D01*
X0109745Y0152283D01*
X0109745Y0140697D01*
X0108540Y0139878D01*
D24*
X0091335Y0140823D02*
X0091335Y0190035D01*
X0101178Y0199878D01*
X0097241Y0207752D02*
X0080587Y0191098D01*
X0080587Y0157476D01*
X0059839Y0144760D02*
X0059839Y0231374D01*
X0063776Y0235311D01*
X0053934Y0243185D02*
X0059839Y0249091D01*
X0053934Y0243185D02*
X0053934Y0213657D01*
X0049997Y0209720D01*
X0048028Y0209720D01*
X0040154Y0215626D02*
X0034249Y0221531D01*
X0034249Y0272713D01*
X0038186Y0276650D01*
X0046060Y0276650D01*
X0053099Y0283689D01*
X0053099Y0299047D01*
X0036217Y0288461D02*
X0034249Y0286492D01*
X0034249Y0272713D01*
X0040154Y0268776D02*
X0051965Y0268776D01*
X0063776Y0280587D01*
X0065745Y0268776D02*
X0079524Y0268776D01*
X0087398Y0260902D01*
X0087178Y0270118D02*
X0103772Y0270118D01*
X0122012Y0270118D01*
X0114957Y0258933D02*
X0103772Y0270118D01*
X0108186Y0249957D02*
X0113776Y0249957D01*
X0118757Y0244976D01*
X0108457Y0239827D02*
X0108457Y0217000D01*
X0103146Y0211689D01*
X0087398Y0211689D01*
X0085430Y0209720D01*
X0097241Y0207752D02*
X0109052Y0207752D01*
X0116926Y0199878D01*
X0140548Y0199878D01*
X0144485Y0203815D01*
X0144485Y0286492D01*
X0142516Y0288461D01*
X0136780Y0313209D02*
X0136780Y0328000D01*
X0140548Y0331768D01*
X0118894Y0323894D02*
X0118894Y0314051D01*
X0118894Y0323894D02*
X0114957Y0327831D01*
X0091335Y0327831D01*
X0087398Y0323894D01*
X0087398Y0314051D01*
X0065745Y0268776D02*
X0061808Y0264839D01*
X0061808Y0258933D01*
X0059839Y0256965D01*
X0055902Y0256965D01*
X0082477Y0244169D02*
X0082477Y0226453D01*
X0077556Y0221531D01*
X0069682Y0221531D01*
X0087398Y0229406D02*
X0097241Y0219563D01*
X0103146Y0219563D01*
X0082477Y0244169D02*
X0083461Y0245154D01*
X0128737Y0180193D02*
X0128737Y0134917D01*
X0142516Y0085705D02*
X0140548Y0083736D01*
X0091335Y0083736D01*
X0095863Y0076453D02*
X0182477Y0076453D01*
X0187792Y0081768D01*
X0205509Y0064051D02*
X0203540Y0062083D01*
X0160233Y0062083D01*
X0155863Y0066453D01*
X0093737Y0066453D01*
X0091335Y0054209D02*
X0091335Y0046335D01*
X0099209Y0038461D01*
X0229131Y0038461D01*
X0233068Y0042398D01*
X0205509Y0064051D02*
X0205509Y0192004D01*
X0231099Y0217594D01*
X0231099Y0233343D01*
D25*
X0034043Y0229831D02*
X0034043Y0038255D01*
X0090930Y0038255D01*
X0086249Y0042936D01*
X0085335Y0045141D01*
X0085335Y0048895D01*
X0085292Y0048938D01*
X0082326Y0047709D01*
X0078848Y0047709D01*
X0075635Y0049041D01*
X0075587Y0049088D01*
X0075540Y0049041D01*
X0072326Y0047709D01*
X0068848Y0047709D01*
X0065635Y0049041D01*
X0063175Y0051500D01*
X0061844Y0054714D01*
X0061844Y0058192D01*
X0063175Y0061405D01*
X0063222Y0061453D01*
X0063175Y0061500D01*
X0061844Y0064714D01*
X0061844Y0068192D01*
X0063175Y0071405D01*
X0063222Y0071453D01*
X0063175Y0071500D01*
X0061844Y0074714D01*
X0061844Y0078192D01*
X0063175Y0081405D01*
X0063222Y0081453D01*
X0063175Y0081500D01*
X0061844Y0084714D01*
X0061844Y0088192D01*
X0063175Y0091405D01*
X0063222Y0091453D01*
X0063175Y0091500D01*
X0061844Y0094714D01*
X0061844Y0098192D01*
X0063175Y0101405D01*
X0063222Y0101453D01*
X0063175Y0101500D01*
X0061844Y0104714D01*
X0061844Y0108192D01*
X0063175Y0111405D01*
X0063222Y0111453D01*
X0063175Y0111500D01*
X0061844Y0114714D01*
X0061844Y0118192D01*
X0063175Y0121405D01*
X0063222Y0121453D01*
X0063175Y0121500D01*
X0061844Y0124714D01*
X0061844Y0128192D01*
X0063175Y0131405D01*
X0063222Y0131453D01*
X0063175Y0131500D01*
X0061844Y0134714D01*
X0061844Y0136760D01*
X0056526Y0136760D01*
X0051839Y0141446D01*
X0051839Y0148074D01*
X0053839Y0150074D01*
X0053839Y0204218D01*
X0051342Y0201720D01*
X0044715Y0201720D01*
X0040028Y0206407D01*
X0040028Y0213034D01*
X0044715Y0217720D01*
X0047934Y0217720D01*
X0047934Y0224076D01*
X0047172Y0223976D01*
X0043579Y0223976D01*
X0043579Y0230350D01*
X0043579Y0230350D01*
X0043579Y0223976D01*
X0039987Y0223976D01*
X0039158Y0224085D01*
X0038351Y0224301D01*
X0037579Y0224621D01*
X0036855Y0225039D01*
X0036192Y0225547D01*
X0035601Y0226138D01*
X0035093Y0226801D01*
X0034675Y0227525D01*
X0034355Y0228297D01*
X0034139Y0229104D01*
X0034043Y0229831D01*
X0034043Y0229233D02*
X0034122Y0229233D01*
X0034043Y0226835D02*
X0035073Y0226835D01*
X0034043Y0224436D02*
X0038025Y0224436D01*
X0034043Y0222038D02*
X0047934Y0222038D01*
X0047934Y0219639D02*
X0034043Y0219639D01*
X0034043Y0217240D02*
X0044235Y0217240D01*
X0041836Y0214842D02*
X0034043Y0214842D01*
X0034043Y0212443D02*
X0040028Y0212443D01*
X0040028Y0210045D02*
X0034043Y0210045D01*
X0034043Y0207646D02*
X0040028Y0207646D01*
X0041187Y0205248D02*
X0034043Y0205248D01*
X0034043Y0202849D02*
X0043586Y0202849D01*
X0052471Y0202849D02*
X0053839Y0202849D01*
X0053839Y0200451D02*
X0034043Y0200451D01*
X0034043Y0198052D02*
X0053839Y0198052D01*
X0053839Y0195654D02*
X0034043Y0195654D01*
X0034043Y0193255D02*
X0053839Y0193255D01*
X0053839Y0190857D02*
X0034043Y0190857D01*
X0034043Y0188458D02*
X0053839Y0188458D01*
X0053839Y0186060D02*
X0034043Y0186060D01*
X0034043Y0183661D02*
X0053839Y0183661D01*
X0053839Y0181263D02*
X0034043Y0181263D01*
X0034043Y0178864D02*
X0053839Y0178864D01*
X0053839Y0176466D02*
X0034043Y0176466D01*
X0034043Y0174067D02*
X0053839Y0174067D01*
X0053839Y0171669D02*
X0034043Y0171669D01*
X0034043Y0169270D02*
X0053839Y0169270D01*
X0053839Y0166872D02*
X0034043Y0166872D01*
X0034043Y0164473D02*
X0053839Y0164473D01*
X0053839Y0162075D02*
X0034043Y0162075D01*
X0034043Y0159676D02*
X0053839Y0159676D01*
X0053839Y0157278D02*
X0034043Y0157278D01*
X0034043Y0154879D02*
X0053839Y0154879D01*
X0053839Y0152481D02*
X0034043Y0152481D01*
X0034043Y0150082D02*
X0053839Y0150082D01*
X0051839Y0147684D02*
X0034043Y0147684D01*
X0034043Y0145285D02*
X0051839Y0145285D01*
X0051839Y0142887D02*
X0034043Y0142887D01*
X0034043Y0140488D02*
X0052797Y0140488D01*
X0055196Y0138090D02*
X0034043Y0138090D01*
X0034043Y0135691D02*
X0061844Y0135691D01*
X0062433Y0133293D02*
X0034043Y0133293D01*
X0034043Y0130894D02*
X0062963Y0130894D01*
X0061970Y0128496D02*
X0034043Y0128496D01*
X0034043Y0126097D02*
X0061844Y0126097D01*
X0062264Y0123699D02*
X0034043Y0123699D01*
X0034043Y0121300D02*
X0063131Y0121300D01*
X0062138Y0118902D02*
X0034043Y0118902D01*
X0034043Y0116503D02*
X0061844Y0116503D01*
X0062096Y0114105D02*
X0034043Y0114105D01*
X0034043Y0111706D02*
X0063090Y0111706D01*
X0062306Y0109307D02*
X0034043Y0109307D01*
X0034043Y0106909D02*
X0061844Y0106909D01*
X0061928Y0104510D02*
X0034043Y0104510D01*
X0034043Y0102112D02*
X0062922Y0102112D01*
X0062474Y0099713D02*
X0034043Y0099713D01*
X0034043Y0097315D02*
X0061844Y0097315D01*
X0061844Y0094916D02*
X0034043Y0094916D01*
X0034043Y0092518D02*
X0062753Y0092518D01*
X0062642Y0090119D02*
X0034043Y0090119D01*
X0034043Y0087721D02*
X0061844Y0087721D01*
X0061844Y0085322D02*
X0034043Y0085322D01*
X0034043Y0082924D02*
X0062585Y0082924D01*
X0062811Y0080525D02*
X0034043Y0080525D01*
X0034043Y0078127D02*
X0061844Y0078127D01*
X0061844Y0075728D02*
X0034043Y0075728D01*
X0034043Y0073330D02*
X0062417Y0073330D01*
X0062979Y0070931D02*
X0034043Y0070931D01*
X0034043Y0068533D02*
X0061985Y0068533D01*
X0061844Y0066134D02*
X0034043Y0066134D01*
X0034043Y0063736D02*
X0062249Y0063736D01*
X0063147Y0061337D02*
X0034043Y0061337D01*
X0034043Y0058939D02*
X0062153Y0058939D01*
X0061844Y0056540D02*
X0034043Y0056540D01*
X0034043Y0054142D02*
X0062081Y0054142D01*
X0063074Y0051743D02*
X0034043Y0051743D01*
X0034043Y0049345D02*
X0065330Y0049345D01*
X0085335Y0046946D02*
X0034043Y0046946D01*
X0034043Y0044548D02*
X0085581Y0044548D01*
X0087035Y0042149D02*
X0034043Y0042149D01*
X0034043Y0039751D02*
X0089434Y0039751D01*
X0097335Y0048820D02*
X0097335Y0048895D01*
X0099335Y0050895D01*
X0099335Y0057522D01*
X0097728Y0059130D01*
X0099051Y0060453D01*
X0106747Y0060453D01*
X0106303Y0059684D01*
X0105933Y0058791D01*
X0105683Y0057857D01*
X0105557Y0056898D01*
X0105557Y0052340D01*
X0112831Y0052340D01*
X0112831Y0052140D01*
X0105557Y0052140D01*
X0105557Y0047582D01*
X0105683Y0046623D01*
X0105933Y0045690D01*
X0106303Y0044797D01*
X0106497Y0044461D01*
X0101695Y0044461D01*
X0097335Y0048820D01*
X0097785Y0049345D02*
X0105557Y0049345D01*
X0105557Y0051743D02*
X0099335Y0051743D01*
X0099335Y0054142D02*
X0105557Y0054142D01*
X0105557Y0056540D02*
X0099335Y0056540D01*
X0097919Y0058939D02*
X0105994Y0058939D01*
X0113031Y0052340D02*
X0120306Y0052340D01*
X0120306Y0056898D01*
X0120180Y0057857D01*
X0119930Y0058791D01*
X0119560Y0059684D01*
X0119116Y0060453D01*
X0124257Y0060453D01*
X0123357Y0058280D01*
X0123357Y0046201D01*
X0124077Y0044461D01*
X0119366Y0044461D01*
X0119560Y0044797D01*
X0119930Y0045690D01*
X0120180Y0046623D01*
X0120306Y0047582D01*
X0120306Y0052140D01*
X0113031Y0052140D01*
X0113031Y0052340D01*
X0120306Y0051743D02*
X0123357Y0051743D01*
X0123357Y0049345D02*
X0120306Y0049345D01*
X0120222Y0046946D02*
X0123357Y0046946D01*
X0124041Y0044548D02*
X0119416Y0044548D01*
X0120306Y0054142D02*
X0123357Y0054142D01*
X0123357Y0056540D02*
X0120306Y0056540D01*
X0119868Y0058939D02*
X0123630Y0058939D01*
X0141206Y0060453D02*
X0142106Y0058280D01*
X0142106Y0046201D01*
X0141385Y0044461D01*
X0160792Y0044461D01*
X0160792Y0049866D01*
X0166064Y0055138D01*
X0173520Y0055138D01*
X0174792Y0053866D01*
X0176064Y0055138D01*
X0183520Y0055138D01*
X0184792Y0053866D01*
X0186064Y0055138D01*
X0193520Y0055138D01*
X0196206Y0052451D01*
X0196892Y0053138D01*
X0199792Y0053138D01*
X0199792Y0046138D01*
X0199792Y0046138D01*
X0199792Y0053138D01*
X0202691Y0053138D01*
X0206792Y0049037D01*
X0206792Y0046138D01*
X0199792Y0046138D01*
X0199792Y0046138D01*
X0206792Y0046138D01*
X0206792Y0044461D01*
X0209698Y0044461D01*
X0209698Y0049866D01*
X0210970Y0051138D01*
X0209698Y0052410D01*
X0209698Y0059755D01*
X0208627Y0058684D01*
X0206939Y0056996D01*
X0204733Y0056083D01*
X0159039Y0056083D01*
X0156834Y0056996D01*
X0155146Y0058684D01*
X0155146Y0058684D01*
X0153378Y0060453D01*
X0141206Y0060453D01*
X0141833Y0058939D02*
X0154892Y0058939D01*
X0157935Y0056540D02*
X0142106Y0056540D01*
X0142106Y0054142D02*
X0165068Y0054142D01*
X0162669Y0051743D02*
X0142106Y0051743D01*
X0142106Y0049345D02*
X0160792Y0049345D01*
X0160792Y0046946D02*
X0142106Y0046946D01*
X0141421Y0044548D02*
X0160792Y0044548D01*
X0174516Y0054142D02*
X0175068Y0054142D01*
X0184516Y0054142D02*
X0185068Y0054142D01*
X0194516Y0054142D02*
X0209698Y0054142D01*
X0209698Y0056540D02*
X0205838Y0056540D01*
X0208881Y0058939D02*
X0209698Y0058939D01*
X0210364Y0051743D02*
X0204086Y0051743D01*
X0206485Y0049345D02*
X0209698Y0049345D01*
X0209698Y0046946D02*
X0206792Y0046946D01*
X0206792Y0044548D02*
X0209698Y0044548D01*
X0199792Y0046946D02*
X0199792Y0046946D01*
X0199792Y0049345D02*
X0199792Y0049345D01*
X0199792Y0051743D02*
X0199792Y0051743D01*
X0189760Y0069957D02*
X0189760Y0071925D01*
X0193698Y0075862D01*
X0193698Y0087673D01*
X0187162Y0094209D01*
X0143146Y0094209D01*
X0148422Y0099484D01*
X0148422Y0144760D01*
X0144485Y0148697D01*
X0154327Y0158539D01*
X0154327Y0195941D01*
X0162327Y0195654D02*
X0200673Y0195654D01*
X0200422Y0195403D02*
X0199509Y0193197D01*
X0199509Y0090368D01*
X0199123Y0091299D01*
X0190787Y0099634D01*
X0188435Y0100609D01*
X0154822Y0100609D01*
X0154822Y0146033D01*
X0153848Y0148385D01*
X0153536Y0148697D01*
X0157953Y0153114D01*
X0159753Y0154914D01*
X0160727Y0157266D01*
X0160727Y0174161D01*
X0165515Y0174161D01*
X0167115Y0175761D01*
X0182878Y0175761D01*
X0184478Y0174161D01*
X0191106Y0174161D01*
X0195792Y0178848D01*
X0195792Y0185475D01*
X0191106Y0190161D01*
X0184478Y0190161D01*
X0182878Y0188561D01*
X0167115Y0188561D01*
X0165515Y0190161D01*
X0160727Y0190161D01*
X0160727Y0191027D01*
X0162327Y0192627D01*
X0162327Y0199255D01*
X0157641Y0203941D01*
X0151014Y0203941D01*
X0150485Y0203412D01*
X0150485Y0208666D01*
X0152510Y0207828D01*
X0163074Y0207828D01*
X0166288Y0209159D01*
X0168748Y0211618D01*
X0170079Y0214832D01*
X0170079Y0218310D01*
X0168748Y0221524D01*
X0168700Y0221571D01*
X0168748Y0221618D01*
X0170079Y0224832D01*
X0170079Y0228310D01*
X0168748Y0231524D01*
X0168700Y0231571D01*
X0168748Y0231618D01*
X0170079Y0234832D01*
X0170079Y0238310D01*
X0168748Y0241524D01*
X0168700Y0241571D01*
X0168748Y0241618D01*
X0170079Y0244832D01*
X0170079Y0248310D01*
X0168748Y0251524D01*
X0168700Y0251571D01*
X0168748Y0251618D01*
X0170079Y0254832D01*
X0170079Y0258310D01*
X0168748Y0261524D01*
X0168700Y0261571D01*
X0168748Y0261618D01*
X0170079Y0264832D01*
X0170079Y0268310D01*
X0168748Y0271524D01*
X0168700Y0271571D01*
X0168748Y0271618D01*
X0170079Y0274832D01*
X0170079Y0278310D01*
X0168748Y0281524D01*
X0168700Y0281571D01*
X0168748Y0281618D01*
X0170079Y0284832D01*
X0170079Y0288310D01*
X0168748Y0291524D01*
X0167137Y0293134D01*
X0167396Y0293582D01*
X0167734Y0294399D01*
X0167963Y0295252D01*
X0168079Y0296129D01*
X0168079Y0296571D01*
X0168079Y0297013D01*
X0167963Y0297889D01*
X0167734Y0298743D01*
X0167396Y0299560D01*
X0167137Y0300008D01*
X0168748Y0301618D01*
X0170079Y0304832D01*
X0170079Y0308310D01*
X0168748Y0311524D01*
X0168700Y0311571D01*
X0168748Y0311618D01*
X0170079Y0314832D01*
X0170079Y0318310D01*
X0168748Y0321524D01*
X0168700Y0321571D01*
X0168748Y0321618D01*
X0170079Y0324832D01*
X0170079Y0328310D01*
X0168748Y0331524D01*
X0166288Y0333983D01*
X0163074Y0335314D01*
X0152510Y0335314D01*
X0149296Y0333983D01*
X0148548Y0333235D01*
X0148548Y0335081D01*
X0143862Y0339768D01*
X0137234Y0339768D01*
X0132548Y0335081D01*
X0132548Y0332253D01*
X0131694Y0331399D01*
X0131010Y0329749D01*
X0123069Y0329749D01*
X0121977Y0329296D01*
X0120920Y0330354D01*
X0122957Y0332391D01*
X0122957Y0339018D01*
X0120160Y0341816D01*
X0268379Y0341816D01*
X0268379Y0331693D01*
X0276615Y0323457D01*
X0288261Y0323457D01*
X0296496Y0331693D01*
X0296496Y0341816D01*
X0299776Y0341816D01*
X0299776Y0335914D01*
X0305048Y0330642D01*
X0312504Y0330642D01*
X0313776Y0331914D01*
X0315048Y0330642D01*
X0322504Y0330642D01*
X0327776Y0335914D01*
X0327776Y0341816D01*
X0390112Y0341816D01*
X0390112Y0331693D01*
X0398347Y0323457D01*
X0409993Y0323457D01*
X0416344Y0329808D01*
X0416344Y0050262D01*
X0409993Y0056613D01*
X0398347Y0056613D01*
X0390112Y0048378D01*
X0390112Y0038255D01*
X0331713Y0038255D01*
X0331713Y0044157D01*
X0326441Y0049429D01*
X0318985Y0049429D01*
X0317713Y0048157D01*
X0316441Y0049429D01*
X0308985Y0049429D01*
X0303713Y0044157D01*
X0303713Y0038255D01*
X0296496Y0038255D01*
X0296496Y0048378D01*
X0288980Y0055894D01*
X0290866Y0056676D01*
X0293313Y0059123D01*
X0294638Y0062321D01*
X0294638Y0065782D01*
X0293313Y0068979D01*
X0293241Y0069051D01*
X0293313Y0069123D01*
X0294638Y0072321D01*
X0294638Y0075782D01*
X0293313Y0078979D01*
X0293241Y0079051D01*
X0293313Y0079123D01*
X0294638Y0082321D01*
X0294638Y0085782D01*
X0293313Y0088979D01*
X0293241Y0089051D01*
X0293313Y0089123D01*
X0294638Y0092321D01*
X0294638Y0095782D01*
X0293313Y0098979D01*
X0293241Y0099051D01*
X0293313Y0099123D01*
X0294638Y0102321D01*
X0294638Y0105782D01*
X0293313Y0108979D01*
X0293241Y0109051D01*
X0293313Y0109123D01*
X0294638Y0112321D01*
X0294638Y0115782D01*
X0293313Y0118979D01*
X0293241Y0119051D01*
X0293313Y0119123D01*
X0294638Y0122321D01*
X0294638Y0125782D01*
X0293313Y0128979D01*
X0293241Y0129051D01*
X0293313Y0129123D01*
X0294638Y0132321D01*
X0294638Y0135782D01*
X0293313Y0138979D01*
X0293241Y0139051D01*
X0293313Y0139123D01*
X0294638Y0142321D01*
X0294638Y0145782D01*
X0293313Y0148979D01*
X0293241Y0149051D01*
X0293313Y0149123D01*
X0294638Y0152321D01*
X0294638Y0155782D01*
X0293313Y0158979D01*
X0293241Y0159051D01*
X0293313Y0159123D01*
X0294638Y0162321D01*
X0294638Y0165782D01*
X0293313Y0168979D01*
X0293241Y0169051D01*
X0293313Y0169123D01*
X0294638Y0172321D01*
X0294638Y0175782D01*
X0293313Y0178979D01*
X0293241Y0179051D01*
X0293313Y0179123D01*
X0294638Y0182321D01*
X0294638Y0185782D01*
X0293313Y0188979D01*
X0293241Y0189051D01*
X0293313Y0189123D01*
X0294638Y0192321D01*
X0294638Y0195782D01*
X0293313Y0198979D01*
X0293241Y0199051D01*
X0293313Y0199123D01*
X0294638Y0202321D01*
X0294638Y0205782D01*
X0293313Y0208979D01*
X0293241Y0209051D01*
X0293313Y0209123D01*
X0294638Y0212321D01*
X0294638Y0215782D01*
X0293313Y0218979D01*
X0290866Y0221427D01*
X0287668Y0222751D01*
X0277207Y0222751D01*
X0274009Y0221427D01*
X0271562Y0218979D01*
X0270238Y0215782D01*
X0270238Y0212321D01*
X0271562Y0209123D01*
X0271634Y0209051D01*
X0271562Y0208979D01*
X0270238Y0205782D01*
X0270238Y0202321D01*
X0271562Y0199123D01*
X0271634Y0199051D01*
X0271562Y0198979D01*
X0270238Y0195782D01*
X0270238Y0192321D01*
X0271562Y0189123D01*
X0271634Y0189051D01*
X0271562Y0188979D01*
X0270238Y0185782D01*
X0270238Y0182321D01*
X0271562Y0179123D01*
X0271634Y0179051D01*
X0271562Y0178979D01*
X0270238Y0175782D01*
X0270238Y0172321D01*
X0271562Y0169123D01*
X0271634Y0169051D01*
X0271562Y0168979D01*
X0270238Y0165782D01*
X0270238Y0162321D01*
X0271562Y0159123D01*
X0271634Y0159051D01*
X0271562Y0158979D01*
X0270238Y0155782D01*
X0270238Y0152321D01*
X0271562Y0149123D01*
X0271634Y0149051D01*
X0271562Y0148979D01*
X0270238Y0145782D01*
X0270238Y0142321D01*
X0271562Y0139123D01*
X0271634Y0139051D01*
X0271562Y0138979D01*
X0270238Y0135782D01*
X0270238Y0132321D01*
X0271562Y0129123D01*
X0271634Y0129051D01*
X0271562Y0128979D01*
X0270238Y0125782D01*
X0270238Y0122321D01*
X0271562Y0119123D01*
X0271634Y0119051D01*
X0271562Y0118979D01*
X0270238Y0115782D01*
X0270238Y0112321D01*
X0271562Y0109123D01*
X0271634Y0109051D01*
X0271562Y0108979D01*
X0270238Y0105782D01*
X0270238Y0102321D01*
X0271562Y0099123D01*
X0271634Y0099051D01*
X0271562Y0098979D01*
X0270238Y0095782D01*
X0270238Y0092321D01*
X0271562Y0089123D01*
X0271634Y0089051D01*
X0271562Y0088979D01*
X0270238Y0085782D01*
X0270238Y0082321D01*
X0271562Y0079123D01*
X0271634Y0079051D01*
X0271562Y0078979D01*
X0270238Y0075782D01*
X0270238Y0072321D01*
X0271562Y0069123D01*
X0271634Y0069051D01*
X0271562Y0068979D01*
X0270238Y0065782D01*
X0270238Y0062321D01*
X0271562Y0059123D01*
X0274009Y0056676D01*
X0275896Y0055894D01*
X0268379Y0048378D01*
X0268379Y0038255D01*
X0240239Y0038255D01*
X0241068Y0039084D01*
X0241068Y0045711D01*
X0236381Y0050398D01*
X0229754Y0050398D01*
X0227697Y0048341D01*
X0227697Y0049866D01*
X0226425Y0051138D01*
X0227697Y0052410D01*
X0227697Y0059866D01*
X0226425Y0061138D01*
X0227697Y0062410D01*
X0227697Y0069866D01*
X0226425Y0071138D01*
X0227697Y0072410D01*
X0227697Y0079866D01*
X0226425Y0081138D01*
X0227697Y0082410D01*
X0227697Y0089866D01*
X0226425Y0091138D01*
X0227697Y0092410D01*
X0227697Y0099866D01*
X0226425Y0101138D01*
X0227697Y0102410D01*
X0227697Y0109866D01*
X0226425Y0111138D01*
X0227697Y0112410D01*
X0227697Y0119866D01*
X0226425Y0121138D01*
X0227697Y0122410D01*
X0227697Y0129866D01*
X0226425Y0131138D01*
X0227697Y0132410D01*
X0227697Y0139866D01*
X0226425Y0141138D01*
X0227697Y0142410D01*
X0227697Y0149866D01*
X0226425Y0151138D01*
X0227697Y0152410D01*
X0227697Y0159866D01*
X0226425Y0161138D01*
X0227697Y0162410D01*
X0227697Y0169866D01*
X0226425Y0171138D01*
X0227697Y0172410D01*
X0227697Y0179866D01*
X0226425Y0181138D01*
X0227697Y0182410D01*
X0227697Y0189866D01*
X0226425Y0191138D01*
X0227697Y0192410D01*
X0227697Y0199866D01*
X0224777Y0202787D01*
X0236186Y0214196D01*
X0237099Y0216401D01*
X0237099Y0228029D01*
X0239099Y0230029D01*
X0239099Y0235052D01*
X0239669Y0234817D01*
X0305955Y0234817D01*
X0308307Y0235791D01*
X0310107Y0237591D01*
X0324718Y0252202D01*
X0327970Y0252202D01*
X0333067Y0257298D01*
X0333067Y0264505D01*
X0327970Y0269602D01*
X0320763Y0269602D01*
X0315667Y0264505D01*
X0315667Y0261253D01*
X0302031Y0247617D01*
X0243593Y0247617D01*
X0242420Y0248789D01*
X0242420Y0252877D01*
X0244182Y0254639D01*
X0245525Y0256965D01*
X0246220Y0259559D01*
X0246220Y0262244D01*
X0245525Y0264839D01*
X0244182Y0267165D01*
X0242283Y0269064D01*
X0239957Y0270406D01*
X0237363Y0271102D01*
X0234677Y0271102D01*
X0232083Y0270406D01*
X0229765Y0269068D01*
X0228748Y0271524D01*
X0228700Y0271571D01*
X0228748Y0271618D01*
X0230079Y0274832D01*
X0230079Y0278310D01*
X0228900Y0281156D01*
X0229757Y0280299D01*
X0232083Y0278956D01*
X0234048Y0278429D01*
X0241253Y0271224D01*
X0243606Y0270250D01*
X0257402Y0270250D01*
X0255348Y0269064D01*
X0253449Y0267165D01*
X0252106Y0264839D01*
X0251411Y0262244D01*
X0251411Y0259559D01*
X0252106Y0256965D01*
X0253449Y0254639D01*
X0255348Y0252740D01*
X0257674Y0251397D01*
X0260268Y0250702D01*
X0262954Y0250702D01*
X0265548Y0251397D01*
X0267874Y0252740D01*
X0269773Y0254639D01*
X0271116Y0256965D01*
X0271811Y0259559D01*
X0271811Y0262244D01*
X0271116Y0264839D01*
X0269773Y0267165D01*
X0267874Y0269064D01*
X0265820Y0270250D01*
X0317766Y0270250D01*
X0320118Y0271224D01*
X0321918Y0273024D01*
X0324718Y0275824D01*
X0327970Y0275824D01*
X0333067Y0280920D01*
X0333067Y0288127D01*
X0327970Y0293224D01*
X0320763Y0293224D01*
X0315667Y0288127D01*
X0315667Y0284875D01*
X0313842Y0283050D01*
X0270265Y0283050D01*
X0271116Y0284524D01*
X0271811Y0287118D01*
X0271811Y0289803D01*
X0271116Y0292398D01*
X0269773Y0294724D01*
X0267874Y0296623D01*
X0265820Y0297809D01*
X0321703Y0297809D01*
X0324055Y0298783D01*
X0324718Y0299446D01*
X0327970Y0299446D01*
X0333067Y0304542D01*
X0333067Y0311749D01*
X0327970Y0316846D01*
X0320763Y0316846D01*
X0315667Y0311749D01*
X0315667Y0310609D01*
X0270265Y0310609D01*
X0271116Y0312083D01*
X0271811Y0314677D01*
X0271811Y0317363D01*
X0271116Y0319957D01*
X0269773Y0322283D01*
X0267874Y0324182D01*
X0265548Y0325525D01*
X0262954Y0326220D01*
X0260268Y0326220D01*
X0257674Y0325525D01*
X0255348Y0324182D01*
X0253449Y0322283D01*
X0252106Y0319957D01*
X0251411Y0317363D01*
X0251411Y0314677D01*
X0252106Y0312083D01*
X0252957Y0310609D01*
X0244674Y0310609D01*
X0245525Y0312083D01*
X0246220Y0314677D01*
X0246220Y0317363D01*
X0245525Y0319957D01*
X0244182Y0322283D01*
X0242283Y0324182D01*
X0239957Y0325525D01*
X0237363Y0326220D01*
X0234677Y0326220D01*
X0232083Y0325525D01*
X0229826Y0324221D01*
X0230079Y0324832D01*
X0230079Y0328310D01*
X0228748Y0331524D01*
X0226288Y0333983D01*
X0223074Y0335314D01*
X0212510Y0335314D01*
X0209296Y0333983D01*
X0206836Y0331524D01*
X0205505Y0328310D01*
X0205505Y0324832D01*
X0206836Y0321618D01*
X0206884Y0321571D01*
X0206836Y0321524D01*
X0205505Y0318310D01*
X0205505Y0314832D01*
X0206836Y0311618D01*
X0206884Y0311571D01*
X0206836Y0311524D01*
X0205505Y0308310D01*
X0205505Y0304832D01*
X0206836Y0301618D01*
X0206884Y0301571D01*
X0206836Y0301524D01*
X0206336Y0300314D01*
X0204170Y0300314D01*
X0199049Y0295192D01*
X0199049Y0287949D01*
X0200427Y0286571D01*
X0199049Y0285192D01*
X0199049Y0277949D01*
X0204170Y0272828D01*
X0206336Y0272828D01*
X0206836Y0271618D01*
X0206884Y0271571D01*
X0206836Y0271524D01*
X0205505Y0268310D01*
X0205505Y0264832D01*
X0206836Y0261618D01*
X0206884Y0261571D01*
X0206836Y0261524D01*
X0205505Y0258310D01*
X0205505Y0254832D01*
X0206836Y0251618D01*
X0206884Y0251571D01*
X0206836Y0251524D01*
X0205505Y0248310D01*
X0205505Y0244832D01*
X0206836Y0241618D01*
X0206884Y0241571D01*
X0206836Y0241524D01*
X0205505Y0238310D01*
X0205505Y0234832D01*
X0206836Y0231618D01*
X0206884Y0231571D01*
X0206836Y0231524D01*
X0205505Y0228310D01*
X0205505Y0225314D01*
X0204170Y0225314D01*
X0202792Y0223936D01*
X0201414Y0225314D01*
X0194170Y0225314D01*
X0192792Y0223936D01*
X0191414Y0225314D01*
X0184170Y0225314D01*
X0179049Y0220192D01*
X0179049Y0212949D01*
X0184170Y0207828D01*
X0191414Y0207828D01*
X0192792Y0209206D01*
X0194170Y0207828D01*
X0201414Y0207828D01*
X0202792Y0209206D01*
X0204170Y0207828D01*
X0211414Y0207828D01*
X0212792Y0209206D01*
X0213509Y0208489D01*
X0202110Y0197090D01*
X0200422Y0195403D01*
X0199533Y0193255D02*
X0162327Y0193255D01*
X0160727Y0190857D02*
X0199509Y0190857D01*
X0199509Y0188458D02*
X0192809Y0188458D01*
X0195207Y0186060D02*
X0199509Y0186060D01*
X0199509Y0183661D02*
X0195792Y0183661D01*
X0195792Y0181263D02*
X0199509Y0181263D01*
X0199509Y0178864D02*
X0195792Y0178864D01*
X0193410Y0176466D02*
X0199509Y0176466D01*
X0199509Y0174067D02*
X0160727Y0174067D01*
X0160727Y0171669D02*
X0199509Y0171669D01*
X0199509Y0169270D02*
X0160727Y0169270D01*
X0160727Y0166872D02*
X0199509Y0166872D01*
X0199509Y0164473D02*
X0160727Y0164473D01*
X0160727Y0162075D02*
X0199509Y0162075D01*
X0199509Y0159676D02*
X0160727Y0159676D01*
X0160727Y0157278D02*
X0199509Y0157278D01*
X0199509Y0154879D02*
X0159718Y0154879D01*
X0157320Y0152481D02*
X0199509Y0152481D01*
X0199509Y0150082D02*
X0154921Y0150082D01*
X0154138Y0147684D02*
X0199509Y0147684D01*
X0199509Y0145285D02*
X0154822Y0145285D01*
X0154822Y0142887D02*
X0199509Y0142887D01*
X0199509Y0140488D02*
X0154822Y0140488D01*
X0154822Y0138090D02*
X0199509Y0138090D01*
X0199509Y0135691D02*
X0154822Y0135691D01*
X0154822Y0133293D02*
X0199509Y0133293D01*
X0199509Y0130894D02*
X0154822Y0130894D01*
X0154822Y0128496D02*
X0199509Y0128496D01*
X0199509Y0126097D02*
X0154822Y0126097D01*
X0154822Y0123699D02*
X0199509Y0123699D01*
X0199509Y0121300D02*
X0154822Y0121300D01*
X0154822Y0118902D02*
X0199509Y0118902D01*
X0199509Y0116503D02*
X0154822Y0116503D01*
X0154822Y0114105D02*
X0199509Y0114105D01*
X0199509Y0111706D02*
X0154822Y0111706D01*
X0154822Y0109307D02*
X0199509Y0109307D01*
X0199509Y0106909D02*
X0154822Y0106909D01*
X0154822Y0104510D02*
X0199509Y0104510D01*
X0199509Y0102112D02*
X0154822Y0102112D01*
X0143146Y0094209D02*
X0129288Y0094209D01*
X0123263Y0099713D02*
X0122485Y0099713D01*
X0122874Y0099324D02*
X0121837Y0100361D01*
X0119288Y0100361D01*
X0116739Y0100361D01*
X0113135Y0096757D01*
X0113135Y0094209D01*
X0119288Y0094209D01*
X0119288Y0100361D01*
X0119288Y0094209D01*
X0119288Y0094209D01*
X0119288Y0094209D01*
X0106453Y0094209D01*
X0097241Y0103421D01*
X0100562Y0105666D02*
X0100053Y0106329D01*
X0099636Y0107052D01*
X0099316Y0107824D01*
X0099099Y0108632D01*
X0098990Y0109460D01*
X0098990Y0109878D01*
X0108540Y0109878D01*
X0108540Y0109878D01*
X0118090Y0109878D01*
X0118090Y0110296D01*
X0117981Y0111124D01*
X0117764Y0111931D01*
X0117444Y0112704D01*
X0117056Y0113376D01*
X0118815Y0115134D01*
X0120090Y0118212D01*
X0120090Y0121544D01*
X0118815Y0124622D01*
X0118559Y0124878D01*
X0118815Y0125134D01*
X0120090Y0128212D01*
X0120090Y0131544D01*
X0118815Y0134622D01*
X0118559Y0134878D01*
X0118815Y0135134D01*
X0120090Y0138212D01*
X0120090Y0141544D01*
X0118815Y0144622D01*
X0116459Y0146978D01*
X0115732Y0147279D01*
X0115732Y0149803D01*
X0120861Y0154932D01*
X0122545Y0156616D01*
X0122737Y0157079D01*
X0122737Y0140231D01*
X0120737Y0138231D01*
X0120737Y0131604D01*
X0125423Y0126917D01*
X0127527Y0126917D01*
X0128265Y0125134D01*
X0128521Y0124878D01*
X0128265Y0124622D01*
X0126990Y0121544D01*
X0126990Y0118212D01*
X0128265Y0115134D01*
X0128521Y0114878D01*
X0128265Y0114622D01*
X0126990Y0111544D01*
X0126990Y0108212D01*
X0128265Y0105134D01*
X0130621Y0102778D01*
X0131627Y0102361D01*
X0125911Y0102361D01*
X0122874Y0099324D01*
X0119288Y0099713D02*
X0119288Y0099713D01*
X0119288Y0097315D02*
X0119288Y0097315D01*
X0119288Y0094916D02*
X0119288Y0094916D01*
X0119288Y0094209D02*
X0113135Y0094209D01*
X0113135Y0091660D01*
X0115059Y0089736D01*
X0096649Y0089736D01*
X0094649Y0091736D01*
X0088097Y0091736D01*
X0089331Y0094714D01*
X0089331Y0098192D01*
X0087999Y0101405D01*
X0087952Y0101453D01*
X0087999Y0101500D01*
X0089331Y0104714D01*
X0089331Y0108192D01*
X0087999Y0111405D01*
X0087952Y0111453D01*
X0087999Y0111500D01*
X0089331Y0114714D01*
X0089331Y0118192D01*
X0087999Y0121405D01*
X0087952Y0121453D01*
X0087999Y0121500D01*
X0089331Y0124714D01*
X0089331Y0128192D01*
X0087999Y0131405D01*
X0087952Y0131453D01*
X0087999Y0131500D01*
X0088547Y0132823D01*
X0094649Y0132823D01*
X0097883Y0136057D01*
X0098265Y0135134D01*
X0098521Y0134878D01*
X0098265Y0134622D01*
X0096990Y0131544D01*
X0096990Y0128212D01*
X0098265Y0125134D01*
X0098521Y0124878D01*
X0098265Y0124622D01*
X0096990Y0121544D01*
X0096990Y0118212D01*
X0098265Y0115134D01*
X0100024Y0113376D01*
X0099636Y0112704D01*
X0099316Y0111931D01*
X0099099Y0111124D01*
X0098990Y0110296D01*
X0098990Y0109878D01*
X0108540Y0109878D01*
X0108540Y0109878D01*
X0118090Y0109878D01*
X0118090Y0109460D01*
X0117981Y0108632D01*
X0117764Y0107824D01*
X0117444Y0107052D01*
X0117027Y0106329D01*
X0116518Y0105666D01*
X0115927Y0105075D01*
X0115264Y0104566D01*
X0114540Y0104148D01*
X0113768Y0103829D01*
X0112961Y0103612D01*
X0112133Y0103503D01*
X0108540Y0103503D01*
X0108540Y0109878D01*
X0108540Y0109878D01*
X0108540Y0103503D01*
X0104947Y0103503D01*
X0104119Y0103612D01*
X0103312Y0103829D01*
X0102540Y0104148D01*
X0101816Y0104566D01*
X0101153Y0105075D01*
X0100562Y0105666D01*
X0099718Y0106909D02*
X0089331Y0106909D01*
X0089246Y0104510D02*
X0101912Y0104510D01*
X0099011Y0109307D02*
X0088868Y0109307D01*
X0088085Y0111706D02*
X0099255Y0111706D01*
X0099295Y0114105D02*
X0089078Y0114105D01*
X0089331Y0116503D02*
X0097698Y0116503D01*
X0096990Y0118902D02*
X0089037Y0118902D01*
X0088043Y0121300D02*
X0096990Y0121300D01*
X0097883Y0123699D02*
X0088910Y0123699D01*
X0089331Y0126097D02*
X0097866Y0126097D01*
X0096990Y0128496D02*
X0089205Y0128496D01*
X0088211Y0130894D02*
X0096990Y0130894D01*
X0097715Y0133293D02*
X0095119Y0133293D01*
X0097517Y0135691D02*
X0098035Y0135691D01*
X0098558Y0144914D02*
X0097335Y0146137D01*
X0097335Y0169742D01*
X0098265Y0167496D01*
X0100024Y0165738D01*
X0099636Y0165066D01*
X0099316Y0164294D01*
X0099099Y0163486D01*
X0098990Y0162658D01*
X0098990Y0162240D01*
X0098990Y0161822D01*
X0099099Y0160994D01*
X0099316Y0160187D01*
X0099636Y0159415D01*
X0100053Y0158691D01*
X0100562Y0158028D01*
X0101153Y0157437D01*
X0101816Y0156928D01*
X0102540Y0156511D01*
X0103312Y0156191D01*
X0104119Y0155974D01*
X0104869Y0155876D01*
X0104669Y0155675D01*
X0103757Y0153474D01*
X0103757Y0148253D01*
X0103699Y0148253D01*
X0100621Y0146978D01*
X0098558Y0144914D01*
X0098187Y0145285D02*
X0098929Y0145285D01*
X0097335Y0147684D02*
X0102325Y0147684D01*
X0103757Y0150082D02*
X0097335Y0150082D01*
X0097335Y0152481D02*
X0103757Y0152481D01*
X0104339Y0154879D02*
X0097335Y0154879D01*
X0097335Y0157278D02*
X0101361Y0157278D01*
X0099527Y0159676D02*
X0097335Y0159676D01*
X0097335Y0162075D02*
X0098990Y0162075D01*
X0098990Y0162240D02*
X0108540Y0162240D01*
X0108540Y0162240D01*
X0098990Y0162240D01*
X0099390Y0164473D02*
X0097335Y0164473D01*
X0097335Y0166872D02*
X0098890Y0166872D01*
X0097531Y0169270D02*
X0097335Y0169270D01*
X0116011Y0150082D02*
X0122737Y0150082D01*
X0122737Y0147684D02*
X0115732Y0147684D01*
X0118151Y0145285D02*
X0122737Y0145285D01*
X0122737Y0142887D02*
X0119533Y0142887D01*
X0120090Y0140488D02*
X0122737Y0140488D01*
X0120737Y0138090D02*
X0120039Y0138090D01*
X0120737Y0135691D02*
X0119045Y0135691D01*
X0119365Y0133293D02*
X0120737Y0133293D01*
X0120090Y0130894D02*
X0121446Y0130894D01*
X0120090Y0128496D02*
X0123845Y0128496D01*
X0127866Y0126097D02*
X0119214Y0126097D01*
X0119197Y0123699D02*
X0127883Y0123699D01*
X0126990Y0121300D02*
X0120090Y0121300D01*
X0120090Y0118902D02*
X0126990Y0118902D01*
X0127698Y0116503D02*
X0119382Y0116503D01*
X0117785Y0114105D02*
X0128051Y0114105D01*
X0127058Y0111706D02*
X0117825Y0111706D01*
X0118070Y0109307D02*
X0126990Y0109307D01*
X0127530Y0106909D02*
X0117362Y0106909D01*
X0115168Y0104510D02*
X0128889Y0104510D01*
X0125662Y0102112D02*
X0088253Y0102112D01*
X0088700Y0099713D02*
X0116092Y0099713D01*
X0113693Y0097315D02*
X0089331Y0097315D01*
X0089331Y0094916D02*
X0113135Y0094916D01*
X0113135Y0092518D02*
X0088421Y0092518D01*
X0096266Y0090119D02*
X0114676Y0090119D01*
X0108540Y0104510D02*
X0108540Y0104510D01*
X0108540Y0106909D02*
X0108540Y0106909D01*
X0108540Y0109307D02*
X0108540Y0109307D01*
X0140548Y0148697D02*
X0144485Y0148697D01*
X0122737Y0152481D02*
X0118409Y0152481D01*
X0120808Y0154879D02*
X0122737Y0154879D01*
X0162201Y0182161D02*
X0187792Y0182161D01*
X0203072Y0198052D02*
X0162327Y0198052D01*
X0161131Y0200451D02*
X0205470Y0200451D01*
X0207869Y0202849D02*
X0158733Y0202849D01*
X0150485Y0205248D02*
X0210267Y0205248D01*
X0212666Y0207646D02*
X0150485Y0207646D01*
X0167174Y0210045D02*
X0181953Y0210045D01*
X0179554Y0212443D02*
X0169089Y0212443D01*
X0170079Y0214842D02*
X0179049Y0214842D01*
X0179049Y0217240D02*
X0170079Y0217240D01*
X0169528Y0219639D02*
X0179049Y0219639D01*
X0180894Y0222038D02*
X0168921Y0222038D01*
X0169915Y0224436D02*
X0183292Y0224436D01*
X0192292Y0224436D02*
X0193292Y0224436D01*
X0202292Y0224436D02*
X0203292Y0224436D01*
X0205505Y0226835D02*
X0170079Y0226835D01*
X0169696Y0229233D02*
X0205888Y0229233D01*
X0206831Y0231632D02*
X0168753Y0231632D01*
X0169747Y0234030D02*
X0205837Y0234030D01*
X0205505Y0236429D02*
X0170079Y0236429D01*
X0169864Y0238827D02*
X0205720Y0238827D01*
X0206713Y0241226D02*
X0168871Y0241226D01*
X0169578Y0243624D02*
X0206006Y0243624D01*
X0205505Y0246023D02*
X0170079Y0246023D01*
X0170033Y0248421D02*
X0205551Y0248421D01*
X0206545Y0250820D02*
X0169039Y0250820D01*
X0169410Y0253218D02*
X0206174Y0253218D01*
X0205505Y0255617D02*
X0170079Y0255617D01*
X0170079Y0258015D02*
X0205505Y0258015D01*
X0206377Y0260414D02*
X0169207Y0260414D01*
X0169242Y0262812D02*
X0206342Y0262812D01*
X0205505Y0265211D02*
X0170079Y0265211D01*
X0170079Y0267609D02*
X0205505Y0267609D01*
X0206209Y0270008D02*
X0169375Y0270008D01*
X0169074Y0272406D02*
X0206510Y0272406D01*
X0202193Y0274805D02*
X0170067Y0274805D01*
X0170079Y0277203D02*
X0199795Y0277203D01*
X0199049Y0279602D02*
X0169544Y0279602D01*
X0168906Y0282000D02*
X0199049Y0282000D01*
X0199049Y0284399D02*
X0169899Y0284399D01*
X0170079Y0286797D02*
X0200201Y0286797D01*
X0199049Y0289196D02*
X0169712Y0289196D01*
X0168677Y0291594D02*
X0199049Y0291594D01*
X0199049Y0293993D02*
X0167566Y0293993D01*
X0168079Y0296391D02*
X0200248Y0296391D01*
X0202646Y0298790D02*
X0167715Y0298790D01*
X0168079Y0296571D02*
X0157792Y0296571D01*
X0157792Y0296571D01*
X0157792Y0296571D01*
X0147505Y0296571D01*
X0147505Y0297013D01*
X0147621Y0297889D01*
X0147850Y0298743D01*
X0148188Y0299560D01*
X0148447Y0300008D01*
X0146836Y0301618D01*
X0145505Y0304832D01*
X0145505Y0308310D01*
X0146836Y0311524D01*
X0146884Y0311571D01*
X0146836Y0311618D01*
X0145505Y0314832D01*
X0145505Y0318310D01*
X0146836Y0321524D01*
X0146884Y0321571D01*
X0146836Y0321618D01*
X0145505Y0324832D01*
X0145505Y0325412D01*
X0143862Y0323768D01*
X0142780Y0323768D01*
X0142780Y0312015D01*
X0142768Y0311985D01*
X0142768Y0296461D01*
X0145830Y0296461D01*
X0147834Y0294457D01*
X0147621Y0295252D01*
X0147505Y0296129D01*
X0147505Y0296571D01*
X0157792Y0296571D01*
X0168079Y0296571D01*
X0168318Y0301188D02*
X0206698Y0301188D01*
X0206021Y0303587D02*
X0169563Y0303587D01*
X0170079Y0305985D02*
X0205505Y0305985D01*
X0205536Y0308384D02*
X0170048Y0308384D01*
X0169054Y0310782D02*
X0206529Y0310782D01*
X0206189Y0313181D02*
X0169395Y0313181D01*
X0170079Y0315579D02*
X0205505Y0315579D01*
X0205505Y0317978D02*
X0170079Y0317978D01*
X0169223Y0320376D02*
X0206361Y0320376D01*
X0206357Y0322775D02*
X0169227Y0322775D01*
X0170079Y0325173D02*
X0205505Y0325173D01*
X0205505Y0327572D02*
X0170079Y0327572D01*
X0169391Y0329971D02*
X0206193Y0329971D01*
X0207682Y0332369D02*
X0167902Y0332369D01*
X0164394Y0334768D02*
X0211190Y0334768D01*
X0224394Y0334768D02*
X0268379Y0334768D01*
X0268379Y0337166D02*
X0146463Y0337166D01*
X0148548Y0334768D02*
X0151190Y0334768D01*
X0144065Y0339565D02*
X0268379Y0339565D01*
X0268379Y0332369D02*
X0227902Y0332369D01*
X0229391Y0329971D02*
X0270101Y0329971D01*
X0272500Y0327572D02*
X0230079Y0327572D01*
X0230079Y0325173D02*
X0231475Y0325173D01*
X0240565Y0325173D02*
X0257066Y0325173D01*
X0253941Y0322775D02*
X0243690Y0322775D01*
X0245283Y0320376D02*
X0252348Y0320376D01*
X0251576Y0317978D02*
X0246055Y0317978D01*
X0246220Y0315579D02*
X0251411Y0315579D01*
X0251812Y0313181D02*
X0245820Y0313181D01*
X0244775Y0310782D02*
X0252857Y0310782D01*
X0240942Y0304209D02*
X0236020Y0309130D01*
X0236020Y0316020D01*
X0240942Y0304209D02*
X0320430Y0304209D01*
X0324367Y0308146D01*
X0331635Y0313181D02*
X0349927Y0313181D01*
X0351592Y0314846D02*
X0347667Y0310921D01*
X0347667Y0308146D01*
X0354367Y0308146D01*
X0354367Y0308146D01*
X0354367Y0314846D01*
X0357142Y0314846D01*
X0361067Y0310921D01*
X0361067Y0308146D01*
X0354367Y0308146D01*
X0354367Y0308146D01*
X0354367Y0314846D01*
X0351592Y0314846D01*
X0354367Y0313181D02*
X0354367Y0313181D01*
X0354367Y0310782D02*
X0354367Y0310782D01*
X0354367Y0308384D02*
X0354367Y0308384D01*
X0354367Y0308146D02*
X0354367Y0308146D01*
X0361067Y0308146D01*
X0361067Y0305370D01*
X0357142Y0301446D01*
X0354367Y0301446D01*
X0354367Y0308146D01*
X0354367Y0308146D01*
X0347667Y0308146D01*
X0347667Y0305370D01*
X0351592Y0301446D01*
X0354367Y0301446D01*
X0354367Y0308146D01*
X0354367Y0305985D02*
X0354367Y0305985D01*
X0354367Y0303587D02*
X0354367Y0303587D01*
X0359283Y0303587D02*
X0416344Y0303587D01*
X0416344Y0305985D02*
X0361067Y0305985D01*
X0361067Y0308384D02*
X0416344Y0308384D01*
X0416344Y0310782D02*
X0361067Y0310782D01*
X0358807Y0313181D02*
X0416344Y0313181D01*
X0416344Y0315579D02*
X0329237Y0315579D01*
X0333067Y0310782D02*
X0347667Y0310782D01*
X0347667Y0308384D02*
X0333067Y0308384D01*
X0333067Y0305985D02*
X0347667Y0305985D01*
X0349450Y0303587D02*
X0332112Y0303587D01*
X0329713Y0301188D02*
X0416344Y0301188D01*
X0416344Y0298790D02*
X0324062Y0298790D01*
X0319134Y0291594D02*
X0271331Y0291594D01*
X0271811Y0289196D02*
X0316735Y0289196D01*
X0315667Y0286797D02*
X0271725Y0286797D01*
X0271044Y0284399D02*
X0315191Y0284399D01*
X0316493Y0276650D02*
X0244879Y0276650D01*
X0236020Y0285508D01*
X0236020Y0288461D01*
X0230964Y0279602D02*
X0229544Y0279602D01*
X0230079Y0277203D02*
X0235274Y0277203D01*
X0237672Y0274805D02*
X0230067Y0274805D01*
X0229074Y0272406D02*
X0240071Y0272406D01*
X0240648Y0270008D02*
X0256983Y0270008D01*
X0253894Y0267609D02*
X0243738Y0267609D01*
X0245310Y0265211D02*
X0252321Y0265211D01*
X0251563Y0262812D02*
X0246068Y0262812D01*
X0246220Y0260414D02*
X0251411Y0260414D01*
X0251824Y0258015D02*
X0245807Y0258015D01*
X0244747Y0255617D02*
X0252884Y0255617D01*
X0254869Y0253218D02*
X0242762Y0253218D01*
X0242420Y0250820D02*
X0259827Y0250820D01*
X0263394Y0250820D02*
X0305234Y0250820D01*
X0307632Y0253218D02*
X0268352Y0253218D01*
X0270338Y0255617D02*
X0310031Y0255617D01*
X0312429Y0258015D02*
X0271397Y0258015D01*
X0271811Y0260414D02*
X0314828Y0260414D01*
X0315667Y0262812D02*
X0271659Y0262812D01*
X0270901Y0265211D02*
X0316372Y0265211D01*
X0318771Y0267609D02*
X0269328Y0267609D01*
X0266239Y0270008D02*
X0416344Y0270008D01*
X0416344Y0272406D02*
X0321300Y0272406D01*
X0323699Y0274805D02*
X0416344Y0274805D01*
X0416344Y0277203D02*
X0329350Y0277203D01*
X0331749Y0279602D02*
X0349813Y0279602D01*
X0351592Y0277824D02*
X0347667Y0281748D01*
X0347667Y0284524D01*
X0354367Y0284524D01*
X0354367Y0284524D01*
X0354367Y0291224D01*
X0357142Y0291224D01*
X0361067Y0287299D01*
X0361067Y0284524D01*
X0354367Y0284524D01*
X0354367Y0284524D01*
X0354367Y0291224D01*
X0351592Y0291224D01*
X0347667Y0287299D01*
X0347667Y0284524D01*
X0354367Y0284524D01*
X0361067Y0284524D01*
X0361067Y0281748D01*
X0357142Y0277824D01*
X0354367Y0277824D01*
X0354367Y0284523D01*
X0354367Y0284523D01*
X0354367Y0277824D01*
X0351592Y0277824D01*
X0354367Y0279602D02*
X0354367Y0279602D01*
X0354367Y0282000D02*
X0354367Y0282000D01*
X0354367Y0284399D02*
X0354367Y0284399D01*
X0354367Y0284524D02*
X0354367Y0284524D01*
X0354367Y0286797D02*
X0354367Y0286797D01*
X0354367Y0289196D02*
X0354367Y0289196D01*
X0359170Y0289196D02*
X0416344Y0289196D01*
X0416344Y0291594D02*
X0329600Y0291594D01*
X0331998Y0289196D02*
X0349564Y0289196D01*
X0347667Y0286797D02*
X0333067Y0286797D01*
X0333067Y0284399D02*
X0347667Y0284399D01*
X0347667Y0282000D02*
X0333067Y0282000D01*
X0324367Y0284524D02*
X0316493Y0276650D01*
X0329963Y0267609D02*
X0416344Y0267609D01*
X0416344Y0265211D02*
X0359533Y0265211D01*
X0361067Y0263677D02*
X0357142Y0267602D01*
X0354367Y0267602D01*
X0354367Y0260902D01*
X0354367Y0260902D01*
X0361067Y0260902D01*
X0361067Y0263677D01*
X0361067Y0262812D02*
X0416344Y0262812D01*
X0416344Y0260414D02*
X0361067Y0260414D01*
X0361067Y0260902D02*
X0361067Y0258126D01*
X0357142Y0254202D01*
X0354367Y0254202D01*
X0354367Y0260901D01*
X0354367Y0260901D01*
X0354367Y0260902D02*
X0354367Y0260902D01*
X0354367Y0267602D01*
X0351592Y0267602D01*
X0347667Y0263677D01*
X0347667Y0260902D01*
X0354367Y0260902D01*
X0361067Y0260902D01*
X0360956Y0258015D02*
X0416344Y0258015D01*
X0416344Y0255617D02*
X0358557Y0255617D01*
X0354367Y0255617D02*
X0354367Y0255617D01*
X0354367Y0254202D02*
X0354367Y0260901D01*
X0354367Y0260902D02*
X0347667Y0260902D01*
X0347667Y0258126D01*
X0351592Y0254202D01*
X0354367Y0254202D01*
X0354367Y0258015D02*
X0354367Y0258015D01*
X0354367Y0260414D02*
X0354367Y0260414D01*
X0354367Y0260902D02*
X0354367Y0260902D01*
X0354367Y0262812D02*
X0354367Y0262812D01*
X0354367Y0265211D02*
X0354367Y0265211D01*
X0349201Y0265211D02*
X0332361Y0265211D01*
X0333067Y0262812D02*
X0347667Y0262812D01*
X0347667Y0260414D02*
X0333067Y0260414D01*
X0333067Y0258015D02*
X0347778Y0258015D01*
X0350176Y0255617D02*
X0331386Y0255617D01*
X0328987Y0253218D02*
X0416344Y0253218D01*
X0416344Y0250820D02*
X0323336Y0250820D01*
X0320937Y0248421D02*
X0416344Y0248421D01*
X0416344Y0246023D02*
X0318539Y0246023D01*
X0316140Y0243624D02*
X0416344Y0243624D01*
X0416344Y0241226D02*
X0313742Y0241226D01*
X0311343Y0238827D02*
X0416344Y0238827D01*
X0416344Y0236429D02*
X0308945Y0236429D01*
X0304682Y0241217D02*
X0240942Y0241217D01*
X0236020Y0246138D01*
X0236020Y0260902D01*
X0231393Y0270008D02*
X0229375Y0270008D01*
X0242788Y0248421D02*
X0302835Y0248421D01*
X0304682Y0241217D02*
X0324367Y0260902D01*
X0358920Y0279602D02*
X0416344Y0279602D01*
X0416344Y0282000D02*
X0361067Y0282000D01*
X0361067Y0284399D02*
X0416344Y0284399D01*
X0416344Y0286797D02*
X0361067Y0286797D01*
X0319497Y0315579D02*
X0271811Y0315579D01*
X0271646Y0317978D02*
X0416344Y0317978D01*
X0416344Y0320376D02*
X0270873Y0320376D01*
X0269281Y0322775D02*
X0416344Y0322775D01*
X0416344Y0325173D02*
X0411709Y0325173D01*
X0414108Y0327572D02*
X0416344Y0327572D01*
X0396631Y0325173D02*
X0289977Y0325173D01*
X0292375Y0327572D02*
X0394232Y0327572D01*
X0391834Y0329971D02*
X0294774Y0329971D01*
X0296496Y0332369D02*
X0303321Y0332369D01*
X0300923Y0334768D02*
X0296496Y0334768D01*
X0296496Y0337166D02*
X0299776Y0337166D01*
X0299776Y0339565D02*
X0296496Y0339565D01*
X0274899Y0325173D02*
X0266156Y0325173D01*
X0271410Y0313181D02*
X0317098Y0313181D01*
X0315667Y0310782D02*
X0270365Y0310782D01*
X0268105Y0296391D02*
X0416344Y0296391D01*
X0416344Y0293993D02*
X0270195Y0293993D01*
X0324231Y0332369D02*
X0390112Y0332369D01*
X0390112Y0334768D02*
X0326630Y0334768D01*
X0327776Y0337166D02*
X0390112Y0337166D01*
X0390112Y0339565D02*
X0327776Y0339565D01*
X0416344Y0234030D02*
X0239099Y0234030D01*
X0239099Y0231632D02*
X0416344Y0231632D01*
X0416344Y0229233D02*
X0238303Y0229233D01*
X0237099Y0226835D02*
X0416344Y0226835D01*
X0416344Y0224436D02*
X0237099Y0224436D01*
X0237099Y0222038D02*
X0275484Y0222038D01*
X0272222Y0219639D02*
X0237099Y0219639D01*
X0237099Y0217240D02*
X0270842Y0217240D01*
X0270238Y0214842D02*
X0236453Y0214842D01*
X0234433Y0212443D02*
X0270238Y0212443D01*
X0271180Y0210045D02*
X0232035Y0210045D01*
X0229636Y0207646D02*
X0271010Y0207646D01*
X0270238Y0205248D02*
X0227238Y0205248D01*
X0224839Y0202849D02*
X0270238Y0202849D01*
X0271012Y0200451D02*
X0227112Y0200451D01*
X0227697Y0198052D02*
X0271178Y0198052D01*
X0270238Y0195654D02*
X0227697Y0195654D01*
X0227697Y0193255D02*
X0270238Y0193255D01*
X0270844Y0190857D02*
X0226706Y0190857D01*
X0227697Y0188458D02*
X0271346Y0188458D01*
X0270353Y0186060D02*
X0227697Y0186060D01*
X0227697Y0183661D02*
X0270238Y0183661D01*
X0270676Y0181263D02*
X0226550Y0181263D01*
X0227697Y0178864D02*
X0271515Y0178864D01*
X0270521Y0176466D02*
X0227697Y0176466D01*
X0227697Y0174067D02*
X0270238Y0174067D01*
X0270508Y0171669D02*
X0226956Y0171669D01*
X0227697Y0169270D02*
X0271501Y0169270D01*
X0270689Y0166872D02*
X0227697Y0166872D01*
X0227697Y0164473D02*
X0270238Y0164473D01*
X0270340Y0162075D02*
X0227362Y0162075D01*
X0227697Y0159676D02*
X0271333Y0159676D01*
X0270857Y0157278D02*
X0227697Y0157278D01*
X0227697Y0154879D02*
X0270238Y0154879D01*
X0270238Y0152481D02*
X0227697Y0152481D01*
X0227481Y0150082D02*
X0271165Y0150082D01*
X0271025Y0147684D02*
X0227697Y0147684D01*
X0227697Y0145285D02*
X0270238Y0145285D01*
X0270238Y0142887D02*
X0227697Y0142887D01*
X0227075Y0140488D02*
X0270997Y0140488D01*
X0271194Y0138090D02*
X0227697Y0138090D01*
X0227697Y0135691D02*
X0270238Y0135691D01*
X0270238Y0133293D02*
X0227697Y0133293D01*
X0226669Y0130894D02*
X0270829Y0130894D01*
X0271362Y0128496D02*
X0227697Y0128496D01*
X0227697Y0126097D02*
X0270368Y0126097D01*
X0270238Y0123699D02*
X0227697Y0123699D01*
X0226588Y0121300D02*
X0270660Y0121300D01*
X0271530Y0118902D02*
X0227697Y0118902D01*
X0227697Y0116503D02*
X0270536Y0116503D01*
X0270238Y0114105D02*
X0227697Y0114105D01*
X0226994Y0111706D02*
X0270492Y0111706D01*
X0271486Y0109307D02*
X0227697Y0109307D01*
X0227697Y0106909D02*
X0270705Y0106909D01*
X0270238Y0104510D02*
X0227697Y0104510D01*
X0227400Y0102112D02*
X0270324Y0102112D01*
X0271318Y0099713D02*
X0227697Y0099713D01*
X0227697Y0097315D02*
X0270873Y0097315D01*
X0270238Y0094916D02*
X0227697Y0094916D01*
X0227697Y0092518D02*
X0270238Y0092518D01*
X0271149Y0090119D02*
X0227444Y0090119D01*
X0227697Y0087721D02*
X0271041Y0087721D01*
X0270238Y0085322D02*
X0227697Y0085322D01*
X0227697Y0082924D02*
X0270238Y0082924D01*
X0270981Y0080525D02*
X0227038Y0080525D01*
X0227697Y0078127D02*
X0271209Y0078127D01*
X0270238Y0075728D02*
X0227697Y0075728D01*
X0227697Y0073330D02*
X0270238Y0073330D01*
X0270813Y0070931D02*
X0226632Y0070931D01*
X0227697Y0068533D02*
X0271377Y0068533D01*
X0270384Y0066134D02*
X0227697Y0066134D01*
X0227697Y0063736D02*
X0270238Y0063736D01*
X0270645Y0061337D02*
X0226625Y0061337D01*
X0227697Y0058939D02*
X0271746Y0058939D01*
X0274336Y0056540D02*
X0227697Y0056540D01*
X0227697Y0054142D02*
X0274143Y0054142D01*
X0271744Y0051743D02*
X0227031Y0051743D01*
X0227697Y0049345D02*
X0228701Y0049345D01*
X0237434Y0049345D02*
X0269346Y0049345D01*
X0268379Y0046946D02*
X0239833Y0046946D01*
X0241068Y0044548D02*
X0268379Y0044548D01*
X0268379Y0042149D02*
X0241068Y0042149D01*
X0241068Y0039751D02*
X0268379Y0039751D01*
X0290732Y0054142D02*
X0395875Y0054142D01*
X0398274Y0056540D02*
X0290539Y0056540D01*
X0293129Y0058939D02*
X0416344Y0058939D01*
X0416344Y0061337D02*
X0294230Y0061337D01*
X0294638Y0063736D02*
X0416344Y0063736D01*
X0416344Y0066134D02*
X0294492Y0066134D01*
X0293498Y0068533D02*
X0416344Y0068533D01*
X0416344Y0070931D02*
X0294062Y0070931D01*
X0294638Y0073330D02*
X0416344Y0073330D01*
X0416344Y0075728D02*
X0294638Y0075728D01*
X0293666Y0078127D02*
X0416344Y0078127D01*
X0416344Y0080525D02*
X0293894Y0080525D01*
X0294638Y0082924D02*
X0416344Y0082924D01*
X0416344Y0085322D02*
X0294638Y0085322D01*
X0293834Y0087721D02*
X0416344Y0087721D01*
X0416344Y0090119D02*
X0293726Y0090119D01*
X0294638Y0092518D02*
X0416344Y0092518D01*
X0416344Y0094916D02*
X0294638Y0094916D01*
X0294003Y0097315D02*
X0416344Y0097315D01*
X0416344Y0099713D02*
X0293558Y0099713D01*
X0294551Y0102112D02*
X0416344Y0102112D01*
X0416344Y0104510D02*
X0294638Y0104510D01*
X0294171Y0106909D02*
X0416344Y0106909D01*
X0416344Y0109307D02*
X0293390Y0109307D01*
X0294383Y0111706D02*
X0416344Y0111706D01*
X0416344Y0114105D02*
X0294638Y0114105D01*
X0294339Y0116503D02*
X0416344Y0116503D01*
X0416344Y0118902D02*
X0293345Y0118902D01*
X0294215Y0121300D02*
X0416344Y0121300D01*
X0416344Y0123699D02*
X0294638Y0123699D01*
X0294507Y0126097D02*
X0416344Y0126097D01*
X0416344Y0128496D02*
X0293514Y0128496D01*
X0294047Y0130894D02*
X0416344Y0130894D01*
X0416344Y0133293D02*
X0294638Y0133293D01*
X0294638Y0135691D02*
X0416344Y0135691D01*
X0416344Y0138090D02*
X0293682Y0138090D01*
X0293879Y0140488D02*
X0416344Y0140488D01*
X0416344Y0142887D02*
X0294638Y0142887D01*
X0294638Y0145285D02*
X0416344Y0145285D01*
X0416344Y0147684D02*
X0293850Y0147684D01*
X0293710Y0150082D02*
X0416344Y0150082D01*
X0416344Y0152481D02*
X0294638Y0152481D01*
X0294638Y0154879D02*
X0416344Y0154879D01*
X0416344Y0157278D02*
X0294018Y0157278D01*
X0293542Y0159676D02*
X0416344Y0159676D01*
X0416344Y0162075D02*
X0294536Y0162075D01*
X0294638Y0164473D02*
X0416344Y0164473D01*
X0416344Y0166872D02*
X0294186Y0166872D01*
X0293374Y0169270D02*
X0416344Y0169270D01*
X0416344Y0171669D02*
X0294368Y0171669D01*
X0294638Y0174067D02*
X0416344Y0174067D01*
X0416344Y0176466D02*
X0294354Y0176466D01*
X0293361Y0178864D02*
X0416344Y0178864D01*
X0416344Y0181263D02*
X0294199Y0181263D01*
X0294638Y0183661D02*
X0416344Y0183661D01*
X0416344Y0186060D02*
X0294522Y0186060D01*
X0293529Y0188458D02*
X0416344Y0188458D01*
X0416344Y0190857D02*
X0294031Y0190857D01*
X0294638Y0193255D02*
X0416344Y0193255D01*
X0416344Y0195654D02*
X0294638Y0195654D01*
X0293697Y0198052D02*
X0416344Y0198052D01*
X0416344Y0200451D02*
X0293863Y0200451D01*
X0294638Y0202849D02*
X0416344Y0202849D01*
X0416344Y0205248D02*
X0294638Y0205248D01*
X0293865Y0207646D02*
X0416344Y0207646D01*
X0416344Y0210045D02*
X0293695Y0210045D01*
X0294638Y0212443D02*
X0416344Y0212443D01*
X0416344Y0214842D02*
X0294638Y0214842D01*
X0294033Y0217240D02*
X0416344Y0217240D01*
X0416344Y0219639D02*
X0292653Y0219639D01*
X0289391Y0222038D02*
X0416344Y0222038D01*
X0416344Y0056540D02*
X0410066Y0056540D01*
X0412465Y0054142D02*
X0416344Y0054142D01*
X0416344Y0051743D02*
X0414863Y0051743D01*
X0393477Y0051743D02*
X0293131Y0051743D01*
X0295529Y0049345D02*
X0308901Y0049345D01*
X0306502Y0046946D02*
X0296496Y0046946D01*
X0296496Y0044548D02*
X0304104Y0044548D01*
X0303713Y0042149D02*
X0296496Y0042149D01*
X0296496Y0039751D02*
X0303713Y0039751D01*
X0316526Y0049345D02*
X0318901Y0049345D01*
X0326526Y0049345D02*
X0391078Y0049345D01*
X0390112Y0046946D02*
X0328924Y0046946D01*
X0331323Y0044548D02*
X0390112Y0044548D01*
X0390112Y0042149D02*
X0331713Y0042149D01*
X0331713Y0039751D02*
X0390112Y0039751D01*
X0199509Y0092518D02*
X0197904Y0092518D01*
X0199509Y0094916D02*
X0195505Y0094916D01*
X0193107Y0097315D02*
X0199509Y0097315D01*
X0199509Y0099713D02*
X0190596Y0099713D01*
X0105640Y0046946D02*
X0099209Y0046946D01*
X0101608Y0044548D02*
X0106447Y0044548D01*
X0043579Y0224436D02*
X0043579Y0224436D01*
X0043579Y0226835D02*
X0043579Y0226835D01*
X0043579Y0229233D02*
X0043579Y0229233D01*
X0045468Y0274776D02*
X0043468Y0276776D01*
X0036840Y0276776D01*
X0034043Y0273978D01*
X0034043Y0298486D01*
X0034486Y0297417D01*
X0036244Y0295659D01*
X0035856Y0294987D01*
X0035536Y0294215D01*
X0035320Y0293408D01*
X0035211Y0292579D01*
X0035211Y0292161D01*
X0035211Y0291744D01*
X0035320Y0290915D01*
X0035536Y0290108D01*
X0035856Y0289336D01*
X0036274Y0288612D01*
X0036783Y0287949D01*
X0037373Y0287358D01*
X0038036Y0286850D01*
X0038760Y0286432D01*
X0039532Y0286112D01*
X0040339Y0285896D01*
X0041168Y0285787D01*
X0044760Y0285787D01*
X0044760Y0292161D01*
X0035211Y0292161D01*
X0044760Y0292161D01*
X0044760Y0292161D01*
X0044761Y0292161D01*
X0044761Y0292161D01*
X0054310Y0292161D01*
X0054310Y0291744D01*
X0054201Y0290915D01*
X0053985Y0290108D01*
X0053665Y0289336D01*
X0053247Y0288612D01*
X0052738Y0287949D01*
X0052148Y0287358D01*
X0051485Y0286850D01*
X0050761Y0286432D01*
X0049989Y0286112D01*
X0049182Y0285896D01*
X0048353Y0285787D01*
X0044761Y0285787D01*
X0044761Y0292161D01*
X0054310Y0292161D01*
X0054310Y0292579D01*
X0054201Y0293408D01*
X0053985Y0294215D01*
X0053665Y0294987D01*
X0053277Y0295659D01*
X0055035Y0297417D01*
X0056310Y0300496D01*
X0056310Y0303827D01*
X0055035Y0306905D01*
X0054779Y0307161D01*
X0055035Y0307417D01*
X0056310Y0310496D01*
X0056310Y0313827D01*
X0055035Y0316905D01*
X0054779Y0317161D01*
X0055035Y0317417D01*
X0056310Y0320496D01*
X0056310Y0323827D01*
X0055035Y0326905D01*
X0052679Y0329261D01*
X0049601Y0330536D01*
X0039920Y0330536D01*
X0036842Y0329261D01*
X0034486Y0326905D01*
X0034043Y0325837D01*
X0034043Y0341816D01*
X0045934Y0341816D01*
X0045934Y0336328D01*
X0050620Y0331642D01*
X0057247Y0331642D01*
X0060816Y0335210D01*
X0075545Y0335210D01*
X0075545Y0330536D01*
X0069920Y0330536D01*
X0066842Y0329261D01*
X0064486Y0326905D01*
X0063211Y0323827D01*
X0063211Y0320496D01*
X0064486Y0317417D01*
X0064742Y0317161D01*
X0064486Y0316905D01*
X0063211Y0313827D01*
X0063211Y0310496D01*
X0064486Y0307417D01*
X0064742Y0307161D01*
X0064486Y0306905D01*
X0063211Y0303827D01*
X0063211Y0300496D01*
X0064486Y0297417D01*
X0064742Y0297161D01*
X0064486Y0296905D01*
X0063211Y0293827D01*
X0063211Y0290496D01*
X0064002Y0288587D01*
X0060463Y0288587D01*
X0055776Y0283900D01*
X0055776Y0281072D01*
X0049480Y0274776D01*
X0045468Y0274776D01*
X0045439Y0274805D02*
X0049509Y0274805D01*
X0051908Y0277203D02*
X0034043Y0277203D01*
X0034043Y0274805D02*
X0034870Y0274805D01*
X0034043Y0279602D02*
X0054306Y0279602D01*
X0055776Y0282000D02*
X0034043Y0282000D01*
X0034043Y0284399D02*
X0056275Y0284399D01*
X0058673Y0286797D02*
X0051394Y0286797D01*
X0053584Y0289196D02*
X0063749Y0289196D01*
X0063211Y0291594D02*
X0054290Y0291594D01*
X0054044Y0293993D02*
X0063279Y0293993D01*
X0064273Y0296391D02*
X0054009Y0296391D01*
X0055604Y0298790D02*
X0063917Y0298790D01*
X0063211Y0301188D02*
X0056310Y0301188D01*
X0056310Y0303587D02*
X0063211Y0303587D01*
X0064105Y0305985D02*
X0055416Y0305985D01*
X0055435Y0308384D02*
X0064086Y0308384D01*
X0063211Y0310782D02*
X0056310Y0310782D01*
X0056310Y0313181D02*
X0063211Y0313181D01*
X0063937Y0315579D02*
X0055584Y0315579D01*
X0055267Y0317978D02*
X0064254Y0317978D01*
X0063260Y0320376D02*
X0056261Y0320376D01*
X0056310Y0322775D02*
X0063211Y0322775D01*
X0063769Y0325173D02*
X0055752Y0325173D01*
X0054368Y0327572D02*
X0065153Y0327572D01*
X0068554Y0329971D02*
X0050967Y0329971D01*
X0049893Y0332369D02*
X0034043Y0332369D01*
X0034043Y0329971D02*
X0038554Y0329971D01*
X0035153Y0327572D02*
X0034043Y0327572D01*
X0034043Y0334768D02*
X0047494Y0334768D01*
X0045934Y0337166D02*
X0034043Y0337166D01*
X0034043Y0339565D02*
X0045934Y0339565D01*
X0053934Y0339642D02*
X0055902Y0341610D01*
X0109052Y0341610D01*
X0114957Y0335705D01*
X0122957Y0334768D02*
X0132548Y0334768D01*
X0132548Y0332369D02*
X0122935Y0332369D01*
X0121303Y0329971D02*
X0131102Y0329971D01*
X0134633Y0337166D02*
X0122957Y0337166D01*
X0122411Y0339565D02*
X0137031Y0339565D01*
X0145267Y0325173D02*
X0145505Y0325173D01*
X0146357Y0322775D02*
X0142780Y0322775D01*
X0142780Y0320376D02*
X0146361Y0320376D01*
X0145505Y0317978D02*
X0142780Y0317978D01*
X0142780Y0315579D02*
X0145505Y0315579D01*
X0146189Y0313181D02*
X0142780Y0313181D01*
X0142768Y0310782D02*
X0146529Y0310782D01*
X0145536Y0308384D02*
X0142768Y0308384D01*
X0142768Y0305985D02*
X0145505Y0305985D01*
X0146021Y0303587D02*
X0142768Y0303587D01*
X0142768Y0301188D02*
X0147266Y0301188D01*
X0147869Y0298790D02*
X0142768Y0298790D01*
X0145899Y0296391D02*
X0147505Y0296391D01*
X0118894Y0300272D02*
X0116926Y0298303D01*
X0116926Y0284524D01*
X0112989Y0280587D01*
X0095272Y0280587D01*
X0085430Y0290429D01*
X0097910Y0291374D02*
X0097910Y0291374D01*
X0107460Y0291374D01*
X0107460Y0291792D01*
X0107351Y0292620D01*
X0107134Y0293428D01*
X0106815Y0294200D01*
X0106426Y0294872D01*
X0108185Y0296630D01*
X0109460Y0299708D01*
X0109460Y0303040D01*
X0108185Y0306118D01*
X0107929Y0306374D01*
X0108185Y0306630D01*
X0109460Y0309708D01*
X0109460Y0313040D01*
X0108185Y0316118D01*
X0107929Y0316374D01*
X0108185Y0316630D01*
X0109460Y0319708D01*
X0109460Y0321831D01*
X0112472Y0321831D01*
X0112894Y0321408D01*
X0112894Y0319365D01*
X0110894Y0317365D01*
X0110894Y0310737D01*
X0114470Y0307161D01*
X0110894Y0303585D01*
X0110894Y0300466D01*
X0110526Y0299576D01*
X0110526Y0287175D01*
X0110338Y0286987D01*
X0105713Y0286987D01*
X0105888Y0287162D01*
X0106397Y0287825D01*
X0106815Y0288548D01*
X0107134Y0289320D01*
X0107351Y0290128D01*
X0107460Y0290956D01*
X0107460Y0291374D01*
X0097910Y0291374D01*
X0106900Y0293993D02*
X0110526Y0293993D01*
X0110526Y0296391D02*
X0107946Y0296391D01*
X0109079Y0298790D02*
X0110526Y0298790D01*
X0110894Y0301188D02*
X0109460Y0301188D01*
X0109233Y0303587D02*
X0110896Y0303587D01*
X0113294Y0305985D02*
X0108240Y0305985D01*
X0108911Y0308384D02*
X0113248Y0308384D01*
X0110894Y0310782D02*
X0109460Y0310782D01*
X0109401Y0313181D02*
X0110894Y0313181D01*
X0110894Y0315579D02*
X0108408Y0315579D01*
X0108743Y0317978D02*
X0111507Y0317978D01*
X0112894Y0320376D02*
X0109460Y0320376D01*
X0110526Y0291594D02*
X0107460Y0291594D01*
X0107083Y0289196D02*
X0110526Y0289196D01*
X0075545Y0332369D02*
X0057975Y0332369D01*
X0060373Y0334768D02*
X0075545Y0334768D01*
X0035512Y0296391D02*
X0034043Y0296391D01*
X0034043Y0293993D02*
X0035477Y0293993D01*
X0035231Y0291594D02*
X0034043Y0291594D01*
X0034043Y0289196D02*
X0035937Y0289196D01*
X0034043Y0286797D02*
X0038127Y0286797D01*
X0044760Y0286797D02*
X0044761Y0286797D01*
X0044760Y0289196D02*
X0044761Y0289196D01*
X0044760Y0291594D02*
X0044761Y0291594D01*
D26*
X0235036Y0339642D03*
D27*
X0118757Y0244976D03*
X0108457Y0239827D03*
M02*
